<svg xmlns="http://www.w3.org/2000/svg" xml:space="preserve" width="400" height="400"><defs><clipPath id="a" clipPathUnits="userSpaceOnUse"><path d="M107.621 3001.45c0-55.128 44.69-99.818 99.818-99.818 55.129 0 99.819 44.69 99.819 99.818 0 55.129-44.69 99.819-99.819 99.819-55.128 0-99.818-44.69-99.818-99.819"/></clipPath><clipPath id="c" clipPathUnits="userSpaceOnUse"><path d="M0 0h1133.858v4535.433H0Z"/></clipPath><clipPath id="d" clipPathUnits="userSpaceOnUse"><path d="M230.017 3084.035c2.507-1.523 5.367-3.49 8.417-2.417-.991.624-1.971 1.07-3.223.894-1.445.207-2.837 2.157-4.094 2.156-.379 0-.747-.177-1.1-.633"/></clipPath><clipPath id="f" clipPathUnits="userSpaceOnUse"><path d="M0 0h1133.858v4535.433H0Z"/></clipPath><clipPath id="g" clipPathUnits="userSpaceOnUse"><path d="M225.898 3079.917c-.538-2.864 2.507.803 3.937.891v.628c-.29.076-.562.111-.82.111-1.249 0-2.151-.815-3.117-1.63"/></clipPath><clipPath id="i" clipPathUnits="userSpaceOnUse"><path d="M0 0h1133.858v4535.433H0Z"/></clipPath><clipPath id="j" clipPathUnits="userSpaceOnUse"><path d="M272.455 3067.471c-1.526-1.078-.361-1.967.714-2.595.193.022.407.01.624-.01.584-.044 1.197-.086 1.524.636 1.38 1.427 2.382.613 3.451-.2.806-.613 1.652-1.225 2.73-.881.532.274 1.431.717 1.161 1.527-.898.353-2.24 1.073-3.049.174-1.207-.338-2.27.387-3.264 1.114-.82.599-1.594 1.199-2.361 1.199-.509 0-1.015-.264-1.53-.966"/></clipPath><clipPath id="l" clipPathUnits="userSpaceOnUse"><path d="M0 0h1133.858v4535.433H0Z"/></clipPath><clipPath id="m" clipPathUnits="userSpaceOnUse"><path d="M192.684 3088.147c-3.668-.175-6.266-2.864-9.49-4.293-2.777-2.335-6.895-4.927-7.071-8.416-3.496-2.776-6.718-5.817-10.565-8.237-.716-.898-3.045-1.167-2.152.449-1.522.984-3.309 0-4.916 0-.184-.539.532-.985-.274-1.347-5.549-.712-10.925-3.045-16.564-2.143-3.936 2.324-6.532-2.691-10.113-2.959-.449-3.577-4.656-5.281-7.341-6.893-.625-.717-4.57-7.069-1.073-2.421.805.723 2.419.543 3.224-.174-.093-.445.089-.716.174-1.072-2.865-1.884-4.833-4.926-7.34-7.342-2.236.178-1.609-2.416-2.327-3.671-4.121-7.34-6.173-15.4-7.342-23.9 2.061-.813.536-3.49 1.259-5.018-.54-2.954.174-6.444.264-9.669-3.579-3.581.358-7.702-.264-11.906 2.324-1.076 4.384-3.226 3.49-6.447-1.344-.54-2.24-2.058-3.672-2.327 1.879-7.249 3.756-14.508 7.07-21.132 1.967-.534 4.121-.806 6.269-.621 1.25-1.525 1.878-3.403 2.868-5.017 1.876-5.546 4.917-11.278 10.111-15.311 2.331-1.253 2.415-4.744 5.374-4.917.896-4.032 4.922-5.016 6.711-8.689 3.407.808 5.017-3.313 7.526-4.293 2.234-.63-.365 2.141-1.079 3.038-.534 3.583-5.283 3.045-6.091 6.445-3.579 2.151-1.07 7.344-2.145 9.944-2.595.536-1.251 4.205-1.882 6.264 1.968 2.326 1.434 5.729 2.152 8.594.183 1.433 1.966 2.147 1.875 3.669-1.875 3.048 1.888 5.911.269 9.044-3.127 2.776-7.336 3.134-10.56 5.642.987 2.86-2.416 3.58-3.49 5.369-.775.571-1.977.499-3.162.429-1.974-.12-3.903-.238-3.733 2.614-1.078.092-2.041-.019-3.003-.131-.96-.111-1.92-.223-2.993-.131-1.613 1.25-1.704 3.127-2.777 4.559-1.973.447-4.295-.086-5.819 1.257-1.163 3.403-3.22 6.621-2.591 10.385 4.464 2.323 1.694 6.712 1.875 10.384 1.161 1.165 2.329 2.234 3.673 2.954.087 1.343-.092 2.596-.633 3.67-.979 0-1.521-.898-2.592-.626-1.705 1.703-1.791 4.031-2.323 6.268 3.304 2.416 5.187 8.595 10.291 6.625 4.474-1.701-.808-6.45 3.673-8.147 3.76-2.866-1.257-5.465-2.33-7.79.087-.989-1.073-2.954.805-2.954 1.525 1.701 2.685 3.851 4.297 5.37 2.365-.251 4.507.01 6.629.265 1.649.2 3.286.4 5.007.363.356.087.27.626.717.893.488-.21.991-.105 1.46 0 .732.163 1.381.325 1.76-.709 1.35-.182 2.692.266 3.405 1.07.983-1.7.538-3.757 1.523-5.373 1.43-.535 3.313-.712 4.745-.623 3.762 2.239 1.526-3.135 4.293-3.226 1.884 6.18 1.169 13.968 5.64 19.431-2.5.358-1.338 3.132-1.968 4.739-.355.185-1.52.811-1.07 1.707-1.835.043-3.379-.629-4.934-1.299-1.557-.673-3.126-1.344-5.005-1.299-.446.088-.81.535-.627 1.076.356.891 1.253 1.162 2.149 1.074.534 2.056.716 4.293 1.522 6.265 3.131.27 2.332 5.283 5.64 4.748 3.844.622 3.844-3.586 7.34-3.944.983.81 2.328 2.151 3.4 2.867.363-3.582-2.508-6.086-5.55-7.611.715-2.596-.982-4.832.805-6.891 2.062.983 1.522 3.307 2.777 4.739.721-.444.629-1.161.721-1.695 2.592-.272.266 3.042 1.88 3.847 3.128.447 2.954 3.765 2.863 6.271.715 1.877 2.684 2.504 4.293 3.039 1.055.262 2.232.102 3.374-.06 1.959-.277 3.815-.552 4.775 1.315-.989 2.032-2.113 1.334-3.351.636-.78-.439-1.605-.879-2.47-.636-3.937 1.878 2.063 3.671.273 5.818-2.688-.175-4.749-1.879-7.616-1.879 1.077-2.146-1.696-1.88-2.141-3.939-.361 0-.808.088-1.081.449-1.339 1.073.811.804 1.081 1.523 2.057.803-1.431 3.579 1.519 2.773.088 3.222 5.906 3.849 3.941 7.606-1.79-.714-2.959-2.146-3.941-3.665-.36-.179-.623.18-.807.449 1.704 3.398 5.818 5.907 6.625 9.666 3.044.627 5.371 3.399 8.86 2.327.714 1.52 1.163 3.043 1.256 4.744-2.952-.27.538 3.223-2.148 3.492.447 1.887-.355 6.266 3.044 4.93 3.939.712 7.79.174 11.011 2.148-.909.747-1.759.437-2.659.126-.601-.208-1.227-.415-1.909-.306-4.924.443-9.04-2.335-13.965-2.601-1.432-.895-1.698.633-1.518 1.704 2.59 3.313 6.623 5.727 10.382 7.606.732-.074 1.465.123 2.179.32 1.032.284 2.024.567 2.922.042.897 1.965 3.315.981 5.019 1.519.09.362.717.18.622.715-.815-.181-1.803-.097-2.827-.013-.577.048-1.165.095-1.741.095-1.43 0-2.779-.292-3.667-1.605m-21.931-37.958c-.452-.352 0-1.162-.452-1.521-.804.538-1.429 4.029.452 1.521"/></clipPath><clipPath id="o" clipPathUnits="userSpaceOnUse"><path d="M0 0h1133.858v4535.433H0Z"/></clipPath><clipPath id="p" clipPathUnits="userSpaceOnUse"><path d="M210.141 3041.329c.629-2.601.988-6.357 5.014-5.195-.447.81-1.609.986-1.974 1.974-.563 1.202-.177 3.858-1.539 3.858-.36 0-.844-.187-1.501-.637"/></clipPath><clipPath id="r" clipPathUnits="userSpaceOnUse"><path d="M0 0h1133.858v4535.433H0Z"/></clipPath><clipPath id="s" clipPathUnits="userSpaceOnUse"><path d="M179.795 3039.356c1.695-3.489-1.972-5.371-2.779-8.142-3.042-1.97-2.685-5.913-6.085-7.789-.092-1.521-.806-4.122.627-5.103 5.283 3.044 11.724 3.22 16.828 6.624 1.346 4.205 1.7 8.771 2.418 13.162.182.533-.359.893-.45 1.248-1.072.898-2.859.091-3.671 1.527a8.54 8.54 0 0 1-2.144.285c-1.675 0-3.3-.553-4.744-1.812"/></clipPath><clipPath id="u" clipPathUnits="userSpaceOnUse"><path d="M0 0h1133.858v4535.433H0Z"/></clipPath><clipPath id="v" clipPathUnits="userSpaceOnUse"><path d="M198.329 3033.356c.175-.98 1.163-2.055 2.142-2.326 1.704 1.259-.446 2.601.898 4.033-.399.923-.735 1.269-1.034 1.269-.774-.001-1.298-2.324-2.006-2.976"/></clipPath><clipPath id="x" clipPathUnits="userSpaceOnUse"><path d="M0 0h1133.858v4535.433H0Z"/></clipPath><clipPath id="y" clipPathUnits="userSpaceOnUse"><path d="M295.728 3021.904c-.895-3.23 3.223-2.685 3.672-5.553.803.094.357 1.163.449 1.702-.182 1.522 2.326 1.522 1.7 3.039.326 2.048-1.093 2.96-2.618 2.96-1.406 0-2.902-.776-3.203-2.148"/></clipPath><clipPath id="A" clipPathUnits="userSpaceOnUse"><path d="M0 0h1133.858v4535.433H0Z"/></clipPath><clipPath id="B" clipPathUnits="userSpaceOnUse"><path d="M186.476 3017.942c-.511-.445-1.04-.89-1.489-.786-.538-.537-.807-1.252-.714-2.15 1.072-.448 2.777 0 3.939.451-.093.988.083 1.609.174 2.415-.143.64-.368.872-.642.872-.361 0-.807-.401-1.268-.802"/></clipPath><clipPath id="D" clipPathUnits="userSpaceOnUse"><path d="M0 0h1133.858v4535.433H0Z"/></clipPath><clipPath id="E" clipPathUnits="userSpaceOnUse"><path d="M292.952 3014.202c.804.268 1.881.087 2.153 1.075-1.797.451-3.049 1.879-4.301 3.045-.175-1.793 1.252-2.865 2.148-4.12"/></clipPath><clipPath id="G" clipPathUnits="userSpaceOnUse"><path d="M0 0h1133.858v4535.433H0Z"/></clipPath><clipPath id="H" clipPathUnits="userSpaceOnUse"><path d="M296.178 3013.126c1.25-1.254 2.954-.714 4.296-.27-.494.851-1.367 1.209-2.217 1.209-.85 0-1.677-.357-2.079-.939"/></clipPath><clipPath id="J" clipPathUnits="userSpaceOnUse"><path d="M0 0h1133.858v4535.433H0Z"/></clipPath><clipPath id="K" clipPathUnits="userSpaceOnUse"><path d="M193.759 2997.998c1.61.626 3.136 1.251 4.384 2.593-.715 3.043-3.668 5.102-4.118 8.239-2.325-3.76 1.797-6.98-.266-10.832"/></clipPath><clipPath id="M" clipPathUnits="userSpaceOnUse"><path d="M0 0h1133.858v4535.433H0Z"/></clipPath><clipPath id="N" clipPathUnits="userSpaceOnUse"><path d="M122.052 2999.969c-1.435-1.971.627-3.587 1.428-5.189-2.954-2.514 2.239-4.39 3.043-5.824-.623 1.789-.896 3.849-1.695 5.639-.273.358-2.332.806-1.078 1.703-1.882 3.312-1.522 7.611-3.672 10.742-.359.448-.98.089-1.339.448 1.162-2.508 1.971-5.102 3.313-7.519"/></clipPath><clipPath id="P" clipPathUnits="userSpaceOnUse"><path d="M0 0h1133.858v4535.433H0Z"/></clipPath><clipPath id="Q" clipPathUnits="userSpaceOnUse"><path d="M138.61 3004.266c-.448-.632-1.073-1.523-.173-2.152.127.032.268.017.408 0 .246-.024.491-.05.662.179.076.53.661 2.148-.243 2.148-.165 0-.379-.054-.654-.178"/></clipPath><clipPath id="S" clipPathUnits="userSpaceOnUse"><path d="M0 0h1133.858v4535.433H0Z"/></clipPath><clipPath id="T" clipPathUnits="userSpaceOnUse"><path d="M190.804 3002.566c.182-.898-.627-2.775.803-2.597.806.892.718 2.597.718 4.115-.625 0-1.609-.984-1.521-1.518"/></clipPath><clipPath id="V" clipPathUnits="userSpaceOnUse"><path d="M0 0h1133.858v4535.433H0Z"/></clipPath><clipPath id="W" clipPathUnits="userSpaceOnUse"><path d="M284.358 3003.008c-1.165-.986.629-2.776 1.252-3.935 1.076-.807 1.885.804 1.522 1.701-.532.991-.805 2.368-2.036 2.368-.215 0-.459-.042-.738-.134"/></clipPath><clipPath id="Y" clipPathUnits="userSpaceOnUse"><path d="M0 0h1133.858v4535.433H0Z"/></clipPath><clipPath id="Z" clipPathUnits="userSpaceOnUse"><path d="M231.272 2988.502c-.986-.173-1.792-1.158-1.437-2.146.81-.086 1.348.45 1.886.897.507.428.129 1.256-.371 1.256-.026 0-.052 0-.078-.01"/></clipPath><clipPath id="ab" clipPathUnits="userSpaceOnUse"><path d="M0 0h1133.858v4535.433H0Z"/></clipPath><clipPath id="ac" clipPathUnits="userSpaceOnUse"><path d="M207.988 2985.464c.724 1.88-1.157 1.076-1.692 2.239-.809-1.433.354-3.042 1.692-2.239"/></clipPath><clipPath id="ae" clipPathUnits="userSpaceOnUse"><path d="M0 0h1133.858v4535.433H0Z"/></clipPath><clipPath id="af" clipPathUnits="userSpaceOnUse"><path d="M222.944 2985.105c.805.272 1.791.09 2.332 1.072.176.629-.541.81-.899 1.256-.356-.982-2.597-1.256-1.433-2.328"/></clipPath><clipPath id="ah" clipPathUnits="userSpaceOnUse"><path d="M0 0h1133.858v4535.433H0Z"/></clipPath><clipPath id="ai" clipPathUnits="userSpaceOnUse"><path d="M128.227 2985.909c.447-.804.988-1.966 1.966-2.148-.089.361.269.537.269.9-.62.343-1.348 1.649-1.854 1.649-.149 0-.279-.114-.381-.401"/></clipPath><clipPath id="ak" clipPathUnits="userSpaceOnUse"><path d="M0 0h1133.858v4535.433H0Z"/></clipPath><clipPath id="al" clipPathUnits="userSpaceOnUse"><path d="M236.282 2982.688c-.712.987-1.523 2.058-2.777 2.593-.353-1.338 1.789-2.417 2.777-2.593"/></clipPath><clipPath id="an" clipPathUnits="userSpaceOnUse"><path d="M0 0h1133.858v4535.433H0Z"/></clipPath><clipPath id="ao" clipPathUnits="userSpaceOnUse"><path d="M230.193 2984.032c-3.223-2.24-7.79-1.884-10.921-3.671.181-.626 2.334-1.435.629-2.151-.591.074-1.199-.143-1.777-.359-.822-.306-1.587-.613-2.16-.087.235 2.13-1.329 1.603-2.907 1.078-.811-.271-1.625-.541-2.201-.452-1.43 1.164-.627 3.495-2.418 4.298-5.813-.54-10.473-4.651-16.38-4.298-2.954-1.789-1.789-4.386-2.326-7.072-1.97-1.43-3.941-2.592-6.088-3.494-.45-2.324-3.227-5.099-.63-7.341-1.524-2.326-.715-5.816-.629-8.595 4.389-.174 2.152-5.546 5.827-6.44 3.752-3.944 9.842-2.953 15.036-2.867 1.611 1.253 2.059 2.95 3.67 4.121 1.267.42 2.487-.192 3.721-.805 1.119-.554 2.249-1.108 3.441-.894 5.821 2.053 2.15-5.645 4.75-7.795 1.338.452 3.306 1.254 4.114-.629 1.077-1.427.088-4.65 2.774-4.564v-7.702c1.081-1.877 2.956-3.398 4.117-5.191 1.523-1.519 2.601-4.833 5.376-4.294 1.162-.273.714-1.522.804-2.417.267-.718 1.074-.807 1.523-1.255.896-.894 2.774-5.015 3.226-1.07 4.201 1.07 7.785 3.487 11.275 6.265.896 3.937 2.952 7.608 5.999 10.563.449 1.525.357 3.577-1.07 4.478.531 3.397 3.039 6.082 4.562 9.043-.094 4.568-3.043 7.872-4.387 11.906 3.577 7.517 6.709 15.666 4.746 24.978-2.507-1.163-4.57-3.491-6.625-5.643-1.252-.986-2.776-.895-3.672.715-4.2-.266-7.072 3.045-9.935 5.373-3.765.715-6.805 3.855-9.673 6.268z"/></clipPath><clipPath id="aq" clipPathUnits="userSpaceOnUse"><path d="M0 0h1133.858v4535.433H0Z"/></clipPath><clipPath id="ar" clipPathUnits="userSpaceOnUse"><path d="M221.78 2982.243c.721.356 1.431.265 1.969.892 0 .292-.148.411-.364.411-.515 0-1.413-.675-1.605-1.303"/></clipPath><clipPath id="at" clipPathUnits="userSpaceOnUse"><path d="M0 0h1133.858v4535.433H0Z"/></clipPath><clipPath id="au" clipPathUnits="userSpaceOnUse"><path d="M211.489 3081.436c-1.389.337-2.603-.69-3.781-1.715-1.639-1.428-3.21-2.854-5.083-.612-1.706-.539-3.315-1.437-4.748-2.6-.598-.681-1.195-.508-1.783-.336-.645.189-1.279.379-1.887-.56-2.149.271-1.971-1.88-1.882-3.224 2.416-1.517 4.833-3.846 7.972-2.145 1.61-.897 3.49-1.433 4.473-3.221.246-.023.509-.018.775-.013.797.015 1.619.031 2.088-.707-.089-2.054 2.152-3.222 2.508-5.102 1.251.358 2.864.268 3.672-.893.357-1.253-1.163-1.61-1.255-2.327.361-.985.988-1.614 1.968-1.972.357-.981-.62-1.431-.896-2.15-4.384-.357-.711-4.205-1.072-6.264.179-.985.807-2.239 2.15-1.699.806-.63 1.972-1.344 1.521-2.597-1.521-2.331.805-4.571 2.151-6.447 2.501-3.403-3.497-4.389-1.525-7.609-1.972-3.401-6.265-.18-8.417-3.671-.894.714-1.88 1.789-3.038 1.344-3.05-4.119-1.52-10.565-6.182-13.61.183-1.7.898-3.316 1.882-4.477.269.804.893 1.435 1.34 2.151 1.969-.27 2.154-2.779 3.222-4.118.896.357 2.423 1.613 2.601 2.771-1.433 2.603-1.795 5.644-2.151 8.689 1.257.712 2.241 2.687 3.848 1.875a63.713 63.713 0 0 1-1.248-3.846c-.182-2.439 1.06-1.758 2.308-1.077.631.344 1.265.689 1.717.63.537-.989.809-2.063.718-3.225-4.029.089.538-3.31-1.521-4.743-2.417.265-1.793-2.509-3.946-3.047-1.52-.446-3.664-1.163-4.468 1.076-2.332.987-.895-1.522-1.08-2.331-2.864-2.86-3.486-7.427-7.965-7.964-.426-1.595.412-1.392 1.387-1.188.667.139 1.398.279 1.834-.157-.181-1.607.358-3.403-.447-4.741-1.611.445-3.584 0-5.191.445-.54-2.239-2.238-3.937-2.776-6.268 0-3.271 2.584-3.06 4.9-2.85.794.073 1.555.144 2.171.077 1.434.713 1.612 2.328 2.601 3.401-.185 4.659 5.73 5.106 8.679 7.611 1.613-1.255 2.596-4.297 5.104-3.671 3.137-.896.36-3.048-.353-4.118.085-.359.535-.986 1.071-.895 4.925 4.117-2.599 7.156-3.046 10.565 1.433.531 3.497-.181 4.745-1.436 1.342-1.073.536-4.205 3.044-3.669 2.152-1.073 1.074-4.03 1.703-5.641.805-.536 1.788.09 2.152.626-3.498 2.594 1.248 4.568-1.531 7.342.451.897 1.439.808 2.156 1.076 1.161-.807 1.343-1.969 1.519-3.223 1.079.092 1.971-.09 2.773-.627 1.879 1.518 4.568 1.97 5.014 4.744.626.266 1.705.895 2.155-.268-2.509-7.162 5.277-9.223 8.414-13.962 3.579-1.974 7.516-3.224 11.19-5.197 1.969 2.51 2.685 5.999 5.993 7.972-1.43 3.846 3.763 4.922 2.871 7.966.713 2.504-2.423 3.309-.718 5.637-.12 1.073-.718.954-1.447.834-.366-.059-.764-.118-1.151-.028-1.347-.897-4.116-.357-3.579-2.954-1.793-2.237-5.905-2.328-8.421-1.522-.443.811-.984 1.88-.443 2.774.536.059 1.194.04 1.886.02 2.423-.069 5.287-.137 5.009 3.202 1.16.451 2.685 0 3.85.451 1.968.534 1.874 2.684 3.035 3.94 1.614-.18 3.317-.63 4.752-.447 5.817 2.418 10.915-2.512 16.118-3.225-2.509 7.074-5.019 14.146-7.97 21.129 1.607 1.519.804 2.769-.359 4.293 1.79.723 2.326 4.748 4.474 3.228.809-.808 2.508-1.169 3.855-1.344.532.896.083 1.878-.359 2.598.978 1.611 2.86 1.249 4.471 1.339.897-.09 1.972-.624 1.521-1.789 1.08-2.691 4.476-4.296 3.854-7.968.896-.09 1.61-.63 2.592-.357.273.892-.443 1.431-.175 2.328-.542 1.701-1.521 3.042-3.226 3.667-.447 1.164-1.965 2.683-.447 3.853 1.613.538.989-1.523 2.327-1.706.715 1.168 1.613 2.154 1.346 3.676-.899 1.163-1.431 3.935-3.673 2.595-1.071.091-.447 1.254-.623 1.97.113 1.608 1.077 1.555 2.131 1.502.587-.03 1.202-.058 1.715.198.182.804-.266 1.433-.449 2.15-3.221.354 0 3.671-1.875 5.192-3.133 1.076-6.355-.09-9.313-.717-1.705.535-1.258 2.422-1.522 3.671.264.983 1.346.894 1.968 1.344 0 .449-.088.803-.446 1.071-.449.561-1.003.42-1.573.28-.342-.084-.69-.168-1.024-.101-.447.361-.626.807-.626 1.345 3.669 4.833-5.19 4.296-4.119 9.22-1.518 2.062-3.848 3.047-6.265 3.49-1.976 3.047-5.101 1.344-7.701.808-1.343.273-2.328 2.149-3.487 1.792.448-1.256 1.874-2.326 1.338-3.673-1.785.091-3.31.539-4.743 1.258.712 2.236-1.792 3.13-1.973 5.013.337.873 1.282.837 2.187.801.299-.011.594-.024.861 0 1.883.452.985 2.961 2.953 3.498-1.879 1.966-4.028 4.652-4.929 7.518-3.848.182-7.338 1.252-10.74 2.418-.355-.272-.807-.448-1.07-.716 0-.45-.273-.988.173-1.256 4.299-2.241 11.637-.446 13.342-7.161-.464-.754-.928-.682-1.513-.611-.319.04-.673.079-1.083-.015-.802-.628-1.343-.628-1.076-1.97-.267-.808-1.249-.897-1.881-1.253-1.518 1.517-4.026.536-5.456 2.419-.986 4.739-6.895 4.117-10.749 5.37-1.253-1.076-3.578-2.327-4.562-3.048 1.164-.892 1.88-1.969 1.523-3.488-.184-.361-.633-1.077-1.254-.808-1.356 2.061-2.995 1.669-4.727 1.276-1.353-.307-2.762-.615-4.136.251-1.256.889-1.971 2.594-3.407 3.398-.556.347-1.345.289-2.11.232-1.2-.091-2.343-.182-2.451 1.29.897.806 1.882 1.163 3.043 1.345 1.074.088 2.326 1.339 2.149 2.509.749 1.704.629 2.279.082 2.279-1.089 0-3.87-2.284-4.822-2.461m1.248-58.19c1.342.802.722 5.374 3.041 2.771-.263-2.151.722-4.112-.897-5.82-.707.985-3.041 1.438-2.144 3.049m26.324-9.495c.358-.175.802-.175 1.072-.627.088-1.517-3.849-3.137-1.524-4.564.719-.193 1.287 0 1.866.196.499.168 1.009.336 1.634.256 0-2.239 2.414-2.953 3.033-4.93-.984-.802-2.143-4.652-4.111-2.588-1.168.801-1.437 2.588-.628 3.667.087.358.628.715 0 1.072-1.437.095-2.064-1.429-3.31-1.795-.627 2.875-6.184 5.732-1.882 8.416.518.848 1.234.704 1.966.561.278-.055.559-.109.832-.109.373 0 .732.101 1.052.445m-11.018-7.787c.81-.897.269-2.415 1.342-3.224 1.166-.349 2.603-.088 3.675-.801-1.524-3.938-7.613-3.493-7.613-8.417-.714-.268-1.525-.451-2.326-.713 0 2.501-.088 5.454.897 7.78 1.071-.08 1.167-1.246 1.699-1.961 3.048 2.056-2.596 6.439 2.326 7.336"/></clipPath><clipPath id="aw" clipPathUnits="userSpaceOnUse"><path d="M0 0h1133.858v4535.433H0Z"/></clipPath><clipPath id="ax" clipPathUnits="userSpaceOnUse"><path d="M272.277 2951.623c-2.694-1.342-1.885-3.131-2.418-5.551-1.077-.624-2.241-1.344-3.409-1.968.097-1.523 1.168-2.686 1.074-4.296-.448-.985-.448-1.793.451-2.6-2.325-6.622 3.67-1.343 5.373-.181-.893 2.781 1.787 5.645.18 7.976-2.148 1.515.355 3.304.718 4.918-.337.668-.904 1.72-1.769 1.72-.065 0-.132-.01-.2-.018"/></clipPath><clipPath id="az" clipPathUnits="userSpaceOnUse"><path d="M0 0h1133.858v4535.433H0Z"/></clipPath><clipPath id="aA" clipPathUnits="userSpaceOnUse"><path d="M128.227 2941.773c.988.272 1.614.985 1.966 1.885-.803.803-.978 2.414-2.323 2.414-2.151-1.344-.717-3.042.357-4.299"/></clipPath><clipPath id="aC" clipPathUnits="userSpaceOnUse"><path d="M0 0h1133.858v4535.433H0Z"/></clipPath><clipPath id="aD" clipPathUnits="userSpaceOnUse"><path d="M158.49 2926.013c.084.361.532.095.623.451-.091 1.34-.539 2.778-1.52 3.674-2.244-.538.445-2.775.897-4.125"/></clipPath><clipPath id="aF" clipPathUnits="userSpaceOnUse"><path d="M0 0h1133.858v4535.433H0Z"/></clipPath><clipPath id="aG" clipPathUnits="userSpaceOnUse"><path d="M303.522 3014.234c1.786-1.703 2.861-4.384 2.414-6.893-1.077.093-2.06.713-3.047.18.271-2.509 2.599-3.045 3.854-5.193.355 3.94-.543 8.328-.807 12.534-.266-.06-.697.084-1.128.227-.363.121-.727.242-.996.242-.385 0-.576-.248-.29-1.097"/></clipPath><radialGradient id="b" cx="0" cy="0" r="1" fx="0" fy="0" gradientTransform="matrix(153.11761 0 0 -153.11761 255.944 3062.361)" gradientUnits="userSpaceOnUse" spreadMethod="pad"><stop offset="0" style="stop-opacity:1;stop-color:#44c8f5"/><stop offset=".006" style="stop-opacity:1;stop-color:#44c8f5"/><stop offset=".017" style="stop-opacity:1;stop-color:#44c8f5"/><stop offset=".369" style="stop-opacity:1;stop-color:#44c8f5"/><stop offset="1" style="stop-opacity:1;stop-color:#00639e"/></radialGradient><radialGradient id="e" cx="0" cy="0" r="1" fx="0" fy="0" gradientTransform="matrix(150.30299 0 0 -150.30299 246 3051.974)" gradientUnits="userSpaceOnUse" spreadMethod="pad"><stop offset="0" style="stop-opacity:1;stop-color:#c4df9b"/><stop offset=".012" style="stop-opacity:1;stop-color:#c4df9b"/><stop offset="1" style="stop-opacity:1;stop-color:#a6ce38"/></radialGradient><radialGradient id="h" cx="0" cy="0" r="1" fx="0" fy="0" gradientTransform="matrix(148.25954 0 0 -148.25954 245.015 3052.359)" gradientUnits="userSpaceOnUse" spreadMethod="pad"><stop offset="0" style="stop-opacity:1;stop-color:#c4df9b"/><stop offset=".012" style="stop-opacity:1;stop-color:#c4df9b"/><stop offset="1" style="stop-opacity:1;stop-color:#a6ce38"/></radialGradient><radialGradient id="k" cx="0" cy="0" r="1" fx="0" fy="0" gradientTransform="matrix(162.64354 0 0 -162.64354 249.916 3048.73)" gradientUnits="userSpaceOnUse" spreadMethod="pad"><stop offset="0" style="stop-opacity:1;stop-color:#c4df9b"/><stop offset=".012" style="stop-opacity:1;stop-color:#c4df9b"/><stop offset="1" style="stop-opacity:1;stop-color:#a6ce38"/></radialGradient><radialGradient id="n" cx="0" cy="0" r="1" fx="0" fy="0" gradientTransform="matrix(172.43491 0 0 -318.92654 247.166 3045.49)" gradientUnits="userSpaceOnUse" spreadMethod="pad"><stop offset="0" style="stop-opacity:1;stop-color:#c4df9b"/><stop offset=".012" style="stop-opacity:1;stop-color:#c4df9b"/><stop offset="1" style="stop-opacity:1;stop-color:#a6ce38"/></radialGradient><radialGradient id="q" cx="0" cy="0" r="1" fx="0" fy="0" gradientTransform="matrix(147.47339 0 0 -171.62737 242.555 3044.998)" gradientUnits="userSpaceOnUse" spreadMethod="pad"><stop offset="0" style="stop-opacity:1;stop-color:#c4df9b"/><stop offset=".012" style="stop-opacity:1;stop-color:#c4df9b"/><stop offset="1" style="stop-opacity:1;stop-color:#a6ce38"/></radialGradient><radialGradient id="t" cx="0" cy="0" r="1" fx="0" fy="0" gradientTransform="matrix(167.46977 0 0 -189.5685 245.464 3045.184)" gradientUnits="userSpaceOnUse" spreadMethod="pad"><stop offset="0" style="stop-opacity:1;stop-color:#c4df9b"/><stop offset=".012" style="stop-opacity:1;stop-color:#c4df9b"/><stop offset="1" style="stop-opacity:1;stop-color:#a6ce38"/></radialGradient><radialGradient id="w" cx="0" cy="0" r="1" fx="0" fy="0" gradientTransform="matrix(140.32825 0 0 -229.52155 238.662 3044.249)" gradientUnits="userSpaceOnUse" spreadMethod="pad"><stop offset="0" style="stop-opacity:1;stop-color:#c4df9b"/><stop offset=".012" style="stop-opacity:1;stop-color:#c4df9b"/><stop offset="1" style="stop-opacity:1;stop-color:#a6ce38"/></radialGradient><radialGradient id="z" cx="0" cy="0" r="1" fx="0" fy="0" gradientTransform="matrix(155.21684 0 0 -195.42639 253.478 3043.385)" gradientUnits="userSpaceOnUse" spreadMethod="pad"><stop offset="0" style="stop-opacity:1;stop-color:#c4df9b"/><stop offset=".012" style="stop-opacity:1;stop-color:#c4df9b"/><stop offset="1" style="stop-opacity:1;stop-color:#a6ce38"/></radialGradient><radialGradient id="C" cx="0" cy="0" r="1" fx="0" fy="0" gradientTransform="matrix(148.73952 0 0 -148.73952 239.034 3041.384)" gradientUnits="userSpaceOnUse" spreadMethod="pad"><stop offset="0" style="stop-opacity:1;stop-color:#c4df9b"/><stop offset=".012" style="stop-opacity:1;stop-color:#c4df9b"/><stop offset="1" style="stop-opacity:1;stop-color:#a6ce38"/></radialGradient><radialGradient id="F" cx="0" cy="0" r="1" fx="0" fy="0" gradientTransform="matrix(147.58986 0 0 -148.19756 254.8 3039.643)" gradientUnits="userSpaceOnUse" spreadMethod="pad"><stop offset="0" style="stop-opacity:1;stop-color:#c4df9b"/><stop offset=".012" style="stop-opacity:1;stop-color:#c4df9b"/><stop offset="1" style="stop-opacity:1;stop-color:#a6ce38"/></radialGradient><radialGradient id="I" cx="0" cy="0" r="1" fx="0" fy="0" gradientTransform="matrix(143.22758 0 0 -143.22758 256.887 3037.575)" gradientUnits="userSpaceOnUse" spreadMethod="pad"><stop offset="0" style="stop-opacity:1;stop-color:#c4df9b"/><stop offset=".012" style="stop-opacity:1;stop-color:#c4df9b"/><stop offset="1" style="stop-opacity:1;stop-color:#a6ce38"/></radialGradient><radialGradient id="L" cx="0" cy="0" r="1" fx="0" fy="0" gradientTransform="matrix(142.62352 0 0 -318.86865 238.702 3039.863)" gradientUnits="userSpaceOnUse" spreadMethod="pad"><stop offset="0" style="stop-opacity:1;stop-color:#c4df9b"/><stop offset=".012" style="stop-opacity:1;stop-color:#c4df9b"/><stop offset="1" style="stop-opacity:1;stop-color:#a6ce38"/></radialGradient><radialGradient id="O" cx="0" cy="0" r="1" fx="0" fy="0" gradientTransform="matrix(159.68365 0 0 -367.29565 237.653 3044.432)" gradientUnits="userSpaceOnUse" spreadMethod="pad"><stop offset="0" style="stop-opacity:1;stop-color:#c4df9b"/><stop offset=".012" style="stop-opacity:1;stop-color:#c4df9b"/><stop offset="1" style="stop-opacity:1;stop-color:#a6ce38"/></radialGradient><radialGradient id="R" cx="0" cy="0" r="1" fx="0" fy="0" gradientTransform="matrix(131.28616 0 0 -164.86719 221.193 3036.485)" gradientUnits="userSpaceOnUse" spreadMethod="pad"><stop offset="0" style="stop-opacity:1;stop-color:#c4df9b"/><stop offset=".012" style="stop-opacity:1;stop-color:#c4df9b"/><stop offset="1" style="stop-opacity:1;stop-color:#a6ce38"/></radialGradient><radialGradient id="U" cx="0" cy="0" r="1" fx="0" fy="0" gradientTransform="matrix(128.69763 0 0 -291.97247 233.29 3039.402)" gradientUnits="userSpaceOnUse" spreadMethod="pad"><stop offset="0" style="stop-opacity:1;stop-color:#c4df9b"/><stop offset=".012" style="stop-opacity:1;stop-color:#c4df9b"/><stop offset="1" style="stop-opacity:1;stop-color:#a6ce38"/></radialGradient><radialGradient id="X" cx="0" cy="0" r="1" fx="0" fy="0" gradientTransform="matrix(144.21689 0 0 -185.31924 254.445 3039.433)" gradientUnits="userSpaceOnUse" spreadMethod="pad"><stop offset="0" style="stop-opacity:1;stop-color:#c4df9b"/><stop offset=".012" style="stop-opacity:1;stop-color:#c4df9b"/><stop offset="1" style="stop-opacity:1;stop-color:#a6ce38"/></radialGradient><radialGradient id="aa" cx="0" cy="0" r="1" fx="0" fy="0" gradientTransform="matrix(136.06465 0 0 -136.06465 244.261 3032.843)" gradientUnits="userSpaceOnUse" spreadMethod="pad"><stop offset="0" style="stop-opacity:1;stop-color:#c4df9b"/><stop offset=".012" style="stop-opacity:1;stop-color:#c4df9b"/><stop offset="1" style="stop-opacity:1;stop-color:#a6ce38"/></radialGradient><radialGradient id="ad" cx="0" cy="0" r="1" fx="0" fy="0" gradientTransform="matrix(135.15904 0 0 -165.89082 238.863 3029.907)" gradientUnits="userSpaceOnUse" spreadMethod="pad"><stop offset="0" style="stop-opacity:1;stop-color:#c4df9b"/><stop offset=".012" style="stop-opacity:1;stop-color:#c4df9b"/><stop offset="1" style="stop-opacity:1;stop-color:#a6ce38"/></radialGradient><radialGradient id="ag" cx="0" cy="0" r="1" fx="0" fy="0" gradientTransform="matrix(140.32288 0 0 -140.32288 243.344 3029.592)" gradientUnits="userSpaceOnUse" spreadMethod="pad"><stop offset="0" style="stop-opacity:1;stop-color:#c4df9b"/><stop offset=".012" style="stop-opacity:1;stop-color:#c4df9b"/><stop offset="1" style="stop-opacity:1;stop-color:#a6ce38"/></radialGradient><radialGradient id="aj" cx="0" cy="0" r="1" fx="0" fy="0" gradientTransform="matrix(135.28665 0 0 -153.04304 221.591 3032.65)" gradientUnits="userSpaceOnUse" spreadMethod="pad"><stop offset="0" style="stop-opacity:1;stop-color:#c4df9b"/><stop offset=".012" style="stop-opacity:1;stop-color:#c4df9b"/><stop offset="1" style="stop-opacity:1;stop-color:#a6ce38"/></radialGradient><radialGradient id="am" cx="0" cy="0" r="1" fx="0" fy="0" gradientTransform="matrix(130.56738 0 0 -130.56738 244.587 3030.886)" gradientUnits="userSpaceOnUse" spreadMethod="pad"><stop offset="0" style="stop-opacity:1;stop-color:#c4df9b"/><stop offset=".012" style="stop-opacity:1;stop-color:#c4df9b"/><stop offset="1" style="stop-opacity:1;stop-color:#a6ce38"/></radialGradient><radialGradient id="ap" cx="0" cy="0" r="1" fx="0" fy="0" gradientTransform="matrix(172.306 0 0 -172.306 247.746 3044.676)" gradientUnits="userSpaceOnUse" spreadMethod="pad"><stop offset="0" style="stop-opacity:1;stop-color:#c4df9b"/><stop offset=".012" style="stop-opacity:1;stop-color:#c4df9b"/><stop offset="1" style="stop-opacity:1;stop-color:#a6ce38"/></radialGradient><radialGradient id="as" cx="0" cy="0" r="1" fx="0" fy="0" gradientTransform="matrix(127.32257 0 0 -127.32256 241.292 3025.008)" gradientUnits="userSpaceOnUse" spreadMethod="pad"><stop offset="0" style="stop-opacity:1;stop-color:#c4df9b"/><stop offset=".012" style="stop-opacity:1;stop-color:#c4df9b"/><stop offset="1" style="stop-opacity:1;stop-color:#a6ce38"/></radialGradient><radialGradient id="av" cx="0" cy="0" r="1" fx="0" fy="0" gradientTransform="matrix(172.69664 0 0 -182.50278 247.952 3045.62)" gradientUnits="userSpaceOnUse" spreadMethod="pad"><stop offset="0" style="stop-opacity:1;stop-color:#c4df9b"/><stop offset=".012" style="stop-opacity:1;stop-color:#c4df9b"/><stop offset="1" style="stop-opacity:1;stop-color:#a6ce38"/></radialGradient><radialGradient id="ay" cx="0" cy="0" r="1" fx="0" fy="0" gradientTransform="matrix(158.15067 0 0 -348.39236 250.04 3041.347)" gradientUnits="userSpaceOnUse" spreadMethod="pad"><stop offset="0" style="stop-opacity:1;stop-color:#c4df9b"/><stop offset=".012" style="stop-opacity:1;stop-color:#c4df9b"/><stop offset="1" style="stop-opacity:1;stop-color:#a6ce38"/></radialGradient><radialGradient id="aB" cx="0" cy="0" r="1" fx="0" fy="0" gradientTransform="matrix(143.72954 0 0 -175.22281 227.161 3030.753)" gradientUnits="userSpaceOnUse" spreadMethod="pad"><stop offset="0" style="stop-opacity:1;stop-color:#c4df9b"/><stop offset=".012" style="stop-opacity:1;stop-color:#c4df9b"/><stop offset="1" style="stop-opacity:1;stop-color:#a6ce38"/></radialGradient><radialGradient id="aE" cx="0" cy="0" r="1" fx="0" fy="0" gradientTransform="matrix(137.7757 0 0 -249.78328 229.229 3010.237)" gradientUnits="userSpaceOnUse" spreadMethod="pad"><stop offset="0" style="stop-opacity:1;stop-color:#c4df9b"/><stop offset=".012" style="stop-opacity:1;stop-color:#c4df9b"/><stop offset="1" style="stop-opacity:1;stop-color:#a6ce38"/></radialGradient><radialGradient id="aH" cx="0" cy="0" r="1" fx="0" fy="0" gradientTransform="matrix(147.34477 0 0 -468.55923 256.734 3042.174)" gradientUnits="userSpaceOnUse" spreadMethod="pad"><stop offset="0" style="stop-opacity:1;stop-color:#c4df9b"/><stop offset=".012" style="stop-opacity:1;stop-color:#c4df9b"/><stop offset="1" style="stop-opacity:1;stop-color:#a6ce38"/></radialGradient></defs><path d="M86.457 2879.972h241.965v241.965H86.457Z" style="fill:#b2d34a;fill-opacity:1;fill-rule:nonzero;stroke:none" transform="matrix(1.65313 0 0 -1.65313 -142.925 5160.973)"/><g clip-path="url(#a)" transform="matrix(1.65313 0 0 -1.65313 -142.925 5160.973)"><path d="M107.621 3001.45c0-55.128 44.69-99.818 99.818-99.818 55.129 0 99.819 44.69 99.819 99.818 0 55.129-44.69 99.819-99.819 99.819-55.128 0-99.818-44.69-99.818-99.819" style="fill:url(#b);stroke:none"/></g><g clip-path="url(#c)" transform="matrix(1.65313 0 0 -1.65313 -142.925 5160.973)"><path d="M0 0c55.128 0 99.819 44.69 99.819 99.818 0 55.129-44.691 99.819-99.819 99.819s-99.819-44.69-99.819-99.819C-99.819 44.69-55.128 0 0 0Z" style="fill:none;stroke:#00639e;stroke-width:1.87100005;stroke-linecap:butt;stroke-linejoin:miter;stroke-miterlimit:4;stroke-dasharray:none;stroke-opacity:1" transform="translate(207.44 2901.632)"/></g><g clip-path="url(#d)" transform="matrix(1.65313 0 0 -1.65313 -142.925 5160.973)"><path d="M230.017 3084.035c2.507-1.523 5.367-3.49 8.417-2.417-.991.624-1.971 1.07-3.223.894-1.445.207-2.837 2.157-4.094 2.156-.379 0-.747-.177-1.1-.633" style="fill:url(#e);stroke:none"/></g><g clip-path="url(#f)" transform="matrix(1.65313 0 0 -1.65313 -142.925 5160.973)"><path d="M0 0c1.521 1.969 3.312-1.253 5.194-1.523 1.251.177 2.232-.27 3.222-.894C5.367-3.49 2.506-1.523 0 0Z" style="fill:none;stroke:#00639e;stroke-width:.41;stroke-linecap:butt;stroke-linejoin:miter;stroke-miterlimit:4;stroke-dasharray:none;stroke-opacity:1" transform="translate(230.018 3084.035)"/></g><g clip-path="url(#g)" transform="matrix(1.65313 0 0 -1.65313 -142.925 5160.973)"><path d="M225.898 3079.917c-.538-2.864 2.507.803 3.937.891v.628c-.29.076-.562.111-.82.111-1.249 0-2.151-.815-3.117-1.63" style="fill:url(#h);stroke:none"/></g><g clip-path="url(#i)" transform="matrix(1.65313 0 0 -1.65313 -142.925 5160.973)"><path d="M0 0c1.164.984 2.238 1.967 3.937 1.52V.892C2.506.804-.539-2.863 0 0Z" style="fill:none;stroke:#00639e;stroke-width:.41;stroke-linecap:butt;stroke-linejoin:miter;stroke-miterlimit:4;stroke-dasharray:none;stroke-opacity:1" transform="translate(225.899 3079.916)"/></g><g clip-path="url(#j)" transform="matrix(1.65313 0 0 -1.65313 -142.925 5160.973)"><path d="M272.455 3067.471c-1.526-1.078-.361-1.967.714-2.595.193.022.407.01.624-.01.584-.044 1.197-.086 1.524.636 1.38 1.427 2.382.613 3.451-.2.806-.613 1.652-1.225 2.73-.881.532.274 1.431.717 1.161 1.527-.898.353-2.24 1.073-3.049.174-1.207-.338-2.27.387-3.264 1.114-.82.599-1.594 1.199-2.361 1.199-.509 0-1.015-.264-1.53-.966" style="fill:url(#k);stroke:none"/></g><g clip-path="url(#l)" transform="matrix(1.65313 0 0 -1.65313 -142.925 5160.973)"><path d="M0 0c.27-.81-.629-1.253-1.161-1.527-2.509-.801-3.76 3.584-6.181 1.081-.45-.989-1.434-.542-2.147-.628-1.076.628-2.241 1.517-.715 2.595C-7.97 4.565-5.912-.628-3.05.175-2.24 1.073-.898.353 0 0Z" style="fill:none;stroke:#00639e;stroke-width:.41;stroke-linecap:butt;stroke-linejoin:miter;stroke-miterlimit:4;stroke-dasharray:none;stroke-opacity:1" transform="translate(282.659 3065.95)"/></g><g clip-path="url(#m)" transform="matrix(1.65313 0 0 -1.65313 -142.925 5160.973)"><path d="M192.684 3088.147c-3.668-.175-6.266-2.864-9.49-4.293-2.777-2.335-6.895-4.927-7.071-8.416-3.496-2.776-6.718-5.817-10.565-8.237-.716-.898-3.045-1.167-2.152.449-1.522.984-3.309 0-4.916 0-.184-.539.532-.985-.274-1.347-5.549-.712-10.925-3.045-16.564-2.143-3.936 2.324-6.532-2.691-10.113-2.959-.449-3.577-4.656-5.281-7.341-6.893-.625-.717-4.57-7.069-1.073-2.421.805.723 2.419.543 3.224-.174-.093-.445.089-.716.174-1.072-2.865-1.884-4.833-4.926-7.34-7.342-2.236.178-1.609-2.416-2.327-3.671-4.121-7.34-6.173-15.4-7.342-23.9 2.061-.813.536-3.49 1.259-5.018-.54-2.954.174-6.444.264-9.669-3.579-3.581.358-7.702-.264-11.906 2.324-1.076 4.384-3.226 3.49-6.447-1.344-.54-2.24-2.058-3.672-2.327 1.879-7.249 3.756-14.508 7.07-21.132 1.967-.534 4.121-.806 6.269-.621 1.25-1.525 1.878-3.403 2.868-5.017 1.876-5.546 4.917-11.278 10.111-15.311 2.331-1.253 2.415-4.744 5.374-4.917.896-4.032 4.922-5.016 6.711-8.689 3.407.808 5.017-3.313 7.526-4.293 2.234-.63-.365 2.141-1.079 3.038-.534 3.583-5.283 3.045-6.091 6.445-3.579 2.151-1.07 7.344-2.145 9.944-2.595.536-1.251 4.205-1.882 6.264 1.968 2.326 1.434 5.729 2.152 8.594.183 1.433 1.966 2.147 1.875 3.669-1.875 3.048 1.888 5.911.269 9.044-3.127 2.776-7.336 3.134-10.56 5.642.987 2.86-2.416 3.58-3.49 5.369-.775.571-1.977.499-3.162.429-1.974-.12-3.903-.238-3.733 2.614-1.078.092-2.041-.019-3.003-.131-.96-.111-1.92-.223-2.993-.131-1.613 1.25-1.704 3.127-2.777 4.559-1.973.447-4.295-.086-5.819 1.257-1.163 3.403-3.22 6.621-2.591 10.385 4.464 2.323 1.694 6.712 1.875 10.384 1.161 1.165 2.329 2.234 3.673 2.954.087 1.343-.092 2.596-.633 3.67-.979 0-1.521-.898-2.592-.626-1.705 1.703-1.791 4.031-2.323 6.268 3.304 2.416 5.187 8.595 10.291 6.625 4.474-1.701-.808-6.45 3.673-8.147 3.76-2.866-1.257-5.465-2.33-7.79.087-.989-1.073-2.954.805-2.954 1.525 1.701 2.685 3.851 4.297 5.37 2.365-.251 4.507.01 6.629.265 1.649.2 3.286.4 5.007.363.356.087.27.626.717.893.488-.21.991-.105 1.46 0 .732.163 1.381.325 1.76-.709 1.35-.182 2.692.266 3.405 1.07.983-1.7.538-3.757 1.523-5.373 1.43-.535 3.313-.712 4.745-.623 3.762 2.239 1.526-3.135 4.293-3.226 1.884 6.18 1.169 13.968 5.64 19.431-2.5.358-1.338 3.132-1.968 4.739-.355.185-1.52.811-1.07 1.707-1.835.043-3.379-.629-4.934-1.299-1.557-.673-3.126-1.344-5.005-1.299-.446.088-.81.535-.627 1.076.356.891 1.253 1.162 2.149 1.074.534 2.056.716 4.293 1.522 6.265 3.131.27 2.332 5.283 5.64 4.748 3.844.622 3.844-3.586 7.34-3.944.983.81 2.328 2.151 3.4 2.867.363-3.582-2.508-6.086-5.55-7.611.715-2.596-.982-4.832.805-6.891 2.062.983 1.522 3.307 2.777 4.739.721-.444.629-1.161.721-1.695 2.592-.272.266 3.042 1.88 3.847 3.128.447 2.954 3.765 2.863 6.271.715 1.877 2.684 2.504 4.293 3.039 1.055.262 2.232.102 3.374-.06 1.959-.277 3.815-.552 4.775 1.315-.989 2.032-2.113 1.334-3.351.636-.78-.439-1.605-.879-2.47-.636-3.937 1.878 2.063 3.671.273 5.818-2.688-.175-4.749-1.879-7.616-1.879 1.077-2.146-1.696-1.88-2.141-3.939-.361 0-.808.088-1.081.449-1.339 1.073.811.804 1.081 1.523 2.057.803-1.431 3.579 1.519 2.773.088 3.222 5.906 3.849 3.941 7.606-1.79-.714-2.959-2.146-3.941-3.665-.36-.179-.623.18-.807.449 1.704 3.398 5.818 5.907 6.625 9.666 3.044.627 5.371 3.399 8.86 2.327.714 1.52 1.163 3.043 1.256 4.744-2.952-.27.538 3.223-2.148 3.492.447 1.887-.355 6.266 3.044 4.93 3.939.712 7.79.174 11.011 2.148-.909.747-1.759.437-2.659.126-.601-.208-1.227-.415-1.909-.306-4.924.443-9.04-2.335-13.965-2.601-1.432-.895-1.698.633-1.518 1.704 2.59 3.313 6.623 5.727 10.382 7.606.732-.074 1.465.123 2.179.32 1.032.284 2.024.567 2.922.042.897 1.965 3.315.981 5.019 1.519.09.362.717.18.622.715-.815-.181-1.803-.097-2.827-.013-.577.048-1.165.095-1.741.095-1.43 0-2.779-.292-3.667-1.605m-21.931-37.958c-.452-.352 0-1.162-.452-1.521-.804.538-1.429 4.029.452 1.521" style="fill:url(#n);stroke:none"/></g><g clip-path="url(#o)" transform="matrix(1.65313 0 0 -1.65313 -142.925 5160.973)"><path d="M0 0c-2.416-.535-6.355 1.255-8.235-1.523-3.669-.175-6.266-2.864-9.491-4.294-2.777-2.334-6.894-4.925-7.071-8.416-3.495-2.774-6.717-5.817-10.565-8.236-.716-.898-3.045-1.167-2.151.449-1.522.983-3.309 0-4.917 0-.183-.539.532-.986-.274-1.347-5.549-.713-10.924-3.045-16.563-2.143-3.936 2.323-6.533-2.691-10.113-2.959-.45-3.577-4.656-5.281-7.342-6.893-.625-.717-4.57-7.07-1.073-2.421.805.723 2.418.543 3.224-.174-.092-.446.09-.716.174-1.073-2.865-1.883-4.833-4.926-7.34-7.341-2.237.177-1.608-2.416-2.327-3.671-4.121-7.34-6.173-15.401-7.342-23.9 2.061-.813.536-3.491 1.259-5.019-.539-2.953.174-6.443.264-9.669-3.578-3.58.359-7.701-.264-11.905 2.325-1.076 4.384-3.226 3.49-6.448-1.344-.539-2.241-2.057-3.673-2.327 1.88-7.248 3.757-14.508 7.072-21.132 1.966-.533 4.12-.806 6.268-.62 1.25-1.526 1.878-3.404 2.869-5.018 1.875-5.545 4.917-11.277 10.11-15.31 2.331-1.254 2.416-4.744 5.374-4.918.896-4.031 4.922-5.015 6.711-8.689 3.407.808 5.017-3.312 7.526-4.292 2.234-.63-.365 2.141-1.079 3.038-.533 3.583-5.282 3.045-6.091 6.445-3.578 2.151-1.069 7.344-2.145 9.943-2.595.537-1.251 4.207-1.882 6.264 1.969 2.327 1.434 5.73 2.152 8.596.183 1.432 1.967 2.146 1.875 3.668-1.875 3.048 1.888 5.911.269 9.044-3.127 2.776-7.336 3.134-10.559 5.641.986 2.86-2.417 3.581-3.491 5.37-2.063 1.523-7.166-1.521-6.895 3.043-2.151.185-3.846-.445-5.996-.262-1.613 1.25-1.704 3.127-2.776 4.559-1.974.447-4.296-.087-5.821 1.256-1.162 3.403-3.219 6.622-2.59 10.386 4.465 2.323 1.694 6.712 1.875 10.384 1.161 1.164 2.329 2.234 3.673 2.953.087 1.344-.093 2.597-.633 3.671-.978 0-1.52-.898-2.592-.627-1.705 1.704-1.792 4.032-2.323 6.269 3.304 2.416 5.187 8.594 10.291 6.625 4.475-1.701-.808-6.45 3.673-8.147 3.759-2.866-1.257-5.465-2.33-7.791.086-.988-1.073-2.953.805-2.953 1.525 1.7 2.686 3.85 4.297 5.371 4.204-.447 7.701.715 11.636.626.357.089.27.627.717.894 1.254-.537 2.599.987 3.22-.712 1.35-.182 2.692.267 3.405 1.07.983-1.699.538-3.756 1.522-5.372 1.432-.535 3.314-.713 4.746-.624 3.762 2.24 1.527-3.135 4.293-3.225 1.884 6.18 1.169 13.968 5.641 19.43-2.502.359-1.339 3.133-1.969 4.74-.355.185-1.52.811-1.07 1.706-3.671.088-6.18-2.688-9.939-2.597-.446.088-.81.535-.627 1.076.357.891 1.254 1.161 2.149 1.074.535 2.056.716 4.292 1.522 6.265 3.131.27 2.332 5.283 5.64 4.747 3.844.623 3.844-3.585 7.341-3.943.982.81 2.327 2.15 3.4 2.867.362-3.582-2.509-6.087-5.551-7.612.715-2.595-.981-4.832.806-6.89 2.061.983 1.521 3.307 2.777 4.739.72-.444.628-1.161.72-1.695 2.592-.272.267 3.042 1.88 3.846 3.129.448 2.954 3.766 2.863 6.272.715 1.876 2.684 2.504 4.294 3.039 2.869.713 6.63-1.699 8.148 1.255-1.611 3.31-3.581-.627-5.821 0-3.937 1.878 2.063 3.67.274 5.818-2.689-.175-4.749-1.88-7.616-1.88 1.076-2.145-1.697-1.88-2.142-3.938-.36 0-.808.088-1.08.449-1.34 1.072.81.804 1.08 1.523 2.057.802-1.43 3.578 1.519 2.773.089 3.222 5.906 3.848 3.941 7.605-1.789-.713-2.959-2.145-3.941-3.665-.36-.178-.622.18-.807.45 1.704 3.397 5.818 5.906 6.626 9.666 3.043.627 5.37 3.399 8.859 2.326.714 1.521 1.163 3.045 1.256 4.745-2.952-.27.539 3.224-2.148 3.492.448 1.887-.355 6.265 3.044 4.929 3.939.713 7.79.174 11.011 2.149-1.517 1.249-2.865-.452-4.568-.18-4.924.442-9.039-2.334-13.964-2.601-1.432-.895-1.699.632-1.519 1.704 2.59 3.313 6.624 5.727 10.382 7.605 1.787-.18 3.582 1.255 5.101.362.897 1.966 3.315.982 5.019 1.519.09.363.717.181.623.716Zm-30.168-39.482c-.451-.351 0-1.161-.451-1.52-.804.537-1.428 4.028.451 1.52z" style="fill:none;stroke:#00639e;stroke-width:.41;stroke-linecap:butt;stroke-linejoin:miter;stroke-miterlimit:4;stroke-dasharray:none;stroke-opacity:1" transform="translate(200.92 3089.67)"/></g><g clip-path="url(#p)" transform="matrix(1.65313 0 0 -1.65313 -142.925 5160.973)"><path d="M210.141 3041.329c.629-2.601.988-6.357 5.014-5.195-.447.81-1.609.986-1.974 1.974-.563 1.202-.177 3.858-1.539 3.858-.36 0-.844-.187-1.501-.637" style="fill:url(#q);stroke:none"/></g><g clip-path="url(#r)" transform="matrix(1.65313 0 0 -1.65313 -142.925 5160.973)"><path d="M0 0c-4.026-1.162-4.385 2.594-5.014 5.195 3.133 2.147 2.328-1.701 3.039-3.222C-1.609.985-.447.81 0 0Z" style="fill:none;stroke:#00639e;stroke-width:.41;stroke-linecap:butt;stroke-linejoin:miter;stroke-miterlimit:4;stroke-dasharray:none;stroke-opacity:1" transform="translate(215.155 3036.134)"/></g><g clip-path="url(#s)" transform="matrix(1.65313 0 0 -1.65313 -142.925 5160.973)"><path d="M179.795 3039.356c1.695-3.489-1.972-5.371-2.779-8.142-3.042-1.97-2.685-5.913-6.085-7.789-.092-1.521-.806-4.122.627-5.103 5.283 3.044 11.724 3.22 16.828 6.624 1.346 4.205 1.7 8.771 2.418 13.162.182.533-.359.893-.45 1.248-1.072.898-2.859.091-3.671 1.527a8.54 8.54 0 0 1-2.144.285c-1.675 0-3.3-.553-4.744-1.812" style="fill:url(#t);stroke:none"/></g><g clip-path="url(#u)" transform="matrix(1.65313 0 0 -1.65313 -142.925 5160.973)"><path d="M0 0c-.718-4.39-1.073-8.956-2.418-13.161-5.104-3.405-11.545-3.58-16.828-6.625-1.432.982-.719 3.582-.627 5.104 3.4 1.876 3.043 5.818 6.085 7.789.808 2.771 4.474 4.653 2.779 8.142 2.055 1.793 4.478 2.153 6.888 1.527.812-1.436 2.6-.629 3.671-1.527C-.359.894.183.534 0 0Z" style="fill:none;stroke:#00639e;stroke-width:.41;stroke-linecap:butt;stroke-linejoin:miter;stroke-miterlimit:4;stroke-dasharray:none;stroke-opacity:1" transform="translate(190.804 3038.107)"/></g><g clip-path="url(#v)" transform="matrix(1.65313 0 0 -1.65313 -142.925 5160.973)"><path d="M198.329 3033.356c.175-.98 1.163-2.055 2.142-2.326 1.704 1.259-.446 2.601.898 4.033-.399.923-.735 1.269-1.034 1.269-.774-.001-1.298-2.324-2.006-2.976" style="fill:url(#w);stroke:none"/></g><g clip-path="url(#x)" transform="matrix(1.65313 0 0 -1.65313 -142.925 5160.973)"><path d="M0 0c-.979.271-1.967 1.347-2.142 2.327.982.902 1.61 5.018 3.04 1.706C-.445 2.601 1.705 1.259 0 0Z" style="fill:none;stroke:#00639e;stroke-width:.41;stroke-linecap:butt;stroke-linejoin:miter;stroke-miterlimit:4;stroke-dasharray:none;stroke-opacity:1" transform="translate(200.47 3031.03)"/></g><g clip-path="url(#y)" transform="matrix(1.65313 0 0 -1.65313 -142.925 5160.973)"><path d="M295.728 3021.904c-.895-3.23 3.223-2.685 3.672-5.553.803.094.357 1.163.449 1.702-.182 1.522 2.326 1.522 1.7 3.039.326 2.048-1.093 2.96-2.618 2.96-1.406 0-2.902-.776-3.203-2.148" style="fill:url(#z);stroke:none"/></g><g clip-path="url(#A)" transform="matrix(1.65313 0 0 -1.65313 -142.925 5160.973)"><path d="M0 0c-.091-.538.355-1.608-.448-1.701C-.898 1.166-5.016.622-4.12 3.851c.627 2.862 6.448 3.126 5.821-.811C2.328 1.522-.182 1.522 0 0Z" style="fill:none;stroke:#00639e;stroke-width:.41;stroke-linecap:butt;stroke-linejoin:miter;stroke-miterlimit:4;stroke-dasharray:none;stroke-opacity:1" transform="translate(299.848 3018.052)"/></g><g clip-path="url(#B)" transform="matrix(1.65313 0 0 -1.65313 -142.925 5160.973)"><path d="M186.476 3017.942c-.511-.445-1.04-.89-1.489-.786-.538-.537-.807-1.252-.714-2.15 1.072-.448 2.777 0 3.939.451-.093.988.083 1.609.174 2.415-.143.64-.368.872-.642.872-.361 0-.807-.401-1.268-.802" style="fill:url(#C);stroke:none"/></g><g clip-path="url(#D)" transform="matrix(1.65313 0 0 -1.65313 -142.925 5160.973)"><path d="M0 0c-.093.898.176 1.614.714 2.15 1.162-.266 2.859 3.132 3.399.717-.09-.806-.267-1.429-.173-2.416C2.777 0 1.072-.447 0 0Z" style="fill:none;stroke:#00639e;stroke-width:.41;stroke-linecap:butt;stroke-linejoin:miter;stroke-miterlimit:4;stroke-dasharray:none;stroke-opacity:1" transform="translate(184.273 3015.006)"/></g><g clip-path="url(#E)" transform="matrix(1.65313 0 0 -1.65313 -142.925 5160.973)"><path d="M292.952 3014.202c.804.268 1.881.087 2.153 1.075-1.797.451-3.049 1.879-4.301 3.045-.175-1.793 1.252-2.865 2.148-4.12" style="fill:url(#F);stroke:none"/></g><g clip-path="url(#G)" transform="matrix(1.65313 0 0 -1.65313 -142.925 5160.973)"><path d="M0 0c-.896 1.255-2.324 2.327-2.149 4.119C-.896 2.953.356 1.526 2.152 1.075 1.879.086.803.267 0 0Z" style="fill:none;stroke:#00639e;stroke-width:.41;stroke-linecap:butt;stroke-linejoin:miter;stroke-miterlimit:4;stroke-dasharray:none;stroke-opacity:1" transform="translate(292.953 3014.202)"/></g><g clip-path="url(#H)" transform="matrix(1.65313 0 0 -1.65313 -142.925 5160.973)"><path d="M296.178 3013.126c1.25-1.254 2.954-.714 4.296-.27-.494.851-1.367 1.209-2.217 1.209-.85 0-1.677-.357-2.079-.939" style="fill:url(#I);stroke:none"/></g><g clip-path="url(#J)" transform="matrix(1.65313 0 0 -1.65313 -142.925 5160.973)"><path d="M0 0c.803 1.161 3.309 1.432 4.295-.271C2.953-.715 1.249-1.255 0 0Z" style="fill:none;stroke:#00639e;stroke-width:.41;stroke-linecap:butt;stroke-linejoin:miter;stroke-miterlimit:4;stroke-dasharray:none;stroke-opacity:1" transform="translate(296.178 3013.127)"/></g><g clip-path="url(#K)" transform="matrix(1.65313 0 0 -1.65313 -142.925 5160.973)"><path d="M193.759 2997.998c1.61.626 3.136 1.251 4.384 2.593-.715 3.043-3.668 5.102-4.118 8.239-2.325-3.76 1.797-6.98-.266-10.832" style="fill:url(#L);stroke:none"/></g><g clip-path="url(#M)" transform="matrix(1.65313 0 0 -1.65313 -142.925 5160.973)"><path d="M0 0c2.063 3.852-2.059 7.071.265 10.831.45-3.136 3.404-5.196 4.119-8.239C3.135 1.251 1.61.626 0 0Z" style="fill:none;stroke:#00639e;stroke-width:.41;stroke-linecap:butt;stroke-linejoin:miter;stroke-miterlimit:4;stroke-dasharray:none;stroke-opacity:1" transform="translate(193.76 2997.999)"/></g><g clip-path="url(#N)" transform="matrix(1.65313 0 0 -1.65313 -142.925 5160.973)"><path d="M122.052 2999.969c-1.435-1.971.627-3.587 1.428-5.189-2.954-2.514 2.239-4.39 3.043-5.824-.623 1.789-.896 3.849-1.695 5.639-.273.358-2.332.806-1.078 1.703-1.882 3.312-1.522 7.611-3.672 10.742-.359.448-.98.089-1.339.448 1.162-2.508 1.971-5.102 3.313-7.519" style="fill:url(#O);stroke:none"/></g><g clip-path="url(#P)" transform="matrix(1.65313 0 0 -1.65313 -142.925 5160.973)"><path d="M0 0c-1.255-.897.804-1.344 1.078-1.702.798-1.79 1.072-3.85 1.695-5.64C1.968-5.908-3.224-4.031-.27-1.517-1.072.084-3.132 1.701-1.699 3.671c-1.342 2.418-2.149 5.011-3.312 7.519.359-.358.98 0 1.338-.447C-1.523 7.612-1.882 3.312 0 0Z" style="fill:none;stroke:#00639e;stroke-width:.41;stroke-linecap:butt;stroke-linejoin:miter;stroke-miterlimit:4;stroke-dasharray:none;stroke-opacity:1" transform="translate(123.75 2996.298)"/></g><g clip-path="url(#Q)" transform="matrix(1.65313 0 0 -1.65313 -142.925 5160.973)"><path d="M138.61 3004.266c-.448-.632-1.073-1.523-.173-2.152.127.032.268.017.408 0 .246-.024.491-.05.662.179.076.53.661 2.148-.243 2.148-.165 0-.379-.054-.654-.178" style="fill:url(#R);stroke:none"/></g><g clip-path="url(#S)" transform="matrix(1.65313 0 0 -1.65313 -142.925 5160.973)"><path d="M0 0c-.899.629-.274 1.52.174 2.152 1.787.804.986-1.344.896-1.97C.804-.177.355.088 0 0Z" style="fill:none;stroke:#00639e;stroke-width:.41;stroke-linecap:butt;stroke-linejoin:miter;stroke-miterlimit:4;stroke-dasharray:none;stroke-opacity:1" transform="translate(138.436 3002.114)"/></g><g clip-path="url(#T)" transform="matrix(1.65313 0 0 -1.65313 -142.925 5160.973)"><path d="M190.804 3002.566c.182-.898-.627-2.775.803-2.597.806.892.718 2.597.718 4.115-.625 0-1.609-.984-1.521-1.518" style="fill:url(#U);stroke:none"/></g><g clip-path="url(#V)" transform="matrix(1.65313 0 0 -1.65313 -142.925 5160.973)"><path d="M0 0c-1.43-.178-.621 1.698-.803 2.597-.088.533.896 1.518 1.52 1.518C.717 2.597.806.892 0 0Z" style="fill:none;stroke:#00639e;stroke-width:.41;stroke-linecap:butt;stroke-linejoin:miter;stroke-miterlimit:4;stroke-dasharray:none;stroke-opacity:1" transform="translate(191.607 2999.97)"/></g><g clip-path="url(#W)" transform="matrix(1.65313 0 0 -1.65313 -142.925 5160.973)"><path d="M284.358 3003.008c-1.165-.986.629-2.776 1.252-3.935 1.076-.807 1.885.804 1.522 1.701-.532.991-.805 2.368-2.036 2.368-.215 0-.459-.042-.738-.134" style="fill:url(#X);stroke:none"/></g><g clip-path="url(#Y)" transform="matrix(1.65313 0 0 -1.65313 -142.925 5160.973)"><path d="M0 0c-.624 1.16-2.418 2.95-1.253 3.935 1.881.627 2.15-1.07 2.774-2.233C1.884.806 1.075-.806 0 0Z" style="fill:none;stroke:#00639e;stroke-width:.41;stroke-linecap:butt;stroke-linejoin:miter;stroke-miterlimit:4;stroke-dasharray:none;stroke-opacity:1" transform="translate(285.611 2999.072)"/></g><g clip-path="url(#Z)" transform="matrix(1.65313 0 0 -1.65313 -142.925 5160.973)"><path d="M231.272 2988.502c-.986-.173-1.792-1.158-1.437-2.146.81-.086 1.348.45 1.886.897.507.428.129 1.256-.371 1.256-.026 0-.052 0-.078-.01" style="fill:url(#aa);stroke:none"/></g><g clip-path="url(#ab)" transform="matrix(1.65313 0 0 -1.65313 -142.925 5160.973)"><path d="M0 0c-.356.988.451 1.973 1.436 2.146.538.093.982-.8.45-1.25C1.347.45.809-.087 0 0Z" style="fill:none;stroke:#00639e;stroke-width:.41;stroke-linecap:butt;stroke-linejoin:miter;stroke-miterlimit:4;stroke-dasharray:none;stroke-opacity:1" transform="translate(229.836 2986.356)"/></g><g clip-path="url(#ac)" transform="matrix(1.65313 0 0 -1.65313 -142.925 5160.973)"><path d="M207.988 2985.464c.724 1.88-1.157 1.076-1.692 2.239-.809-1.433.354-3.042 1.692-2.239" style="fill:url(#ad);stroke:none"/></g><g clip-path="url(#ae)" transform="matrix(1.65313 0 0 -1.65313 -142.925 5160.973)"><path d="M0 0c.534-1.163 2.416-.358 1.692-2.239C.353-3.041-.809-1.433 0 0Z" style="fill:none;stroke:#00639e;stroke-width:.41;stroke-linecap:butt;stroke-linejoin:miter;stroke-miterlimit:4;stroke-dasharray:none;stroke-opacity:1" transform="translate(206.297 2987.703)"/></g><g clip-path="url(#af)" transform="matrix(1.65313 0 0 -1.65313 -142.925 5160.973)"><path d="M222.944 2985.105c.805.272 1.791.09 2.332 1.072.176.629-.541.81-.899 1.256-.356-.982-2.597-1.256-1.433-2.328" style="fill:url(#ag);stroke:none"/></g><g clip-path="url(#ah)" transform="matrix(1.65313 0 0 -1.65313 -142.925 5160.973)"><path d="M0 0c-1.164 1.072 1.078 1.346 1.433 2.328.358-.447 1.075-.627.898-1.256C1.791.09.806.272 0 0Z" style="fill:none;stroke:#00639e;stroke-width:.41;stroke-linecap:butt;stroke-linejoin:miter;stroke-miterlimit:4;stroke-dasharray:none;stroke-opacity:1" transform="translate(222.944 2985.106)"/></g><g clip-path="url(#ai)" transform="matrix(1.65313 0 0 -1.65313 -142.925 5160.973)"><path d="M128.227 2985.909c.447-.804.988-1.966 1.966-2.148-.089.361.269.537.269.9-.62.343-1.348 1.649-1.854 1.649-.149 0-.279-.114-.381-.401" style="fill:url(#aj);stroke:none"/></g><g clip-path="url(#ak)" transform="matrix(1.65313 0 0 -1.65313 -142.925 5160.973)"><path d="M0 0c.447 1.257 1.431-.804 2.235-1.248 0-.363-.358-.54-.268-.9C.987-1.967.447-.804 0 0Z" style="fill:none;stroke:#00639e;stroke-width:.41;stroke-linecap:butt;stroke-linejoin:miter;stroke-miterlimit:4;stroke-dasharray:none;stroke-opacity:1" transform="translate(128.227 2985.91)"/></g><g clip-path="url(#al)" transform="matrix(1.65313 0 0 -1.65313 -142.925 5160.973)"><path d="M236.282 2982.688c-.712.987-1.523 2.058-2.777 2.593-.353-1.338 1.789-2.417 2.777-2.593" style="fill:url(#am);stroke:none"/></g><g clip-path="url(#an)" transform="matrix(1.65313 0 0 -1.65313 -142.925 5160.973)"><path d="M0 0c1.255-.535 2.065-1.606 2.778-2.593C1.79-2.417-.352-1.338 0 0Z" style="fill:none;stroke:#00639e;stroke-width:.41;stroke-linecap:butt;stroke-linejoin:miter;stroke-miterlimit:4;stroke-dasharray:none;stroke-opacity:1" transform="translate(233.505 2985.281)"/></g><g clip-path="url(#ao)" transform="matrix(1.65313 0 0 -1.65313 -142.925 5160.973)"><path d="M230.193 2984.032c-3.223-2.24-7.79-1.884-10.921-3.671.181-.626 2.334-1.435.629-2.151-.591.074-1.199-.143-1.777-.359-.822-.306-1.587-.613-2.16-.087.235 2.13-1.329 1.603-2.907 1.078-.811-.271-1.625-.541-2.201-.452-1.43 1.164-.627 3.495-2.418 4.298-5.813-.54-10.473-4.651-16.38-4.298-2.954-1.789-1.789-4.386-2.326-7.072-1.97-1.43-3.941-2.592-6.088-3.494-.45-2.324-3.227-5.099-.63-7.341-1.524-2.326-.715-5.816-.629-8.595 4.389-.174 2.152-5.546 5.827-6.44 3.752-3.944 9.842-2.953 15.036-2.867 1.611 1.253 2.059 2.95 3.67 4.121 1.267.42 2.487-.192 3.721-.805 1.119-.554 2.249-1.108 3.441-.894 5.821 2.053 2.15-5.645 4.75-7.795 1.338.452 3.306 1.254 4.114-.629 1.077-1.427.088-4.65 2.774-4.564v-7.702c1.081-1.877 2.956-3.398 4.117-5.191 1.523-1.519 2.601-4.833 5.376-4.294 1.162-.273.714-1.522.804-2.417.267-.718 1.074-.807 1.523-1.255.896-.894 2.774-5.015 3.226-1.07 4.201 1.07 7.785 3.487 11.275 6.265.896 3.937 2.952 7.608 5.999 10.563.449 1.525.357 3.577-1.07 4.478.531 3.397 3.039 6.082 4.562 9.043-.094 4.568-3.043 7.872-4.387 11.906 3.577 7.517 6.709 15.666 4.746 24.978-2.507-1.163-4.57-3.491-6.625-5.643-1.252-.986-2.776-.895-3.672.715-4.2-.266-7.072 3.045-9.935 5.373-3.765.715-6.805 3.855-9.673 6.268z" style="fill:url(#ap);stroke:none"/></g><g clip-path="url(#aq)" transform="matrix(1.65313 0 0 -1.65313 -142.925 5160.973)"><path d="M0 0c2.862-2.328 5.734-5.639 9.934-5.373.896-1.609 2.42-1.701 3.672-.715 2.056 2.151 4.119 4.48 6.626 5.643 1.963-9.313-1.169-17.461-4.746-24.978 1.343-4.034 4.293-7.338 4.386-11.906-1.522-2.961-4.03-5.646-4.562-9.043 1.427-.901 1.519-2.953 1.07-4.478-3.047-2.955-5.103-6.625-5.998-10.563-3.491-2.778-7.074-5.195-11.276-6.264-.452-3.946-2.33.176-3.226 1.069-.448.448-1.255.537-1.522 1.256-.09.894.358 2.143-.804 2.415-2.776-.537-3.854 2.777-5.376 4.295-1.161 1.793-3.038 3.314-4.118 5.191v7.702c-2.685-.086-1.696 3.137-2.773 4.563-.808 1.884-2.777 1.082-4.115.63-2.6 2.15 1.071 9.848-4.75 7.795-2.505-.449-4.745 2.501-7.162 1.699-1.611-1.171-2.059-2.868-3.67-4.122-5.193-.085-11.283-1.076-15.035 2.868-3.675.895-1.439 6.266-5.827 6.441-.087 2.778-.896 6.269.628 8.594-2.597 2.242.18 5.018.631 7.342 2.146.901 4.118 2.064 6.087 3.493.538 2.686-.627 5.283 2.327 7.072 5.906-.353 10.566 3.759 16.379 4.298 1.792-.803.988-3.133 2.418-4.298C-29.1.366-25.337 3.225-25.694 0c.979-.895 2.509.626 3.937.446 1.705.715-.447 1.525-.628 2.151 3.13 1.788 7.698 1.431 10.92 3.671h1.792C-6.805 3.855-3.765.714 0 0Z" style="fill:none;stroke:#00639e;stroke-width:.41;stroke-linecap:butt;stroke-linejoin:miter;stroke-miterlimit:4;stroke-dasharray:none;stroke-opacity:1" transform="translate(241.658 2977.764)"/></g><g clip-path="url(#ar)" transform="matrix(1.65313 0 0 -1.65313 -142.925 5160.973)"><path d="M221.78 2982.243c.721.356 1.431.265 1.969.892 0 .292-.148.411-.364.411-.515 0-1.413-.675-1.605-1.303" style="fill:url(#as);stroke:none"/></g><g clip-path="url(#at)" transform="matrix(1.65313 0 0 -1.65313 -142.925 5160.973)"><path d="M0 0c.273.892 1.969 1.878 1.969.892C1.431.265.72.356 0 0Z" style="fill:none;stroke:#00639e;stroke-width:.41;stroke-linecap:butt;stroke-linejoin:miter;stroke-miterlimit:4;stroke-dasharray:none;stroke-opacity:1" transform="translate(221.78 2982.243)"/></g><g clip-path="url(#au)" transform="matrix(1.65313 0 0 -1.65313 -142.925 5160.973)"><path d="M211.489 3081.436c-1.389.337-2.603-.69-3.781-1.715-1.639-1.428-3.21-2.854-5.083-.612-1.706-.539-3.315-1.437-4.748-2.6-.598-.681-1.195-.508-1.783-.336-.645.189-1.279.379-1.887-.56-2.149.271-1.971-1.88-1.882-3.224 2.416-1.517 4.833-3.846 7.972-2.145 1.61-.897 3.49-1.433 4.473-3.221.246-.023.509-.018.775-.013.797.015 1.619.031 2.088-.707-.089-2.054 2.152-3.222 2.508-5.102 1.251.358 2.864.268 3.672-.893.357-1.253-1.163-1.61-1.255-2.327.361-.985.988-1.614 1.968-1.972.357-.981-.62-1.431-.896-2.15-4.384-.357-.711-4.205-1.072-6.264.179-.985.807-2.239 2.15-1.699.806-.63 1.972-1.344 1.521-2.597-1.521-2.331.805-4.571 2.151-6.447 2.501-3.403-3.497-4.389-1.525-7.609-1.972-3.401-6.265-.18-8.417-3.671-.894.714-1.88 1.789-3.038 1.344-3.05-4.119-1.52-10.565-6.182-13.61.183-1.7.898-3.316 1.882-4.477.269.804.893 1.435 1.34 2.151 1.969-.27 2.154-2.779 3.222-4.118.896.357 2.423 1.613 2.601 2.771-1.433 2.603-1.795 5.644-2.151 8.689 1.257.712 2.241 2.687 3.848 1.875a63.713 63.713 0 0 1-1.248-3.846c-.182-2.439 1.06-1.758 2.308-1.077.631.344 1.265.689 1.717.63.537-.989.809-2.063.718-3.225-4.029.089.538-3.31-1.521-4.743-2.417.265-1.793-2.509-3.946-3.047-1.52-.446-3.664-1.163-4.468 1.076-2.332.987-.895-1.522-1.08-2.331-2.864-2.86-3.486-7.427-7.965-7.964-.426-1.595.412-1.392 1.387-1.188.667.139 1.398.279 1.834-.157-.181-1.607.358-3.403-.447-4.741-1.611.445-3.584 0-5.191.445-.54-2.239-2.238-3.937-2.776-6.268 0-3.271 2.584-3.06 4.9-2.85.794.073 1.555.144 2.171.077 1.434.713 1.612 2.328 2.601 3.401-.185 4.659 5.73 5.106 8.679 7.611 1.613-1.255 2.596-4.297 5.104-3.671 3.137-.896.36-3.048-.353-4.118.085-.359.535-.986 1.071-.895 4.925 4.117-2.599 7.156-3.046 10.565 1.433.531 3.497-.181 4.745-1.436 1.342-1.073.536-4.205 3.044-3.669 2.152-1.073 1.074-4.03 1.703-5.641.805-.536 1.788.09 2.152.626-3.498 2.594 1.248 4.568-1.531 7.342.451.897 1.439.808 2.156 1.076 1.161-.807 1.343-1.969 1.519-3.223 1.079.092 1.971-.09 2.773-.627 1.879 1.518 4.568 1.97 5.014 4.744.626.266 1.705.895 2.155-.268-2.509-7.162 5.277-9.223 8.414-13.962 3.579-1.974 7.516-3.224 11.19-5.197 1.969 2.51 2.685 5.999 5.993 7.972-1.43 3.846 3.763 4.922 2.871 7.966.713 2.504-2.423 3.309-.718 5.637-.12 1.073-.718.954-1.447.834-.366-.059-.764-.118-1.151-.028-1.347-.897-4.116-.357-3.579-2.954-1.793-2.237-5.905-2.328-8.421-1.522-.443.811-.984 1.88-.443 2.774.536.059 1.194.04 1.886.02 2.423-.069 5.287-.137 5.009 3.202 1.16.451 2.685 0 3.85.451 1.968.534 1.874 2.684 3.035 3.94 1.614-.18 3.317-.63 4.752-.447 5.817 2.418 10.915-2.512 16.118-3.225-2.509 7.074-5.019 14.146-7.97 21.129 1.607 1.519.804 2.769-.359 4.293 1.79.723 2.326 4.748 4.474 3.228.809-.808 2.508-1.169 3.855-1.344.532.896.083 1.878-.359 2.598.978 1.611 2.86 1.249 4.471 1.339.897-.09 1.972-.624 1.521-1.789 1.08-2.691 4.476-4.296 3.854-7.968.896-.09 1.61-.63 2.592-.357.273.892-.443 1.431-.175 2.328-.542 1.701-1.521 3.042-3.226 3.667-.447 1.164-1.965 2.683-.447 3.853 1.613.538.989-1.523 2.327-1.706.715 1.168 1.613 2.154 1.346 3.676-.899 1.163-1.431 3.935-3.673 2.595-1.071.091-.447 1.254-.623 1.97.113 1.608 1.077 1.555 2.131 1.502.587-.03 1.202-.058 1.715.198.182.804-.266 1.433-.449 2.15-3.221.354 0 3.671-1.875 5.192-3.133 1.076-6.355-.09-9.313-.717-1.705.535-1.258 2.422-1.522 3.671.264.983 1.346.894 1.968 1.344 0 .449-.088.803-.446 1.071-.449.561-1.003.42-1.573.28-.342-.084-.69-.168-1.024-.101-.447.361-.626.807-.626 1.345 3.669 4.833-5.19 4.296-4.119 9.22-1.518 2.062-3.848 3.047-6.265 3.49-1.976 3.047-5.101 1.344-7.701.808-1.343.273-2.328 2.149-3.487 1.792.448-1.256 1.874-2.326 1.338-3.673-1.785.091-3.31.539-4.743 1.258.712 2.236-1.792 3.13-1.973 5.013.337.873 1.282.837 2.187.801.299-.011.594-.024.861 0 1.883.452.985 2.961 2.953 3.498-1.879 1.966-4.028 4.652-4.929 7.518-3.848.182-7.338 1.252-10.74 2.418-.355-.272-.807-.448-1.07-.716 0-.45-.273-.988.173-1.256 4.299-2.241 11.637-.446 13.342-7.161-.464-.754-.928-.682-1.513-.611-.319.04-.673.079-1.083-.015-.802-.628-1.343-.628-1.076-1.97-.267-.808-1.249-.897-1.881-1.253-1.518 1.517-4.026.536-5.456 2.419-.986 4.739-6.895 4.117-10.749 5.37-1.253-1.076-3.578-2.327-4.562-3.048 1.164-.892 1.88-1.969 1.523-3.488-.184-.361-.633-1.077-1.254-.808-1.356 2.061-2.995 1.669-4.727 1.276-1.353-.307-2.762-.615-4.136.251-1.256.889-1.971 2.594-3.407 3.398-.556.347-1.345.289-2.11.232-1.2-.091-2.343-.182-2.451 1.29.897.806 1.882 1.163 3.043 1.345 1.074.088 2.326 1.339 2.149 2.509.749 1.704.629 2.279.082 2.279-1.089 0-3.87-2.284-4.822-2.461m1.248-58.19c1.342.802.722 5.374 3.041 2.771-.263-2.151.722-4.112-.897-5.82-.707.985-3.041 1.438-2.144 3.049m26.324-9.495c.358-.175.802-.175 1.072-.627.088-1.517-3.849-3.137-1.524-4.564.719-.193 1.287 0 1.866.196.499.168 1.009.336 1.634.256 0-2.239 2.414-2.953 3.033-4.93-.984-.802-2.143-4.652-4.111-2.588-1.168.801-1.437 2.588-.628 3.667.087.358.628.715 0 1.072-1.437.095-2.064-1.429-3.31-1.795-.627 2.875-6.184 5.732-1.882 8.416.518.848 1.234.704 1.966.561.278-.055.559-.109.832-.109.373 0 .732.101 1.052.445m-11.018-7.787c.81-.897.269-2.415 1.342-3.224 1.166-.349 2.603-.088 3.675-.801-1.524-3.938-7.613-3.493-7.613-8.417-.714-.268-1.525-.451-2.326-.713 0 2.501-.088 5.454.897 7.78 1.071-.08 1.167-1.246 1.699-1.961 3.048 2.056-2.596 6.439 2.326 7.336" style="fill:url(#av);stroke:none"/></g><g clip-path="url(#aw)" transform="matrix(1.65313 0 0 -1.65313 -142.925 5160.973)"><path d="M0 0c.715 1.168 1.613 2.155 1.346 3.676C.447 4.84-.085 7.612-2.327 6.272c-1.072.091-.447 1.253-.623 1.968.176 2.505 2.41.984 3.846 1.701.182.804-.267 1.433-.449 2.15-3.221.355 0 3.671-1.875 5.192-3.133 1.076-6.356-.09-9.314-.717-1.705.535-1.258 2.422-1.521 3.671.263.983 1.346.894 1.968 1.344 0 .449-.089.804-.447 1.07-.716.899-1.705 0-2.596.179-.447.363-.626.808-.626 1.346 3.669 4.833-5.191 4.296-4.12 9.22-1.518 2.062-3.848 3.047-6.264 3.49-1.976 3.047-5.101 1.343-7.701.807-1.344.274-2.328 2.15-3.487 1.793.447-1.257 1.874-2.327 1.338-3.672-1.786.09-3.31.538-4.744 1.257.713 2.236-1.791 3.131-1.972 5.012.449 1.164 1.972.715 3.048.8 1.882.452.985 2.961 2.953 3.498-1.88 1.966-4.029 4.652-4.928 7.518-3.85.183-7.339 1.252-10.741 2.417-.356-.272-.807-.447-1.071-.715 0-.45-.273-.989.174-1.255 4.299-2.242 11.638-.447 13.342-7.161-.715-1.165-1.432-.36-2.596-.626-.802-.629-1.343-.629-1.075-1.971-.268-.808-1.25-.897-1.883-1.253-1.518 1.517-4.025.537-5.455 2.419-.986 4.739-6.895 4.117-10.749 5.37-1.254-1.076-3.578-2.327-4.562-3.048 1.164-.891 1.88-1.969 1.522-3.488-.183-.361-.632-1.076-1.253-.808-2.417 3.674-5.732-.445-8.864 1.527-1.255.889-1.97 2.593-3.406 3.399-1.428.893-4.384-.889-4.561 1.521.897.806 1.882 1.164 3.042 1.346 1.075.087 2.327 1.338 2.15 2.509 2.243 5.099-3.31.083-4.741-.183-3.318.806-5.642-6.18-8.864-2.326-1.705-.54-3.314-1.438-4.747-2.601-1.253-1.428-2.508.899-3.67-.896-2.149.271-1.972-1.88-1.883-3.224 2.416-1.517 4.833-3.846 7.972-2.146 1.611-.896 3.49-1.433 4.474-3.22.982-.092 2.237.264 2.862-.72-.088-2.054 2.153-3.222 2.509-5.102 1.251.358 2.864.268 3.672-.893.357-1.254-1.163-1.61-1.256-2.327.362-.985.988-1.613 1.969-1.972.357-.982-.621-1.431-.897-2.15-4.384-.357-.71-4.206-1.072-6.264.179-.985.807-2.239 2.151-1.699.805-.63 1.971-1.344 1.521-2.597-1.521-2.331.805-4.572 2.151-6.447 2.5-3.404-3.497-4.389-1.526-7.609-1.971-3.402-6.265-.18-8.416-3.671-.894.714-1.88 1.79-3.039 1.345-3.049-4.12-1.52-10.566-6.181-13.61.182-1.701.897-3.317 1.882-4.478.268.804.892 1.435 1.34 2.15 1.969-.269 2.153-2.778 3.222-4.118.896.358 2.422 1.614 2.601 2.772-1.432 2.604-1.795 5.644-2.151 8.688 1.257.713 2.241 2.688 3.848 1.876a62.11 62.11 0 0 1-1.248-3.846c-.274-3.671 2.68-.271 4.024-.447.538-.989.809-2.062.719-3.224-4.03.088.538-3.31-1.521-4.743-2.418.264-1.793-2.509-3.946-3.048-1.52-.446-3.664-1.163-4.468 1.075-2.332.987-.896-1.521-1.08-2.331-2.864-2.859-3.487-7.426-7.966-7.962-.715-2.688 2.15-.271 3.222-1.346-.182-1.607.358-3.403-.448-4.741-1.611.445-3.582 0-5.19.445-.541-2.238-2.238-3.937-2.776-6.268 0-4.39 4.657-2.507 7.07-2.773 1.434.713 1.612 2.328 2.601 3.401-.184 4.659 5.73 5.106 8.679 7.611 1.613-1.255 2.597-4.298 5.104-3.671 3.137-.896.361-3.049-.352-4.118.085-.359.535-.986 1.071-.895 4.925 4.117-2.599 7.157-3.047 10.565 1.434.531 3.497-.181 4.746-1.436 1.342-1.072.536-4.205 3.043-3.669 2.153-1.074 1.075-4.031 1.703-5.642.805-.535 1.788.091 2.153.627-3.498 2.595 1.248 4.568-1.531 7.341.451.898 1.438.809 2.155 1.078 1.162-.807 1.344-1.97 1.52-3.224 1.078.092 1.97-.09 2.773-.627 1.879 1.519 4.568 1.97 5.014 4.744.626.266 1.705.895 2.155-.268-2.509-7.162 5.277-9.223 8.413-13.962 3.58-1.974 7.516-3.224 11.19-5.196 1.97 2.509 2.686 5.998 5.994 7.971-1.43 3.845 3.762 4.921 2.871 7.966.712 2.504-2.423 3.309-.718 5.637-.181 1.612-1.435.536-2.599.806-1.345-.897-4.115-.356-3.578-2.954-1.793-2.237-5.905-2.328-8.421-1.522-.444.81-.984 1.881-.444 2.774 2.416.27 7.253-1.072 6.895 3.222 1.161.451 2.686 0 3.851.451 1.967.534 1.874 2.684 3.035 3.939 1.614-.18 3.317-.629 4.752-.446 5.817 2.418 10.915-2.512 16.117-3.225-2.509 7.073-5.018 14.146-7.97 21.129 1.608 1.519.804 2.769-.358 4.294 1.79.723 2.325 4.747 4.473 3.228.809-.809 2.509-1.169 3.855-1.345.532.896.084 1.878-.358 2.597.978 1.612 2.859 1.25 4.471 1.34.897-.09 1.971-.625 1.521-1.789 1.08-2.691 4.476-4.296 3.854-7.968.896-.09 1.609-.63 2.592-.357.273.892-.443 1.431-.175 2.328C.803-4.113-.175-2.772-1.881-2.147-2.327-.982-3.845.536-2.327 1.706-.714 2.244-1.338.183 0 0Zm-77.176-7.339c-.706.984-3.041 1.437-2.143 3.048 1.341.802.722 5.374 3.04 2.771-.262-2.151.723-4.113-.897-5.819zm18.18-18.26c-1.525-3.937-7.613-3.493-7.613-8.415-.715-.269-1.525-.452-2.326-.714 0 2.5-.088 5.454.896 7.78 1.072-.08 1.168-1.246 1.699-1.961 3.049 2.056-2.595 6.438 2.326 7.335.81-.897.27-2.413 1.342-3.223 1.167-.349 2.604-.087 3.676-.802zm12.082 2.144c-.984-.802-2.143-4.652-4.112-2.588-1.167.801-1.437 2.588-.628 3.668.088.357.628.714 0 1.071-1.436.095-2.063-1.429-3.31-1.794-.626 2.874-6.184 5.732-1.881 8.415.985 1.612 2.683-.358 3.85.897.358-.175.802-.175 1.072-.627.087-1.516-3.85-3.136-1.524-4.564 1.342-.358 2.151.626 3.5.452 0-2.239 2.414-2.953 3.033-4.93z" style="fill:none;stroke:#00639e;stroke-width:.41;stroke-linecap:butt;stroke-linejoin:miter;stroke-miterlimit:4;stroke-dasharray:none;stroke-opacity:1" transform="translate(292.056 3027.537)"/></g><g clip-path="url(#ax)" transform="matrix(1.65313 0 0 -1.65313 -142.925 5160.973)"><path d="M272.277 2951.623c-2.694-1.342-1.885-3.131-2.418-5.551-1.077-.624-2.241-1.344-3.409-1.968.097-1.523 1.168-2.686 1.074-4.296-.448-.985-.448-1.793.451-2.6-2.325-6.622 3.67-1.343 5.373-.181-.893 2.781 1.787 5.645.18 7.976-2.148 1.515.355 3.304.718 4.918-.337.668-.904 1.72-1.769 1.72-.065 0-.132-.01-.2-.018" style="fill:url(#ay);stroke:none"/></g><g clip-path="url(#az)" transform="matrix(1.65313 0 0 -1.65313 -142.925 5160.973)"><path d="M0 0c1.608-2.332-1.073-5.196-.18-7.976-1.703-1.162-7.697-6.441-5.373.181-.899.807-.899 1.615-.451 2.599.095 1.612-.977 2.773-1.073 4.297 1.168.625 2.33 1.344 3.409 1.968.532 2.42-.277 4.209 2.417 5.551.979.179 1.606-.984 1.969-1.702C.355 3.304-2.147 1.515 0 0Z" style="fill:none;stroke:#00639e;stroke-width:.41;stroke-linecap:butt;stroke-linejoin:miter;stroke-miterlimit:4;stroke-dasharray:none;stroke-opacity:1" transform="translate(273.528 2945.003)"/></g><g clip-path="url(#aA)" transform="matrix(1.65313 0 0 -1.65313 -142.925 5160.973)"><path d="M128.227 2941.773c.988.272 1.614.985 1.966 1.885-.803.803-.978 2.414-2.323 2.414-2.151-1.344-.717-3.042.357-4.299" style="fill:url(#aB);stroke:none"/></g><g clip-path="url(#aC)" transform="matrix(1.65313 0 0 -1.65313 -142.925 5160.973)"><path d="M0 0c-1.073 1.256-2.508 2.955-.356 4.298 1.343 0 1.519-1.611 2.323-2.413C1.614.985.987.272 0 0Z" style="fill:none;stroke:#00639e;stroke-width:.41;stroke-linecap:butt;stroke-linejoin:miter;stroke-miterlimit:4;stroke-dasharray:none;stroke-opacity:1" transform="translate(128.227 2941.773)"/></g><g clip-path="url(#aD)" transform="matrix(1.65313 0 0 -1.65313 -142.925 5160.973)"><path d="M158.49 2926.013c.084.361.532.095.623.451-.091 1.34-.539 2.778-1.52 3.674-2.244-.538.445-2.775.897-4.125" style="fill:url(#aE);stroke:none"/></g><g clip-path="url(#aF)" transform="matrix(1.65313 0 0 -1.65313 -142.925 5160.973)"><path d="M0 0c-.452 1.351-3.141 3.587-.897 4.126C.085 3.23.531 1.791.623.451.531.095.085.362 0 0Z" style="fill:none;stroke:#00639e;stroke-width:.41;stroke-linecap:butt;stroke-linejoin:miter;stroke-miterlimit:4;stroke-dasharray:none;stroke-opacity:1" transform="translate(158.49 2926.013)"/></g><g clip-path="url(#aG)" transform="matrix(1.65313 0 0 -1.65313 -142.925 5160.973)"><path d="M303.522 3014.234c1.786-1.703 2.861-4.384 2.414-6.893-1.077.093-2.06.713-3.047.18.271-2.509 2.599-3.045 3.854-5.193.355 3.94-.543 8.328-.807 12.534-.266-.06-.697.084-1.128.227-.363.121-.727.242-.996.242-.385 0-.576-.248-.29-1.097" style="fill:url(#aH);stroke:none"/></g><path d="M0 0c-1.256 2.147-3.583 2.684-3.854 5.192.987.534 1.971-.086 3.047-.18.447 2.509-.629 5.191-2.414 6.894-.723 2.149 1.606.445 2.414.628C-.543 8.328.355 3.939 0 0Z" style="fill:none;stroke:#00639e;stroke-width:.41;stroke-linecap:butt;stroke-linejoin:miter;stroke-miterlimit:4;stroke-dasharray:none;stroke-opacity:1" transform="matrix(1.65313 0 0 -1.65313 364.162 197.729)"/></svg>