<svg xmlns="http://www.w3.org/2000/svg" xml:space="preserve" width="400" height="400"><defs><clipPath id="a" clipPathUnits="userSpaceOnUse"><path d="M0 0h1133.858v4535.433H0Z"/></clipPath><clipPath id="b" clipPathUnits="userSpaceOnUse"><path d="M197.957 4391.357c-5.563-16.829 14.022-36.318.823-48.424-18.35-16.829-61.998-8.225-74.352 24.278-12.996-25.857-3.181-55.471 15.79-71.891 20.469-17.709 45.37-21.135 69.291-8.202 23.508 12.717 33.196 41.443 23.92 66.483-7.838 20.927 17.781 41.876-10.721 48.424a30.125 30.125 0 0 1-6.729.786c-8.199 0-15.418-3.685-18.022-11.454"/></clipPath><linearGradient id="c" x1="0" x2="1" y1="0" y2="0" gradientTransform="rotate(52.7 -4240.863 2268.75) scale(147.74022)" gradientUnits="userSpaceOnUse" spreadMethod="pad"><stop offset="0" style="stop-opacity:1;stop-color:#007dc5"/><stop offset=".008" style="stop-opacity:1;stop-color:#007dc5"/><stop offset=".993" style="stop-opacity:1;stop-color:#44c8f5"/><stop offset=".993" style="stop-opacity:1;stop-color:#44c8f5"/><stop offset="1" style="stop-opacity:1;stop-color:#44c8f5"/></linearGradient></defs><path d="M-786.644 4337.798h241.965v241.965h-241.965z" style="fill:#b2d34a;fill-opacity:1;fill-rule:nonzero;stroke:none" transform="matrix(1.65313 0 0 -1.65313 1300.427 7570.951)"/><g clip-path="url(#a)" transform="matrix(1.65313 0 0 -1.65313 -142.925 7343.497)"><path d="m0 0-25.574 4.515 16.498-53.773C5.362-33.656-2.681-21.347 0 0" style="fill:#c4df9b;fill-opacity:1;fill-rule:nonzero;stroke:none" transform="translate(192.187 4367.556)"/><path d="m0 0-25.574 4.515 16.498-53.773C5.362-33.656-2.681-21.347 0 0Z" style="fill:none;stroke:#231f20;stroke-width:1.74399996;stroke-linecap:butt;stroke-linejoin:miter;stroke-miterlimit:3.86400008;stroke-dasharray:none;stroke-opacity:1" transform="translate(192.187 4367.556)"/></g><g clip-path="url(#b)" transform="matrix(1.65313 0 0 -1.65313 -142.925 7343.497)"><path d="M197.957 4391.357c-5.563-16.829 14.022-36.318.823-48.424-18.35-16.829-61.998-8.225-74.352 24.278-12.996-25.857-3.181-55.471 15.79-71.891 20.469-17.709 45.37-21.135 69.291-8.202 23.508 12.717 33.196 41.443 23.92 66.483-7.838 20.927 17.781 41.876-10.721 48.424a30.125 30.125 0 0 1-6.729.786c-8.199 0-15.418-3.685-18.022-11.454" style="fill:url(#c);stroke:none"/></g><path d="M0 0c-10.729 2.466-21.45-.82-24.752-10.668-5.562-16.83 14.023-36.319.824-48.425-18.35-16.829-61.999-8.225-74.352 24.279-12.997-25.858-3.182-55.472 15.79-71.892 20.469-17.709 45.37-21.135 69.291-8.202 23.508 12.717 33.196 41.444 23.92 66.484C2.882-27.498 28.502-6.548 0 0Z" style="fill:none;stroke:#231f20;stroke-width:1.74399996;stroke-linecap:butt;stroke-linejoin:miter;stroke-miterlimit:3.86400008;stroke-dasharray:none;stroke-opacity:1" transform="matrix(1.65313 0 0 -1.65313 225.241 66.368)"/><path d="M0 0c-4.53-11.078-19.175-20.315-29.695-26.268L0-59.919l-54.441 28.727C-41.862-10.057-22.065-10.876 0 0" style="fill:#f6881f;fill-opacity:1;fill-rule:nonzero;stroke:none" transform="matrix(1.65313 0 0 -1.65313 309.77 52.797)"/><path d="M0 0c-4.53-11.078-19.175-20.315-29.695-26.268L0-59.919l-54.441 28.727C-41.862-10.057-22.065-10.876 0 0Z" style="fill:none;stroke:#231f20;stroke-width:1.74399996;stroke-linecap:butt;stroke-linejoin:miter;stroke-miterlimit:3.86400008;stroke-dasharray:none;stroke-opacity:1" transform="matrix(1.65313 0 0 -1.65313 309.77 52.797)"/><path d="M0 0c0 3.584-2.914 6.482-6.517 6.482-3.596 0-6.51-2.898-6.51-6.482 0-3.576 2.914-6.474 6.51-6.474C-2.914-6.474 0-3.576 0 0" style="fill:#fff;fill-opacity:1;fill-rule:nonzero;stroke:none" transform="matrix(1.65313 0 0 -1.65313 223.584 93.365)"/><path d="M0 0c0 3.584-2.914 6.482-6.517 6.482-3.596 0-6.51-2.898-6.51-6.482 0-3.576 2.914-6.474 6.51-6.474C-2.914-6.474 0-3.576 0 0Z" style="fill:none;stroke:#231f20;stroke-width:1.74399996;stroke-linecap:butt;stroke-linejoin:miter;stroke-miterlimit:3.86400008;stroke-dasharray:none;stroke-opacity:1" transform="matrix(1.65313 0 0 -1.65313 223.584 93.365)"/><path d="M0 0c0 3.033-1.799 5.483-4.01 5.483-2.219 0-4.018-2.45-4.018-5.483 0-3.024 1.799-5.476 4.018-5.476C-1.799-5.476 0-3.024 0 0" style="fill:#231f20;fill-opacity:1;fill-rule:nonzero;stroke:none" transform="matrix(1.65313 0 0 -1.65313 225.244 93.365)"/><path d="M0 0c0 3.033-1.799 5.483-4.01 5.483-2.219 0-4.018-2.45-4.018-5.483 0-3.024 1.799-5.476 4.018-5.476C-1.799-5.476 0-3.024 0 0Z" style="fill:none;stroke:#231f20;stroke-width:1.99300003;stroke-linecap:butt;stroke-linejoin:miter;stroke-miterlimit:3.86400008;stroke-dasharray:none;stroke-opacity:1" transform="matrix(1.65313 0 0 -1.65313 225.244 93.365)"/><path d="M0 0c1.438 6.363-1.033 10.877-4.126 16.413M-10.731.82c0 11.905-8.252 18.469-18.976 23.802M-18.983 0c-7.422 14.773-18.354 19.497-33.826 22.983m26.404-27.087c-6.395 6.362-12.58 6.771-21.454 7.39" style="fill:none;stroke:#231f20;stroke-width:3.28299999;stroke-linecap:round;stroke-linejoin:miter;stroke-miterlimit:3.86400008;stroke-dasharray:none;stroke-opacity:1" transform="matrix(1.65313 0 0 -1.65313 232.067 67.724)"/><path d="m0 0-25.916-1.781L5.279-58.526C15.5-39.921 2.583-21.354 0 0" style="fill:#c4df9b;fill-opacity:1;fill-rule:nonzero;stroke:none" transform="matrix(1.65313 0 0 -1.65313 137.42 105.31)"/><path d="m0 0-25.916-1.781L5.279-58.526C15.5-39.921 2.583-21.354 0 0Z" style="fill:none;stroke:#231f20;stroke-width:1.74399996;stroke-linecap:butt;stroke-linejoin:miter;stroke-miterlimit:3.86400008;stroke-dasharray:none;stroke-opacity:1" transform="matrix(1.65313 0 0 -1.65313 137.42 105.31)"/><path d="M0 0c-3.22-31.819-11.008-30.508.127-59.436 16.915 1.43 31.352 6.973 43.311-4.924H3.841L.539-61.901l28.873-9.85C21.782-82.009-3.587-54.72-3.587-67.646c-4.125-.618-12.58-3.695-10.722 0 2.059 4.105 5.57 5.125 9.075 8.21z" style="fill:#007dc5;fill-opacity:1;fill-rule:nonzero;stroke:none" transform="matrix(1.65313 0 0 -1.65313 143.881 266.623)"/><path d="M0 0c-3.22-31.819-11.008-30.508.127-59.436 16.915 1.43 31.352 6.973 43.311-4.924H3.841L.539-61.901l28.873-9.85C21.782-82.009-3.587-54.72-3.587-67.646c-4.125-.618-12.58-3.695-10.722 0 2.059 4.105 5.57 5.125 9.075 8.21z" style="fill:none;stroke:#231f20;stroke-width:3.28299999;stroke-linecap:butt;stroke-linejoin:miter;stroke-miterlimit:3.86400008;stroke-dasharray:none;stroke-opacity:1" transform="matrix(1.65313 0 0 -1.65313 143.881 266.623)"/><path d="M0 0c34.645-1.639 31.553 4.105 65.995 4.105 0 10.879 4.126 16.624 6.597 27.092-10.513-.82-11.546-15.602-8.244-25.452 8.454 5.953 15.05 9.03 25.57 9.03-4.328-6.773-10.108-8.821-18.15-9.85 2.89-1.438 3.093-1.438 0 0-5.982-12.108 2.479-26.264-9.074-32.836 0 11.907 4.949 18.471 4.949 30.37z" style="fill:#007dc5;fill-opacity:1;fill-rule:nonzero;stroke:none" transform="matrix(1.65313 0 0 -1.65313 219.764 244.128)"/><path d="M0 0c34.645-1.639 31.553 4.105 65.995 4.105 0 10.879 4.126 16.624 6.597 27.092-10.513-.82-11.546-15.602-8.244-25.452 8.454 5.953 15.05 9.03 25.57 9.03-4.328-6.773-10.108-8.821-18.15-9.85 2.89-1.438 3.093-1.438 0 0-5.982-12.108 2.479-26.264-9.074-32.836 0 11.907 4.949 18.471 4.949 30.37z" style="fill:none;stroke:#231f20;stroke-width:3.28299999;stroke-linecap:butt;stroke-linejoin:miter;stroke-miterlimit:3.86400008;stroke-dasharray:none;stroke-opacity:1" transform="matrix(1.65313 0 0 -1.65313 219.764 244.128)"/></svg>