<svg xmlns="http://www.w3.org/2000/svg" xml:space="preserve" width="400" height="400"><defs><clipPath id="a" clipPathUnits="userSpaceOnUse"><path d="M167.169 3722.794c3.696-3.509-6.87-74.178-7.996-83.353-1.679-13.659-5.821-27.727-18.592-33.266-5.644-2.443-10.82-.932-15.784.581-5.733 1.746-11.184 3.492-16.748-.854-4.406-3.442-6.173-7.489-4.918-12.906.928-4.023 6.046-6.52 9.804-8.172 5.397-2.367 12.783-1.855 17.335-2.411 5.466-.672 6.35-.424 11.873-.604 1.763-.051 3.183-.049 4.385-.048 4.977.01 6.199.018 12.497-3.733 6.033-3.587 18.707-1.657 20.263 5.193 1.266 5.674 1.959 8.431.004 13.932-3.543 9.964 3.232 18.873 4.514 29.308 2.339 19.052 20.132 77.28 22.471 96.333-10.155-2.805-29.092-3.576-39.108 0"/></clipPath><clipPath id="b" clipPathUnits="userSpaceOnUse"><path d="M0 0h1133.858v4535.433H0Z"/></clipPath><clipPath id="c" clipPathUnits="userSpaceOnUse"><path d="M221.228 3718.194c1.34-19.148 14.952-87.351 16.292-106.499.734-10.489 7.032-19.741 2.972-29.505-2.238-5.391-1.691-8.182-.723-13.916 1.192-6.919 13.754-9.506 19.961-6.244 8.051 4.241 7.988 3.105 17.059 2.892 5.525-.109 6.396-.401 11.888-.017 1.328.092 2.891.082 4.574.072 4.114-.024 8.951-.048 12.863 1.428 3.842 1.454 9.077 3.678 10.217 7.648 1.537 5.343-.016 9.478-4.235 13.145-5.316 4.621-10.838 3.18-16.64 1.74-5.049-1.253-10.311-2.506-15.835.235-12.459 6.202-15.864 20.466-16.822 34.193-.644 9.225-6.411 96.115-2.541 99.428-10.184-3.047-29.034-7.933-39.03-4.6"/></clipPath></defs><path d="M85.875 3536.334H327.84v241.965H85.875Z" style="fill:#b2d34a;fill-opacity:1;fill-rule:nonzero;stroke:none" transform="matrix(1.65313 0 0 -1.65313 -141.962 6246.022)"/><path d="M0 0c47.767-47.768 97.139-48.407 162.859-57.704 83.027-11.862 153.876 5.129 228.253 60.268" style="fill:none;stroke:#fff;stroke-width:2.56399989;stroke-linecap:butt;stroke-linejoin:miter;stroke-miterlimit:3.86400008;stroke-dasharray:none;stroke-opacity:1" transform="matrix(1.65313 0 0 -1.65313 -109.743 5.941)"/><g clip-path="url(#a)" transform="matrix(1.65313 0 0 -1.65313 -141.962 6246.022)"><path d="m0 0 89.399-10.977-1.177-9.601-89.4 10.979z" style="fill:#fcaf16;fill-opacity:1;fill-rule:nonzero;stroke:none" transform="translate(109.81 3659.508)"/><path d="m0 0 87.597-10.755-1.471-12.001-87.6 10.755z" style="fill:#00733c;fill-opacity:1;fill-rule:nonzero;stroke:none" transform="translate(108.936 3647.435)"/><path d="m0 0 84-10.315-1.55-12.6-83.995 10.314z" style="fill:#fcaf16;fill-opacity:1;fill-rule:nonzero;stroke:none" transform="translate(108.736 3635.886)"/><path d="m0 0 83.998-10.314-1.326-10.8-84.001 10.316z" style="fill:#00733c;fill-opacity:1;fill-rule:nonzero;stroke:none" transform="translate(105.084 3625.98)"/><path d="m0 0 87.597-10.758-1.323-10.8L-1.323-10.8Z" style="fill:#fcaf16;fill-opacity:1;fill-rule:nonzero;stroke:none" transform="translate(102.178 3617.204)"/><path d="m0 0 95.398-11.715-.958-7.798L-.956-7.802Z" style="fill:#fcaf16;fill-opacity:1;fill-rule:nonzero;stroke:none" transform="translate(95.672 3608.868)"/><path d="m0 0 90-11.049-1.696-13.801-90 11.049z" style="fill:#fcaf16;fill-opacity:1;fill-rule:nonzero;stroke:none" transform="translate(99.811 3602.876)"/><path d="m0 0 100.198-12.304-1.254-10.199L-1.255-10.2Z" style="fill:#fcaf16;fill-opacity:1;fill-rule:nonzero;stroke:none" transform="translate(93.538 3591.467)"/><path d="m0 0 103.2-12.671-1.106-9.002L-1.107-8.999Z" style="fill:#00733c;fill-opacity:1;fill-rule:nonzero;stroke:none" transform="translate(91.305 3583.215)"/><path d="m0 0 94.799-11.641-.734-5.998L-.737-6Z" style="fill:#fcaf16;fill-opacity:1;fill-rule:nonzero;stroke:none" transform="translate(105.251 3652.15)"/><path d="m0 0 67.8-8.325-1.178-9.6-67.8 8.326z" style="fill:#fcaf16;fill-opacity:1;fill-rule:nonzero;stroke:none" transform="translate(147.473 3739.796)"/><path d="m0 0 66-8.103-1.474-12.001-66 8.104z" style="fill:#00733c;fill-opacity:1;fill-rule:nonzero;stroke:none" transform="translate(146.6 3727.722)"/><path d="m0 0 62.401-7.661-1.548-12.601-62.398 7.661z" style="fill:#fcaf16;fill-opacity:1;fill-rule:nonzero;stroke:none" transform="translate(146.4 3716.177)"/><path d="m0 0 62.4-7.661-1.326-10.8-62.4 7.662z" style="fill:#00733c;fill-opacity:1;fill-rule:nonzero;stroke:none" transform="translate(142.748 3706.269)"/><path d="m0 0 66-8.105-1.326-10.798-66 8.103z" style="fill:#fcaf16;fill-opacity:1;fill-rule:nonzero;stroke:none" transform="translate(139.844 3697.492)"/><path d="m0 0 73.799-9.061-.956-7.8-73.802 9.06z" style="fill:#00733c;fill-opacity:1;fill-rule:nonzero;stroke:none" transform="translate(133.338 3689.155)"/><path d="m0 0 68.399-8.399L66.707-22.2l-90 11.052z" style="fill:#00733c;fill-opacity:1;fill-rule:nonzero;stroke:none" transform="translate(137.475 3683.166)"/><path d="m0 0 78.601-9.654-1.255-10.198L-22.852-7.55Z" style="fill:#fcaf16;fill-opacity:1;fill-rule:nonzero;stroke:none" transform="translate(131.202 3671.755)"/><path d="m0 0 103.2-12.671-1.103-9.002L-1.104-8.999Z" style="fill:#00733c;fill-opacity:1;fill-rule:nonzero;stroke:none" transform="translate(107.37 3666.154)"/><path d="m0 0 73.202-8.988-.74-5.999L-.736-6.001z" style="fill:#00733c;fill-opacity:1;fill-rule:nonzero;stroke:none" transform="translate(142.915 3732.438)"/></g><g clip-path="url(#b)" transform="matrix(1.65313 0 0 -1.65313 -141.962 6246.022)"><path d="M0 0c10.013-3.576 28.95-2.805 39.107 0-2.339-19.052-20.134-77.281-22.473-96.333-1.28-10.435-8.054-19.347-4.512-29.308 1.953-5.501 1.26-8.261-.003-13.935-1.556-6.848-14.234-8.776-20.263-5.19-7.818 4.657-7.815 3.517-16.883 3.777-5.522.184-6.407-.064-11.872.607-4.553.558-11.938.042-17.335 2.412-3.761 1.649-8.878 4.146-9.807 8.172-1.255 5.417.515 9.464 4.92 12.906 10.38 8.11 20.37-4.991 32.533.269C-13.82-111.08-9.675-97.012-7.999-83.354-6.873-74.178 3.693-3.512 0 0Z" style="fill:none;stroke:#231f20;stroke-width:1.14999998;stroke-linecap:butt;stroke-linejoin:miter;stroke-miterlimit:3.86400008;stroke-dasharray:none;stroke-opacity:1" transform="translate(167.17 3722.794)"/><path d="M0 0c7.711 4.071 6.911 13.204 5.068 21.673-1.698 7.899-6.594 12.184-11.426 18.9-2.118-1.197-2.419-6.173-2.153-8.592.424-4.662.578-7.172 1.318-11.753C-5.871 11.964-4.958 6.684 0 0" style="fill:#00aeef;fill-opacity:1;fill-rule:nonzero;stroke:none" transform="translate(165.992 3703.04)"/><path d="M0 0c7.711 4.071 6.911 13.204 5.068 21.673-1.698 7.899-6.594 12.184-11.426 18.9-2.118-1.197-2.419-6.173-2.153-8.592.424-4.662.578-7.172 1.318-11.753C-5.871 11.964-4.958 6.684 0 0Z" style="fill:none;stroke:#231f20;stroke-width:1.14999998;stroke-linecap:butt;stroke-linejoin:miter;stroke-miterlimit:3.86400008;stroke-dasharray:none;stroke-opacity:1" transform="translate(165.992 3703.04)"/><path d="M0 0c-1.219-3.997-1.586-7.377 1.89-9.733 4.531-3.1 9.87-1.902 10.681 3.47.112 3.318-.123 6.681-3.09 8.089C4.821 4.09 3.791 2.02 0 0" style="fill:#00aeef;fill-opacity:1;fill-rule:nonzero;stroke:none" transform="translate(152.875 3748.104)"/><path d="M0 0c-1.219-3.997-1.586-7.377 1.89-9.733 4.531-3.1 9.87-1.902 10.681 3.47.112 3.318-.123 6.681-3.09 8.089C4.821 4.09 3.791 2.02 0 0Z" style="fill:none;stroke:#231f20;stroke-width:1.14999998;stroke-linecap:butt;stroke-linejoin:miter;stroke-miterlimit:3.86400008;stroke-dasharray:none;stroke-opacity:1" transform="translate(152.875 3748.104)"/><path d="M0 0c8.703.583 11.683 9.251 13.445 17.736 1.66 7.911-1.068 13.816-2.748 21.914-2.424-.233-4.725-4.656-5.465-6.973-1.509-4.43-2.388-6.789-3.575-11.274C-.496 13.316-1.808 8.124 0 0" style="fill:#00aeef;fill-opacity:1;fill-rule:nonzero;stroke:none" transform="translate(197.352 3693.919)"/><path d="M0 0c8.703.583 11.683 9.251 13.445 17.736 1.66 7.911-1.068 13.816-2.748 21.914-2.424-.233-4.725-4.656-5.465-6.973-1.509-4.43-2.388-6.789-3.575-11.274C-.496 13.316-1.808 8.124 0 0Z" style="fill:none;stroke:#231f20;stroke-width:1.14999998;stroke-linecap:butt;stroke-linejoin:miter;stroke-miterlimit:3.86400008;stroke-dasharray:none;stroke-opacity:1" transform="translate(197.352 3693.919)"/><path d="M0 0c-2.737-3.156-4.449-6.096-2.233-9.662 2.882-4.673 8.249-5.753 11.171-1.175 1.452 2.984 2.606 6.155.466 8.648C6.068 1.775 4.287.303 0 0" style="fill:#00aeef;fill-opacity:1;fill-rule:nonzero;stroke:none" transform="translate(203.696 3740.422)"/><path d="M0 0c-2.737-3.156-4.449-6.096-2.233-9.662 2.882-4.673 8.249-5.753 11.171-1.175 1.452 2.984 2.606 6.155.466 8.648C6.068 1.775 4.287.303 0 0Z" style="fill:none;stroke:#231f20;stroke-width:1.14999998;stroke-linecap:butt;stroke-linejoin:miter;stroke-miterlimit:3.86400008;stroke-dasharray:none;stroke-opacity:1" transform="translate(203.696 3740.422)"/></g><g clip-path="url(#c)" transform="matrix(1.65313 0 0 -1.65313 -141.962 6246.022)"><path d="m0 0-89.852-6.283.675-9.649L.674-9.649z" style="fill:#fcaf16;fill-opacity:1;fill-rule:nonzero;stroke:none" transform="translate(313.145 3640.823)"/><path d="m0 0-88.041-6.157.844-12.058 88.04 6.156z" style="fill:#fcaf16;fill-opacity:1;fill-rule:nonzero;stroke:none" transform="translate(313.384 3628.721)"/><path d="m0 0-84.425-5.905.885-12.662L.885-12.663z" style="fill:#00733c;fill-opacity:1;fill-rule:nonzero;stroke:none" transform="translate(312.981 3617.179)"/><path d="m0 0-84.422-5.905.756-10.853L.761-10.855z" style="fill:#fcaf16;fill-opacity:1;fill-rule:nonzero;stroke:none" transform="translate(316.107 3607.097)"/><path d="m0 0-88.041-6.158.759-10.852L.761-10.856z" style="fill:#00733c;fill-opacity:1;fill-rule:nonzero;stroke:none" transform="translate(318.55 3598.177)"/><path d="m0 0-95.878-6.703.545-7.841L.551-7.84z" style="fill:#00733c;fill-opacity:1;fill-rule:nonzero;stroke:none" transform="translate(324.61 3589.511)"/><path d="m0 0-90.454-6.325.969-13.872L.97-13.869z" style="fill:#00733c;fill-opacity:1;fill-rule:nonzero;stroke:none" transform="translate(320.166 3583.748)"/><path d="m0 0-100.703-7.043.716-10.25L.715-10.249z" style="fill:#00733c;fill-opacity:1;fill-rule:nonzero;stroke:none" transform="translate(325.832 3572.021)"/><path d="m0 0-103.721-7.254.633-9.044L.633-9.044z" style="fill:#00733c;fill-opacity:1;fill-rule:nonzero;stroke:none" transform="translate(327.628 3563.665)"/><path d="m0 0-95.281-6.662.425-6.032L.419-6.032z" style="fill:#00733c;fill-opacity:1;fill-rule:nonzero;stroke:none" transform="translate(317.312 3633.238)"/><path d="m0 0-68.142-4.765.674-9.647L.674-9.649z" style="fill:#fcaf16;fill-opacity:1;fill-rule:nonzero;stroke:none" transform="translate(279.733 3722.974)"/><path d="m0 0-66.331-4.639.841-12.06 66.331 4.64z" style="fill:#fcaf16;fill-opacity:1;fill-rule:nonzero;stroke:none" transform="translate(279.972 3710.87)"/><path d="m0 0-62.716-4.386.888-12.664L.885-12.663z" style="fill:#00733c;fill-opacity:1;fill-rule:nonzero;stroke:none" transform="translate(279.569 3699.328)"/><path d="m0 0-62.713-4.387.757-10.853L.759-10.856z" style="fill:#fcaf16;fill-opacity:1;fill-rule:nonzero;stroke:none" transform="translate(282.695 3689.245)"/><path d="m0 0-66.331-4.639.756-10.854L.759-10.855z" style="fill:#00733c;fill-opacity:1;fill-rule:nonzero;stroke:none" transform="translate(285.138 3680.327)"/><path d="m0 0-74.171-5.187.548-7.84L.548-7.84z" style="fill:#fcaf16;fill-opacity:1;fill-rule:nonzero;stroke:none" transform="translate(291.197 3671.66)"/><path d="m0 0-68.744-4.808.969-13.868 90.454 6.326z" style="fill:#00733c;fill-opacity:1;fill-rule:nonzero;stroke:none" transform="translate(286.754 3665.894)"/><path d="m0 0-78.995-5.524.714-10.252L22.424-8.733z" style="fill:#fcaf16;fill-opacity:1;fill-rule:nonzero;stroke:none" transform="translate(292.422 3654.173)"/><path d="m0 0-103.721-7.254.633-9.044L.63-9.047z" style="fill:#00733c;fill-opacity:1;fill-rule:nonzero;stroke:none" transform="translate(315.926 3647.334)"/><path d="m0 0-73.571-5.145.424-6.03L.419-6.031z" style="fill:#00733c;fill-opacity:1;fill-rule:nonzero;stroke:none" transform="translate(283.9 3715.386)"/></g><path d="M0 0c-10.185-3.046-29.037-7.933-39.033-4.601 1.339-19.147 14.951-87.35 16.293-106.499.732-10.491 7.03-19.742 2.973-29.504-2.241-5.391-1.69-8.182-.723-13.916 1.188-6.919 13.751-9.51 19.961-6.244 8.051 4.242 7.986 3.105 17.059 2.892 5.525-.109 6.396-.404 11.883-.02 4.577.32 11.927-.581 17.442 1.504 3.84 1.45 9.078 3.677 10.217 7.647 1.534 5.343-.016 9.478-4.235 13.145-9.944 8.643-20.605-3.916-32.478 1.975-12.461 6.202-15.861 20.466-16.822 34.194C1.893-90.208-3.871-3.313 0 0Z" style="fill:none;stroke:#231f20;stroke-width:1.14999998;stroke-linecap:butt;stroke-linejoin:miter;stroke-miterlimit:3.86400008;stroke-dasharray:none;stroke-opacity:1" transform="matrix(1.65313 0 0 -1.65313 288.28 91.757)"/><path d="M0 0c8.391 2.379 9.508 11.479 9.464 20.144-.021 8.081-3.917 13.29-7.245 20.865-2.323-.733-3.652-5.538-3.893-7.956-.556-4.648-.925-7.139-1.156-11.773C-3.254 12.92-3.457 7.572 0 0" style="fill:#00aeef;fill-opacity:1;fill-rule:nonzero;stroke:none" transform="matrix(1.65313 0 0 -1.65313 241.898 125.452)"/><path d="M0 0c8.391 2.379 9.508 11.479 9.464 20.144-.021 8.081-3.917 13.29-7.245 20.865-2.323-.733-3.652-5.538-3.893-7.956-.556-4.648-.925-7.139-1.156-11.773C-3.254 12.92-3.457 7.572 0 0Z" style="fill:none;stroke:#231f20;stroke-width:1.14999998;stroke-linecap:butt;stroke-linejoin:miter;stroke-miterlimit:3.86400008;stroke-dasharray:none;stroke-opacity:1" transform="matrix(1.65313 0 0 -1.65313 241.898 125.452)"/><path d="M0 0c-2.022-3.654-3.085-6.887-.178-9.913 3.791-3.974 9.262-3.913 11.171 1.173.8 3.22 1.271 6.561-1.342 8.555C5.564 2.996 4.128 1.186 0 0" style="fill:#00aeef;fill-opacity:1;fill-rule:nonzero;stroke:none" transform="matrix(1.65313 0 0 -1.65313 236.183 48.075)"/><path d="M0 0c-2.022-3.654-3.085-6.887-.178-9.913 3.791-3.974 9.262-3.913 11.171 1.173.8 3.22 1.271 6.561-1.342 8.555C5.564 2.996 4.128 1.186 0 0Z" style="fill:none;stroke:#231f20;stroke-width:1.14999998;stroke-linecap:butt;stroke-linejoin:miter;stroke-miterlimit:3.86400008;stroke-dasharray:none;stroke-opacity:1" transform="matrix(1.65313 0 0 -1.65313 236.183 48.075)"/><path d="M0 0c8.7.582 11.684 9.251 13.445 17.736 1.657 7.91-1.071 13.815-2.748 21.914-2.424-.233-4.725-4.657-5.465-6.973-1.509-4.43-2.388-6.789-3.577-11.274C-.496 13.315-1.808 8.124 0 0" style="fill:#00aeef;fill-opacity:1;fill-rule:nonzero;stroke:none" transform="matrix(1.65313 0 0 -1.65313 274.105 142.622)"/><path d="M0 0c8.7.582 11.684 9.251 13.445 17.736 1.657 7.91-1.071 13.815-2.748 21.914-2.424-.233-4.725-4.657-5.465-6.973-1.509-4.43-2.388-6.789-3.577-11.274C-.496 13.315-1.808 8.124 0 0Z" style="fill:none;stroke:#231f20;stroke-width:1.14999998;stroke-linecap:butt;stroke-linejoin:miter;stroke-miterlimit:3.86400008;stroke-dasharray:none;stroke-opacity:1" transform="matrix(1.65313 0 0 -1.65313 274.105 142.622)"/><path d="M0 0c-2.737-3.156-4.449-6.095-2.233-9.66 2.882-4.674 8.249-5.755 11.172-1.175 1.451 2.984 2.605 6.153.465 8.648C6.068 1.774 4.287.303 0 0" style="fill:#00aeef;fill-opacity:1;fill-rule:nonzero;stroke:none" transform="matrix(1.65313 0 0 -1.65313 284.598 65.747)"/><path d="M0 0c-2.737-3.156-4.449-6.095-2.233-9.66 2.882-4.674 8.249-5.755 11.172-1.175 1.451 2.984 2.605 6.153.465 8.648C6.068 1.774 4.287.303 0 0Z" style="fill:none;stroke:#231f20;stroke-width:1.14999998;stroke-linecap:butt;stroke-linejoin:miter;stroke-miterlimit:3.86400008;stroke-dasharray:none;stroke-opacity:1" transform="matrix(1.65313 0 0 -1.65313 284.598 65.747)"/></svg>