<svg xmlns="http://www.w3.org/2000/svg" xml:space="preserve" width="400" height="400"><path d="M745.512 3868.271h241.965v241.965H745.512Z" style="fill:#b2d34a;fill-opacity:1;fill-rule:nonzero;stroke:none" transform="matrix(1.65313 0 0 -1.65313 -1232.43 6794.761)"/><path d="M0 0c0-5.975-4.269-11.383-10.246-11.383-8.11 0-12.519 8.679-12.519 16.791 0 7.113 7.113 11.666 14.227 11.666 3.273 0 4.126-3.416 5.691-6.261C-.855 7.114 0 4.269 0 0" style="fill:#fbb78c;fill-opacity:1;fill-rule:nonzero;stroke:none" transform="matrix(1.65313 0 0 -1.65313 261.981 145.432)"/><path d="M0 0c0-5.975-4.269-11.383-10.246-11.383-8.11 0-12.519 8.679-12.519 16.791 0 7.113 7.113 11.666 14.227 11.666 3.273 0 4.126-3.416 5.691-6.261C-.855 7.114 0 4.269 0 0Z" style="fill:none;stroke:#231f20;stroke-width:.92900002;stroke-linecap:butt;stroke-linejoin:miter;stroke-miterlimit:3.86400008;stroke-dasharray:none;stroke-opacity:1" transform="matrix(1.65313 0 0 -1.65313 261.981 145.432)"/><path d="M0 0c1.422.853 2.347 1.422 3.983 1.422.996 0 1.139-1.21 1.708-1.991L5.408-3.13c-1.139-.072-1.708-.284-2.847-.284C.924-3.414.284-1.565 0 0" style="fill:#a9218e;fill-opacity:1;fill-rule:nonzero;stroke:none" transform="matrix(1.65313 0 0 -1.65313 253.982 139.316)"/><path d="M0 0c1.422.853 2.347 1.422 3.983 1.422.996 0 1.139-1.21 1.708-1.991L5.408-3.13c-1.139-.072-1.708-.284-2.847-.284C.924-3.414.284-1.565 0 0Z" style="fill:none;stroke:#231f20;stroke-width:.84399998;stroke-linecap:round;stroke-linejoin:miter;stroke-miterlimit:3.86400008;stroke-dasharray:none;stroke-opacity:1" transform="matrix(1.65313 0 0 -1.65313 253.982 139.316)"/><path d="M0 0c-.639.853-1.992 2.845-3.13 2.845-1.992 0-3.129-1.849-3.698-3.7.853-.284 1.636-1.706 2.561-1.706C-2.49-2.561-.427-1.708 0 0" style="fill:#a9218e;fill-opacity:1;fill-rule:nonzero;stroke:none" transform="matrix(1.65313 0 0 -1.65313 248.335 145.901)"/><path d="M0 0c-.639.853-1.992 2.845-3.13 2.845-1.992 0-3.129-1.849-3.698-3.7.853-.284 1.636-1.706 2.561-1.706C-2.49-2.561-.427-1.708 0 0z" style="fill:none;stroke:#231f20;stroke-width:.84399998;stroke-linecap:round;stroke-linejoin:miter;stroke-miterlimit:3.86400008;stroke-dasharray:none;stroke-opacity:1" transform="matrix(1.65313 0 0 -1.65313 248.335 145.901)"/><path d="M0 0c-1.512.605-2.454.855-4.055.855-.819 0-1.422-.286-1.849-.996" style="fill:none;stroke:#231f20;stroke-width:.84399998;stroke-linecap:round;stroke-linejoin:miter;stroke-miterlimit:3.86400008;stroke-dasharray:none;stroke-opacity:1" transform="matrix(1.65313 0 0 -1.65313 255.51 143.08)"/><path d="M0 0c-1.494.123-2.347.355-3.841.355-1.103 0-1.743-.107-2.846-.214-1.05-.105-2.311-.159-2.418-1.208l.283-.784" style="fill:none;stroke:#231f20;stroke-width:.92900002;stroke-linecap:round;stroke-linejoin:miter;stroke-miterlimit:3.86400008;stroke-dasharray:none;stroke-opacity:1" transform="matrix(1.65313 0 0 -1.65313 237.28 147.547)"/><path d="M0 0c-.55 0-.706.629-1.256.629-.547 0-.547-.863-1.097-.863-.53 0-.724.47-1.254.47-.765 0-.783-.803-.862-1.567-.55.018-1.411-.433-1.961-.393 1.236-.411 2.47-1.49 3.764-1.49 1.94 0 2.529 1.744 4.076 2.901l.314.079C1.057-.137.666 0 0 0" style="fill:#ed1c24;fill-opacity:1;fill-rule:nonzero;stroke:none" transform="matrix(1.65313 0 0 -1.65313 254.19 152.82)"/><path d="M0 0c-.55 0-.706.629-1.256.629-.547 0-.547-.863-1.097-.863-.53 0-.724.47-1.254.47-.765 0-.783-.803-.862-1.567-.55.018-1.411-.433-1.961-.393 1.236-.411 2.47-1.49 3.764-1.49 1.94 0 2.529 1.744 4.076 2.901l.314.079C1.057-.137.666 0 0 0Z" style="fill:none;stroke:#231f20;stroke-width:.92900002;stroke-linecap:butt;stroke-linejoin:miter;stroke-miterlimit:3.86400008;stroke-dasharray:none;stroke-opacity:1" transform="matrix(1.65313 0 0 -1.65313 254.19 152.82)"/><path d="M0 0c-2.63-.426-4.836-.781-5.975-3.13-.355-.782-.071-1.565-.569-2.276-.996-1.424-3.7-1.067-3.7-2.846 0-1.637 1.424-2.347 1.424-3.984 0-1.21-1.138-1.422-1.708-2.561l.57-2.277c-.641-.996-1.708-1.351-1.708-2.561 0-.498.569-.639.569-1.137 0-1.779-2.063-2.063-3.7-2.846.284-.853.853-1.351.853-2.276 0-5.408-1.92-6.118-3.983-11.099-2.278 1.708-2.278 1.139-3.983 3.416l-.57-1.139.284-2.56c1.92 1.565 2.704 2.987 3.416 5.405.426 1.565 1.992 2.063 1.992 3.7 0 1.494-1.423 2.206-1.423 3.7 0 1.35 1.706 1.35 2.561 2.275 1.565 1.708 1.992 3.557 1.992 5.977 0 .853-.996 1.067-1.708 1.422-1.21.641-2.135.924-3.414 1.423 2.275 2.846 3.771 4.552 7.114 5.691.781.214 1.493 0 2.275.286.641.212.286 1.065.571 1.706.711 1.708 1.28 2.703 1.423 4.552-.641.072-1.068.286-1.708.286-1.494 0-1.494-1.92-2.278-3.13-.567-.925-1.208-1.21-1.706-2.278l-.285-1.136c1.21 1.208 1.353 2.561 1.138 4.267h-2.773c-2.206 0-3.487-2.347-3.487-4.553 0-1.777 1.636-3.13 3.416-3.13 1.279 0 1.493 1.281 2.275 2.277-.498 0-.641.569-1.139.569-2.418 0-3.13-2.987-3.13-5.407 0-1.351 1.565-1.707 2.847-1.992l.283-1.139c-1.494-.853-2.773-1.136-4.552-1.136.428-2.135 2.561-2.704 2.561-4.839 0-.996-1.139-1.351-1.992-1.708-1.779-.71-3.202-.427-5.122-.853.781-2.063 2.418-2.489 4.269-3.699-.214-.284.069-.996-.286-1.139-1.708-.639-4.552.428-4.552-1.423 0-.924.426-1.493.853-2.275a24.911 24.911 0 0 0-2.276-.286c-.143.853-.285 1.353-.285 2.207 0 1.422.855 2.062.855 3.485 0 2.134-2.564 2.704-2.564 4.838 0 3.698 7.969 1.422 7.969 5.122 0 1.422-1.422 2.063-1.422 3.486 0 1.208.283 1.849.283 3.058.996.072 1.494.284 2.49.284 1.851 0 2.775-1.422 4.626-1.136l.284-1.425c-.925-.924-1.779-1.422-3.13-1.422-2.133 0-4.27 1.282-4.27 3.414 0 1.353 1.494 1.565 2.562 2.277 1.138.712 1.495 1.849 1.993 3.131 1.351 3.485 3.7 4.767 6.83 6.83-.926-5.551-6.83-6.973-6.83-12.522 0-1.992 3.131-1.992 3.131-3.983 0-2.135-2.847-2.704-2.847-4.839 0-1.565 1.708-1.92 2.561-3.13-2.561-1.279-3.771-3.912-3.13-6.544l-1.139-.284c-2.845 1.422-4.624 1.137-7.683 1.137v2.206c0 2.632 1.636 4.34 3.983 5.477-1.067 1.424-2.275 1.494-3.697 2.561 1.136 2.349 2.916 3.202 4.266 5.407l-.569 2.276c1.496 2.063 2.206 4.838 4.839 4.838 1.281 0 3.715-2.321 4.213-3.457.641-1.494-1.438-1.522-1.083-3.087h1.992c0 1.351-.272 1.168.154 2.376.57 1.637 2.621 3.03 2.976 4.738.427 2.063.071 4.269 1.994 5.122 1.208.498 2.204.355 3.414.853C-.853.071-.639 1.494.569 2.561l1.139.286C.5.569-1.279-.853-3.912-.853c-1.351 0-2.134.143-3.485.143-2.421 0-3.416-1.708-5.408-2.99" style="fill:none;stroke:#231f20;stroke-width:2.27600002;stroke-linecap:round;stroke-linejoin:miter;stroke-miterlimit:3.86400008;stroke-dasharray:none;stroke-opacity:1" transform="matrix(1.65313 0 0 -1.65313 245.043 132.73)"/><path d="M0 0c0-10.528-4.839-27.602-5.692-38.129l-5.691-.57c2.418 5.975 3.131 9.818 3.131 16.362 0 2.987 2.418 18.78 1.991 21.768z" style="fill:#ed1c24;fill-opacity:1;fill-rule:nonzero;stroke:none" transform="matrix(1.65313 0 0 -1.65313 250.69 293.143)"/><path d="M0 0c0-10.528-4.839-27.602-5.692-38.129l-5.691-.57c2.418 5.975 3.131 9.818 3.131 16.362 0 2.987 2.418 18.78 1.991 21.768z" style="fill:none;stroke:#231f20;stroke-width:.92900002;stroke-linecap:butt;stroke-linejoin:miter;stroke-miterlimit:3.86400008;stroke-dasharray:none;stroke-opacity:1" transform="matrix(1.65313 0 0 -1.65313 250.69 293.143)"/><path d="M0 0c2.418-9.675 4.126-32.012 8.536-40.977-5.692 1.425-4.836 6.688-7.397 11.953-2.99 5.975-9.961 19.919-13.091 26.179z" style="fill:#ed1c24;fill-opacity:1;fill-rule:nonzero;stroke:none" transform="matrix(1.65313 0 0 -1.65313 278.916 285.617)"/><path d="M0 0c2.418-9.675 4.126-32.012 8.536-40.977-5.692 1.425-4.836 6.688-7.397 11.953-2.99 5.975-9.961 19.919-13.091 26.179z" style="fill:none;stroke:#231f20;stroke-width:.92900002;stroke-linecap:butt;stroke-linejoin:miter;stroke-miterlimit:3.86400008;stroke-dasharray:none;stroke-opacity:1" transform="matrix(1.65313 0 0 -1.65313 278.916 285.617)"/><path d="M0 0c.71-11.383.853-18.497 6.261-28.457 3.414-6.261 6.26-9.106 9.674-15.936-4.269 0-6.544 1.708-10.813 1.708-2.42 0-2.277-2.846-3.416-5.122l-2.845-.569c-2.277 4.553-2.704 5.122-5.691 9.105-.996-1.565-2.704-.569-3.416-2.275-.853-1.992-.569-5.122-2.845-5.122-3.7 0-4.553 3.414-7.969 5.122-1.708-3.416-2.703-5.834-5.691-7.968-1.565 1.565-2.704 2.846-4.553 3.983-.853.428-.569 2.277-1.708 2.277-1.849 0-2.844-1.139-4.552-1.708-.427 1.282-1.139 1.992-1.139 3.416 0 9.816 9.96 35.569 13.091 44.96z" style="fill:#a9218e;fill-opacity:1;fill-rule:nonzero;stroke:none" transform="matrix(1.65313 0 0 -1.65313 281.74 234.808)"/><path d="M0 0c.71-11.383.853-18.497 6.261-28.457 3.414-6.261 6.26-9.106 9.674-15.936-4.269 0-6.544 1.708-10.813 1.708-2.42 0-2.277-2.846-3.416-5.122l-2.845-.569c-2.277 4.553-2.704 5.122-5.691 9.105-.996-1.565-2.704-.569-3.416-2.275-.853-1.992-.569-5.122-2.845-5.122-3.7 0-4.553 3.414-7.969 5.122-1.708-3.416-2.703-5.834-5.691-7.968-1.565 1.565-2.704 2.846-4.553 3.983-.853.428-.569 2.277-1.708 2.277-1.849 0-2.844-1.139-4.552-1.708-.427 1.282-1.139 1.992-1.139 3.416 0 9.816 9.96 35.569 13.091 44.96z" style="fill:none;stroke:#231f20;stroke-width:.92900002;stroke-linecap:butt;stroke-linejoin:miter;stroke-miterlimit:3.86400008;stroke-dasharray:none;stroke-opacity:1" transform="matrix(1.65313 0 0 -1.65313 281.74 234.808)"/><path d="M0 0c-1.28-3.414-4.267-5.122-7.967-5.122-2.561 0-3.842 1.565-5.691 3.414-1.425-2.561-3.416-3.84-3.416-6.828 0-2.704 3.557-2.561 5.691-3.985 1.851-1.28.855-3.414 1.139-5.691 2.134 2.846 2.134 7.399 5.691 7.399 5.834 0 7.826-6.261 13.66-6.261 4.41 0 4.98 5.549 6.261 9.675-4.412.286-7.256-.853-11.383.569C1.281-5.834.855-2.844 0 0" style="fill:#00aeef;fill-opacity:1;fill-rule:nonzero;stroke:none" transform="matrix(1.65313 0 0 -1.65313 303.377 349.591)"/><path d="M0 0c-1.28-3.414-4.267-5.122-7.967-5.122-2.561 0-3.842 1.565-5.691 3.414-1.425-2.561-3.416-3.84-3.416-6.828 0-2.704 3.557-2.561 5.691-3.985 1.851-1.28.855-3.414 1.139-5.691 2.134 2.846 2.134 7.399 5.691 7.399 5.834 0 7.826-6.261 13.66-6.261 4.41 0 4.98 5.549 6.261 9.675-4.412.286-7.256-.853-11.383.569C1.281-5.834.855-2.844 0 0Z" style="fill:none;stroke:#231f20;stroke-width:.92900002;stroke-linecap:butt;stroke-linejoin:miter;stroke-miterlimit:3.86400008;stroke-dasharray:none;stroke-opacity:1" transform="matrix(1.65313 0 0 -1.65313 303.377 349.591)"/><path d="M0 0c.71-2.846 2.702-5.122 5.689-5.122 2.704 0 4.269.853 6.83 1.706 2.421-6.118 5.551-10.385 11.953-12.519-2.845-1.425-4.696-2.847-7.967-2.847-5.977 0-11.383 1.139-13.66 6.83-2.561-1.281-4.126-2.704-6.261-4.553.143 2.276.286 3.414.569 5.692l-2.846 5.691.569 4.836C-2.42-.286-2.704-.143 0 0" style="fill:#00aeef;fill-opacity:1;fill-rule:nonzero;stroke:none" transform="matrix(1.65313 0 0 -1.65313 225.288 355.235)"/><path d="M0 0c.71-2.846 2.702-5.122 5.689-5.122 2.704 0 4.269.853 6.83 1.706 2.421-6.118 5.551-10.385 11.953-12.519-2.845-1.425-4.696-2.847-7.967-2.847-5.977 0-11.383 1.139-13.66 6.83-2.561-1.281-4.126-2.704-6.261-4.553.143 2.276.286 3.414.569 5.692l-2.846 5.691.569 4.836C-2.42-.286-2.704-.143 0 0z" style="fill:none;stroke:#231f20;stroke-width:.92900002;stroke-linecap:butt;stroke-linejoin:miter;stroke-miterlimit:3.86400008;stroke-dasharray:none;stroke-opacity:1" transform="matrix(1.65313 0 0 -1.65313 225.288 355.235)"/><path d="M0 0c-.143-.855.569-1.422.569-2.278 0-2.844-3.414-6.26-6.261-6.26-8.679 0-12.947 11.809-17.074 19.351-3.84 6.971-7.256 11.383-11.952 17.642l-26.179 43.823" style="fill:none;stroke:#231f20;stroke-width:2.27600002;stroke-linecap:round;stroke-linejoin:miter;stroke-miterlimit:3.86400008;stroke-dasharray:none;stroke-opacity:1" transform="matrix(1.65313 0 0 -1.65313 372.061 194.354)"/><path d="M0 0c-19.352 9.675-30.022 19.919-51.506 19.919-17.076 0-26.182-7.683-40.695-16.505-7.256-4.41-12.236-5.975-20.488-7.966 1.849-.57 3.13-1.139 5.122-1.139 7.114 0 10.813 3.983 17.927 3.983 3.414 0 5.692-1.992 7.683-4.552 1.567-1.992 1.425-5.123 3.986-5.123 3.271 0 4.979 1.139 8.252 1.139 6.118 0 11.24-4.696 11.667-10.813 3.983 6.97 9.533 10.813 17.643 10.813 6.261 0 9.677-3.414 14.229-7.969 1.423 6.12 3.272 10.246 9.106 13.091l7.399-3.983-2.277 7.397C-7.967.57-4.696 0 0 0" style="fill:#ed1c24;fill-opacity:1;fill-rule:nonzero;stroke:none" transform="matrix(1.65313 0 0 -1.65313 342.894 67.343)"/><path d="M0 0c-19.352 9.675-30.022 19.919-51.506 19.919-17.076 0-26.182-7.683-40.695-16.505-7.256-4.41-12.236-5.975-20.488-7.966 1.849-.57 3.13-1.139 5.122-1.139 7.114 0 10.813 3.983 17.927 3.983 3.414 0 5.692-1.992 7.683-4.552 1.567-1.992 1.425-5.123 3.986-5.123 3.271 0 4.979 1.139 8.252 1.139 6.118 0 11.24-4.696 11.667-10.813 3.983 6.97 9.533 10.813 17.643 10.813 6.261 0 9.677-3.414 14.229-7.969 1.423 6.12 3.272 10.246 9.106 13.091l7.399-3.983-2.277 7.397C-7.967.57-4.696 0 0 0Z" style="fill:none;stroke:#231f20;stroke-width:.92900002;stroke-linecap:butt;stroke-linejoin:miter;stroke-miterlimit:3.86400008;stroke-dasharray:none;stroke-opacity:1" transform="matrix(1.65313 0 0 -1.65313 342.894 67.343)"/><path d="M0 0c-2.561-4.553-4.971-6.971-8.528-10.813-3.843-4.268-2.704-12.52-8.538-12.52s-8.11 4.126-13.66 5.692c-8.679 2.418-7.541 0-15.934 3.413C-36.275-12.093-36.701-8.963-30.726 0c4.412-2.561 7.968-4.553 13.091-4.553 7.256 0 12.237.853 17.643 5.692z" style="fill:#ee3e96;fill-opacity:1;fill-rule:nonzero;stroke:none" transform="matrix(1.65313 0 0 -1.65313 256.32 275.267)"/><path d="M0 0c-2.561-4.553-4.971-6.971-8.528-10.813-3.843-4.268-2.704-12.52-8.538-12.52s-8.11 4.126-13.66 5.692c-8.679 2.418-7.541 0-15.934 3.413C-36.275-12.093-36.701-8.963-30.726 0c4.412-2.561 7.968-4.553 13.091-4.553 7.256 0 12.237.853 17.643 5.692z" style="fill:none;stroke:#231f20;stroke-width:.92900002;stroke-linecap:butt;stroke-linejoin:miter;stroke-miterlimit:3.86400008;stroke-dasharray:none;stroke-opacity:1" transform="matrix(1.65313 0 0 -1.65313 256.32 275.267)"/><path d="M0 0c-5.691 3.7-10.236 5.691-17.066 5.691-5.265 0-6.971-2.987-11.097-5.975" style="fill:none;stroke:#231f20;stroke-width:2.27600002;stroke-linecap:round;stroke-linejoin:miter;stroke-miterlimit:3.86400008;stroke-dasharray:none;stroke-opacity:1" transform="matrix(1.65313 0 0 -1.65313 256.32 273.384)"/><path d="M0 0c.049.704.746 1.922 2.275.569.746-.66.429-1.708 1.139-2.277.853 1.565.756 4.152 2.847 3.983 1.506-.759.996-2.702 1.136-4.552 0 0 .693 1.174 2.226 2.342 1.22.929 1.742-.87 1.742-.87-1.422-4.269-5.104-6.452-9.659-7.164C1.137-4.838.427-3.13 0 0" style="fill:#00aeef;fill-opacity:1;fill-rule:nonzero;stroke:none" transform="matrix(1.65313 0 0 -1.65313 318.433 158.776)"/><path d="M0 0c.049.704.746 1.922 2.275.569.746-.66.429-1.708 1.139-2.277.853 1.565.756 4.152 2.847 3.983 1.506-.759.996-2.702 1.136-4.552 0 0 .693 1.174 2.226 2.342 1.22.929 1.742-.87 1.742-.87-1.422-4.269-5.104-6.452-9.659-7.164C1.137-4.838.427-3.13 0 0Z" style="fill:none;stroke:#231f20;stroke-width:.92900002;stroke-linecap:butt;stroke-linejoin:miter;stroke-miterlimit:3.86400008;stroke-dasharray:none;stroke-opacity:1" transform="matrix(1.65313 0 0 -1.65313 318.433 158.776)"/><path d="M0 0c-2.846 0-4.553.569-7.114 1.708-1.565.712-3.985.996-3.985 2.845 0 4.411 4.412 5.977 8.538 7.399 6.545 2.277 10.673 2.704 17.643 3.414 10.528 1.139 16.22 3.416 26.749 3.416 3.131 0 5.692.71 7.969-1.138.853-.713 1.849-.853 2.276-1.708 1.281-2.276-3.698-1.992-6.261-2.845-6.685-2.135-10.385-3.557-17.074-5.692C17.786 3.843 11.526 0 0 0" style="fill:#ee3e96;fill-opacity:1;fill-rule:nonzero;stroke:none" transform="matrix(1.65313 0 0 -1.65313 201.764 147.315)"/><path d="M0 0c-2.846 0-4.553.569-7.114 1.708-1.565.712-3.985.996-3.985 2.845 0 4.411 4.412 5.977 8.538 7.399 6.545 2.277 10.673 2.704 17.643 3.414 10.528 1.139 16.22 3.416 26.749 3.416 3.131 0 5.692.71 7.969-1.138.853-.713 1.849-.853 2.276-1.708 1.281-2.276-3.698-1.992-6.261-2.845-6.685-2.135-10.385-3.557-17.074-5.692C17.786 3.843 11.526 0 0 0Z" style="fill:none;stroke:#231f20;stroke-width:.92900002;stroke-linecap:butt;stroke-linejoin:miter;stroke-miterlimit:3.86400008;stroke-dasharray:none;stroke-opacity:1" transform="matrix(1.65313 0 0 -1.65313 201.764 147.315)"/><path d="M0 0c-3.416 5.975-6.973 11.381-13.944 11.381-5.265 0-10.529-3.271-10.529-8.536 0-4.126 1.708-6.83 4.552-9.675z" style="fill:#ee3e96;fill-opacity:1;fill-rule:nonzero;stroke:none" transform="matrix(1.65313 0 0 -1.65313 253.982 124.732)"/><path d="M0 0c-3.416 5.975-6.973 11.381-13.944 11.381-5.265 0-10.529-3.271-10.529-8.536 0-4.126 1.708-6.83 4.552-9.675z" style="fill:none;stroke:#231f20;stroke-width:.92900002;stroke-linecap:butt;stroke-linejoin:miter;stroke-miterlimit:3.86400008;stroke-dasharray:none;stroke-opacity:1" transform="matrix(1.65313 0 0 -1.65313 253.982 124.732)"/><path d="M0 0c0-.996-.571-1.422-.571-2.42 0-4.267 2.134-6.687 3.415-10.671.854-2.701 1.707-5.691 4.553-5.691 1.566 0 3.131-.569 3.984.569.569.855-1.566 1.139-1.706 2.278-.143 1.422-1.139 2.275-1.708 3.414C5.263-7.399 3.414-4.553 0 0" style="fill:#a9218e;fill-opacity:1;fill-rule:nonzero;stroke:none" transform="matrix(1.65313 0 0 -1.65313 235.638 13.715)"/><path d="M0 0c0-.996-.571-1.422-.571-2.42 0-4.267 2.134-6.687 3.415-10.671.854-2.701 1.707-5.691 4.553-5.691 1.566 0 3.131-.569 3.984.569.569.855-1.566 1.139-1.706 2.278-.143 1.422-1.139 2.275-1.708 3.414C5.263-7.399 3.414-4.553 0 0Z" style="fill:none;stroke:#231f20;stroke-width:.92900002;stroke-linecap:butt;stroke-linejoin:miter;stroke-miterlimit:3.86400008;stroke-dasharray:none;stroke-opacity:1" transform="matrix(1.65313 0 0 -1.65313 235.638 13.715)"/><path d="M0 0c-1.137-.141-1.137-1.706-2.275-1.706-.996 0-.286 1.849-1.139 2.275-.996-1.849-1.849-3.983-3.983-3.983-1.139 0-1.139 1.708-2.278 1.708-1.136 0-.569-2.277-1.708-2.277-.995 0-.426 1.848-1.136 2.277-.855.426-2.278.569-2.278 1.706 0 3.416 2.278 6.546 5.692 6.83C-4.693 7.257-1.563 3.985 0 0" style="fill:#00aeef;fill-opacity:1;fill-rule:nonzero;stroke:none" transform="matrix(1.65313 0 0 -1.65313 253.51 266.8)"/><path d="M0 0c-1.137-.141-1.137-1.706-2.275-1.706-.996 0-.286 1.849-1.139 2.275-.996-1.849-1.849-3.983-3.983-3.983-1.139 0-1.139 1.708-2.278 1.708-1.136 0-.569-2.277-1.708-2.277-.995 0-.426 1.848-1.136 2.277-.855.426-2.278.569-2.278 1.706 0 3.416 2.278 6.546 5.692 6.83C-4.693 7.257-1.563 3.985 0 0Z" style="fill:none;stroke:#231f20;stroke-width:.92900002;stroke-linecap:butt;stroke-linejoin:miter;stroke-miterlimit:3.86400008;stroke-dasharray:none;stroke-opacity:1" transform="matrix(1.65313 0 0 -1.65313 253.51 266.8)"/><path d="M0 0c0-9.675 5.834-2.99 10.813-11.383-6.97 0-10.813-2.846-17.786-2.846-.853 0-1.279.569-2.132.569 0 7.256-1.851 11.809-5.124 18.213-1.707 3.414-5.692 4.126-5.692 7.966 0 2.847 2.847 3.7 3.985 6.261 4.553 9.532 6.831 15.366 10.814 25.041 2.847-1.565 4.695-2.845 7.967-2.845 3.273 0 4.545.853 7.391 2.275l7.977-1.136 19.349-11.952c4.412 4.41 5.692 7.826 8.538 13.658 3.414-3.414 7.114-3.984 11.952-3.984-2.703-10.956-12.378-12.662-16.504-22.765-9.391 3.7-14.087 6.973-22.766 11.952L32.44 1.706C27.604-2.561 21.912.996 15.366.569 9.818.284 5.548.427 0 0" style="fill:#ee3e96;fill-opacity:1;fill-rule:nonzero;stroke:none" transform="matrix(1.65313 0 0 -1.65313 239.4 235.75)"/><path d="M0 0c0-9.675 5.834-2.99 10.813-11.383-6.97 0-10.813-2.846-17.786-2.846-.853 0-1.279.569-2.132.569 0 7.256-1.851 11.809-5.124 18.213-1.707 3.414-5.692 4.126-5.692 7.966 0 2.847 2.847 3.7 3.985 6.261 4.553 9.532 6.831 15.366 10.814 25.041 2.847-1.565 4.695-2.845 7.967-2.845 3.273 0 4.545.853 7.391 2.275l7.977-1.136 19.349-11.952c4.412 4.41 5.692 7.826 8.538 13.658 3.414-3.414 7.114-3.984 11.952-3.984-2.703-10.956-12.378-12.662-16.504-22.765-9.391 3.7-14.087 6.973-22.766 11.952L32.44 1.706C27.604-2.561 21.912.996 15.366.569 9.818.284 5.548.427 0 0Z" style="fill:none;stroke:#231f20;stroke-width:.92900002;stroke-linecap:butt;stroke-linejoin:miter;stroke-miterlimit:3.86400008;stroke-dasharray:none;stroke-opacity:1" transform="matrix(1.65313 0 0 -1.65313 239.4 235.75)"/><path d="M0 0c-.853 6.261-4.553 9.105-4.553 15.366 0 6.261 3.557 9.248 6.261 14.797m4.553 13.091c.995-5.408 2.561-8.253 3.414-13.661 1.991-11.096.143-19.492 7.968-27.316M3.414 42.115 9.675 2.277" style="fill:none;stroke:#231f20;stroke-width:.92900002;stroke-linecap:butt;stroke-linejoin:miter;stroke-miterlimit:3.86400008;stroke-dasharray:none;stroke-opacity:1" transform="matrix(1.65313 0 0 -1.65313 239.4 238.573)"/><path d="M0 0c15.163 7.249 24.442 11.421 40.963 11.421h25.121l7.241 1.757c2.715-1.098 6.79-1.318 6.79-4.392v-21.084c0-10.542-5.885-16.032-12.221-24.597z" style="fill:#9e292d;fill-opacity:1;fill-rule:nonzero;stroke:none" transform="matrix(1.65313 0 0 -1.65313 32.427 297.913)"/><path d="M0 0c15.163 7.249 24.442 11.421 40.963 11.421h25.121l7.241 1.757c2.715-1.098 6.79-1.318 6.79-4.392v-21.084c0-10.542-5.885-16.032-12.221-24.597z" style="fill:none;stroke:#231f20;stroke-width:.85399997;stroke-linecap:butt;stroke-linejoin:miter;stroke-miterlimit:3.86400008;stroke-dasharray:none;stroke-opacity:1" transform="matrix(1.65313 0 0 -1.65313 32.427 297.913)"/><path d="M0 0c19.919 4.83 31.236 1.098 50.7 5.269 5.884 1.317 11.543-.659 15.39 3.512 2.942 3.076.679 7.028.906 11.419.226 4.61 0 7.025 0 11.638v19.98h-9.055l-40.738-6.149H-2.716c.679-10.099 0-15.588 0-25.689C-2.716 12.296 2.489 7.245 0 0" style="fill:#9e292d;fill-opacity:1;fill-rule:nonzero;stroke:none" transform="matrix(1.65313 0 0 -1.65313 33.924 376.304)"/><path d="M0 0c19.919 4.83 31.236 1.098 50.7 5.269 5.884 1.317 11.543-.659 15.39 3.512 2.942 3.076.679 7.028.906 11.419.226 4.61 0 7.025 0 11.638v19.98h-9.055l-40.738-6.149H-2.716c.679-10.099 0-15.588 0-25.689C-2.716 12.296 2.489 7.245 0 0Z" style="fill:none;stroke:#231f20;stroke-width:.85399997;stroke-linecap:butt;stroke-linejoin:miter;stroke-miterlimit:3.86400008;stroke-dasharray:none;stroke-opacity:1" transform="matrix(1.65313 0 0 -1.65313 33.924 376.304)"/><path d="M0 0h2.604c3.852 0 5.55 2.864 8.723 4.847" style="fill:none;stroke:#231f20;stroke-width:.85399997;stroke-linecap:butt;stroke-linejoin:miter;stroke-miterlimit:3.86400008;stroke-dasharray:none;stroke-opacity:1" transform="matrix(1.65313 0 0 -1.65313 143.14 289.956)"/><path d="M0 0c2.972 3.885 5.033 7.995 10.063 7.995 4.232 0 7.204-3.109 8.232-7.107" style="fill:none;stroke:#231f20;stroke-width:3.41599989;stroke-linecap:round;stroke-linejoin:miter;stroke-miterlimit:3.86400008;stroke-dasharray:none;stroke-opacity:1" transform="matrix(1.65313 0 0 -1.65313 80.159 286.387)"/><path d="M0 0c1.835.222 2.752.885 4.588.885 2.178 0 4.128-1.439 4.128-3.543 0-4.094-1.721-6.198-2.752-10.182-2.409 1.218-2.179 3.542-3.671 5.755-1.26 1.882-4.586 1.661-4.586 3.984C-2.293-2.435 0-.664 0 0" style="fill:#231f20;fill-opacity:1;fill-rule:nonzero;stroke:none" transform="matrix(1.65313 0 0 -1.65313 131.1 290.615)"/><path d="M0 0c1.835.222 2.752.885 4.588.885 2.178 0 4.128-1.439 4.128-3.543 0-4.094-1.721-6.198-2.752-10.182-2.409 1.218-2.179 3.542-3.671 5.755-1.26 1.882-4.586 1.661-4.586 3.984C-2.293-2.435 0-.664 0 0Z" style="fill:none;stroke:#231f20;stroke-width:2.56200004;stroke-linecap:round;stroke-linejoin:miter;stroke-miterlimit:3.86400008;stroke-dasharray:none;stroke-opacity:1" transform="matrix(1.65313 0 0 -1.65313 131.1 290.615)"/><path d="M0 0c.113-2.1.457-3.313.457-5.412 0-3.864-2.856-7.4-6.855-7.4-3.426 0-6.167.995-8.223 3.536 1.714 1.876 4.455 1.104 6.396 2.65 1.714 1.435.8 3.754 2.284 5.301C-4.455.221-2.628.441-.457.883L.457-2.65Z" style="fill:#231f20;fill-opacity:1;fill-rule:nonzero;stroke:none" transform="matrix(1.65313 0 0 -1.65313 144.005 344.28)"/><path d="M0 0c.113-2.1.457-3.313.457-5.412 0-3.864-2.856-7.4-6.855-7.4-3.426 0-6.167.995-8.223 3.536 1.714 1.876 4.455 1.104 6.396 2.65 1.714 1.435.8 3.754 2.284 5.301C-4.455.221-2.628.441-.457.883L.457-2.65Z" style="fill:none;stroke:#231f20;stroke-width:2.56200004;stroke-linecap:round;stroke-linejoin:miter;stroke-miterlimit:3.86400008;stroke-dasharray:none;stroke-opacity:1" transform="matrix(1.65313 0 0 -1.65313 144.005 344.28)"/><path d="m0 0 1.371-1.771C-2.855-3.099-5.255-4.427-9.712-4.427c-1.828 0-2.742.333-4.57.443-.115 4.869.113 7.526.113 12.398C-8.226 6.088-6.513.997 0 0" style="fill:#231f20;fill-opacity:1;fill-rule:nonzero;stroke:none" transform="matrix(1.65313 0 0 -1.65313 55.02 367.574)"/><path d="m0 0 1.371-1.771C-2.855-3.099-5.255-4.427-9.712-4.427c-1.828 0-2.742.333-4.57.443-.115 4.869.113 7.526.113 12.398C-8.226 6.088-6.513.997 0 0Z" style="fill:none;stroke:#231f20;stroke-width:2.56200004;stroke-linecap:round;stroke-linejoin:miter;stroke-miterlimit:3.86400008;stroke-dasharray:none;stroke-opacity:1" transform="matrix(1.65313 0 0 -1.65313 55.02 367.574)"/><path d="M0 0c-2.06 0-3.319.11-5.379.11-3.662 0-7.439-2.213-7.439-5.754 0-1.77.458-2.655.916-4.425l1.83-.443C-7.554-5.532-.8-5.532 0 0" style="fill:#231f20;fill-opacity:1;fill-rule:nonzero;stroke:none" transform="matrix(1.65313 0 0 -1.65313 48.299 300.22)"/><path d="M0 0c-2.06 0-3.319.11-5.379.11-3.662 0-7.439-2.213-7.439-5.754 0-1.77.458-2.655.916-4.425l1.83-.443C-7.554-5.532-.8-5.532 0 0Z" style="fill:none;stroke:#231f20;stroke-width:2.56200004;stroke-linecap:round;stroke-linejoin:miter;stroke-miterlimit:3.86400008;stroke-dasharray:none;stroke-opacity:1" transform="matrix(1.65313 0 0 -1.65313 48.299 300.22)"/></svg>