<svg xmlns="http://www.w3.org/2000/svg" xml:space="preserve" width="400" height="400"><path d="M415.984 3204.396h241.965v241.965H415.984Z" style="fill:#b2d34a;fill-opacity:1;fill-rule:nonzero;stroke:none" transform="matrix(1.65313 0 0 -1.65313 -687.676 5697.288)"/><path d="M0 0c7.002 4.73 10.256 8.966 18.343 11.909 25.413 9.252 44.256-6.568 69.672 2.68 10.011 3.646 13.722 10.228 23.17 15.415-10.807-36.207-11.269-33.737 4.154-76.116 5.046-13.861 3.679-56.384 11.806-69.129-8.401-.877-24.398 8.692-32.733 10.022-28.111 4.156-37.593 9.023-64.554-.785L27.2-98.688c-6.448 17.712 2.932 30.286-3.516 47.998-3.785 10.396-10.368 14.107-14.153 24.503C6.308-17.33 11.07-11.235 7.844-2.378 6.722.702 2.383-1.75 0 0" style="fill:#6dcff6;fill-opacity:1;fill-rule:nonzero;stroke:none" transform="matrix(1.65313 0 0 -1.65313 161.576 131.205)"/><path d="M0 0c7.002 4.73 10.256 8.966 18.343 11.909 25.413 9.252 44.256-6.568 69.672 2.68 10.011 3.646 13.722 10.228 23.17 15.415-10.807-36.207-11.269-33.737 4.154-76.116 5.046-13.861 3.679-56.384 11.806-69.129-8.401-.877-24.398 8.692-32.733 10.022-28.111 4.156-37.593 9.023-64.554-.785L27.2-98.688c-6.448 17.712 2.932 30.286-3.516 47.998-3.785 10.396-10.368 14.107-14.153 24.503C6.308-17.33 11.07-11.235 7.844-2.378 6.722.702 2.383-1.75 0 0Z" style="fill:none;stroke:#231f20;stroke-width:1.33599997;stroke-linecap:round;stroke-linejoin:miter;stroke-miterlimit:3.86400008;stroke-dasharray:none;stroke-opacity:1" transform="matrix(1.65313 0 0 -1.65313 161.576 131.205)"/><path d="M0 0c8.444-.288 13.567 1.225 21.837-1.145 25.998-7.458 31.942-31.33 57.943-38.783 10.242-2.938 17.11.208 27.806-1.153-30.027-22.939-28.951-20.667-41.379-64.018-4.065-14.179-22.433-33.641-23.353-48.724-7.31 4.228-10.236 8.903-16.196 14.875-20.298 19.887-37.234 27.731-64.811 35.638.793 2.755 1.356 4.727 2.149 7.482 5.198 18.123 20.173 22.779 25.368 40.9 3.049 10.635-.097 17.506 2.952 28.142 2.6 9.063 10.033 11.192 12.628 20.252C5.852-3.382.896-2.814 0 0" style="fill:#6dcff6;fill-opacity:1;fill-rule:nonzero;stroke:none" transform="matrix(1.65313 0 0 -1.65313 186.02 88.165)"/><path d="M0 0c8.444-.288 13.567 1.225 21.837-1.145 25.998-7.458 31.942-31.33 57.943-38.783 10.242-2.938 17.11.208 27.806-1.153-30.027-22.939-28.951-20.667-41.379-64.018-4.065-14.179-22.433-33.641-23.353-48.724-7.31 4.228-10.236 8.903-16.196 14.875-20.298 19.887-37.234 27.731-64.811 35.638.793 2.755 1.356 4.727 2.149 7.482 5.198 18.123 20.173 22.779 25.368 40.9 3.049 10.635-.097 17.506 2.952 28.142 2.6 9.063 10.033 11.192 12.628 20.252C5.852-3.382.896-2.814 0 0Z" style="fill:none;stroke:#231f20;stroke-width:1.33599997;stroke-linecap:round;stroke-linejoin:miter;stroke-miterlimit:3.86400008;stroke-dasharray:none;stroke-opacity:1" transform="matrix(1.65313 0 0 -1.65313 186.02 88.165)"/><path d="M0 0c4.995-2.329 7.684-3.583 12.683-5.912 3.328-1.556 4.644-3.414 7.972-4.969 6.663-3.103 10.508-4.896 17.167-8.004 4.739-2.21 6.517-4.756 10.959-7.605 7.604-5.104 14.997-11.983 11.175-20.184-1.493-3.2-5.763-1.989-9.086-.753-6.197 2.426-10.248 2.44-16.328 5.118-9.343 4.045-15.54 4.13-24.765 8.429-7.684 3.585-10.83 7.547-18.275 11.643-7.065 3.917-16.49 8.781-13.085 16.085 1.73 3.712 5.461 3.689 9.218 5.056C-7.108.819-3.014 1.562 2.289-.442z" style="fill:#b95647;fill-opacity:1;fill-rule:nonzero;stroke:none" transform="matrix(1.65313 0 0 -1.65313 199.138 294.048)"/><path d="M0 0c4.995-2.329 7.684-3.583 12.683-5.912 3.328-1.556 4.644-3.414 7.972-4.969 6.663-3.103 10.508-4.896 17.167-8.004 4.739-2.21 6.517-4.756 10.959-7.605 7.604-5.104 14.997-11.983 11.175-20.184-1.493-3.2-5.763-1.989-9.086-.753-6.197 2.426-10.248 2.44-16.328 5.118-9.343 4.045-15.54 4.13-24.765 8.429-7.684 3.585-10.83 7.547-18.275 11.643-7.065 3.917-16.49 8.781-13.085 16.085 1.73 3.712 5.461 3.689 9.218 5.056C-7.108.819-3.014 1.562 2.289-.442z" style="fill:none;stroke:#231f20;stroke-width:1.33599997;stroke-linecap:butt;stroke-linejoin:miter;stroke-miterlimit:3.86400008;stroke-dasharray:none;stroke-opacity:1" transform="matrix(1.65313 0 0 -1.65313 199.138 294.048)"/><path d="M0 0c-9.905-.84-14.658-5.016-24.897-5.236l5.255 11.273c-.785.993-1.187 1.804-1.841 2.734-3.759-1.367-6.399-2.009-8.712-5.297 2.273 4.867 2.047 8.401 2.661 13.73-2.338 0-3.903-.674-5.769-1.673l-1.402-4.339c.366 2.792.451 4.311.819 7.105-3.025-.462-4.867-2.412-6.182-5.229-1.97-4.228-1.636-7.191-2.966-11.715-1.796-6.183-4.898-10.505-2.592-16.262 1.416-3.311 4.056-5.01 7.513-6.62 9.097-4.242 14.849 5.084 24.591 7.248 8.17 1.801 17.036-.925 20.558 6.631 2.093 4.484-4.732 6.574-8.609 9.628z" style="fill:#b95647;fill-opacity:1;fill-rule:nonzero;stroke:none" transform="matrix(1.65313 0 0 -1.65313 112.85 257.934)"/><path d="M0 0c-9.905-.84-14.658-5.016-24.897-5.236l5.255 11.273c-.785.993-1.187 1.804-1.841 2.734-3.759-1.367-6.399-2.009-8.712-5.297 2.273 4.867 2.047 8.401 2.661 13.73-2.338 0-3.903-.674-5.769-1.673l-1.402-4.339c.366 2.792.451 4.311.819 7.105-3.025-.462-4.867-2.412-6.182-5.229-1.97-4.228-1.636-7.191-2.966-11.715-1.796-6.183-4.898-10.505-2.592-16.262 1.416-3.311 4.056-5.01 7.513-6.62 9.097-4.242 14.849 5.084 24.591 7.248 8.17 1.801 17.036-.925 20.558 6.631 2.093 4.484-4.732 6.574-8.609 9.628z" style="fill:none;stroke:#231f20;stroke-width:1.33599997;stroke-linecap:butt;stroke-linejoin:miter;stroke-miterlimit:3.86400008;stroke-dasharray:none;stroke-opacity:1" transform="matrix(1.65313 0 0 -1.65313 112.85 257.934)"/><path d="M0 0c-9.58-3.488-13.833-7.587-21.891-13.499-13.513-9.919-21.275-17.529-28.382-32.772-2.09-4.482-3.286-7.045-5.375-11.53-2.51-5.38-1.833-9.282-2.053-15.106-.279-15.311 4.804-27.817 18.64-34.268 13.964-6.514 24.332-15.714 37.385-7.456 3.791 2.446 7.268 2.541 10.996 4.856 9.956 5.963 19.593 16.599 24.551 27.229 2.507 5.381 1.833 9.283 2.113 15.234.396 8.547 1.022 13.559 2.181 22.065 1.258 9.395 1.804 14.912 1.358 24.321-.26 4.798-5.723 5.786-10.205 7.878C20.606-8.986 15.611-6.656 6.896-2.595L3.28.34C1.501.545 1.835-.077 0 0" style="fill:#b95647;fill-opacity:1;fill-rule:nonzero;stroke:none" transform="matrix(1.65313 0 0 -1.65313 179.21 115.624)"/><path d="M0 0c-9.58-3.488-13.833-7.587-21.891-13.499-13.513-9.919-21.275-17.529-28.382-32.772-2.09-4.482-3.286-7.045-5.375-11.53-2.51-5.38-1.833-9.282-2.053-15.106-.279-15.311 4.804-27.817 18.64-34.268 13.964-6.514 24.332-15.714 37.385-7.456 3.791 2.446 7.268 2.541 10.996 4.856 9.956 5.963 19.593 16.599 24.551 27.229 2.507 5.381 1.833 9.283 2.113 15.234.396 8.547 1.022 13.559 2.181 22.065 1.258 9.395 1.804 14.912 1.358 24.321-.26 4.798-5.723 5.786-10.205 7.878C20.606-8.986 15.611-6.656 6.896-2.595L3.28.34C1.501.545 1.835-.077 0 0Z" style="fill:none;stroke:#231f20;stroke-width:1.33599997;stroke-linecap:butt;stroke-linejoin:miter;stroke-miterlimit:3.86400008;stroke-dasharray:none;stroke-opacity:1" transform="matrix(1.65313 0 0 -1.65313 179.21 115.624)"/><path d="M0 0c-9.905-.839-14.658-5.015-24.897-5.232l5.258 11.272c-.785.991-1.187 1.801-1.844 2.732-3.759-1.367-6.4-2.007-8.712-5.295 2.273 4.867 2.047 8.403 2.661 13.73-2.338 0-3.903-.677-5.769-1.673l-1.402-4.341c.368 2.794.451 4.313.819 7.104-3.025-.462-4.866-2.409-6.182-5.229-1.97-4.225-1.636-7.191-2.966-11.715-1.793-6.183-4.898-10.504-2.589-16.256 1.413-3.317 4.053-5.016 7.513-6.626 9.094-4.241 14.849 5.084 24.588 7.248 8.173 1.807 17.036-.925 20.561 6.631 2.09 4.484-4.732 6.574-8.612 9.631z" style="fill:#b95647;fill-opacity:1;fill-rule:nonzero;stroke:none" transform="matrix(1.65313 0 0 -1.65313 134.599 288.702)"/><path d="M0 0c-9.905-.839-14.658-5.015-24.897-5.232l5.258 11.272c-.785.991-1.187 1.801-1.844 2.732-3.759-1.367-6.4-2.007-8.712-5.295 2.273 4.867 2.047 8.403 2.661 13.73-2.338 0-3.903-.677-5.769-1.673l-1.402-4.341c.368 2.794.451 4.313.819 7.104-3.025-.462-4.866-2.409-6.182-5.229-1.97-4.225-1.636-7.191-2.966-11.715-1.793-6.183-4.898-10.504-2.589-16.256 1.413-3.317 4.053-5.016 7.513-6.626 9.094-4.241 14.849 5.084 24.588 7.248 8.173 1.807 17.036-.925 20.561 6.631 2.09 4.484-4.732 6.574-8.612 9.631z" style="fill:none;stroke:#231f20;stroke-width:1.33599997;stroke-linecap:butt;stroke-linejoin:miter;stroke-miterlimit:3.86400008;stroke-dasharray:none;stroke-opacity:1" transform="matrix(1.65313 0 0 -1.65313 134.599 288.702)"/><path d="M0 0c1.056 2.263 3.862 3.191 6.266 2.066C8.669.945 9.765-1.795 8.706-4.062 7.653-6.326 4.847-7.251 2.443-6.129.037-5.01-1.056-2.261 0 0" style="fill:#231f20;fill-opacity:1;fill-rule:nonzero;stroke:none" transform="matrix(1.65313 0 0 -1.65313 198.973 63.735)"/><path d="M0 0c1.056 2.263 3.862 3.191 6.266 2.066C8.669.945 9.765-1.795 8.706-4.062 7.653-6.326 4.847-7.251 2.443-6.129.037-5.01-1.056-2.261 0 0Z" style="fill:none;stroke:#231f20;stroke-width:.81800002;stroke-linecap:butt;stroke-linejoin:miter;stroke-miterlimit:3.86400008;stroke-dasharray:none;stroke-opacity:1" transform="matrix(1.65313 0 0 -1.65313 198.973 63.735)"/><path d="M0 0c1.188 2.546 3.985 3.754 6.249 2.7 2.263-1.059 3.137-3.979 1.949-6.525C7.008-6.371 4.21-7.582 1.95-6.523-.314-5.469-1.187-2.546 0 0" style="fill:#231f20;fill-opacity:1;fill-rule:nonzero;stroke:none" transform="matrix(1.65313 0 0 -1.65313 279.496 103.354)"/><path d="M0 0c1.188 2.546 3.985 3.754 6.249 2.7 2.263-1.059 3.137-3.979 1.949-6.525C7.008-6.371 4.21-7.582 1.95-6.523-.314-5.469-1.187-2.546 0 0Z" style="fill:none;stroke:#231f20;stroke-width:.81800002;stroke-linecap:butt;stroke-linejoin:miter;stroke-miterlimit:3.86400008;stroke-dasharray:none;stroke-opacity:1" transform="matrix(1.65313 0 0 -1.65313 279.496 103.354)"/><path d="M0 0c-.899.419-1.539.717-2.435 1.139-4.227 1.97-5.578 5.092-8.703 8.424-8.798 9.559-10.062 21.223-4.57 33.009 2.449 5.252 6.982 5.946 11.763 9.174 9.691 6.4 18.911 6.777 29.29 1.939 7.045-3.286 10.29-6.357 16.242-11.319 4.793-4.107 6.697-6.708 6.426-12.976-.118-4.936 2.674-7.642.588-12.126-2.809-6.02-5.398-8.555-10.008-13.425-3.5-3.828-6.497-7.575-11.675-7.655C16.804-4.09 9.58-3.531 0 0" style="fill:#b95647;fill-opacity:1;fill-rule:nonzero;stroke:none" transform="matrix(1.65313 0 0 -1.65313 203.334 156.786)"/><path d="M0 0c-.899.419-1.539.717-2.435 1.139-4.227 1.97-5.578 5.092-8.703 8.424-8.798 9.559-10.062 21.223-4.57 33.009 2.449 5.252 6.982 5.946 11.763 9.174 9.691 6.4 18.911 6.777 29.29 1.939 7.045-3.286 10.29-6.357 16.242-11.319 4.793-4.107 6.697-6.708 6.426-12.976-.118-4.936 2.674-7.642.588-12.126-2.809-6.02-5.398-8.555-10.008-13.425-3.5-3.828-6.497-7.575-11.675-7.655C16.804-4.09 9.58-3.531 0 0Z" style="fill:none;stroke:#231f20;stroke-width:1.33599997;stroke-linecap:butt;stroke-linejoin:miter;stroke-miterlimit:3.86400008;stroke-dasharray:none;stroke-opacity:1" transform="matrix(1.65313 0 0 -1.65313 203.334 156.786)"/><path d="m0 0 6.151-2.866c2.355 4.048 3.046 6.531 5.016 10.759-2.698 1.57-4.116 4.884-6.934 3.859-1.69-.614-.931-3-1.638-4.85C1.656 4.219.939 2.68 0 0" style="fill:#fff;fill-opacity:1;fill-rule:nonzero;stroke:none" transform="matrix(1.65313 0 0 -1.65313 196.213 141.087)"/><path d="m0 0 6.151-2.866c2.355 4.048 3.046 6.531 5.016 10.759-2.698 1.57-4.116 4.884-6.934 3.859-1.69-.614-.931-3-1.638-4.85C1.656 4.219.939 2.68 0 0Z" style="fill:none;stroke:#231f20;stroke-width:1.33599997;stroke-linecap:butt;stroke-linejoin:miter;stroke-miterlimit:3.86400008;stroke-dasharray:none;stroke-opacity:1" transform="matrix(1.65313 0 0 -1.65313 196.213 141.087)"/><path d="M0 0c1.099-.982 3.474-2.246 4.884-2.903 3.974-1.852 4.173 6.945 6.283 10.796L5.255 11.27C3.748 11.041 1.673 3.585 0 0" style="fill:#fff;fill-opacity:1;fill-rule:nonzero;stroke:none" transform="matrix(1.65313 0 0 -1.65313 211.46 148.198)"/><path d="M0 0c1.099-.982 3.474-2.246 4.884-2.903 3.974-1.852 4.173 6.945 6.283 10.796L5.255 11.27C3.748 11.041 1.673 3.585 0 0Z" style="fill:none;stroke:#231f20;stroke-width:1.33599997;stroke-linecap:butt;stroke-linejoin:miter;stroke-miterlimit:3.86400008;stroke-dasharray:none;stroke-opacity:1" transform="matrix(1.65313 0 0 -1.65313 211.46 148.198)"/><path d="M0 0c3.588-1.673 3.214-6.491 1.542-10.076-1.316-2.818-4.827-3.988-7.642-2.675-1.536.717-2.255 1.519-3.731 2.364 3.303 1.732 6.417 1.061 8.738 4.03-.782.991-1.074 2.378-2.355 2.975-2.178 1.013-3.902-.677-6.32-.175C-6.411-1.379-3.585 1.67 0 0" style="fill:#702225;fill-opacity:1;fill-rule:nonzero;stroke:none" transform="matrix(1.65313 0 0 -1.65313 294.898 95.318)"/><path d="M0 0c3.588-1.673 3.214-6.491 1.542-10.076-1.316-2.818-4.827-3.988-7.642-2.675-1.536.717-2.255 1.519-3.731 2.364 3.303 1.732 6.417 1.061 8.738 4.03-.782.991-1.074 2.378-2.355 2.975-2.178 1.013-3.902-.677-6.32-.175C-6.411-1.379-3.585 1.67 0 0Z" style="fill:none;stroke:#231f20;stroke-width:1.33599997;stroke-linecap:butt;stroke-linejoin:miter;stroke-miterlimit:3.86400008;stroke-dasharray:none;stroke-opacity:1" transform="matrix(1.65313 0 0 -1.65313 294.898 95.318)"/><path d="M0 0c-3.203 1.493-6.737-1.07-8.226-4.27-1.259-2.692.767-5.038 2.968-6.999.423.893 1.565.671 1.981 1.567.6 1.281-1.45 2.238-.853 3.519.596 1.282 1.535 1.625 2.46 2.598C.405-5.489 1.213-7.427 2.292-9.799 4.804-6.759 3.588-1.672 0 0" style="fill:#702225;fill-opacity:1;fill-rule:nonzero;stroke:none" transform="matrix(1.65313 0 0 -1.65313 210.133 53.736)"/><path d="M0 0c-3.203 1.493-6.737-1.07-8.226-4.27-1.259-2.692.767-5.038 2.968-6.999.423.893 1.565.671 1.981 1.567.6 1.281-1.45 2.238-.853 3.519.596 1.282 1.535 1.625 2.46 2.598C.405-5.489 1.213-7.427 2.292-9.799 4.804-6.759 3.588-1.672 0 0Z" style="fill:none;stroke:#231f20;stroke-width:1.33599997;stroke-linecap:butt;stroke-linejoin:miter;stroke-miterlimit:3.86400008;stroke-dasharray:none;stroke-opacity:1" transform="matrix(1.65313 0 0 -1.65313 210.133 53.736)"/><path d="M0 0c-4.484 2.089-4.368 7.028-8.852 9.117-4.102 1.913-8.846-.24-10.756-4.338-3.944-8.456 5.153-15.038 12.948-20.39l3.623 6.425c-3.103-4.638.947-11.675 5.943-14.004a12.97 12.97 0 0 1 17.281 6.291c2.869 6.149-3.348 11.541-9.497 14.41-2.181 1.013-4.025-.931-6.323-.174C2.518-1.955 1.79-.836 0 0" style="fill:#e69a71;fill-opacity:1;fill-rule:nonzero;stroke:none" transform="matrix(1.65313 0 0 -1.65313 223.252 105.228)"/><path d="M0 0c-4.484 2.089-4.368 7.028-8.852 9.117-4.102 1.913-8.846-.24-10.756-4.338-3.944-8.456 5.153-15.038 12.948-20.39l3.623 6.425c-3.103-4.638.947-11.675 5.943-14.004a12.97 12.97 0 0 1 17.281 6.291c2.869 6.149-3.348 11.541-9.497 14.41-2.181 1.013-4.025-.931-6.323-.174C2.518-1.955 1.79-.836 0 0Z" style="fill:none;stroke:#231f20;stroke-width:1.33599997;stroke-linecap:butt;stroke-linejoin:miter;stroke-miterlimit:3.86400008;stroke-dasharray:none;stroke-opacity:1" transform="matrix(1.65313 0 0 -1.65313 223.252 105.228)"/><path d="M0 0c-.665-1.093-1.407-1.684-1.947-2.834-1.076-2.307-.12-4.939 2.187-6.009 2.692-1.256 6.023-.468 7.276 2.221C9.009-3.42 6.206-.4 3.003 1.094 1.211 1.93 1.878.685 0 0" style="fill:#231f20;fill-opacity:1;fill-rule:nonzero;stroke:none" transform="matrix(1.65313 0 0 -1.65313 222.402 104.832)"/><path d="M0 0c-.665-1.093-1.407-1.684-1.947-2.834-1.076-2.307-.12-4.939 2.187-6.009 2.692-1.256 6.023-.468 7.276 2.221C9.009-3.42 6.206-.4 3.003 1.094 1.211 1.93 1.878.685 0 0Z" style="fill:none;stroke:#231f20;stroke-width:.81800002;stroke-linecap:butt;stroke-linejoin:miter;stroke-miterlimit:3.86400008;stroke-dasharray:none;stroke-opacity:1" transform="matrix(1.65313 0 0 -1.65313 222.402 104.832)"/><path d="M0 0c-.805-3.057-.086-6.2 2.732-7.516 2.049-.956 3.939-.588 5.808.414m13.799-5.187c-.802-3.057-.448-6.653 2.498-8.026 1.538-.717 2.969.017 4.541.376" style="fill:none;stroke:#231f20;stroke-width:1.33599997;stroke-linecap:round;stroke-linejoin:miter;stroke-miterlimit:3.86400008;stroke-dasharray:none;stroke-opacity:1" transform="matrix(1.65313 0 0 -1.65313 218.722 77.33)"/><path d="m0 0 44.239-26.869M3.451-5.977c7.941-3.705 12.945-6.349 18.072-13.419 3.939-5.267 4.493-9.426 8.749-14.684M1.744-8.301c5.509-2.572 7.507-6.308 10.933-11.338M-16.022 12.46l-22.037 19.633m16.467-19.533-28.453 13.893m28.319-18.195c-12.32 2.001-19.35 2.318-31.765 5.452" style="fill:none;stroke:#231f20;stroke-width:1.33599997;stroke-linecap:butt;stroke-linejoin:miter;stroke-miterlimit:3.86400008;stroke-dasharray:none;stroke-opacity:1" transform="matrix(1.65313 0 0 -1.65313 237.994 124.471)"/><path d="M0 0c8.329-3.882 11.01-9.5 19.336-13.385 2.946-1.373 5.181.08 8.133-1.293 2.432-1.136 4.73-1.895 5.429-4.407.565-2.133-.114-5.227-1.131-7.402-5.374-11.532-4.675-18.429-13.341-27.643-2.884-3.177-14.082-5.563-17.615-8.127-9.486-6.962-16.399-5.957-21.418-16.715-6.14 9.568-5.843 17.226-12.611 26.466-4.27 5.886-8.129 8.313-14.007 12.769-10.53 8.186-16.55 13.333-28.593 18.948 1.256 2.688 2.029 4.356 3.285 7.045 1.074 2.306 2.892 2.863 4.225 5.049C-63.63-1.676-62.18 3.109-57.179 9.822c3.783 5.098 6.686 7.642 10.788 12.434 1.101 1.359 2.163 1.956 2.937 3.623.597 1.278-.874 4.147.411 3.551.893-.42.742-1.753 1.57-1.981 3.885-1.034 3.006-5.923 5.809-8.946 4.17-4.439 6.893-6.96 11.923-10.553 5.033-3.591 8.244-5.401 14.35-6.691C-5.832.537-3.328 1.553 0 0" style="fill:#6dcff6;fill-opacity:1;fill-rule:nonzero;stroke:none" transform="matrix(1.65313 0 0 -1.65313 188.946 196.481)"/><path d="M0 0c8.329-3.882 11.01-9.5 19.336-13.385 2.946-1.373 5.181.08 8.133-1.293 2.432-1.136 4.73-1.895 5.429-4.407.565-2.133-.114-5.227-1.131-7.402-5.374-11.532-4.675-18.429-13.341-27.643-2.884-3.177-14.082-5.563-17.615-8.127-9.486-6.962-16.399-5.957-21.418-16.715-6.14 9.568-5.843 17.226-12.611 26.466-4.27 5.886-8.129 8.313-14.007 12.769-10.53 8.186-16.55 13.333-28.593 18.948 1.256 2.688 2.029 4.356 3.285 7.045 1.074 2.306 2.892 2.863 4.225 5.049C-63.63-1.676-62.18 3.109-57.179 9.822c3.783 5.098 6.686 7.642 10.788 12.434 1.101 1.359 2.163 1.956 2.937 3.623.597 1.278-.874 4.147.411 3.551.893-.42.742-1.753 1.57-1.981 3.885-1.034 3.006-5.923 5.809-8.946 4.17-4.439 6.893-6.96 11.923-10.553 5.033-3.591 8.244-5.401 14.35-6.691C-5.832.537-3.328 1.553 0 0Z" style="fill:none;stroke:#231f20;stroke-width:1.33599997;stroke-linecap:butt;stroke-linejoin:miter;stroke-miterlimit:3.86400008;stroke-dasharray:none;stroke-opacity:1" transform="matrix(1.65313 0 0 -1.65313 188.946 196.481)"/><path d="M0 0c5.929-11.03 10.028-17.94 21.432-23.258 9.476-4.419 19.913-.249 29.752-3.902-.836-1.79-4.693-3.882-5.523-5.678-2.096-4.485-7.688-3.434-12.512-2.746-8.315 1.227-15.017-.383-22.704 3.206C2.247-28.559-3.931-22.75-7.313-14.624-8.8-11.124-14.207-3.585-12.537 0c1.199 2.563 6.651 2.931 8.88 4.701z" style="fill:#f15a22;fill-opacity:1;fill-rule:nonzero;stroke:none" transform="matrix(1.65313 0 0 -1.65313 172.142 120.31)"/><path d="M0 0c5.929-11.03 10.028-17.94 21.432-23.258 9.476-4.419 19.913-.249 29.752-3.902-.836-1.79-4.693-3.882-5.523-5.678-2.096-4.485-7.688-3.434-12.512-2.746-8.315 1.227-15.017-.383-22.704 3.206C2.247-28.559-3.931-22.75-7.313-14.624-8.8-11.124-14.207-3.585-12.537 0c1.199 2.563 6.651 2.931 8.88 4.701z" style="fill:none;stroke:#231f20;stroke-width:1.33599997;stroke-linecap:butt;stroke-linejoin:miter;stroke-miterlimit:3.86400008;stroke-dasharray:none;stroke-opacity:1" transform="matrix(1.65313 0 0 -1.65313 172.142 120.31)"/><path d="M0 0c-4.122-8.84-6.508-13.964-10.63-22.801-2.632-5.638.651-9.974 2.263-15.874 1.405-5.022 1.416-10.017 6.154-12.226 1.925-.899 3.323 1.102 5.262 1.915-.857 3.514-1.985 5.447-4.274 8.23 1.299-3.571 2.812-5.681 5.538-8.195l2.763.582c-.434 2.072-.922 3.702-1.675 5.769L9.5-44.513l1.47 1.813c-.951 4.653-3.357 7.179-7.108 10.176-3.876 3.057-3.896 8.367-1.807 12.851L8.389-6.094c1.73 3.714 4.933 4.561 6.666 8.275 1.196 2.563 4.421 4.801 2.594 6.899-1.958 2.161-4.79 1.77-7.618 1.059C4.884 8.798 2.329 4.996 0 0" style="fill:#b95647;fill-opacity:1;fill-rule:nonzero;stroke:none" transform="matrix(1.65313 0 0 -1.65313 135.184 138.157)"/><path d="M0 0c-4.122-8.84-6.508-13.964-10.63-22.801-2.632-5.638.651-9.974 2.263-15.874 1.405-5.022 1.416-10.017 6.154-12.226 1.925-.899 3.323 1.102 5.262 1.915-.857 3.514-1.985 5.447-4.274 8.23 1.299-3.571 2.812-5.681 5.538-8.195l2.763.582c-.434 2.072-.922 3.702-1.675 5.769L9.5-44.513l1.47 1.813c-.951 4.653-3.357 7.179-7.108 10.176-3.876 3.057-3.896 8.367-1.807 12.851L8.389-6.094c1.73 3.714 4.933 4.561 6.666 8.275 1.196 2.563 4.421 4.801 2.594 6.899-1.958 2.161-4.79 1.77-7.618 1.059C4.884 8.798 2.329 4.996 0 0Z" style="fill:none;stroke:#231f20;stroke-width:1.33599997;stroke-linecap:butt;stroke-linejoin:miter;stroke-miterlimit:3.86400008;stroke-dasharray:none;stroke-opacity:1" transform="matrix(1.65313 0 0 -1.65313 135.184 138.157)"/><path d="M0 0c1.436-3.942.445-7.071-1.347-10.91-4.299-9.225-10.077-12.922-18.589-18.468-4.781-3.229-8.409-4.656-14.275-5.198-2.087-.12-3.888-1.305-5.935-.349-1.538.714-2.257 1.519-3.733 2.364 1.664 1.561 2.843 2.417 4.712 3.416l2.767.58c-1.836.077-3.149-.399-4.816.377-2.306 1.073-1.941 3.868-1.439 6.286 3.04-.174 4.936-.12 7.859-.548-.899.416-1.633-.486-2.529-.069-2.05.956-1.365 3.757-.412 5.806 1.613 3.462 6.029 1.556 9.597.517 4.97-1.382 9.923-2.133 13.354 1.881C-10.191-8.812-6.705.006-.168-3.04 2.903-4.47 0 0 0 0" style="fill:#b95647;fill-opacity:1;fill-rule:nonzero;stroke:none" transform="matrix(1.65313 0 0 -1.65313 247.205 171.056)"/><path d="M0 0c1.436-3.942.445-7.071-1.347-10.91-4.299-9.225-10.077-12.922-18.589-18.468-4.781-3.229-8.409-4.656-14.275-5.198-2.087-.12-3.888-1.305-5.935-.349-1.538.714-2.257 1.519-3.733 2.364 1.664 1.561 2.843 2.417 4.712 3.416l2.767.58c-1.836.077-3.149-.399-4.816.377-2.306 1.073-1.941 3.868-1.439 6.286 3.04-.174 4.936-.12 7.859-.548-.899.416-1.633-.486-2.529-.069-2.05.956-1.365 3.757-.412 5.806 1.613 3.462 6.029 1.556 9.597.517 4.97-1.382 9.923-2.133 13.354 1.881C-10.191-8.812-6.705.006-.168-3.04 2.903-4.47 0 0 0 0Z" style="fill:none;stroke:#231f20;stroke-width:1.33599997;stroke-linecap:butt;stroke-linejoin:miter;stroke-miterlimit:3.86400008;stroke-dasharray:none;stroke-opacity:1" transform="matrix(1.65313 0 0 -1.65313 247.205 171.056)"/><path d="M0 0s1.852 1.202 2.752.782C5.7-.591 7.824.288 11.01-.571 8.812 1.076 7.207 1.981 4.47 2.792c3.26.973 5.335 1.407 8.689 1.247l-2.834 1.947-9.94 2.766c4.416.434 7.256.514 11.646-.442-2.057 1.273-7.187 6.302-7.187 6.302-7.071 1.893-10.328.617-16.862 3.662-13.065 6.095-15.151 17.672-28.216 23.767-4.742 2.209-8.39 1.416-13.425.642-4.664-.634-7.584-.205-12.092-1.847l4.068-.648.577-2.766c4.553.063 7.695.782 11.92-1.193 6.662-3.103 7.841-10.824 14.204-14.572 6.106-3.628 8.789-5.261 14.104-9.925 5.892-5.087 10.105-6.511 17.15-9.797C-2.064 1.156-2.178 1.013 0 0" style="fill:#f15a22;fill-opacity:1;fill-rule:nonzero;stroke:none" transform="matrix(1.65313 0 0 -1.65313 359.48 232.953)"/><path d="M0 0s1.852 1.202 2.752.782C5.7-.591 7.824.288 11.01-.571 8.812 1.076 7.207 1.981 4.47 2.792c3.26.973 5.335 1.407 8.689 1.247l-2.834 1.947-9.94 2.766c4.416.434 7.256.514 11.646-.442-2.057 1.273-7.187 6.302-7.187 6.302-7.071 1.893-10.328.617-16.862 3.662-13.065 6.095-15.151 17.672-28.216 23.767-4.742 2.209-8.39 1.416-13.425.642-4.664-.634-7.584-.205-12.092-1.847l4.068-.648.577-2.766c4.553.063 7.695.782 11.92-1.193 6.662-3.103 7.841-10.824 14.204-14.572 6.106-3.628 8.789-5.261 14.104-9.925 5.892-5.087 10.105-6.511 17.15-9.797C-2.064 1.156-2.178 1.013 0 0Z" style="fill:none;stroke:#231f20;stroke-width:1.33599997;stroke-linecap:butt;stroke-linejoin:miter;stroke-miterlimit:3.86400008;stroke-dasharray:none;stroke-opacity:1" transform="matrix(1.65313 0 0 -1.65313 359.48 232.953)"/><path d="M0 0c2.538-.248 4.305-.134 6.611-1.21 3.457-1.613 5.646-2.943 7.259-6.506 2.155-4.746-.457-8.677 1.133-13.627 2.418-7.522 4.539-13.345 11.712-16.69l19.217-8.96c8.323-3.882 12.211-7.254 19.938-12.42l-19.367 5.292 11.203-2.732c-4.236-.051-6.608 1.21-10.453 3.003 3.877-3.054 6.577-4.627 10.83-7.544l-9.737 4.539c4.556-4.619 7.534-7.257 13.431-10.003-6.791 3.166-10.396 5.469-16.708 9.66 5.107-4.096 8.01-6.232 12.437-10.787-4.655 1.387-7.036 2.968-11.272 5.255 3.254-3.392 5.695-4.841 9.8-7.068-7.573 4.156-10.536 8.504-17.319 13.69-8.138 6.292-14.612 7.128-23.127 13.279C7.784-37.16 7.507-29.387 6.874-20.05 6.283-12.286-2.772-7.284 0 0" style="fill:#f15a22;fill-opacity:1;fill-rule:nonzero;stroke:none" transform="matrix(1.65313 0 0 -1.65313 251.21 164.672)"/><path d="M0 0c2.538-.248 4.305-.134 6.611-1.21 3.457-1.613 5.646-2.943 7.259-6.506 2.155-4.746-.457-8.677 1.133-13.627 2.418-7.522 4.539-13.345 11.712-16.69l19.217-8.96c8.323-3.882 12.211-7.254 19.938-12.42l-19.367 5.292 11.203-2.732c-4.236-.051-6.608 1.21-10.453 3.003 3.877-3.054 6.577-4.627 10.83-7.544l-9.737 4.539c4.556-4.619 7.534-7.257 13.431-10.003-6.791 3.166-10.396 5.469-16.708 9.66 5.107-4.096 8.01-6.232 12.437-10.787-4.655 1.387-7.036 2.968-11.272 5.255 3.254-3.392 5.695-4.841 9.8-7.068-7.573 4.156-10.536 8.504-17.319 13.69-8.138 6.292-14.612 7.128-23.127 13.279C7.784-37.16 7.507-29.387 6.874-20.05 6.283-12.286-2.772-7.284 0 0Z" style="fill:none;stroke:#231f20;stroke-width:1.33599997;stroke-linecap:butt;stroke-linejoin:miter;stroke-miterlimit:3.86400008;stroke-dasharray:none;stroke-opacity:1" transform="matrix(1.65313 0 0 -1.65313 251.21 164.672)"/></svg>