<svg xmlns="http://www.w3.org/2000/svg" xml:space="preserve" width="400" height="400"><defs><clipPath id="a" clipPathUnits="userSpaceOnUse"><path d="m895.471 3607.809-61.71.38-66.473 3.599c-.944-3.206-1.509-5.129-1.393-8.508.443-12.679 10.365-18.465 21.957-23.773 13.096-5.886 20.915-11.961 35.263-11.457 17.096.596 26.591.93 43.686 1.526l33.855-1.356 26.802.941c13.084.458 17.351 11.391 28.294 18.756 7.85 5.137 16.619 8.195 16.295 17.49-.119 3.381-1.024 5.043-1.984 8.394z"/></clipPath><clipPath id="c" clipPathUnits="userSpaceOnUse"><path d="M0 0h1133.858v4535.433H0Z"/></clipPath><linearGradient id="b" x1="0" x2="1" y1="0" y2="0" gradientTransform="scale(28.85905 -28.85905) rotate(-89.2 -47.773 -77.118)" gradientUnits="userSpaceOnUse" spreadMethod="pad"><stop offset="0" style="stop-opacity:1;stop-color:#007dc5"/><stop offset="1" style="stop-opacity:1;stop-color:#44c8f5"/></linearGradient></defs><path d="M745.512 3536.334h241.965v241.965H745.512Z" style="fill:#b2d34a;fill-opacity:1;fill-rule:nonzero;stroke:none" transform="matrix(1.65313 0 0 -1.65313 -1232.43 6246.026)"/><path d="M0 0c-.083 2.33 2.687 4.319 6.184 4.44 3.495.12 6.394-1.668 6.473-3.997.083-2.334-2.683-4.319-6.178-4.439C2.983-4.117.083-2.328 0 0" style="fill:#a6ce38;fill-opacity:1;fill-rule:nonzero;stroke:none" transform="matrix(1.65313 0 0 -1.65313 142.964 200.005)"/><path d="M0 0c-.063 1.865 2.337 3.462 5.369 3.568 3.027.105 5.537-1.321 5.601-3.186.065-1.86-2.336-3.462-5.367-3.567C2.575-3.286.064-1.864 0 0" style="fill:#f6881f;fill-opacity:1;fill-rule:nonzero;stroke:none" transform="matrix(1.65313 0 0 -1.65313 243.365 115.497)"/><path d="M0 0c-.123 3.032 3.099 5.583 7.197 5.708 4.101.121 7.522-2.235 7.646-5.266.125-3.028-3.098-5.583-7.198-5.708C3.547-5.385.125-3.026 0 0" style="fill:#f6881f;fill-opacity:1;fill-rule:nonzero;stroke:none" transform="matrix(1.65313 0 0 -1.65313 260.122 195.224)"/><path d="M0 0c-.161 3.104 3.378 5.703 7.903 5.814 4.523.107 8.315-2.321 8.476-5.424.154-3.1-3.381-5.704-7.904-5.811C3.951-5.53.158-3.102 0 0" style="fill:#f6881f;fill-opacity:1;fill-rule:nonzero;stroke:none" transform="matrix(1.65313 0 0 -1.65313 313.028 161.362)"/><path d="M0 0c-.155 4.427 4.066 8.166 9.426 8.354 5.356.187 9.83-3.25 9.985-7.68.151-4.427-4.066-8.167-9.426-8.353C4.625-7.867.155-4.427 0 0" style="fill:#ffcb04;fill-opacity:1;fill-rule:nonzero;stroke:none" transform="matrix(1.65313 0 0 -1.65313 188.582 186.543)"/><path d="M0 0c11.562-16.527 35.475-11.456 58.69-10.642 10.55.366 17.453-3.627 28.003-3.257 36.297 1.272 49.657 5.968 85.956 7.238 12.66.447 37.261-2.079 36.82 10.601-.828 23.67-29.234 14.211-52.867 13.388-32.082-1.124-50.622-2.619-82.7-3.741-17.515-.613-28.07-.979-45.542-2.862C16.783 9.473-6.665 9.526 0 0" style="fill:#44c8f5;fill-opacity:1;fill-rule:nonzero;stroke:none" transform="matrix(1.65313 0 0 -1.65313 27.43 270.035)"/><path d="M0 0c11.562-16.527 35.475-11.456 58.69-10.642 10.55.366 17.453-3.627 28.003-3.257 36.297 1.272 49.657 5.968 85.956 7.238 12.66.447 37.261-2.079 36.82 10.601-.828 23.67-29.234 14.211-52.867 13.388-32.082-1.124-50.622-2.619-82.7-3.741-17.515-.613-28.07-.979-45.542-2.862C16.783 9.473-6.665 9.526 0 0Z" style="fill:none;stroke:#231f20;stroke-width:1.33000004;stroke-linecap:butt;stroke-linejoin:miter;stroke-miterlimit:3.86400008;stroke-dasharray:none;stroke-opacity:1" transform="matrix(1.65313 0 0 -1.65313 27.43 270.035)"/><path d="M0 0c-2.186-10.242-5.178-15.643-11.026-24.107 3.928-3.251 7.557-3.97 12.848-3.789 9.526.333 7.594 13.187 10.242 22.388z" style="fill:#00aeef;fill-opacity:1;fill-rule:nonzero;stroke:none" transform="matrix(1.65313 0 0 -1.65313 67.138 325.836)"/><path d="M0 0c-2.186-10.242-5.178-15.643-11.026-24.107 3.928-3.251 7.557-3.97 12.848-3.789 9.526.333 7.594 13.187 10.242 22.388z" style="fill:none;stroke:#231f20;stroke-width:1.33000004;stroke-linecap:butt;stroke-linejoin:miter;stroke-miterlimit:3.86400008;stroke-dasharray:none;stroke-opacity:1" transform="matrix(1.65313 0 0 -1.65313 67.138 325.836)"/><path d="M0 0c9.572-1.146 15.057-.534 24.539.856.802 1.298 1.839 1.972 3.297 2.658-6.644 8.241-12.68 17.355-23.469 16.976C-5.576 20.14.922 9.992 0 0" style="fill:#00aeef;fill-opacity:1;fill-rule:nonzero;stroke:none" transform="matrix(1.65313 0 0 -1.65313 309.009 373.384)"/><path d="M0 0c9.572-1.146 15.057-.534 24.539.856.802 1.298 1.839 1.972 3.297 2.658-6.644 8.241-12.68 17.355-23.469 16.976C-5.576 20.14.922 9.992 0 0Z" style="fill:none;stroke:#231f20;stroke-width:1.33000004;stroke-linecap:butt;stroke-linejoin:miter;stroke-miterlimit:3.86400008;stroke-dasharray:none;stroke-opacity:1" transform="matrix(1.65313 0 0 -1.65313 309.009 373.384)"/><path d="m0 0-3.355-.967-1.575-3.444 3.416-.728L1.81-3.33 1.692.056l-3.415.731-3.324-1.815.117-3.383 3.416-.728c7.927 9.598 8.273 17.874 13.382 29.278 4.818-4.49 6.661-8.666 8.149-14.97" style="fill:none;stroke:#231f20;stroke-width:1.62600005;stroke-linecap:butt;stroke-linejoin:miter;stroke-miterlimit:3.86400008;stroke-dasharray:none;stroke-opacity:1" transform="matrix(1.65313 0 0 -1.65313 260.685 109.66)"/><path d="M0 0c-1.412-1.957-2.411-3.682-3.177-6.04 1.489-.159 1.962-1.622 3.443-1.575 1.483.054 1.855 1.549 3.328 1.81l.727 3.418L-.03.848l-3.355-.966.235-6.765c1.911-.148 3.204-.739 5.112-.67 5.289.185 3.76 7.542 3.786 12.836.152 7.84 4.469 11.591 7.816 18.906 3.045-2.221 6.081-4.235 6.222-8.254.155-4.438-3.159-6.672-6.449-9.54" style="fill:none;stroke:#231f20;stroke-width:1.62600005;stroke-linecap:butt;stroke-linejoin:miter;stroke-miterlimit:3.86400008;stroke-dasharray:none;stroke-opacity:1" transform="matrix(1.65313 0 0 -1.65313 329.35 156.14)"/><path d="M0 0c2.27 1.562 4.125 2.893 6.605 4.462l1.809-3.325L5.095-.668c2.371 4.737 5.434 7.807 10.71 7.988 2.745.098 5.147-2.147 5.243-4.892.104-2.958-1.95-4.723-3.985-6.908-.888 1.237-2.591 1.598-2.652 3.289-.185 5.282 3.701 9.017 8.936 10.47.926-2.295 1.82-3.744 1.906-6.281.17-4.863-4.385-7.558-8.976-9.199 3.081 8.568 9.478 13.026 18.342 13.336 3.799.132 6.122.21 9.921.347.118-3.383.186-5.285.302-8.665.235-6.765-4.055-10.931-9.636-14.515-1.988 2.472-3.532 4.322-3.646 7.49-.411 11.837 15.602 13.24 27.422 13.652 1.899.069 2.183-2.038 3.493-3.258-4.015-6.068-6.209-9.74-12.191-13.972-4.4 4.928-6.242 9.307-6.469 15.859-.238 6.76 3.957 13.674 10.714 13.912 3.588.125 5.51-.441 9.105-.528.307-2.738.994-4.198 1.088-6.942.094-2.748-2.402-3.894-4.021-5.857-3.679 2.413-6.926 4.624-7.081 9.062-.065 1.902 2.039 2.19 3.258 3.499l7.599.268.238-6.765-8.267-5.365c1.439 7.245 7.258 9.986 13.939 12.338.894-1.453 2.617-2.239 2.681-4.141.155-4.438-4.233-5.859-8.176-7.901-.926 2.295-2.652 3.293-2.742 5.83-.328 9.504 9.305 11.959 18.014 16.707.053-1.479.918-2.082.97-3.565.133-3.801-2.115-5.998-3.904-9.234-.721 2.514-1.827 3.956-1.923 6.705-.253 7.187 2.119 11.92 7.005 17.173.681-1.248 1.758-1.847 1.809-3.325.155-4.438-1.423-7.667-3.835-11.134 2.351 5.16 6.065 7.826 11.55 8.02 5.7.199 11.916-2.334 12.115-8.038.273-7.819-6.566-11.657-13.852-14.871 2.35 5.369 6.7 7.85 12.399 8.049 2.956.104 5.171-2.782 5.272-5.74.317-9.084-8.995-14.702-18.071-15.019-1.48-.05-.728 2.725-1.809 3.323l3.38.116.249-7.184c-5.698-.199-8.644-.513-14.354-.502-.501 2.31-1.17 3.346-1.876 5.437 2.482 1.57 3.678 3.512 6.634 3.615 4.011.138 6.058-4.019 6.198-8.031.101-2.961.169-4.862.273-7.823-1.462-.473-2.709-1.152-4.162-1.837-2.652 3.293-4.431 5.769-4.577 9.996-.243 6.971 7.247 10.409 14.21 10.651 4.857.169 7.599.269 12.454.439.337-3.589.41-5.703.323-9.297l-3.286-2.658c.199 6.356 4.717 10.109 10.562 12.219.699-1.879 1.791-2.9 1.866-5.014.08-2.325-2.002-3.244-3.203-5.186l-1.834 4.167-.325 9.292c3.376.121 5.007 1.871 8.383 1.989 1.477.052 1.953-1.414 3.437-1.572L123.205 6l-3.319-1.811c-2.04 3.951-4.45 6.404-4.612 11.056-.109 3.168-.177 5.069-.286 8.238 2.314.291 3.557.971 5.878 1.052 5.911.207 7.848-6.919 8.057-12.832.169-4.863-3.528-7.955-8.136-9.174-.04 1.267-.909 1.872-.951 3.142-.185 5.282 4.55 8.832 9.826 9.017 6.757.236 8.739-8.158 8.973-14.919.076-2.113-1.578-3.229-2.356-5.16-2.772.748-4.686 1.104-6.869 3.146l.724 3.406c4.26-.908 10.183-1.124 10.338-5.562.059-1.689-1.171-2.79-1.542-4.283-.699 1.879-1.79 2.9-1.866 5.012-.317 9.087 6.284 13.759 14.582 18.282 1.608-3.751 2.744-6.042 2.884-10.054.072-2.113-.944-3.206-1.51-5.13-.911 1.87-2.635 2.869-2.711 4.983-.179 5.069 4.815 7.356 9.838 8.806 3.395-6.44 6.238-9.301 9.003-15.763 1.462.473 2.472 1.777 4.161 1.837 2.953.102 3.1-4.124 4.457-6.616-3.909-3.1-7.481-3.645-12.546-3.823l-1.925 6.701c-2.897-1.789-4.737-3.549-8.324-3.676-11.61-.404-18.029 1.909-29.639 1.505-2.321-.083-3.647 1.566-5.97 1.486-9.075-.317-13.6-3.864-22.674-4.181-3.592-.126-5.207 3.836-5.333 7.429-3.621-5.203-9.312-5.615-15.834-6.477-.336 3.587-.832 5.682-1.168 9.271-1.781-3.448-3.837-5.215-7.363-7.03l-4.223-.147-.147 4.227c.194-5.494-4.739-9.474-10.227-9.668-2.321-.083-3.225 1.581-5.546 1.497-4.223-.147-5.794-3.587-10.013-3.734-4.011-.141-4.391 4.715-6.209 8.246-8.322-3.675-13.568-4.704-22.646-5.021-2.742-.094-4.099 2.393-6.058 4.019l.729 3.41 2.651-3.294C3.837-7.06 2.829-8.363 1.142-8.424c-4.223-.147-6.241 3.168-8.68 6.469l.548 8.481c2.526.299 4.193.99 6.726 1.078 2.742.098 3.078-3.487 4.426-5.767C6 9.729 13.249 14.005 21.481 14.293c4.219.145 6.083-4.867 6.23-9.094.084-2.321-1.132-3.849-1.478-5.974 4.72 3.974 8.266 5.364 14.115 7.262l5.911.205c.071-2.11.108-3.168.184-5.278.125-3.596-1.068-5.75-2.216-9.181C48.196 5.701 61.062 6.364 74.874 10.235c-2.603-4.11-5.062-6.314-8.962-9.626 2.076 13.191 13.312 18.238 26.31 21.232.721-2.514 1.829-3.957 1.923-6.703.271-7.818-6.152-11.429-12.104-16.502C81.992.115 80.286.48 80.236 1.958c-.118 3.381 3.456 3.929 6.574 5.309-.596-13.138-10.498-20.046-22.812-24.497l-3.672 8.337c4.71 4.394 9.32 5.404 15.835 6.476.118-3.38-.426-5.938-2.239-8.54l-2.414-3.47C82.478-7.909 90.474-6.779 101.429.159l-8.844-13.002c5.639 1.89 8.776 2.846 14.688 3.055 3.798.131 6.332.22 9.769-1.353C122.996-.144 134.656-1.217 147.11-.783c-.518-3.402-1.084-5.327-2.24-8.54 4.532 3.33 7.407 5.758 12.399 8.049l-.696-4.253c7.138 1.303 10.375 5.44 17.553 5.689 1.9.065 2.403-2.241 4.31-2.388l.99-4.198c4.317 3.539 5.683 6.76 8.905 11.312l-16.19 3.669-5.005-1.869 1.542 4.283c-1.291.595-1.961 1.627-3.438 1.573-6.966-.241-10.887-2.918-15.777-8.165l-.959 3.349-3.289-2.651" style="fill:none;stroke:#fff;stroke-width:1.62600005;stroke-linecap:butt;stroke-linejoin:miter;stroke-miterlimit:3.86400008;stroke-dasharray:none;stroke-opacity:1" transform="matrix(1.65313 0 0 -1.65313 55.29 267.674)"/><path d="M0 0a73.243 73.243 0 0 1-6.784.609l-3.322-1.807C-6.449-2.975-4.084-4.161.147-4.222.306-2.74 2.621-2.445 2.564-.757 2.505.933-.031.847-.087 2.535c-.317 9.081 3.313 14.074 5.115 23.018 2.606-2.024 4.182-4.72 4.517-8.302m-42.717-11.64c-3.976 4.936-8.316 8.167-14.652 7.944-4.008-.137-7.502-3.011-7.362-7.021.227-6.549 7.321-9.898 13.864-9.668 4.222.148 6.61 4.464 6.463 8.684-.458 13.096-14.125 17.06-14.581 30.154-.537 15.419-.843 24.081-1.38 39.496 7.991-4.796 15.549-9.391 15.881-18.899.094-2.744-2.176-4.305-4.019-6.062m-37.394-55.02c1.961-1.626 3.692-2.835 6.06-4.018l2.412 3.47c-2.198 2.46-4.993 3.839-8.589 3.926 1.391-3.544 3.571-5.373 6.992-6.523.967 2.574 2.383 4.313 2.282 7.271-.436 12.461-9.931 18.05-10.366 30.513-.109 3.17 3.864 4.366 7.031 4.475 5.7.199 7.029-7.577 6.806-13.295" style="fill:none;stroke:#231f20;stroke-width:1.62600005;stroke-linecap:butt;stroke-linejoin:miter;stroke-miterlimit:3.86400008;stroke-dasharray:none;stroke-opacity:1" transform="matrix(1.65313 0 0 -1.65313 280.387 191.408)"/><path d="M0 0c2.134.986 3.874 1.826 6.205 2.817L7.901.718 4.785-.425c2.228 2.991 5.103 4.928 10.061 5.044 2.576.061 4.833-1.357 4.92-3.089.099-1.866-1.828-2.979-3.742-4.359-.835.783-2.432 1.014-2.489 2.079-.174 3.333 3.474 5.688 8.392 6.606.868-1.447 1.711-2.367 1.794-3.966.159-3.067-4.121-4.769-8.434-5.804 2.893 5.407 8.902 8.219 17.228 8.417 3.566.082 5.748.132 9.318.216.108-2.133.169-3.333.282-5.465.223-4.269-3.81-6.9-9.053-9.157-1.864 1.558-3.315 2.726-3.42 4.726-.385 7.464 14.652 8.352 25.751 8.614 1.787.041 2.051-1.287 3.282-2.058-3.769-3.829-5.83-6.148-11.451-8.812-4.13 3.103-5.86 5.867-6.076 10.003-.223 4.266 3.72 8.629 10.065 8.78 3.369.08 5.174-.28 8.55-.332.29-1.732.933-2.651 1.024-4.383.09-1.735-2.255-2.457-3.777-3.694-3.455 1.519-6.503 2.919-6.651 5.717-.061 1.202 1.916 1.38 3.063 2.209l7.134.169.224-4.268-7.766-3.388c1.352 4.572 6.821 6.303 13.093 7.786.842-.916 2.456-1.411 2.519-2.611.143-2.801-3.976-3.7-7.681-4.987-.868 1.45-2.489 2.078-2.572 3.676-.313 6.001 8.739 7.551 16.918 10.546.046-.934.862-1.316.912-2.251.123-2.399-1.988-3.785-3.668-5.826-.681 1.587-1.719 2.496-1.809 4.231-.235 4.533 1.989 7.52 6.583 10.836.638-.787 1.65-1.16 1.698-2.097.144-2.803-1.337-4.838-3.607-7.025 2.215 3.255 5.7 4.936 10.85 5.058 5.355.128 11.195-1.471 11.379-5.071.257-4.933-6.166-7.354-13.009-9.385 2.209 3.388 6.295 4.954 11.646 5.083 2.776.061 4.856-1.758 4.952-3.626.297-5.733-8.449-9.276-16.976-9.475-1.386-.035-.684 1.719-1.697 2.093l3.174.076.238-4.532c-5.355-.129-8.124-.327-13.483-.318-.472 1.455-1.103 2.109-1.763 3.429 2.325.988 3.456 2.219 6.231 2.284 3.765.086 5.687-2.537 5.82-5.07.097-1.869.158-3.067.256-4.935-1.374-.299-2.541-.729-3.908-1.162-2.489 2.078-4.158 3.641-4.298 6.307-.23 4.402 6.806 6.569 13.347 6.724 4.558.109 7.136.167 11.694.275.317-2.261.386-3.594.306-5.867L97.071-4.13c.188 4.012 4.429 6.379 9.916 7.71.661-1.184 1.684-1.83 1.753-3.161.079-1.466-1.878-2.049-3.003-3.277l-1.726 2.63-.306 5.868c3.174.076 4.702 1.176 7.874 1.252 1.39.035 1.837-.892 3.229-.99l.904-2.118-3.117-1.142c-1.914 2.496-4.18 4.043-4.331 6.977-.102 1.999-.166 3.199-.268 5.198 2.171.185 3.338.613 5.521.665 5.552.133 7.372-4.366 7.564-8.097.159-3.071-3.312-5.019-7.639-5.79-.037.801-.854 1.183-.895 1.981-.175 3.336 4.274 5.578 9.229 5.695 6.345.146 8.206-5.15 8.429-9.419.068-1.331-1.48-2.038-2.213-3.255-2.605.473-4.403.7-6.454 1.985l.685 2.151c3.997-.571 9.56-.708 9.708-3.508.053-1.067-1.099-1.763-1.449-2.705-.655 1.187-1.682 1.828-1.754 3.161-.293 5.736 5.903 8.686 13.693 11.537 1.512-2.367 2.58-3.807 2.713-6.346.068-1.334-.887-2.021-1.42-3.236-.857 1.184-2.478 1.811-2.546 3.142-.167 3.207 4.521 4.651 9.238 5.559 3.186-4.062 5.86-5.869 8.454-9.949 1.376.303 2.324 1.128 3.91 1.161 2.775.065 2.915-2.601 4.187-4.174-3.669-1.955-7.027-2.299-11.783-2.413l-1.808 4.232c-2.719-1.134-4.448-2.242-7.817-2.321-10.902-.257-16.933 1.205-27.837.949-2.178-.05-3.424.986-5.604.938-8.526-.202-12.775-2.439-21.3-2.637-3.367-.079-4.89 2.42-5.006 4.686-3.404-3.283-8.746-3.543-14.871-4.088-.318 2.266-.782 3.588-1.1 5.849-1.67-2.173-3.599-3.29-6.911-4.434l-3.966-.091-.139 2.666c.181-3.469-4.453-5.978-9.607-6.1-2.179-.053-3.029.995-5.209.946-3.964-.095-5.441-2.266-9.406-2.356-3.765-.091-4.125 2.972-5.827 5.198-7.818-2.316-12.746-2.968-21.27-3.168-2.574-.061-3.848 1.512-5.687 2.537l.68 2.156 2.488-2.08c-1.37-.299-2.321-1.123-3.907-1.161-3.967-.091-5.859 2.001-8.151 4.084l.518 5.35c2.372.188 3.935.627 6.314.685 2.576.057 2.893-2.205 4.158-3.641 1.726 4.979 8.534 7.675 16.266 7.856 3.964.096 5.713-3.071 5.853-5.735.075-1.468-1.066-2.428-1.39-3.77 4.434 2.502 7.761 3.384 13.256 4.583l5.55.127c.068-1.329.103-2 .175-3.33.117-2.269-1.005-3.63-2.081-5.792C45.264 3.6 57.35 4.015 70.322 6.458c-2.447-2.594-4.754-3.986-8.418-6.072 1.949 8.321 12.501 11.509 24.71 13.396.676-1.584 1.718-2.496 1.805-4.228.256-4.935-5.779-7.213-11.368-10.417-.048.935-1.645 1.165-1.695 2.1-.109 2.132 3.243 2.479 6.177 3.348-.562-8.291-9.863-12.646-21.427-15.456l-3.448 5.26c4.422 2.775 8.755 3.41 14.872 4.086.11-2.133-.4-3.746-2.102-5.391l-2.267-2.186C77.464-4.993 84.97-4.28 95.262.101l-8.309-8.205c5.3 1.191 8.244 1.793 13.797 1.925 3.564.083 5.946.14 9.172-.854 5.592 6.942 16.545 6.264 28.24 6.538-.483-2.145-1.016-3.359-2.099-5.389 4.256 2.103 6.956 3.637 11.643 5.082l-.654-2.684c6.703.82 9.743 3.428 16.485 3.587 1.781.043 2.253-1.414 4.047-1.504l.93-2.652c4.053 2.232 5.336 4.267 8.364 7.14l-15.203 2.313-4.703-1.176 1.448 2.705c-1.213.369-1.841 1.025-3.229.989-6.541-.151-10.223-1.84-14.816-5.152l-.902 2.113-3.089-1.67" style="fill:none;stroke:#fff;stroke-width:1.25100005;stroke-linecap:butt;stroke-linejoin:miter;stroke-miterlimit:3.86400008;stroke-dasharray:none;stroke-opacity:1" transform="matrix(1.65313 0 0 -1.65313 71.813 269.51)"/><path d="M0 0c7.841.807 13.887 7.017 13.616 14.876-.321 9.189-5.598 19.008-14.79 18.687-6.79-.243-13.817-1.416-15.45-8.007C-19.554 13.986-11.929 1.718 0 0" style="fill:#f9b9b6;fill-opacity:1;fill-rule:nonzero;stroke:none" transform="matrix(1.65313 0 0 -1.65313 117.585 289.926)"/><path d="M0 0c7.861.809 13.921 7.033 13.65 14.911-.322 9.21-5.612 19.051-14.827 18.73-6.807-.244-13.851-1.419-15.489-8.026C-19.603 14.019-11.959 1.722 0 0Z" style="fill:none;stroke:#231f20;stroke-width:1.33000004;stroke-linecap:butt;stroke-linejoin:miter;stroke-miterlimit:3.86400008;stroke-dasharray:none;stroke-opacity:1" transform="matrix(1.65313 0 0 -1.65313 117.593 289.99)"/><path d="M0 0c-.435-.986-1.281-1.095-1.832-2.013C-3.342-4.527.04-6.398 1.456-8.962c.71.664 1.922.09 2.47 1.005C5.642-5.1 2.193-2.56 0 0" style="fill:#ee3e96;fill-opacity:1;fill-rule:nonzero;stroke:none" transform="matrix(1.65313 0 0 -1.65313 117.68 266.494)"/><path d="M0 0c-.44-1-1.296-1.11-1.854-2.042C-3.381-4.592.041-6.489 1.473-9.09c.718.673 1.945.092 2.499 1.019C5.708-5.173 2.219-2.597 0 0Z" style="fill:none;stroke:#231f20;stroke-width:1.33000004;stroke-linecap:butt;stroke-linejoin:miter;stroke-miterlimit:3.86400008;stroke-dasharray:none;stroke-opacity:1" transform="matrix(1.65313 0 0 -1.65313 117.659 266.381)"/><path d="M0 0a1.864 1.864 0 0 0 1.797 1.93A1.874 1.874 0 0 0 3.731.133 1.874 1.874 0 0 0 1.93-1.801 1.867 1.867 0 0 0 0 0" style="fill:#231f20;fill-opacity:1;fill-rule:nonzero;stroke:none" transform="matrix(1.65313 0 0 -1.65313 101.265 262.015)"/><path d="M0 0a1.883 1.883 0 0 0 1.816 1.95A1.892 1.892 0 0 0 3.769.134 1.893 1.893 0 0 0 1.95-1.82 1.888 1.888 0 0 0 0 0Z" style="fill:none;stroke:#231f20;stroke-width:1.02600002;stroke-linecap:butt;stroke-linejoin:miter;stroke-miterlimit:3.86400008;stroke-dasharray:none;stroke-opacity:1" transform="matrix(1.65313 0 0 -1.65313 101.234 262.016)"/><path d="M0 0a1.869 1.869 0 0 0 1.801 1.93A1.87 1.87 0 0 0 3.729.129a1.869 1.869 0 0 0-1.801-1.93A1.862 1.862 0 0 0 0 0" style="fill:#231f20;fill-opacity:1;fill-rule:nonzero;stroke:none" transform="matrix(1.65313 0 0 -1.65313 117.817 256.555)"/><path d="M0 0a1.888 1.888 0 0 0 1.82 1.95A1.89 1.89 0 0 0 3.768.13a1.888 1.888 0 0 0-1.82-1.949A1.882 1.882 0 0 0 0 0Z" style="fill:none;stroke:#231f20;stroke-width:1.02600002;stroke-linecap:butt;stroke-linejoin:miter;stroke-miterlimit:3.86400008;stroke-dasharray:none;stroke-opacity:1" transform="matrix(1.65313 0 0 -1.65313 117.785 256.556)"/><path d="M0 0c-.638 3.046-2.288 4.459-2.397 7.524-.031.934.879 5.373.85 6.306M-7.499.804c-1.366 4.759-3.841 6.807-6.767 10.442m3.15-13.77c-3.283 2.286-5.197 3.688-8.731 5.566m5.588-7.278c-5.459-.192-8.431.771-13.893.583m9.263-5.548a48.456 48.456 0 0 0-4.281.382m5.517-5.142c-3.07.026-4.947.362-8.014.253m8.693-4.5c-4.527-.159-7.295-1.19-11.078-3.591m11.203 15.341-2.13-.075m4.702 2.834C-17.967-1.16-20.542-.048-24.61 1.81m13.418-2.199c-.646 3.182-.843 5.044-2.41 7.924m8.308-8.786L-6.219 9.93M-2.703.976c-.725 1.707-.904 2.9-1.232 4.76M2.168-.989l-.28 7.998m2.467-9.526 2.404 7.558M-7.978-.812c-3.006 2.033-3.88 4.137-6.122 7.259m1.877-7.939c-3.35 4.289-6.345 5.916-10.478 9.778m3.79-16.95c-3.097.825-4.838 1.031-8.05 1.319m7.593-3.472c-2.53-.087-3.859-.27-6.374-.757m9.787 9.954.374-10.668m2.864 9.711.146-4.266m4.554 7.1c3.448-3.215 5.517-5.146 9.853-7.13M-1.034-1.1l14.059-5.383m-33.824-9.187-8.528-.299m12.424-4.37c-3.012-1.572-4.858-2.174-7.88-3.48" style="fill:none;stroke:#231f20;stroke-width:2.05500007;stroke-linecap:butt;stroke-linejoin:miter;stroke-miterlimit:3.86400008;stroke-dasharray:none;stroke-opacity:1" transform="matrix(1.65313 0 0 -1.65313 119.715 236.974)"/><path d="M0 0c6.908-1.779 13.861 2.026 15.907 9.384 2.393 8.606.747 19.383-7.168 22.041-5.852 1.967-12.174 3.137-15.478-2.435C-12.589 19.225-9.657 5.421 0 0" style="fill:#f9b9b6;fill-opacity:1;fill-rule:nonzero;stroke:none" transform="matrix(1.65313 0 0 -1.65313 230.661 286.163)"/><path d="M0 0c6.927-1.783 13.899 2.03 15.95 9.404 2.399 8.625.749 19.425-7.187 22.089-5.868 1.971-12.208 3.144-15.52-2.441C-12.623 19.266-9.683 5.432 0 0Z" style="fill:none;stroke:#231f20;stroke-width:1.33000004;stroke-linecap:butt;stroke-linejoin:miter;stroke-miterlimit:3.86400008;stroke-dasharray:none;stroke-opacity:1" transform="matrix(1.65313 0 0 -1.65313 230.645 286.221)"/><path d="M0 0c.267.962 1.204 1.506 2.091 1.207C2.979.905 3.48-.114 3.213-1.08c-.269-.962-1.206-1.503-2.092-1.204C.234-1.985-.269-.962 0 0" style="fill:#231f20;fill-opacity:1;fill-rule:nonzero;stroke:none" transform="matrix(1.65313 0 0 -1.65313 224.552 256.116)"/><path d="M0 0c.27.972 1.217 1.521 2.113 1.219.898-.305 1.405-1.334 1.135-2.31-.272-.972-1.219-1.517-2.115-1.216C.237-2.005-.272-.972 0 0Z" style="fill:none;stroke:#231f20;stroke-width:.96399999;stroke-linecap:butt;stroke-linejoin:miter;stroke-miterlimit:3.86400008;stroke-dasharray:none;stroke-opacity:1" transform="matrix(1.65313 0 0 -1.65313 224.523 256.107)"/><path d="M0 0c.269.962 1.205 1.502 2.092 1.204.886-.299 1.39-1.318 1.12-2.284-.267-.962-1.203-1.506-2.09-1.207C.234-1.985-.267-.964 0 0" style="fill:#231f20;fill-opacity:1;fill-rule:nonzero;stroke:none" transform="matrix(1.65313 0 0 -1.65313 240.227 256.384)"/><path d="M0 0c.272.972 1.218 1.517 2.115 1.216.896-.302 1.404-1.331 1.132-2.307-.27-.972-1.216-1.521-2.113-1.219C.237-2.005-.27-.974 0 0Z" style="fill:none;stroke:#231f20;stroke-width:.96399999;stroke-linecap:butt;stroke-linejoin:miter;stroke-miterlimit:3.86400008;stroke-dasharray:none;stroke-opacity:1" transform="matrix(1.65313 0 0 -1.65313 240.198 256.375)"/><path d="M0 0c-.083 2.352.94 4.295 2.284 4.344C3.628 4.389 4.787 2.521 4.866.17c.083-2.352-.94-4.297-2.284-4.341C1.239-4.221.083-2.352 0 0" style="fill:#ee3e96;fill-opacity:1;fill-rule:nonzero;stroke:none" transform="matrix(1.65313 0 0 -1.65313 231.365 273.688)"/><path d="M0 0c-.083 2.36.941 4.309 2.285 4.359C3.63 4.404 4.789 2.53 4.869.17c.083-2.36-.941-4.311-2.285-4.355C1.24-4.235.083-2.36 0 0Zm-.713 22.824c5.325-4.091 8.547-9.173 15.326-8.428M2.912 23.767l9.084-4.167m-12.75 4.446c3.161 2.554 5.857 3.871 10.016 4.015 6.696.239 13.15-4.222 13.384-10.937.095-2.747-1.366-4.531-3.859-5.841l-1.64.352-.072 2.034 1.164 1.67c1.651-.758 3.305-1.617 3.373-3.549.026-.712-.677-1.041-.756-1.659l-2.84-.098C21.271 4.037 20.373.745 23.41-4.853l-6.375 19.744 6.513-11.998c-.123 3.563-1.215 5.662-3.546 8.431l4.609-3.912-2.105 1.965 2.396 1.307 6.534-.997c-1.949.546-2.977.918-4.926 1.46 2.516.7 3.928.954 6.477.635-2.42-.39-3.724-.946-6.16-1.03l-8.418-.296c-.268 7.63-5.612 12.436-12.712 15.042l-1.64.344c6.326-.795 10.287-3.712 13.328-9.31l.869-1.598c-.116 3.355-.295 5.487-1.922 8.487 2.729-2.552 4.517-4.324 5.151-7.969-2.267 6.746-5.827 12.833-12.83 12.591-4.664-.163-6.926-2.382-11.45-3.662l1.578 1.28c-1.333.462-2.259.734-3.679.686-3.755-.133-4.415-4.535-4.994-8.326l-.347-1.644c1.212 5.955 5.99 8.768 11.832 10.196-2.264-4.97-5.385-5.791-9.006-9.684l-1.61-.466c2.323 3.34 3.891 5.025 6.209 8.367l.352 1.644-8.747-5.606 1.623.056c4.439.974 3.611 1.348 6.746 4.719-1.031.372-1.752.755-2.869.716-2.739-.098-5.206-2.219-5.111-4.969.098-2.747.152-4.272.246-7.019-1.953.644-.404 2.837-2.534 2.762-2.132-.073-4.858-.474-4.786-2.614.091-2.541 2.881-3.972 5.42-3.882 1.216.041 2.405.897 2.361 2.122-.05 1.424-1.092 2.2-2.143 3.18-.985-.848-2.394-1.203-2.348-2.526.07-2.034 1.922-2.682 3.781-3.534l.754 1.655c-10.224-1.067-18.918-5.143-21.826-15.025l.072-2.034C-26.34.333-23.861 5.003-16.016 7.215l2.03.068C-19.537 3.322-22.488.568-25.735-5.352c4.736 1.083 4.253 6.26 5.718 10.795.899-5.367.294-8.443.484-13.838 3.841 6.349 5.737 10.182 7.115 17.363l-1.168-7.374.201-5.696c2.754 2.541 3.672 5.423 3.535 9.29-.165 4.78-.389 8.239-3.258 11.905-1.175-1.262-2.37-2.018-2.309-3.746.05-1.424 1.971-1.156 3.305-1.514l1.13 2.483-1.973-1.7.741 2.065-.752-1.656" style="fill:none;stroke:#231f20;stroke-width:1.56400001;stroke-linecap:butt;stroke-linejoin:miter;stroke-miterlimit:3.86400008;stroke-dasharray:none;stroke-opacity:1" transform="matrix(1.65313 0 0 -1.65313 231.344 273.796)"/><g clip-path="url(#a)" transform="matrix(1.65313 0 0 -1.65313 -1232.43 6246.026)"><path d="m895.471 3607.809-61.71.38-66.473 3.599c-.944-3.206-1.509-5.129-1.393-8.508.443-12.679 10.365-18.465 21.957-23.773 13.096-5.886 20.915-11.961 35.263-11.457 17.096.596 26.591.93 43.686 1.526l33.855-1.356 26.802.941c13.084.458 17.351 11.391 28.294 18.756 7.85 5.137 16.619 8.195 16.295 17.49-.119 3.381-1.024 5.043-1.984 8.394z" style="fill:url(#b);stroke:none"/></g><g clip-path="url(#c)" transform="matrix(1.65313 0 0 -1.65313 -1232.43 6246.026)"><path d="M0 0c-.944-3.206-1.51-5.129-1.394-8.509.443-12.679 10.366-18.465 21.957-23.773 13.097-5.886 20.916-11.961 35.264-11.457 17.095.596 26.591.93 43.686 1.527l33.855-1.357c10.55.371 16.249.57 26.803.942 13.083.457 17.349 11.391 28.292 18.756 7.851 5.137 16.619 8.195 16.295 17.49-.118 3.38-1.023 5.043-1.984 8.393l-74.591-5.991-61.71.38z" style="fill:none;stroke:#231f20;stroke-width:1.33000004;stroke-linecap:butt;stroke-linejoin:miter;stroke-miterlimit:3.86400008;stroke-dasharray:none;stroke-opacity:1" transform="translate(767.288 3611.789)"/></g></svg>