<svg xmlns="http://www.w3.org/2000/svg" xml:space="preserve" width="400" height="400"><defs><clipPath id="a" clipPathUnits="userSpaceOnUse"><path d="M828.597 4401.871c-25.281-7.298-43.184-29.012-43.184-55.328 0-30.029 33.739-38.8 33.739-68.825 0-14.847-3.376-19.572-8.101-33.742.917 0 .784-.41.39-.831 48.693 34.626 99.023 40.291 139.308 80.575-24.292 7.424-48.603 17.086-61.423 39.019-9.446 16.53-15.856 41.833-35.088 41.833-2.581 0-4.769.032-6.769.032-6.103 0-10.452-.3-18.872-2.733m-17.878-159.242c-1.176-.844.099-.15.722.516l-.722-.516"/></clipPath><clipPath id="c" clipPathUnits="userSpaceOnUse"><path d="M0 0h1133.858v4535.433H0Z"/></clipPath><clipPath id="d" clipPathUnits="userSpaceOnUse"><path d="M871.665 4301.356c-41.006-21.806-68.997-49.366-62.514-61.557 6.482-12.19 44.979-4.392 85.981 17.41 41.008 21.805 68.997 49.364 62.514 61.555-2.076 3.904-7.437 5.758-15.112 5.758-16.287 0-42.997-8.347-70.869-23.166"/></clipPath><radialGradient id="b" cx="0" cy="0" r="1" fx="0" fy="0" gradientTransform="rotate(180 413.295 2144.5) scale(121.88585)" gradientUnits="userSpaceOnUse" spreadMethod="pad"><stop offset="0" style="stop-opacity:1;stop-color:#ffd400"/><stop offset=".002" style="stop-opacity:1;stop-color:#ffd400"/><stop offset=".004" style="stop-opacity:1;stop-color:#ffd400"/><stop offset=".468" style="stop-opacity:1;stop-color:#ffd400"/><stop offset=".967" style="stop-opacity:1;stop-color:#f5821f"/><stop offset=".969" style="stop-opacity:1;stop-color:#f5821f"/><stop offset="1" style="stop-opacity:1;stop-color:#f5821f"/></radialGradient><radialGradient id="e" cx="0" cy="0" r="1" fx="0" fy="0" gradientTransform="rotate(180 436.16 2128.352) scale(103.66069)" gradientUnits="userSpaceOnUse" spreadMethod="pad"><stop offset="0" style="stop-opacity:1;stop-color:#ffd400"/><stop offset=".001" style="stop-opacity:1;stop-color:#ffd400"/><stop offset=".004" style="stop-opacity:1;stop-color:#ffd400"/><stop offset=".151" style="stop-opacity:1;stop-color:#ffd400"/><stop offset=".982" style="stop-opacity:1;stop-color:#9e292d"/><stop offset=".983" style="stop-opacity:1;stop-color:#9e292d"/><stop offset="1" style="stop-opacity:1;stop-color:#9e292d"/></radialGradient></defs><path d="M745.512 4200.208h241.965v241.965H745.512Z" style="fill:#b2d34a;fill-opacity:1;fill-rule:nonzero;stroke:none" transform="matrix(1.65313 0 0 -1.65313 -1232.43 7343.497)"/><path d="m0 0-18.619 21.248" style="fill:none;stroke:#00733c;stroke-width:3.125;stroke-linecap:round;stroke-linejoin:miter;stroke-miterlimit:4;stroke-dasharray:none;stroke-opacity:1" transform="matrix(1.65313 0 0 -1.65313 77.64 34.918)"/><g clip-path="url(#a)" transform="matrix(1.65313 0 0 -1.65313 -1232.43 7343.497)"><path d="M828.597 4401.871c-25.281-7.298-43.184-29.012-43.184-55.328 0-30.029 33.739-38.8 33.739-68.825 0-14.847-3.376-19.572-8.101-33.742.917 0 .784-.41.39-.831 48.693 34.626 99.023 40.291 139.308 80.575-24.292 7.424-48.603 17.086-61.423 39.019-9.446 16.53-15.856 41.833-35.088 41.833-2.581 0-4.769.032-6.769.032-6.103 0-10.452-.3-18.872-2.733m-17.878-159.242c-1.176-.844.099-.15.722.516l-.722-.516" style="fill:url(#b);stroke:none"/></g><g clip-path="url(#c)" transform="matrix(1.65313 0 0 -1.65313 -1232.43 7343.497)"><path d="M0 0c19.231 0 25.641-25.304 35.088-41.833 12.819-21.933 37.13-31.596 61.422-39.019-40.485-40.484-91.112-46.002-140.03-81.09-1.921-1.379 2.697 1.345.333 1.345 4.725 14.17 8.101 18.895 8.101 33.743 0 30.024-33.739 38.796-33.739 68.825 0 26.316 17.902 48.03 43.184 55.328C-14.463.529-10.46 0 0 0Z" style="fill:none;stroke:#9e292d;stroke-width:3.4059999;stroke-linecap:butt;stroke-linejoin:miter;stroke-miterlimit:3.86400008;stroke-dasharray:none;stroke-opacity:1" transform="translate(854.239 4404.572)"/><path d="M0 0c-7.423 11.467-15.181 17.204-28.34 20.242l-5.399-1.349V7.758c0-6.747 8.958-13.825 11.996-19.558" style="fill:none;stroke:#9e292d;stroke-width:3.4059999;stroke-linecap:butt;stroke-linejoin:miter;stroke-miterlimit:3.86400008;stroke-dasharray:none;stroke-opacity:1" transform="translate(826.43 4400.635)"/></g><g clip-path="url(#d)" transform="matrix(1.65313 0 0 -1.65313 -1232.43 7343.497)"><path d="M871.665 4301.356c-41.006-21.806-68.997-49.366-62.514-61.557 6.482-12.19 44.979-4.392 85.981 17.41 41.008 21.805 68.997 49.364 62.514 61.555-2.076 3.904-7.437 5.758-15.112 5.758-16.287 0-42.997-8.347-70.869-23.166" style="fill:url(#e);stroke:none"/></g><path d="M0 0c-6.482 12.188-44.974 4.394-85.981-17.408-41.007-21.806-68.996-49.366-62.513-61.557 6.481-12.19 44.978-4.393 85.98 17.409C-21.507-39.75 6.483-12.191 0 0Z" style="fill:none;stroke:#9e292d;stroke-width:3.4059999;stroke-linecap:butt;stroke-linejoin:miter;stroke-miterlimit:3.86400008;stroke-dasharray:none;stroke-opacity:1" transform="matrix(1.65313 0 0 -1.64252 350.686 205.268)"/><path d="M0 0c20.58-20.583 39.811-46.896 68.825-53.981" style="fill:none;stroke:#9e292d;stroke-width:3.4059999;stroke-linecap:butt;stroke-linejoin:miter;stroke-miterlimit:3.86400008;stroke-dasharray:none;stroke-opacity:1" transform="matrix(1.65313 0 0 -1.64252 195.359 241.656)"/><path d="M0 0c0 6.757-5.477 12.234-12.236 12.234-6.757 0-12.237-5.477-12.237-12.234 0-6.759 5.48-12.24 12.237-12.24C-5.477-12.24 0-6.759 0 0" style="fill:#ffd400;fill-opacity:1;fill-rule:nonzero;stroke:none" transform="matrix(1.65313 0 0 -1.64252 325.05 327.958)"/><path d="M0 0c0 6.757-5.477 12.234-12.236 12.234-6.757 0-12.237-5.477-12.237-12.234 0-6.759 5.48-12.24 12.237-12.24C-5.477-12.24 0-6.759 0 0Z" style="fill:none;stroke:#9e292d;stroke-width:3.4059999;stroke-linecap:butt;stroke-linejoin:miter;stroke-miterlimit:3.86400008;stroke-dasharray:none;stroke-opacity:1" transform="matrix(1.65313 0 0 -1.64252 325.05 327.958)"/><path d="M0 0c-44.195-3.035-69.407-13.204-104.495-50.991" style="fill:none;stroke:#9e292d;stroke-width:3.4059999;stroke-linecap:butt;stroke-linejoin:miter;stroke-miterlimit:3.86400008;stroke-dasharray:none;stroke-opacity:1" transform="matrix(1.65313 0 0 -1.64252 295.746 181.808)"/></svg>