<svg xmlns="http://www.w3.org/2000/svg" xml:space="preserve" width="400" height="400"><path d="M397.952 55.605h241.965V297.57H397.952z" style="fill:#b2d34a;fill-opacity:1;fill-rule:nonzero;stroke:none;stroke-width:.99999994" transform="matrix(1.65313 0 0 -1.65214 -657.867 491.868)"/><path d="M0 0c5.685-3.643 18.949-2.888 18.949-10.044 0-1.507-1.422-6.028-7.107-7.031H6.75c-8.172 0-9.829 8.287-15.75 14.563C-6.514-21.596-.356-31.137.947-50.222c-.71 0-1.065-.501-1.776-.501-9.593 0-14.803 10.797-14.803 20.967v19.837c0 1.632-.948 2.51-1.422 3.891-7.934-2.007-7.579-11.802-7.579-20.213v-11.801c0-7.283 1.185-17.703-5.685-17.703-5.565 0-5.683 8.034-5.683 13.936v12.806c0 6.153 3.788 9.165 3.788 15.318v6.151c-11.131-7.03-11.606-17.954-15.158-31.136-1.776-6.78-.947-16.072-7.579-16.072-6.277 0-5.212 6.906-5.212 13.56 0 17.453 7.818 25.488 15.159 41.182-4.382-7.785-12.049-4.897-17.735-11.551-3.907-4.646-6.66-12.555-12.581-12.555-3.554 0-3.317.753-3.317 4.519 0 4.394 3.198 6.027 5.685 9.543 6.75 9.541 11.96 14.062 18.948 23.603 6.869 9.417 4.744 32.253 15.876 32.253h25.106C-13.968 37.526-6.87 4.394 0 0" style="fill:#00639e;fill-opacity:1;fill-rule:nonzero;stroke:#00aeef;stroke-width:1.5;stroke-linecap:butt;stroke-linejoin:miter;stroke-miterlimit:10;stroke-dasharray:none;stroke-opacity:1" transform="matrix(1.65313 0 0 -1.65214 167.552 76.933)"/><path d="M0 0c-5.804-3.718-19.342-2.948-19.342-10.254 0-1.538 1.452-6.15 7.253-7.176h5.197c8.342 0 10.036 8.457 16.078 14.866C6.648-22.044.362-31.784-.967-51.263c.725 0 1.088-.513 1.813-.513 9.792 0 15.111 11.021 15.111 21.401v20.249c0 1.666.967 2.564 1.45 3.973 8.1-2.05 7.736-12.047 7.736-20.632v-12.048c0-7.433-1.209-18.069 5.803-18.069 5.68 0 5.802 8.202 5.802 14.225v13.071c0 6.281-3.868 9.355-3.868 15.636v6.28c11.362-7.177 11.847-18.328 15.473-31.784 1.813-6.92.967-16.403 7.737-16.403 6.406 0 5.318 7.049 5.318 13.841 0 17.813-7.978 26.015-15.473 42.036 4.472-7.947 12.3-4.999 18.102-11.792 3.988-4.741 6.801-12.816 12.844-12.816 3.628 0 3.385.77 3.385 4.615 0 4.485-3.264 6.152-5.802 9.739C67.574-.513 62.255 4.1 55.122 13.84c-7.011 9.612-4.58 31.737-15.943 31.737H13.552C14.519 37.12 7.011 4.483 0 0" style="fill:#00639e;fill-opacity:1;fill-rule:nonzero;stroke:none" transform="matrix(1.65313 0 0 -1.65214 249.284 76.94)"/><path d="M0 0c-5.804-3.718-19.342-2.948-19.342-10.254 0-1.538 1.452-6.15 7.253-7.176h5.197c8.342 0 10.036 8.457 16.078 14.866C6.648-22.044.362-31.784-.967-51.263c.725 0 1.088-.513 1.813-.513 9.792 0 15.111 11.021 15.111 21.401v20.249c0 1.666.967 2.564 1.45 3.973 8.1-2.05 7.736-12.047 7.736-20.632v-12.048c0-7.433-1.209-18.069 5.803-18.069 5.68 0 5.802 8.202 5.802 14.225v13.071c0 6.281-3.868 9.355-3.868 15.636v6.28c11.362-7.177 11.847-18.328 15.473-31.784 1.813-6.92.967-16.403 7.737-16.403 6.406 0 5.318 7.049 5.318 13.841 0 17.813-7.978 26.015-15.473 42.036 4.472-7.947 12.3-4.999 18.102-11.792 3.988-4.741 6.801-12.816 12.844-12.816 3.628 0 3.385.77 3.385 4.615 0 4.485-3.264 6.152-5.802 9.739C67.574-.513 62.255 4.1 55.122 13.84c-7.011 9.612-4.58 31.737-15.943 31.737H13.552C14.519 37.12 7.011 4.483 0 0Z" style="fill:none;stroke:#00aeef;stroke-width:1.5;stroke-linecap:butt;stroke-linejoin:miter;stroke-miterlimit:10;stroke-dasharray:none;stroke-opacity:1" transform="matrix(1.65313 0 0 -1.65214 249.284 76.94)"/><path d="M0 0c0 4.04-1.602 5.639-5.652 5.639-7.445 0-4.333-6.015-8.29-12.406-.752 6.015.28 11.654-4.899 11.654-1.319 0-4.9-3.198-4.9-4.512 0-3.006 2.074-4.506 2.261-7.517-4.05 1.317-3.298 7.893-7.534 7.893-1.886 0-3.017-1.879-3.017-3.758 0-2.917 3.017-3.479 4.899-5.639-.659-.095-.845-.752-1.504-.752-3.109 0-2.923 5.267-6.033 5.267-1.505 0-1.977-1.599-2.635-3.011l3.77-6.015-1.509-.372c-2.827 1.404-1.886 2.628-4.899 2.628-2.354 0-2.261-2.165-2.261-4.512 0-4.416 3.203-1.693 5.65-5.262 3.112-4.416 6.408-10.336 6.408-15.788 0-4.326 1.509-5.453 1.509-9.771 0-10.809 6.781-16.539 13.942-16.539 5.179 0 12.125 1.014 13.185 6.014C1.13-44.357 0-49.996-2.261-42.478c-3.399 11.304-4.521 8.741-4.521 21.051C-6.782-13.723 0-7.708 0 0" style="fill:#00639e;fill-opacity:1;fill-rule:nonzero;stroke:none" transform="matrix(1.65313 0 0 -1.65214 201.96 287.335)"/><path d="M0 0c0 4.04-1.602 5.639-5.652 5.639-7.445 0-4.333-6.015-8.29-12.406-.752 6.015.28 11.654-4.899 11.654-1.319 0-4.9-3.198-4.9-4.512 0-3.006 2.074-4.506 2.261-7.517-4.05 1.317-3.298 7.893-7.534 7.893-1.886 0-3.017-1.879-3.017-3.758 0-2.917 3.017-3.479 4.899-5.639-.659-.095-.845-.752-1.504-.752-3.109 0-2.923 5.267-6.033 5.267-1.505 0-1.977-1.599-2.635-3.011l3.77-6.015-1.509-.372c-2.827 1.404-1.886 2.628-4.899 2.628-2.354 0-2.261-2.165-2.261-4.512 0-4.416 3.203-1.693 5.65-5.262 3.112-4.416 6.408-10.336 6.408-15.788 0-4.326 1.509-5.453 1.509-9.771 0-10.809 6.781-16.539 13.942-16.539 5.179 0 12.125 1.014 13.185 6.014C1.13-44.357 0-49.996-2.261-42.478c-3.399 11.304-4.521 8.741-4.521 21.051C-6.782-13.723 0-7.708 0 0Z" style="fill:none;stroke:#00aeef;stroke-width:.98199999;stroke-linecap:butt;stroke-linejoin:miter;stroke-miterlimit:10;stroke-dasharray:none;stroke-opacity:1" transform="matrix(1.65313 0 0 -1.65214 201.96 287.335)"/><path d="M0 0c0 4.04 1.602 5.639 5.65 5.639 7.445 0 4.335-6.015 8.292-12.406.756 6.015-.282 11.654 4.898 11.654 1.317 0 4.899-3.198 4.899-4.512 0-3.006-2.073-4.506-2.261-7.517 4.05 1.317 3.298 7.893 7.534 7.893 1.882 0 3.017-1.879 3.017-3.758 0-2.917-3.017-3.479-4.899-5.639.659-.095.845-.752 1.509-.752 3.106 0 2.918 5.267 6.026 5.267 1.507 0 1.979-1.599 2.637-3.011l-3.764-6.015 1.503-.372c2.827 1.404 1.888 2.628 4.901 2.628 2.354 0 2.261-2.165 2.261-4.512 0-4.416-3.205-1.693-5.652-5.262-3.11-4.416-6.408-10.336-6.408-15.788 0-4.326-1.504-5.453-1.504-9.771 0-10.809-6.786-16.539-13.941-16.539-5.185 0-12.125 1.014-13.191 6.014C-1.131-44.357 0-49.996 2.26-42.478c3.4 11.304 4.521 8.741 4.521 21.051C6.781-13.723 0-7.708 0 0" style="fill:#00639e;fill-opacity:1;fill-rule:nonzero;stroke:none" transform="matrix(1.65313 0 0 -1.65214 217.571 287.335)"/><path d="M0 0c0 4.04 1.602 5.639 5.65 5.639 7.445 0 4.335-6.015 8.292-12.406.756 6.015-.282 11.654 4.898 11.654 1.317 0 4.899-3.198 4.899-4.512 0-3.006-2.073-4.506-2.261-7.517 4.05 1.317 3.298 7.893 7.534 7.893 1.882 0 3.017-1.879 3.017-3.758 0-2.917-3.017-3.479-4.899-5.639.659-.095.845-.752 1.509-.752 3.106 0 2.918 5.267 6.026 5.267 1.507 0 1.979-1.599 2.637-3.011l-3.764-6.015 1.503-.372c2.827 1.404 1.888 2.628 4.901 2.628 2.354 0 2.261-2.165 2.261-4.512 0-4.416-3.205-1.693-5.652-5.262-3.11-4.416-6.408-10.336-6.408-15.788 0-4.326-1.504-5.453-1.504-9.771 0-10.809-6.786-16.539-13.941-16.539-5.185 0-12.125 1.014-13.191 6.014C-1.131-44.357 0-49.996 2.26-42.478c3.4 11.304 4.521 8.741 4.521 21.051C6.781-13.723 0-7.708 0 0Z" style="fill:none;stroke:#00aeef;stroke-width:.98199999;stroke-linecap:butt;stroke-linejoin:miter;stroke-miterlimit:10;stroke-dasharray:none;stroke-opacity:1" transform="matrix(1.65313 0 0 -1.65214 217.571 287.335)"/></svg>