<svg xmlns="http://www.w3.org/2000/svg" xml:space="preserve" width="400" height="400"><defs><clipPath id="a" clipPathUnits="userSpaceOnUse"><path d="M279.212 3321.668c-45.354-34.14-37.558-41.661-63.779-40.587-26.22 1.075-38.268 15.639-56.692 28.65-18.426 13.012-46.506-29.963-53.859-31.157-7.353-1.193-18.426 5.969-18.426 5.969v-80.147h241.966v120.733s-1.594 12.663-14.759 12.665c-7.326 0-18.234-3.919-34.451-16.126"/></clipPath><clipPath id="c" clipPathUnits="userSpaceOnUse"><path d="M0 0h1133.858v4535.433H0Z"/></clipPath><clipPath id="d" clipPathUnits="userSpaceOnUse"><path d="M248.573 3287.547c-1.978-.057-4.08-.114-6.45.055 2.432-17.278 6.031-25.826 12.244-42.113 2.878-7.559 3.51-15.118 6.48-22.676h9.003c-.899 13.047-7.202 22.947-7.202 35.993 2.162-8.638 5.58-12.866 8.644-21.236 1.89-5.04 1.618-11.879 7.02-11.879 3.963 0 6.034 1.351 9.903 2.16-5.94 8.009-12.333 20.247-16.923 29.516 0 0 9.903-16.018 14.045-20.157 2.7-2.701 4.05-6.119 7.921-6.119 2.79 0 4.32 1.531 6.842 2.519-1.619 7.198-7.654 9.72-11.885 15.839-7.562 10.795-12.422 15.566-16.204 28.075-5.221 1.258-5.581 5.487-10.444 7.916-3.705 1.827-6.816 2.164-10.079 2.164-.952 0-1.918-.028-2.915-.057"/></clipPath><clipPath id="f" clipPathUnits="userSpaceOnUse"><path d="M0 0h1133.858v4535.433H0Z"/></clipPath><clipPath id="g" clipPathUnits="userSpaceOnUse"><path d="M185.73 3346.155c-31.666-51.452 11.875-63.687 11.875-63.687 48.216-14.031 58.651-.718 58.651-.718l-22.668 65.844s-14.963 7.943-28.855 7.943c-7.478 0-14.646-2.301-19.003-9.382"/></clipPath><clipPath id="i" clipPathUnits="userSpaceOnUse"><path d="M0 0h1133.858v4535.433H0Z"/></clipPath><clipPath id="j" clipPathUnits="userSpaceOnUse"><path d="M162.228 3368.822c0-18.519 15.888-33.53 35.49-33.53 19.6 0 35.49 15.011 35.49 33.53 0 18.518-9.84 28.297-29.438 28.297-19.602 0-41.542-9.779-41.542-28.297"/></clipPath><clipPath id="l" clipPathUnits="userSpaceOnUse"><path d="M0 0h1133.858v4535.433H0Z"/></clipPath><clipPath id="m" clipPathUnits="userSpaceOnUse"><path d="M177.667 3393.43s20.714-13.805 52.203-5.508l2.891 27.625-9.18-8.1-5.455 9.827-7.537-8.635-5.455 9.824-8.378-9.272-5.513 10.737-6.299-8.584-5.299 9.808z"/></clipPath><clipPath id="o" clipPathUnits="userSpaceOnUse"><path d="M0 0h1133.858v4535.433H0Z"/></clipPath><clipPath id="p" clipPathUnits="userSpaceOnUse"><path d="M199.625 3307.037c5.854-11.201 17.299-22.402 33.41-18.949 9.664 2.072 10.96 5.39 19.227 10.781 0 0-9.345-1.798-18.508 6.647-.719 4.311-.358 5.571 0 10.959-12.757-1.257-25.024 3.68-33.42 9.164-1.032.675-1.906.984-2.626.984-4.046 0-3.202-9.794 1.917-19.586"/></clipPath><linearGradient id="b" x1="0" x2="1" y1="0" y2="0" gradientTransform="scale(-163.13618 163.13618) rotate(-89.2 9.72 10.92)" gradientUnits="userSpaceOnUse" spreadMethod="pad"><stop offset="0" style="stop-opacity:1;stop-color:#a6ce38"/><stop offset="1" style="stop-opacity:1;stop-color:#00733c"/></linearGradient><linearGradient id="e" x1="0" x2="1" y1="0" y2="0" gradientTransform="scale(-40.22453 40.22453) rotate(86 -46.384 36.722)" gradientUnits="userSpaceOnUse" spreadMethod="pad"><stop offset="0" style="stop-opacity:1;stop-color:#82bde1"/><stop offset=".055" style="stop-opacity:1;stop-color:#82bde1"/><stop offset=".962" style="stop-opacity:1;stop-color:#378dc0"/><stop offset=".964" style="stop-opacity:1;stop-color:#378dc0"/><stop offset="1" style="stop-opacity:1;stop-color:#378dc0"/></linearGradient><linearGradient id="h" x1="0" x2="1" y1="0" y2="0" gradientTransform="scale(44.25777 -44.25777) rotate(-35.2 -115.324 -43.622)" gradientUnits="userSpaceOnUse" spreadMethod="pad"><stop offset="0" style="stop-opacity:1;stop-color:#9cbbcb"/><stop offset=".004" style="stop-opacity:1;stop-color:#9cbbcb"/><stop offset="1" style="stop-opacity:1;stop-color:#d7a392"/></linearGradient><linearGradient id="k" x1="0" x2="1" y1="0" y2="0" gradientTransform="matrix(70.76349 0 0 -70.76349 162.336 3335.398)" gradientUnits="userSpaceOnUse" spreadMethod="pad"><stop offset="0" style="stop-opacity:1;stop-color:#9cbbcb"/><stop offset=".004" style="stop-opacity:1;stop-color:#9cbbcb"/><stop offset="1" style="stop-opacity:1;stop-color:#d7a392"/></linearGradient><linearGradient id="n" x1="0" x2="1" y1="0" y2="0" gradientTransform="matrix(54.83713 0 0 -54.83711 177.783 3385.347)" gradientUnits="userSpaceOnUse" spreadMethod="pad"><stop offset="0" style="stop-opacity:1;stop-color:#fdb912"/><stop offset=".436" style="stop-opacity:1;stop-color:#fff200"/><stop offset="1" style="stop-opacity:1;stop-color:#fdb912"/></linearGradient><linearGradient id="q" x1="0" x2="1" y1="0" y2="0" gradientTransform="scale(-21.33945 21.33945) rotate(-72.1 101.65 84.765)" gradientUnits="userSpaceOnUse" spreadMethod="pad"><stop offset="0" style="stop-opacity:1;stop-color:#82bde1"/><stop offset=".055" style="stop-opacity:1;stop-color:#82bde1"/><stop offset=".962" style="stop-opacity:1;stop-color:#378dc0"/><stop offset=".964" style="stop-opacity:1;stop-color:#378dc0"/><stop offset="1" style="stop-opacity:1;stop-color:#378dc0"/></linearGradient></defs><path d="M86.457 3204.396h241.965v241.965H86.457Z" style="fill:#b2d34a;fill-opacity:1;fill-rule:nonzero;stroke:none" transform="matrix(1.65312 0 0 -1.65313 -142.923 5697.289)"/><g clip-path="url(#a)" transform="matrix(1.65312 0 0 -1.65313 -142.923 5697.289)"><path d="M279.212 3321.668c-45.354-34.14-37.558-41.661-63.779-40.587-26.22 1.075-38.268 15.639-56.692 28.65-18.426 13.012-46.506-29.963-53.859-31.157-7.353-1.193-18.426 5.969-18.426 5.969v-80.147h241.966v120.733s-1.594 12.663-14.759 12.665c-7.326 0-18.234-3.919-34.451-16.126" style="fill:url(#b);stroke:none"/></g><g clip-path="url(#c)" transform="matrix(1.65312 0 0 -1.65313 -142.923 5697.289)"><path d="M0 0c-4.412-.272-4.952 1.804-9.366 1.804-3.958 0-8.64 1.804-12.603 1.804-8.732 0-14.313 2.168-23.045 2.168-1.26 0-.452-5.416 4.321-6.499 3.6-.813 14.763-.272 14.763-3.972 0-5.054-11.163-3.247-11.163-8.301 0-2.526 1.802-3.611 4.321-3.611 3.602 0 7.203 3.611 10.084 5.776 5.13 3.972 9.094 5.776 15.574 5.776h8.823c1.08 0 2.252.722 2.252 1.804C3.961-1.444 1.439-.995 0 0" style="fill:#e69a71;fill-opacity:1;fill-rule:nonzero;stroke:none" transform="translate(233.604 3277.509)"/><path d="M0 0c-4.412-.272-4.952 1.804-9.366 1.804-3.958 0-8.64 1.804-12.603 1.804-8.732 0-14.313 2.168-23.045 2.168-1.26 0-.452-5.416 4.321-6.499 3.6-.813 14.763-.272 14.763-3.972 0-5.054-11.163-3.247-11.163-8.301 0-2.526 1.802-3.611 4.321-3.611 3.602 0 7.203 3.611 10.084 5.776 5.13 3.972 9.094 5.776 15.574 5.776h8.823c1.08 0 2.252.722 2.252 1.804C3.961-1.444 1.439-.995 0 0Z" style="fill:none;stroke:#231f20;stroke-width:1.33399999;stroke-linecap:butt;stroke-linejoin:miter;stroke-miterlimit:3.86400008;stroke-dasharray:none;stroke-opacity:1" transform="translate(233.604 3277.509)"/></g><g clip-path="url(#d)" transform="matrix(1.65312 0 0 -1.65313 -142.923 5697.289)"><path d="M248.573 3287.547c-1.978-.057-4.08-.114-6.45.055 2.432-17.278 6.031-25.826 12.244-42.113 2.878-7.559 3.51-15.118 6.48-22.676h9.003c-.899 13.047-7.202 22.947-7.202 35.993 2.162-8.638 5.58-12.866 8.644-21.236 1.89-5.04 1.618-11.879 7.02-11.879 3.963 0 6.034 1.351 9.903 2.16-5.94 8.009-12.333 20.247-16.923 29.516 0 0 9.903-16.018 14.045-20.157 2.7-2.701 4.05-6.119 7.921-6.119 2.79 0 4.32 1.531 6.842 2.519-1.619 7.198-7.654 9.72-11.885 15.839-7.562 10.795-12.422 15.566-16.204 28.075-5.221 1.258-5.581 5.487-10.444 7.916-3.705 1.827-6.816 2.164-10.079 2.164-.952 0-1.918-.028-2.915-.057" style="fill:url(#e);stroke:none"/></g><g clip-path="url(#f)" transform="matrix(1.65312 0 0 -1.65313 -142.923 5697.289)"><path d="M0 0c3.782-12.508 8.642-17.279 16.205-28.074 4.231-6.12 10.265-8.64 11.885-15.839-2.522-.988-4.053-2.518-6.842-2.518-3.872 0-5.221 3.418-7.921 6.118C9.185-36.175-.718-20.156-.718-20.156c4.59-9.269 10.983-21.507 16.923-29.517-3.869-.808-5.94-2.159-9.903-2.159-5.403 0-5.13 6.839-7.02 11.879-3.064 8.369-6.483 12.598-8.645 21.236 0-13.046 6.304-22.946 7.203-35.993h-9.004c-2.97 7.558-3.602 15.117-6.48 22.675-6.212 16.287-9.811 24.836-12.244 42.114 7.654-.543 12.512 1.259 19.445-2.162C-5.581 5.488-5.221 1.259 0 0Z" style="fill:none;stroke:#231f20;stroke-width:1.33399999;stroke-linecap:butt;stroke-linejoin:miter;stroke-miterlimit:3.86400008;stroke-dasharray:none;stroke-opacity:1" transform="translate(272.01 3277.523)"/></g><g clip-path="url(#g)" transform="matrix(1.65312 0 0 -1.65313 -142.923 5697.289)"><path d="M185.73 3346.155c-31.666-51.452 11.875-63.687 11.875-63.687 48.216-14.031 58.651-.718 58.651-.718l-22.668 65.844s-14.963 7.943-28.855 7.943c-7.478 0-14.646-2.301-19.003-9.382" style="fill:url(#h);stroke:none"/></g><g clip-path="url(#i)" transform="matrix(1.65312 0 0 -1.65313 -142.923 5697.289)"><path d="M0 0s-10.435-13.313-58.651.719c0 0-43.542 12.235-11.875 63.686 12.453 20.235 47.858 1.439 47.858 1.439z" style="fill:none;stroke:#231f20;stroke-width:1.33399999;stroke-linecap:butt;stroke-linejoin:miter;stroke-miterlimit:3.86400008;stroke-dasharray:none;stroke-opacity:1" transform="translate(256.256 3281.75)"/></g><g clip-path="url(#j)" transform="matrix(1.65312 0 0 -1.65313 -142.923 5697.289)"><path d="M162.228 3368.822c0-18.519 15.888-33.53 35.49-33.53 19.6 0 35.49 15.011 35.49 33.53 0 18.518-9.84 28.297-29.438 28.297-19.602 0-41.542-9.779-41.542-28.297" style="fill:url(#k);stroke:none"/></g><g clip-path="url(#l)" transform="matrix(1.65312 0 0 -1.65313 -142.923 5697.289)"><path d="M0 0c0 18.519-9.84 28.297-29.438 28.297C-49.04 28.297-70.98 18.519-70.98 0s15.888-33.531 35.49-33.531C-15.89-33.531 0-18.519 0 0Z" style="fill:none;stroke:#231f20;stroke-width:1.21300006;stroke-linecap:butt;stroke-linejoin:miter;stroke-miterlimit:3.86400008;stroke-dasharray:none;stroke-opacity:1" transform="translate(233.208 3368.822)"/><path d="M0 0s-.98-13.457 10.797-17.725c11.777-4.266-19.303-2.296-32.063 3.612-12.758 5.909-27.809 5.58-27.809 5.58s-3.597 4.594 16.36 6.564z" style="fill:#7e5741;fill-opacity:1;fill-rule:nonzero;stroke:none" transform="translate(163.934 3370.99)"/><path d="M0 0s-.98-13.457 10.797-17.725c11.777-4.266-19.303-2.296-32.063 3.612-12.758 5.909-27.809 5.58-27.809 5.58s-3.597 4.594 16.36 6.564z" style="fill:none;stroke:#231f20;stroke-width:1.20799994;stroke-linecap:butt;stroke-linejoin:miter;stroke-miterlimit:10;stroke-dasharray:none;stroke-opacity:1" transform="translate(163.934 3370.99)"/><path d="m0 0-8.684-5.42s-49.771.005-52.097 14.779c-.491 3.12-3.112 4.76 17.528 0 0 0 19.662-6.076 43.253-9.359" style="fill:#e69a71;fill-opacity:1;fill-rule:nonzero;stroke:none" transform="translate(176.294 3351.486)"/><path d="m0 0-8.684-5.42s-49.771.005-52.097 14.779c-.491 3.12-3.112 4.76 17.528 0 0 0 19.662-6.076 43.253-9.359z" style="fill:none;stroke:#231f20;stroke-width:1.21300006;stroke-linecap:butt;stroke-linejoin:miter;stroke-miterlimit:3.86400008;stroke-dasharray:none;stroke-opacity:1" transform="translate(176.294 3351.486)"/><path d="M0 0c8.005 0 23.832-17.631 28.42-28.064 5.755-13.044 1.078-12.504 8.274-24.826 3.145-5.486 5.397-7.195 15.107-19.07.97-1.183-.72-11.874-13.939-6.296-5.801 2.447-13.402 3.959-18.437 7.734-6.565 4.859-14.748 1.08-23.023 1.08-3.957 0-22.305 7.557-29.498 14.754C-42-45.786-48.688-34.24-46.405-21.947-41.729 3.24-7.824 0 0 0" style="fill:#7e5741;fill-opacity:1;fill-rule:nonzero;stroke:none" transform="translate(239.666 3350.12)"/><path d="M0 0c8.005 0 23.832-17.631 28.42-28.064 5.755-13.044 1.078-12.504 8.274-24.826 3.145-5.486 5.397-7.195 15.107-19.07.97-1.183-.72-11.874-13.939-6.296-5.801 2.447-13.402 3.959-18.437 7.734-6.565 4.859-14.748 1.08-23.023 1.08-3.957 0-22.305 7.557-29.498 14.754C-42-45.786-48.688-34.24-46.405-21.947-41.729 3.24-7.824 0 0 0Z" style="fill:none;stroke:#231f20;stroke-width:1.33399999;stroke-linecap:butt;stroke-linejoin:miter;stroke-miterlimit:3.86400008;stroke-dasharray:none;stroke-opacity:1" transform="translate(239.666 3350.12)"/><path d="m0 0-6.021-2.334C-8.355-1.168-9.433.63-11.141 2.514c2.156 2.518 4.672 2.877 7.905 3.954L0 0" style="fill:#fff;fill-opacity:1;fill-rule:nonzero;stroke:none" transform="translate(298.515 3234.182)"/><path d="M0 0c1.528-1.975 3.055-4.133 3.955-6.468-2.786-.898-4.852-1.436-7.816-1.616l-1.441.359c-1.617 1.436-1.884 3.144-2.695 4.67C-4.672-1.436 0 0 0 0" style="fill:#fff;fill-opacity:1;fill-rule:nonzero;stroke:none" transform="translate(281.983 3234.63)"/><path d="m0 0 .719-2.155v-3.774h-7.188c-.989 2.874-1.169 3.145-1.708 6.2.539.089 1.616.358 2.247.358C-3.594.629-1.975 1.078 0 0" style="fill:#fff;fill-opacity:1;fill-rule:nonzero;stroke:none" transform="translate(267.967 3229.78)"/><path d="M0 0c-3.735 0-9.983.333-15.579.26 1.041.968.218 1.141 1.421 2.254 5.032 4.672 26.592 7.187 31.801 3.236 4.977-3.775 13.569-4.222 16.085-.271l-1.261 1.619c-2.155 4.31-13.655 8.711-18.416 8.711 0 0-15.811 1.8-33.42-7.904 0 0-16.71-11.32-6.535-21.333 8.983 2.123 16.218 1.502 24.862-.945 9.524-2.697 17.968-.554 17.968 6.468C16.926-1.371 6.533 0 0 0" style="fill:#75b5dd;fill-opacity:1;fill-rule:nonzero;stroke:none" transform="translate(193.991 3379.714)"/><path d="M0 0a7.81 7.81 0 0 1-15.619 0A7.81 7.81 0 0 1 0 0" style="fill:#fff;fill-opacity:1;fill-rule:nonzero;stroke:none" transform="translate(197.874 3370.408)"/><path d="M0 0a7.81 7.81 0 0 1-15.619 0A7.81 7.81 0 0 1 0 0Z" style="fill:none;stroke:#231f20;stroke-width:1.21300006;stroke-linecap:butt;stroke-linejoin:miter;stroke-miterlimit:3.86400008;stroke-dasharray:none;stroke-opacity:1" transform="translate(197.874 3370.408)"/><path d="M0 0a3.511 3.511 0 1 1-7.022-.002A3.511 3.511 0 0 1 0 0" style="fill:#231f20;fill-opacity:1;fill-rule:nonzero;stroke:none" transform="translate(192 3370.37)"/></g><g clip-path="url(#m)" transform="matrix(1.65312 0 0 -1.65313 -142.923 5697.289)"><path d="M177.667 3393.43s20.714-13.805 52.203-5.508l2.891 27.625-9.18-8.1-5.455 9.827-7.537-8.635-5.455 9.824-8.378-9.272-5.513 10.737-6.299-8.584-5.299 9.808z" style="fill:url(#n);stroke:none"/></g><g clip-path="url(#o)" transform="matrix(1.65312 0 0 -1.65313 -142.923 5697.289)"><path d="M0 0s20.714-13.805 52.202-5.508l2.891 27.625-9.18-8.1-5.454 9.826-7.537-8.634-5.455 9.823-8.379-9.271-5.512 10.737-6.299-8.585-5.3 9.809z" style="fill:none;stroke:#af262b;stroke-width:1.32700002;stroke-linecap:butt;stroke-linejoin:miter;stroke-miterlimit:3.86400008;stroke-dasharray:none;stroke-opacity:1" transform="translate(177.667 3393.43)"/></g><g clip-path="url(#p)" transform="matrix(1.65312 0 0 -1.65313 -142.923 5697.289)"><path d="M199.625 3307.037c5.854-11.201 17.299-22.402 33.41-18.949 9.664 2.072 10.96 5.39 19.227 10.781 0 0-9.345-1.798-18.508 6.647-.719 4.311-.358 5.571 0 10.959-12.757-1.257-25.024 3.68-33.42 9.164-1.032.675-1.906.984-2.626.984-4.046 0-3.202-9.794 1.917-19.586" style="fill:url(#q);stroke:none"/></g></svg>