<svg xmlns="http://www.w3.org/2000/svg" xml:space="preserve" width="400" height="400"><defs><clipPath id="a" clipPathUnits="userSpaceOnUse"><path d="M0 0h1133.858v4535.433H0Z"/></clipPath></defs><path d="M415.984 3868.271h241.965v241.965H415.984Z" style="fill:#b2d34a;fill-opacity:1;fill-rule:nonzero;stroke:none" transform="matrix(1.65313 0 0 -1.65313 -687.676 6794.761)"/><path d="m0 0-6.899 4.471L-13.795 0l.418 8.209-7.319 3.738 7.319 3.74-.418 8.209 6.896-4.472L0 23.896l-.425-8.209 7.32-3.74-7.32-3.738z" style="fill:#ffd400;fill-opacity:1;fill-rule:nonzero;stroke:none" transform="matrix(1.65313 0 0 -1.65313 81.05 117.03)"/><path d="m0 0-6.899 4.471L-13.795 0l.418 8.209-7.319 3.738 7.319 3.74-.418 8.209 6.896-4.472L0 23.896l-.425-8.209 7.32-3.74-7.32-3.738z" style="fill:none;stroke:#fff200;stroke-width:2.0940001;stroke-linecap:butt;stroke-linejoin:miter;stroke-miterlimit:10;stroke-dasharray:none;stroke-opacity:1" transform="matrix(1.65313 0 0 -1.65313 81.05 117.03)"/><path d="m0 0-8.708 9.65-12.361-4.004 4.002 12.365-9.645 8.703 12.704 2.714 2.717 12.711 8.702-9.65 12.367 4.003-4.004-12.363 9.649-8.707-12.71-2.713z" style="fill:#ffd400;fill-opacity:1;fill-rule:nonzero;stroke:none" transform="matrix(1.65313 0 0 -1.65313 150.704 93.602)"/><path d="m0 0-8.708 9.65-12.361-4.004 4.002 12.365-9.645 8.703 12.704 2.714 2.717 12.711 8.702-9.65 12.367 4.003-4.004-12.363 9.649-8.707-12.71-2.713z" style="fill:none;stroke:#fff200;stroke-width:2.0940001;stroke-linecap:butt;stroke-linejoin:miter;stroke-miterlimit:10;stroke-dasharray:none;stroke-opacity:1" transform="matrix(1.65313 0 0 -1.65313 150.704 93.602)"/><g clip-path="url(#a)" transform="matrix(1.65313 0 0 -1.65313 -687.676 6794.761)"><path d="M0 0c35.263 0 61.889-36.335 58.229-73.646-7.761-79.153-76.991-75.022-86.697-75.022-24.263 0-63.404 17.208-63.404 43.018v10.669c11.319-2.754 17.546-5.046 28.791-8.262 40.945-11.713 61.787 20.996 61.787 42.674 0 25.123-6.47 41.297-23.29 59.192C-16.499 0-8.085.69 0 0" style="fill:#ffd400;fill-opacity:1;fill-rule:nonzero;stroke:#fff200;stroke-width:3.046;stroke-linecap:butt;stroke-linejoin:miter;stroke-miterlimit:10;stroke-dasharray:none;stroke-opacity:1" transform="translate(567.603 4069.413)"/></g><path d="m0 0-8.708 9.65-12.361-4.004 4.002 12.365-9.645 8.703 12.704 2.714 2.717 12.711 8.702-9.65 12.367 4.003-4.004-12.363 9.649-8.707-12.71-2.713z" style="fill:#ffd400;fill-opacity:1;fill-rule:nonzero;stroke:none" transform="matrix(1.65313 0 0 -1.65313 78.973 364.368)"/><path d="m0 0-8.708 9.65-12.361-4.004 4.002 12.365-9.645 8.703 12.704 2.714 2.717 12.711 8.702-9.65 12.367 4.003-4.004-12.363 9.649-8.707-12.71-2.713z" style="fill:none;stroke:#fff200;stroke-width:2.0940001;stroke-linecap:butt;stroke-linejoin:miter;stroke-miterlimit:10;stroke-dasharray:none;stroke-opacity:1" transform="matrix(1.65313 0 0 -1.65313 78.973 364.368)"/></svg>