<svg xmlns="http://www.w3.org/2000/svg" xml:space="preserve" width="400" height="400"><path d="M415.984 3536.334h241.965v241.965H415.984Z" style="fill:#b2d34a;fill-opacity:1;fill-rule:nonzero;stroke:none" transform="matrix(1.65313 0 0 -1.65313 -687.676 6246.026)"/><path d="M0 0c-2.437-3.232-11.367-17.275-17.081-21.902-5.367-4.339-9.476-6.216-12.742-7.454-3.147-1.19-14.125-5.02-31.131 2.219 1.171.335 4.253 2.11 5.235 2.938-9.491 3.768-17.702 13.22-17.686 13.215 1.664-.314 4.791.764 6.507 1.185-4.566 4.131-10.956 15.534-10.875 15.522 1.461-.278 5.857-.621 6.315-.253-4.142 3.208-9.9 16.856-9.657 17.331l6.348-1.164c-4.639 10.207-4.483 15.695-4.458 15.675.542-.374 5.171-2.096 5.171-2.096.133 1.323-.469 15.599-.29 18.03 2.041-.856 3.115-2.088 4.579-2.934.512 4.143.839 15.66.796 17.411.393-.668 4.72-4.062 5.256-4.478.776 4.14 1.059 14.63 1.635 18.915 1.189-.939 2.47-3.529 4.005-4.71-.274 2.548 2.669 18.612 3.171 18.536.186-.028 2.175-3.988 2.759-4.405.762 2.081 3.448 12.951 3.806 14.672 1.565-.729 2.047-3.844 2.817-4.303.12 2.601 6.422 24.511 8.817 26.737 1.672.278 19.219-17.534 19.219-17.534.848.963 1.227 4.148.866 5.757 1.812-.106 10.473-11.27 10.473-11.27.881.552 1.2 7.727 1.205 7.728 1.478-.756 6.742-10.12 10.349-13.079.861.965.039 5.318.761 6.081 2.997-2.009 8.619-12.032 9.341-12.435.11-.057.703 3.746 2.038 4.903 2.579-2.928 7.847-11.599 8.498-11.999.052.105.556 3.036 2.323 5.081 1.323-1.177 6.263-12.25 8.958-14.768.196.675 2.804 5.778 2.881 5.803.749-.115 6.515-14.332 6.597-14.306 0 0 4.765 4.357 4.849 4.408 0 0 2.358-13.505 2.531-13.595 0 0 3.63 1.614 5.17 2.917.493-1.282 1.763-18.198 1.763-18.198 3.033 1.205 5.215 2.779 5.301 2.736-.329-1.665-2.003-15.594-2.003-15.594s5.95 2.373 7.637 3.177c-2.129-4.649-4.952-10.57-7.545-15.438 1.778.362 5.479.542 7.11 1.092-3.753-7.601-15.82-23.897-32.196-30.548C21.296-17.754 2.201-1.571 0 0" style="fill:#82c341;fill-opacity:1;fill-rule:nonzero;stroke:none" transform="matrix(1.65313 0 0 -1.65313 216.77 249.56)"/><path d="M0 0c-2.417-3.216-11.272-17.189-16.942-21.791-5.326-4.315-9.404-6.181-12.647-7.41-3.125-1.182-14.023-4.985-30.918 2.239 1.162.333 4.221 2.097 5.196 2.92-9.43 3.761-17.592 13.179-17.577 13.175 1.653-.315 4.757.756 6.461 1.174-4.538 4.117-10.894 15.476-10.814 15.464 1.451-.277 5.817-.624 6.272-.257-4.117 3.198-9.848 16.792-9.607 17.265l6.305-1.165c-4.617 10.167-4.467 15.631-4.441 15.611.538-.372 5.137-2.091 5.137-2.091.131 1.317-.481 15.532-.305 17.952 2.028-.855 3.095-2.082 4.55-2.925.504 4.124.819 15.591.774 17.334.391-.665 4.691-4.048 5.224-4.463.766 4.122 1.038 14.566 1.606 18.832 1.181-.937 2.455-3.517 3.981-4.693-.274 2.537 2.633 18.528 3.133 18.452.184-.028 2.163-3.973 2.744-4.389.754 2.072 3.412 12.892 3.765 14.606 1.555-.727 2.037-3.83 2.801-4.287.117 2.59 6.355 24.399 8.732 26.613 1.66.275 19.103-17.477 19.103-17.477.84.959 1.214 4.129.854 5.732 1.799-.108 10.411-11.231 10.411-11.231.875.548 1.185 7.692 1.19 7.693 1.469-.754 6.704-10.082 10.29-13.032.854.96.033 5.295.749 6.054 2.979-2.003 8.571-11.988 9.289-12.39.109-.057.695 3.729 2.018 4.88 2.566-2.918 7.805-11.557 8.451-11.956.052.105.55 3.024 2.302 5.058 1.316-1.174 6.232-12.204 8.911-14.713.194.672 2.779 5.75 2.856 5.775.744-.115 6.483-14.277 6.565-14.25 0 0 4.727 4.334 4.811 4.384 0 0 2.354-13.449 2.525-13.538 0 0 3.605 1.603 5.133 2.899.49-1.277 1.767-18.121 1.767-18.121 3.011 1.197 5.177 2.762 5.262 2.719-.325-1.657-1.973-15.524-1.973-15.524s5.905 2.356 7.58 3.155c-2.109-4.627-4.908-10.519-7.478-15.364 1.766.359 5.44.535 7.059 1.081-3.72-7.565-15.688-23.779-31.944-30.386C21.166-17.698 2.187-1.566 0 0Z" style="fill:none;stroke:#00733c;stroke-width:2.73600006;stroke-linecap:butt;stroke-linejoin:miter;stroke-miterlimit:3.86400008;stroke-dasharray:none;stroke-opacity:1" transform="matrix(1.65313 0 0 -1.65313 216.311 249.33)"/><path d="M0 0c-34.301-33.505-72.861 3.305-73.556 5.798 1.934-.321 40.852-34.106 71.999 1.493 0 0-3.46 13.852-4.363 18.544-32.562-20.867-55.817 24.113-55.817 24.113s29.775-39.234 53.872-17.613c0 0-4.782 17.481-6.114 20.743-23.702-7.859-34.472 24.423-34.494 24.342-.176-.544 18.117-27.521 32.597-17.947l-14.476 52.301s20.206-50.119 20.404-50.021c9.125 4.46 11.461 33.504 11.461 33.504s6.013-30.37-9.329-39.097c0 0 6.751-21.85 6.89-22.177 17.422-4.757 32.984 38.488 33.053 38.334.07-.156-7.757-45.7-31.23-45.15 0 0 4.293-17.165 4.549-17.264 34.72-7.984 58.943 35.224 59.152 35.125.018-3.701-11.782-43.515-57.429-42.176 8.869-38.043 6.223-64.575 6.091-69.447-.039-1.407 6.652-2.259 6.412-6.137-.326-5.257-7.225-4.647-8.841-5.172-1.612-.523-8.457-10.514-13.849-6.623-1.498 1.085-1.574 6.507.141 8.137 6.729 6.382 4.822 7.356 6.037 13.938C8.299-34.699 0 0 0 0" style="fill:#00733c;fill-opacity:1;fill-rule:nonzero;stroke:none" transform="matrix(1.65313 0 0 -1.65313 206.88 223.595)"/></svg>