<svg xmlns="http://www.w3.org/2000/svg" xml:space="preserve" width="400" height="400"><defs><radialGradient id="b" cx="0" cy="0" r="1" fx="0" fy="0" gradientTransform="matrix(105.16586 0 0 -105.16585 885.7 3238.352)" gradientUnits="userSpaceOnUse" spreadMethod="pad"><stop offset="0" style="stop-opacity:1;stop-color:#ffc20d"/><stop offset=".012" style="stop-opacity:1;stop-color:#ffc20d"/><stop offset=".025" style="stop-opacity:1;stop-color:#ffc20d"/><stop offset=".511" style="stop-opacity:1;stop-color:#ffc20d"/><stop offset="1" style="stop-opacity:1;stop-color:#f5821f"/></radialGradient><clipPath id="a" clipPathUnits="userSpaceOnUse"><path d="M745.512 3208.365c0-1.313.025-2.619.077-3.92l241.809-.049c.053 1.318.079 2.64.079 3.969 0 60.014-54.166 108.665-120.983 108.665-66.816 0-120.982-48.651-120.982-108.665"/></clipPath></defs><path d="M745.512 3204.396h241.965v241.965H745.512Z" style="fill:#b2d34a;fill-opacity:1;fill-rule:nonzero;stroke:none" transform="matrix(1.65313 0 0 -1.65313 -1232.43 5697.288)"/><g clip-path="url(#a)" transform="matrix(1.65313 0 0 -1.65313 -1232.43 5697.288)"><path d="M745.512 3208.365c0-1.313.025-2.619.077-3.92l241.809-.049c.053 1.318.079 2.64.079 3.969 0 60.014-54.166 108.665-120.983 108.665-66.816 0-120.982-48.651-120.982-108.665" style="fill:url(#b);stroke:none"/></g><path d="M0 0c-6.777 5.475-7.827 11.198-11.116 18.983-1.905 4.555-3.463 7.197-4.282 12.274l-.206 1.216a30.578 30.578 0 0 1-.978-2.293l-5.792-35.103c1.373-.428 2.224-.687 3.6-1.11C-11.649-8.227-6.955-3.84-.702.504z" style="fill:#231f20;fill-opacity:1;fill-rule:nonzero;stroke:none" transform="matrix(1.65313 0 0 -1.65313 236.63 135.778)"/><path d="M0 0c-6.777 5.475-7.827 11.198-11.116 18.983-1.905 4.555-3.463 7.197-4.282 12.274l-.206 1.216a30.578 30.578 0 0 1-.978-2.293l-5.792-35.103c1.373-.428 2.224-.687 3.6-1.11C-11.649-8.227-6.955-3.84-.702.504z" style="fill:none;stroke:#231f20;stroke-width:.94;stroke-linecap:butt;stroke-linejoin:miter;stroke-miterlimit:3.86400008;stroke-dasharray:none;stroke-opacity:1" transform="matrix(1.65313 0 0 -1.65313 236.63 135.778)"/><path d="M0 0c-2.672-19-20.045-32.684-39.046-30.015-11.428 1.607-22.334 15.134-31.063 24.524-1.463 1.575 6.66-.498 12.039-1.255 2.858-.401 4.518-.632 7.379-1.034 0 0 6.207-1.621 15.212 6.533 3.932 3.561 8.243 1.756 12.889 4.421 4.709 2.662 8.11 2.794 12.507 6.106z" style="fill:#231f20;fill-opacity:1;fill-rule:nonzero;stroke:none" transform="matrix(1.65313 0 0 -1.65313 253.253 137.196)"/><path d="M0 0c-7.403 4.226-9.291 9.572-13.666 16.555-2.541 4.084-6.401 12.283-6.401 12.283a29.168 29.168 0 0 1-.604-2.356l-.263-34.653 3.657-.512c7.24-1.02 11.118 3.924 16.516 9.06z" style="fill:#231f20;fill-opacity:1;fill-rule:nonzero;stroke:none" transform="matrix(1.65313 0 0 -1.65313 219.052 147.39)"/><path d="M0 0c-.742-5.242-1.166-8.27-1.911-13.512-.742-5.243-1.02 2.542-1.219-2.776.6-.151.984-.342 1.585-.493l9.543 1.133c2.639-.367 4.057-.568 6.696-.935 2.099-.295 3.119-1.877 3.955-3.775l-7.317.953c2.294-.867 3.673-1.334 5.689-2.712l.387-1.154c-2.834.942-3.851 3.006-6.764 3.412-.811.116-1.31-.021-2.135.026l5.074-3.175c-4.466.622-6.714 2.308-11.176 2.93-2.237.313-3.605.363-5.798-.014-.069.489-.427.884-.351 1.42.123.874.662 1.28 1.114 2.042z" style="fill:#231f20;fill-opacity:1;fill-rule:nonzero;stroke:none" transform="matrix(1.65313 0 0 -1.65313 214.69 184.172)"/><path d="M0 0c-.742-5.242-1.166-8.27-1.911-13.512-.742-5.243-1.02 2.542-1.219-2.776.6-.151.984-.342 1.585-.493l9.543 1.133c2.639-.367 4.057-.568 6.696-.935 2.099-.295 3.119-1.877 3.955-3.775l-7.317.953c2.294-.867 3.673-1.334 5.689-2.712l.387-1.154c-2.834.942-3.851 3.006-6.764 3.412-.811.116-1.31-.021-2.135.026l5.074-3.175c-4.466.622-6.714 2.308-11.176 2.93-2.237.313-3.605.363-5.798-.014-.069.489-.427.884-.351 1.42.123.874.662 1.28 1.114 2.042z" style="fill:none;stroke:#231f20;stroke-width:.602;stroke-linecap:butt;stroke-linejoin:miter;stroke-miterlimit:10;stroke-dasharray:none;stroke-opacity:1" transform="matrix(1.65313 0 0 -1.65313 214.69 184.172)"/><path d="M0 0c-3.707-5.696-4.635-9.506-7.592-15.688-1.245-2.546-.287 6.484.563 3.886 1.649-5.15 3.211-8.292 2.913-13.657-1.416 1.98-1.511 3.596-1.675 5.986l-1.296-6.022c-1.134 2.288-1.633 3.919-1.757 6.371-1.003-2.049-1.64-3.273-2.223-5.427-.648 3.03-1.893 5.147-.246 7.675 1.235 1.9 3.181 1.867 4.415 3.767.339.516.355.915.634 1.471z" style="fill:#231f20;fill-opacity:1;fill-rule:nonzero;stroke:none" transform="matrix(1.65313 0 0 -1.65313 192.155 185.031)"/><path d="M0 0c-3.707-5.696-4.635-9.506-7.592-15.688-1.245-2.546-.287 6.484.563 3.886 1.649-5.15 3.211-8.292 2.913-13.657-1.416 1.98-1.511 3.596-1.675 5.986l-1.296-6.022c-1.134 2.288-1.633 3.919-1.757 6.371-1.003-2.049-1.64-3.273-2.223-5.427-.648 3.03-1.893 5.147-.246 7.675 1.235 1.9 3.181 1.867 4.415 3.767.339.516.355.915.634 1.471z" style="fill:none;stroke:#231f20;stroke-width:.602;stroke-linecap:butt;stroke-linejoin:miter;stroke-miterlimit:10;stroke-dasharray:none;stroke-opacity:1" transform="matrix(1.65313 0 0 -1.65313 192.155 185.031)"/><path d="M0 0c-2.125.299-3.323.466-5.449.764-2.79.391-5.782-2.573-7.268-4.94-2.171-3.419-2.456-3.991-3.014-7.976-.974-6.912 4.233-10.357 11.146-11.327 6.643-.931 11.906 5.644 12.838 12.291C9.01-5.804 5.385-.757 0 0" style="fill:#231f20;fill-opacity:1;fill-rule:nonzero;stroke:none" transform="matrix(1.65313 0 0 -1.65313 263.47 98.752)"/><path d="M0 0c-6.726-4.99-8.365-6.581-13.932-11.077 2.388-7.112 7.156-8.598 9.445-15.412l-20.746 15.146C-16.799-5.087-12.304-1.936 0 0" style="fill:#f7931d;fill-opacity:1;fill-rule:nonzero;stroke:none" transform="matrix(1.65313 0 0 -1.65313 301.501 104.365)"/><path d="M0 0c-6.726-4.99-8.365-6.581-13.932-11.077 2.388-7.112 7.156-8.598 9.445-15.412l-20.746 15.146C-16.799-5.087-12.304-1.936 0 0Z" style="fill:none;stroke:#231f20;stroke-width:1.20500004;stroke-linecap:butt;stroke-linejoin:miter;stroke-miterlimit:10;stroke-dasharray:none;stroke-opacity:1" transform="matrix(1.65313 0 0 -1.65313 301.501 104.365)"/><path d="M0 0a1.56 1.56 0 0 0 3.121 0c0-.864-.701-1.557-1.564-1.557C.7-1.557 0-.864 0 0" style="fill:#fff;fill-opacity:1;fill-rule:nonzero;stroke:none" transform="matrix(1.65313 0 0 -1.65313 254.869 113.459)"/></svg>