<svg xmlns="http://www.w3.org/2000/svg" xml:space="preserve" width="400" height="400"><path d="M745.512 2879.972h241.965v241.965H745.512Z" style="fill:#b2d34a;fill-opacity:1;fill-rule:nonzero;stroke:none" transform="matrix(1.65313 0 0 -1.65313 -1232.43 5160.973)"/><path d="M0 0c2.286-4.549 2.958-7.224 5.917-11.237 2.149-2.941 5.107-3.608 8.605-4.812 6.586-2.407 10.62-4.278 17.749-4.278 1.749 0 2.69.935 4.303 1.6-3.226-6.418-8.069-9.625-15.062-9.625-9.143 0-16.404 3.608-20.435 11.768-1.213 2.406-3.23 3.61-3.23 6.417C-2.153-7.089 0 0 0 0" style="fill:#231f20;fill-opacity:1;fill-rule:nonzero;stroke:none" transform="matrix(1.65313 0 0 -1.65313 282.954 258.405)"/><path d="M0 0c2.286-4.549 2.958-7.224 5.917-11.237 2.149-2.941 5.107-3.608 8.606-4.812 6.585-2.407 10.62-4.279 17.749-4.279 1.749 0 2.69.936 4.303 1.601-3.226-6.418-8.07-9.625-15.063-9.625-9.142 0-16.404 3.607-20.435 11.767-1.213 2.407-3.23 3.611-3.23 6.418C-2.153-7.089 0 0 0 0Z" style="fill:none;stroke:#231f20;stroke-width:1.074;stroke-linecap:butt;stroke-linejoin:miter;stroke-miterlimit:3.86400008;stroke-dasharray:none;stroke-opacity:1" transform="matrix(1.65313 0 0 -1.65313 282.952 258.402)"/><path d="M0 0c0-10.832-4.035-17.12-9.683-26.216-2.418-4.011-3.899-8.158-8.606-9.093-5.244-1.067-12.905.535-12.905-4.814 0-4.413 4.839-6.418 9.278-6.418h10.488c3.763 0 5.376 3.207 7.125 6.418 2.554 4.814 3.23 7.889 5.38 12.838 3.766 8.558 8.606 13.107 8.606 22.471C9.683-.671 4.171-.402 0 0" style="fill:#667a8e;fill-opacity:1;fill-rule:nonzero;stroke:none" transform="matrix(1.65313 0 0 -1.65313 146.917 284.051)"/><path d="M0 0c0-10.831-4.035-17.119-9.683-26.214-2.418-4.011-3.899-8.157-8.607-9.093-5.244-1.067-12.906.536-12.906-4.813 0-4.413 4.84-6.418 9.279-6.418h10.488c3.763 0 5.377 3.207 7.126 6.418 2.554 4.813 3.23 7.889 5.38 12.838 3.766 8.557 8.607 13.105 8.607 22.469C9.684-.671 4.171-.402 0 0Z" style="fill:none;stroke:#231f20;stroke-width:1.074;stroke-linecap:butt;stroke-linejoin:miter;stroke-miterlimit:3.86400008;stroke-dasharray:none;stroke-opacity:1" transform="matrix(1.65313 0 0 -1.65313 146.918 284.054)"/><path d="M0 0c-4.435 0-7.125.801-11.296-.536-1.61-.535-3.763-.935-3.763-2.675 0-5.614 6.185-8.56 11.833-8.56 2.826 0 4.439 1.74 6.989 2.676 2.289.8 4.575.135 6.453 1.606 3.502 2.807 2.961 6.418 4.306 10.7 1.882 5.749 2.958 9.096 4.84 14.978-4.303 2.407-8.602 3.607-12.909 1.071-2.69-1.606-3.09-4.417-3.763-7.489C1.613 7.222 0 4.682 0 0" style="fill:#667a8e;fill-opacity:1;fill-rule:nonzero;stroke:none" transform="matrix(1.65313 0 0 -1.65313 226.046 342.416)"/><path d="M0 0c-4.435 0-7.125.801-11.296-.536-1.61-.535-3.763-.935-3.763-2.674 0-5.614 6.184-8.56 11.833-8.56 2.825 0 4.439 1.74 6.989 2.676 2.289.8 4.575.135 6.453 1.606 3.502 2.806 2.962 6.417 4.307 10.698 1.882 5.749 2.958 9.095 4.84 14.977-4.303 2.407-8.603 3.607-12.91 1.071-2.69-1.606-3.09-4.417-3.763-7.488C1.613 7.222 0 4.682 0 0Z" style="fill:none;stroke:#231f20;stroke-width:1.074;stroke-linecap:butt;stroke-linejoin:miter;stroke-miterlimit:3.86400008;stroke-dasharray:none;stroke-opacity:1" transform="matrix(1.65313 0 0 -1.65313 226.045 342.415)"/><path d="M0 0c8.334 0 8.738 2.141 17.076 2.141 3.895 0 5.244 3.476 7.662 6.419 2.958 3.478 6.188 5.349 10.891 5.349h11.025c11.431 0 15.198-9.227 24.337-16.049 8.606-6.42 15.871-7.489 26.627-7.489 10.215 0 15.863 3.211 26.086 3.211 4.836 0 7.662-.936 12.365-1.607 4.576-.669 7.802-.269 11.836-2.675 4.84-2.807 5.917-7.624 5.917-13.372 0-7.891-3.767-11.903-3.767-19.796 0-7.891 6.857-10.831 10.756-17.652 2.153-3.88 4.843-6.153 4.843-10.699 0-4.012-5.784-3.879-9.815-3.879-6.857 0-10.623-2.54-16.54 3.343 2.15 5.214 11.293 1.336 11.293 6.953 0 7.625-12.505 9.096-19.899 11.236-4.167 1.202-7.261.936-10.755 3.209-2.018 1.34-2.286 4.282-4.84 4.282-3.766 0-5.111-3.478-8.606-4.817-5.512-2.139-8.874-3.078-14.794-3.743.272-3.747 0-6.018 0-9.765 0-5.617 1.885-8.691 1.885-14.309 0-3.878-4.839-4.413-8.606-5.353-6.185-1.6-9.679-3.742-16.136-3.742-1.613 0-3.226 1.07-3.226 2.677 0 10.161 22.588 8.025 13.982 21.932-3.028 4.896-2.017 9.096-3.763 14.443-.808 2.542-.808 4.682-2.69 6.42-3.494 3.211-6.857 3.879-10.759 6.422-7.258 4.947-7.122 10.161-12.365 17.114-2.558.406-7.129-3.207-9.683-3.207-4.708 0-9.437-.68-13.982.535C12.373-18.725 5.912-13.908 0 0" style="fill:#667a8e;fill-opacity:1;fill-rule:nonzero;stroke:none" transform="matrix(1.65313 0 0 -1.65313 30.44 230.985)"/><path d="M0 0c8.334 0 8.739 2.141 17.076 2.141 3.895 0 5.244 3.476 7.662 6.419 2.958 3.477 6.188 5.348 10.892 5.348h11.024c11.432 0 15.199-9.226 24.337-16.048 8.607-6.42 15.872-7.489 26.627-7.489 10.216 0 15.864 3.211 26.087 3.211 4.836 0 7.662-.936 12.365-1.607 4.576-.668 7.802-.268 11.836-2.675 4.84-2.807 5.917-7.624 5.917-13.371 0-7.891-3.767-11.903-3.767-19.796 0-7.89 6.857-10.831 10.756-17.651 2.153-3.879 4.843-6.152 4.843-10.699 0-4.012-5.784-3.878-9.815-3.878-6.857 0-10.623-2.54-16.54 3.342 2.15 5.214 11.293 1.336 11.293 6.954 0 7.624-12.505 9.095-19.899 11.235-4.167 1.202-7.261.936-10.756 3.209-2.017 1.339-2.285 4.282-4.839 4.282-3.767 0-5.112-3.478-8.606-4.818-5.512-2.138-8.875-3.077-14.795-3.742.272-3.746 0-6.018 0-9.764 0-5.618 1.885-8.691 1.885-14.309 0-3.878-4.839-4.413-8.606-5.353-6.184-1.6-9.679-3.742-16.135-3.742-1.613 0-3.227 1.071-3.227 2.677 0 10.161 22.589 8.024 13.983 21.931-3.028 4.896-2.018 9.095-3.763 14.443-.809 2.542-.809 4.681-2.69 6.419-3.495 3.211-6.857 3.88-10.76 6.422-7.257 4.947-7.121 10.16-12.365 17.114-2.557.405-7.129-3.207-9.683-3.207-4.707 0-9.436-.68-13.982.535C12.373-18.725 5.912-13.907 0 0Z" style="fill:none;stroke:#231f20;stroke-width:1.074;stroke-linecap:butt;stroke-linejoin:miter;stroke-miterlimit:3.86400008;stroke-dasharray:none;stroke-opacity:1" transform="matrix(1.65313 0 0 -1.65313 30.44 230.987)"/><path d="M0 0c0 2.069 1.566 3.746 3.495 3.746S6.99 2.069 6.99 0c0-2.071-1.566-3.746-3.495-3.746S0-2.071 0 0" style="fill:#231f20;fill-opacity:1;fill-rule:nonzero;stroke:none" transform="matrix(1.65313 0 0 -1.65313 28.666 233.638)"/><path d="M0 0c0 2.068 1.566 3.745 3.496 3.745 1.929 0 3.496-1.677 3.496-3.745 0-2.07-1.567-3.744-3.496-3.744C1.566-3.744 0-2.07 0 0Z" style="fill:none;stroke:#231f20;stroke-width:1.074;stroke-linecap:butt;stroke-linejoin:miter;stroke-miterlimit:3.86400008;stroke-dasharray:none;stroke-opacity:1" transform="matrix(1.65313 0 0 -1.65313 28.664 233.638)"/><path d="M0 0c0 2.657 2.168 4.814 4.839 4.814 2.672 0 4.844-2.157 4.844-4.814 0-2.661-2.172-4.814-4.844-4.814C2.168-4.814 0-2.661 0 0" style="fill:#fff;fill-opacity:1;fill-rule:nonzero;stroke:none" transform="matrix(1.65313 0 0 -1.65313 76.675 236.294)"/><path d="M0 0c0 2.656 2.169 4.812 4.841 4.812S9.685 2.656 9.685 0c0-2.66-2.172-4.812-4.844-4.812S0-2.66 0 0Z" style="fill:none;stroke:#231f20;stroke-width:1.074;stroke-linecap:butt;stroke-linejoin:miter;stroke-miterlimit:3.86400008;stroke-dasharray:none;stroke-opacity:1" transform="matrix(1.65313 0 0 -1.65313 76.673 236.294)"/><path d="M0 0a3.487 3.487 0 0 0 3.495 3.478c1.932 0 3.502-1.557 3.502-3.478 0-1.919-1.57-3.476-3.502-3.476C1.565-3.476 0-1.919 0 0" style="fill:#231f20;fill-opacity:1;fill-rule:nonzero;stroke:none" transform="matrix(1.65313 0 0 -1.65313 74.895 234.085)"/><path d="M0 0c0 1.92 1.566 3.476 3.496 3.476C5.429 3.476 6.999 1.92 6.999 0c0-1.918-1.57-3.474-3.503-3.474C1.566-3.474 0-1.918 0 0Z" style="fill:none;stroke:#231f20;stroke-width:1.074;stroke-linecap:butt;stroke-linejoin:miter;stroke-miterlimit:3.86400008;stroke-dasharray:none;stroke-opacity:1" transform="matrix(1.65313 0 0 -1.65313 74.893 234.085)"/><path d="M0 0c4.843 2.405 6.589 5.482 9.683 9.629.808-2.407 1.613-3.746 1.613-6.288v-10.83c-.941.133-1.613 0-2.554 0C4.307-7.489 2.153-3.747 0 0" style="fill:#231f20;fill-opacity:1;fill-rule:nonzero;stroke:none" transform="matrix(1.65313 0 0 -1.65313 110.456 214.185)"/><path d="M0 0c4.843 2.405 6.589 5.482 9.683 9.629.809-2.407 1.614-3.746 1.614-6.288v-10.83c-.941.134-1.614 0-2.555 0C4.307-7.489 2.153-3.746 0 0Z" style="fill:none;stroke:#231f20;stroke-width:1.074;stroke-linecap:butt;stroke-linejoin:miter;stroke-miterlimit:3.86400008;stroke-dasharray:none;stroke-opacity:1" transform="matrix(1.65313 0 0 -1.65313 110.457 214.183)"/><path d="M0 0c2.822 4.682 4.707 7.355 8.606 11.236.673-4.816 1.613-7.493 1.613-12.305-4.167-.267-6.588 0-10.756 0z" style="fill:#231f20;fill-opacity:1;fill-rule:nonzero;stroke:none" transform="matrix(1.65313 0 0 -1.65313 94.455 206.224)"/><path d="M0 0c2.822 4.682 4.707 7.356 8.606 11.236.673-4.816 1.613-7.493 1.613-12.305-4.167-.266-6.588 0-10.756 0zm77.989-63.66-3.226 12.839c.672 2.14 1.073 3.211 2.15 5.351M53.247-70.078c0 4.947-.268 7.89-1.073 12.837m-84.982 31.563c6.324-2.542 7.665-3.211 14.526-4.282" style="fill:none;stroke:#231f20;stroke-width:1.074;stroke-linecap:butt;stroke-linejoin:miter;stroke-miterlimit:3.86400008;stroke-dasharray:none;stroke-opacity:1" transform="matrix(1.65313 0 0 -1.65313 94.455 206.224)"/><path d="M0 0c2.286-4.549 2.958-7.224 5.917-11.237 2.149-2.941 5.107-3.608 8.605-4.812 6.586-2.407 10.62-4.278 17.749-4.278 1.749 0 2.69.935 4.303 1.6-3.226-6.418-8.069-9.625-15.062-9.625-9.143 0-16.404 3.608-20.435 11.768-1.213 2.406-3.23 3.61-3.23 6.417C-2.153-7.089 0 0 0 0" style="fill:#231f20;fill-opacity:1;fill-rule:nonzero;stroke:none" transform="matrix(1.65313 0 0 -1.65313 324.79 105.258)"/><path d="M0 0c2.286-4.549 2.958-7.224 5.917-11.237 2.149-2.941 5.107-3.608 8.606-4.812 6.585-2.407 10.62-4.279 17.749-4.279 1.749 0 2.69.936 4.303 1.601-3.226-6.418-8.07-9.625-15.063-9.625-9.142 0-16.404 3.607-20.435 11.767-1.213 2.407-3.23 3.611-3.23 6.418C-2.153-7.089 0 0 0 0Z" style="fill:none;stroke:#231f20;stroke-width:1.074;stroke-linecap:butt;stroke-linejoin:miter;stroke-miterlimit:3.86400008;stroke-dasharray:none;stroke-opacity:1" transform="matrix(1.65313 0 0 -1.65313 324.788 105.255)"/><path d="M0 0c0-10.832-4.035-17.12-9.683-26.216-2.418-4.011-3.899-8.158-8.606-9.093-5.244-1.067-12.905.535-12.905-4.814 0-4.413 4.839-6.418 9.278-6.418h10.488c3.763 0 5.376 3.207 7.125 6.418 2.554 4.814 3.23 7.889 5.38 12.838 3.766 8.558 8.606 13.107 8.606 22.471C9.683-.671 4.171-.402 0 0" style="fill:#667a8e;fill-opacity:1;fill-rule:nonzero;stroke:none" transform="matrix(1.65313 0 0 -1.65313 188.753 130.904)"/><path d="M0 0c0-10.831-4.035-17.119-9.683-26.214-2.418-4.011-3.899-8.157-8.607-9.093-5.244-1.067-12.906.536-12.906-4.813 0-4.413 4.84-6.418 9.279-6.418h10.488c3.763 0 5.377 3.207 7.126 6.418 2.554 4.813 3.23 7.889 5.38 12.838 3.766 8.557 8.607 13.105 8.607 22.469C9.684-.671 4.171-.402 0 0Z" style="fill:none;stroke:#231f20;stroke-width:1.074;stroke-linecap:butt;stroke-linejoin:miter;stroke-miterlimit:3.86400008;stroke-dasharray:none;stroke-opacity:1" transform="matrix(1.65313 0 0 -1.65313 188.754 130.907)"/><path d="M0 0c-4.435 0-7.125.801-11.296-.536-1.61-.535-3.763-.935-3.763-2.675 0-5.614 6.185-8.56 11.833-8.56 2.826 0 4.439 1.74 6.989 2.676 2.289.8 4.575.135 6.453 1.606 3.502 2.807 2.961 6.418 4.306 10.7 1.882 5.749 2.958 9.096 4.84 14.978-4.303 2.407-8.602 3.607-12.909 1.071-2.69-1.606-3.09-4.417-3.763-7.489C1.613 7.222 0 4.682 0 0" style="fill:#667a8e;fill-opacity:1;fill-rule:nonzero;stroke:none" transform="matrix(1.65313 0 0 -1.65313 267.882 189.269)"/><path d="M0 0c-4.435 0-7.125.801-11.296-.536-1.61-.535-3.763-.935-3.763-2.674 0-5.614 6.184-8.56 11.833-8.56 2.825 0 4.439 1.74 6.989 2.676 2.289.8 4.575.135 6.453 1.606 3.502 2.806 2.962 6.417 4.307 10.698 1.882 5.749 2.958 9.095 4.84 14.977-4.303 2.407-8.603 3.607-12.91 1.071-2.69-1.606-3.09-4.417-3.763-7.488C1.613 7.222 0 4.682 0 0Z" style="fill:none;stroke:#231f20;stroke-width:1.074;stroke-linecap:butt;stroke-linejoin:miter;stroke-miterlimit:3.86400008;stroke-dasharray:none;stroke-opacity:1" transform="matrix(1.65313 0 0 -1.65313 267.881 189.268)"/><path d="M0 0c8.334 0 8.738 2.141 17.076 2.141 3.895 0 5.244 3.476 7.662 6.419 2.958 3.478 6.188 5.349 10.891 5.349h11.025c11.431 0 15.198-9.227 24.337-16.049 8.606-6.42 15.871-7.489 26.627-7.489 10.215 0 15.863 3.211 26.086 3.211 4.836 0 7.662-.936 12.365-1.607 4.576-.669 7.802-.269 11.836-2.675 4.84-2.807 5.917-7.624 5.917-13.372 0-7.891-3.767-11.903-3.767-19.796 0-7.891 6.857-10.831 10.756-17.652 2.153-3.88 4.843-6.153 4.843-10.699 0-4.012-5.784-3.879-9.815-3.879-6.857 0-10.623-2.54-16.54 3.343 2.15 5.214 11.293 1.336 11.293 6.953 0 7.625-12.505 9.096-19.899 11.236-4.167 1.202-7.261.936-10.755 3.209-2.018 1.34-2.286 4.282-4.84 4.282-3.766 0-5.111-3.478-8.606-4.817-5.512-2.139-8.874-3.078-14.794-3.743.272-3.747 0-6.018 0-9.765 0-5.617 1.885-8.691 1.885-14.309 0-3.878-4.839-4.413-8.606-5.353-6.185-1.6-9.679-3.742-16.136-3.742-1.613 0-3.226 1.07-3.226 2.677 0 10.161 22.588 8.025 13.982 21.932-3.028 4.896-2.017 9.096-3.763 14.443-.808 2.542-.808 4.682-2.69 6.42-3.494 3.211-6.857 3.879-10.759 6.422-7.258 4.947-7.122 10.161-12.365 17.114-2.558.406-7.129-3.207-9.683-3.207-4.708 0-9.437-.68-13.982.535C12.373-18.725 5.912-13.908 0 0" style="fill:#667a8e;fill-opacity:1;fill-rule:nonzero;stroke:none" transform="matrix(1.65313 0 0 -1.65313 72.276 77.838)"/><path d="M0 0c8.334 0 8.739 2.141 17.076 2.141 3.895 0 5.244 3.476 7.662 6.419 2.958 3.477 6.188 5.348 10.892 5.348h11.024c11.432 0 15.199-9.226 24.337-16.048 8.607-6.42 15.872-7.489 26.627-7.489 10.216 0 15.864 3.211 26.087 3.211 4.836 0 7.662-.936 12.365-1.607 4.576-.668 7.802-.268 11.836-2.675 4.84-2.807 5.917-7.624 5.917-13.371 0-7.891-3.767-11.903-3.767-19.796 0-7.89 6.857-10.831 10.756-17.651 2.153-3.879 4.843-6.152 4.843-10.699 0-4.012-5.784-3.878-9.815-3.878-6.857 0-10.623-2.54-16.54 3.342 2.15 5.214 11.293 1.336 11.293 6.954 0 7.624-12.505 9.095-19.899 11.235-4.167 1.202-7.261.936-10.756 3.209-2.017 1.339-2.285 4.282-4.839 4.282-3.767 0-5.112-3.478-8.606-4.818-5.512-2.138-8.875-3.077-14.795-3.742.272-3.746 0-6.018 0-9.764 0-5.618 1.885-8.691 1.885-14.309 0-3.878-4.839-4.413-8.606-5.353-6.184-1.6-9.679-3.742-16.135-3.742-1.613 0-3.227 1.071-3.227 2.677 0 10.161 22.589 8.024 13.983 21.931-3.028 4.896-2.018 9.095-3.763 14.443-.809 2.542-.809 4.681-2.69 6.419-3.495 3.211-6.857 3.88-10.76 6.422-7.257 4.947-7.121 10.16-12.365 17.114-2.557.405-7.129-3.207-9.683-3.207-4.707 0-9.436-.68-13.982.535C12.373-18.725 5.912-13.907 0 0Z" style="fill:none;stroke:#231f20;stroke-width:1.074;stroke-linecap:butt;stroke-linejoin:miter;stroke-miterlimit:3.86400008;stroke-dasharray:none;stroke-opacity:1" transform="matrix(1.65313 0 0 -1.65313 72.276 77.84)"/><path d="M0 0c0 2.069 1.566 3.746 3.495 3.746S6.99 2.069 6.99 0c0-2.071-1.566-3.746-3.495-3.746S0-2.071 0 0" style="fill:#231f20;fill-opacity:1;fill-rule:nonzero;stroke:none" transform="matrix(1.65313 0 0 -1.65313 70.502 80.491)"/><path d="M0 0c0 2.068 1.566 3.745 3.496 3.745 1.929 0 3.496-1.677 3.496-3.745 0-2.07-1.567-3.744-3.496-3.744C1.566-3.744 0-2.07 0 0Z" style="fill:none;stroke:#231f20;stroke-width:1.074;stroke-linecap:butt;stroke-linejoin:miter;stroke-miterlimit:3.86400008;stroke-dasharray:none;stroke-opacity:1" transform="matrix(1.65313 0 0 -1.65313 70.5 80.491)"/><path d="M0 0c0 2.657 2.168 4.814 4.839 4.814 2.672 0 4.844-2.157 4.844-4.814 0-2.661-2.172-4.814-4.844-4.814C2.168-4.814 0-2.661 0 0" style="fill:#fff;fill-opacity:1;fill-rule:nonzero;stroke:none" transform="matrix(1.65313 0 0 -1.65313 118.51 83.146)"/><path d="M0 0c0 2.656 2.169 4.812 4.841 4.812S9.685 2.656 9.685 0c0-2.66-2.172-4.812-4.844-4.812S0-2.66 0 0Z" style="fill:none;stroke:#231f20;stroke-width:1.074;stroke-linecap:butt;stroke-linejoin:miter;stroke-miterlimit:3.86400008;stroke-dasharray:none;stroke-opacity:1" transform="matrix(1.65313 0 0 -1.65313 118.509 83.146)"/><path d="M0 0a3.487 3.487 0 0 0 3.495 3.478c1.932 0 3.502-1.557 3.502-3.478 0-1.919-1.57-3.476-3.502-3.476C1.565-3.476 0-1.919 0 0" style="fill:#231f20;fill-opacity:1;fill-rule:nonzero;stroke:none" transform="matrix(1.65313 0 0 -1.65313 116.731 80.938)"/><path d="M0 0c0 1.92 1.566 3.476 3.496 3.476C5.429 3.476 6.999 1.92 6.999 0c0-1.918-1.57-3.474-3.503-3.474C1.566-3.474 0-1.918 0 0Z" style="fill:none;stroke:#231f20;stroke-width:1.074;stroke-linecap:butt;stroke-linejoin:miter;stroke-miterlimit:3.86400008;stroke-dasharray:none;stroke-opacity:1" transform="matrix(1.65313 0 0 -1.65313 116.73 80.938)"/><path d="M0 0c4.843 2.405 6.589 5.482 9.683 9.629.808-2.407 1.613-3.746 1.613-6.288v-10.83c-.941.133-1.613 0-2.554 0C4.307-7.489 2.153-3.747 0 0" style="fill:#231f20;fill-opacity:1;fill-rule:nonzero;stroke:none" transform="matrix(1.65313 0 0 -1.65313 152.292 61.038)"/><path d="M0 0c4.843 2.405 6.589 5.482 9.683 9.629.809-2.407 1.614-3.746 1.614-6.288v-10.83c-.941.134-1.614 0-2.555 0C4.307-7.489 2.153-3.746 0 0Z" style="fill:none;stroke:#231f20;stroke-width:1.074;stroke-linecap:butt;stroke-linejoin:miter;stroke-miterlimit:3.86400008;stroke-dasharray:none;stroke-opacity:1" transform="matrix(1.65313 0 0 -1.65313 152.293 61.036)"/><path d="M0 0c2.822 4.682 4.707 7.355 8.606 11.236.673-4.816 1.613-7.493 1.613-12.305-4.167-.267-6.588 0-10.756 0z" style="fill:#231f20;fill-opacity:1;fill-rule:nonzero;stroke:none" transform="matrix(1.65313 0 0 -1.65313 136.291 53.077)"/><path d="M0 0c2.822 4.682 4.707 7.356 8.606 11.236.673-4.816 1.613-7.493 1.613-12.305-4.167-.266-6.588 0-10.756 0zm77.989-63.66-3.226 12.839c.672 2.14 1.073 3.211 2.15 5.351M53.247-70.078c0 4.947-.268 7.89-1.073 12.837m-84.982 31.563c6.324-2.542 7.665-3.211 14.526-4.282" style="fill:none;stroke:#231f20;stroke-width:1.074;stroke-linecap:butt;stroke-linejoin:miter;stroke-miterlimit:3.86400008;stroke-dasharray:none;stroke-opacity:1" transform="matrix(1.65313 0 0 -1.65313 136.29 53.077)"/></svg>