<svg xmlns="http://www.w3.org/2000/svg" xml:space="preserve" width="400" height="400"><path d="M86.457 3868.271h241.965v241.965H86.457Z" style="fill:#b2d34a;fill-opacity:1;fill-rule:nonzero;stroke:none" transform="matrix(1.65313 0 0 -1.65313 -142.925 6794.761)"/><path d="M0 0c-16.983.504-50.679 13.724-56.188 31.815-4.306 14.14-1.13 30.354 10.553 32.827 10.239 2.166 21.27-4.515 26.486-13.517 1.596 10.15 3.623 17.961 13.801 21.141 14.596 3.254 25.747-4.289 28.159-19.455.972-15.538-4.899-21.319-13.438-33.368C4.948 13.179 1.41 7.535 0 0" style="fill:#ed1c24;fill-opacity:1;fill-rule:nonzero;stroke:none" transform="matrix(1.65313 0 0 -1.65313 241.473 157.586)"/><path d="M0 0c-16.983.504-50.679 13.724-56.188 31.815-4.306 14.14-1.13 30.354 10.553 32.827 10.239 2.166 21.27-4.515 26.486-13.517 1.596 10.15 3.623 17.961 13.801 21.141 14.596 3.254 25.747-4.289 28.159-19.455.972-15.538-4.899-21.319-13.438-33.368C4.948 13.179 1.41 7.535 0 0Z" style="fill:none;stroke:#faa619;stroke-width:4.0999999;stroke-linecap:butt;stroke-linejoin:miter;stroke-miterlimit:10;stroke-dasharray:none;stroke-opacity:1" transform="matrix(1.65313 0 0 -1.65313 241.473 157.586)"/><path d="M0 0c-5.368 10.14-11.114 14.519-20.6 20.962-8.217 5.587-14.111 11.062-23.826 8.997-1.452-.308-2.282-.487-3.735-.793-6.603-1.405-11.65-2.564-15.094-8.416-2.234-3.774-1.244-6.602-1.998-11.013 2.015.731 2.748 1.972 4.56 3.051 5.273 3.161 8.757 4.118 14.735 5.39 7.931 1.685 13.192-1.841 19.711-6.573 6.005-4.366 10.595-6.774 13.353-13.826-1.139 5.358-6.716 6.079-12.108 7.147-9.112 1.837-14.715 1.038-23.766-.885-10.71-2.278-15.356-12.075-16.106-23.039l.178-.83c6.538 10.07 13.683 14.017 25.143 16.453 6.104 1.298 10.042 4.127 14.943.265-2.858.173-6.216-.974-9.039-1.572-6.643-1.413-11.603-5.638-17.033-9.698-3.555-2.666-3.798-6.623-5.532-10.723-.842-1.958-1.044-3.05-.106-5 1.293-2.691 1.712-7.558 1.782-7.892l2.546 7.639c.762 4.836 1.995 7.846 5.092 11.455 6.329 7.377 11.152 11.304 20.659 13.322 4.276.91 7.507-.399 10.763-3.265-8.252-2.623-13.381-4.016-19.795-9.763-5.767-5.132-9.326-10.835-7.712-18.433.281-1.331.44-2.077.724-3.406.175-.83.646-1.206.948-2.011 1.952 3.888 2.396 6.282 4.273 10.109 5.719 11.672 12.188 19.427 24.892 22.128 4.567.972 12.626 4.055 15.653.23C3.284-5.481 2.487-4.135 0 0" style="fill:#f6881f;fill-opacity:1;fill-rule:nonzero;stroke:none" transform="matrix(1.65313 0 0 -1.65313 141.725 233.478)"/><path d="M0 0c-5.368 10.14-11.114 14.519-20.6 20.962-8.217 5.587-14.111 11.062-23.826 8.997-1.452-.308-2.282-.487-3.735-.793-6.603-1.405-11.65-2.564-15.094-8.416-2.234-3.774-1.244-6.602-1.998-11.013 2.015.731 2.748 1.972 4.56 3.051 5.273 3.161 8.757 4.118 14.735 5.39 7.931 1.685 13.192-1.841 19.711-6.573 6.005-4.366 10.595-6.774 13.353-13.826-1.139 5.358-6.716 6.079-12.108 7.147-9.112 1.837-14.715 1.038-23.766-.885-10.71-2.278-15.356-12.075-16.106-23.039l.178-.83c6.538 10.07 13.683 14.017 25.143 16.453 6.104 1.298 10.042 4.127 14.943.265-2.858.173-6.216-.974-9.039-1.572-6.643-1.413-11.603-5.638-17.033-9.698-3.555-2.666-3.798-6.623-5.532-10.723-.842-1.958-1.044-3.05-.106-5 1.293-2.691 1.712-7.558 1.782-7.892l2.546 7.639c.762 4.836 1.995 7.846 5.092 11.455 6.329 7.377 11.152 11.304 20.659 13.322 4.276.91 7.507-.399 10.763-3.265-8.252-2.623-13.381-4.016-19.795-9.763-5.767-5.132-9.326-10.835-7.712-18.433.281-1.331.44-2.077.724-3.406.175-.83.646-1.206.948-2.011 1.952 3.888 2.396 6.282 4.273 10.109 5.719 11.672 12.188 19.427 24.892 22.128 4.567.972 12.626 4.055 15.653.23C3.284-5.481 2.487-4.135 0 0Z" style="fill:none;stroke:#231f20;stroke-width:.99800003;stroke-linecap:round;stroke-linejoin:miter;stroke-miterlimit:3.86400008;stroke-dasharray:none;stroke-opacity:1" transform="matrix(1.65313 0 0 -1.65313 141.725 233.478)"/><path d="M0 0c-2.941 13.969-8.312 21.175-17.445 32.134-7.909 9.499-13.084 18.066-25.408 18.926-1.843.13-2.898.204-4.741.331-8.377.586-14.809.931-20.933-4.885-3.966-3.749-3.751-7.467-6.166-12.488 2.659.187 3.963 1.418 6.497 2.086 7.391 1.972 11.886 1.924 19.471 1.394 10.062-.704 15.146-6.725 21.317-14.618C-21.723 15.6-17.06 11.146-16.18 1.765c.475 6.797-5.948 9.578-12.028 12.701-10.268 5.321-17.242 6.288-28.724 7.089-13.59.953-22.503-9.172-27.16-22.028l-.074-1.053c11.271 9.801 21.17 12.072 35.71 11.056 7.743-.543 13.424 1.489 17.959-4.809-3.356 1.187-7.765.967-11.347 1.218-8.428.589-15.808-2.761-23.694-5.756-5.166-1.966-6.814-6.615-10.292-10.925-1.678-2.054-2.295-3.289-1.844-5.943.625-3.661-.544-9.626-.574-10.047l5.665 8.26c2.571 5.52 5.076 8.7 10.014 11.952 10.1 6.655 17.214 9.692 29.277 8.849 5.425-.381 8.839-3.054 11.75-7.596-10.769-.308-17.377-.216-27.02-4.889-8.656-4.158-14.869-9.758-15.543-19.397l-.302-4.32c-.075-1.055.36-1.666.445-2.73 3.665 3.978 5.019 6.687 8.576 10.623C-44.544-13.983-34.15-6.927-18.032-8.055c5.794-.405 16.49.522 18.798-5.094C2.049-7.679 1.556-5.799 0 0" style="fill:#f6881f;fill-opacity:1;fill-rule:nonzero;stroke:none" transform="matrix(1.65313 0 0 -1.65313 213.685 234.544)"/><path d="M0 0c-2.941 13.969-8.312 21.175-17.445 32.134-7.909 9.499-13.084 18.066-25.408 18.926-1.843.13-2.898.204-4.741.331-8.377.586-14.809.931-20.933-4.885-3.966-3.749-3.751-7.467-6.166-12.488 2.659.187 3.963 1.418 6.497 2.086 7.391 1.972 11.886 1.924 19.471 1.394 10.062-.704 15.146-6.725 21.317-14.618C-21.723 15.6-17.06 11.146-16.18 1.765c.475 6.797-5.948 9.578-12.028 12.701-10.268 5.321-17.242 6.288-28.724 7.089-13.59.953-22.503-9.172-27.16-22.028l-.074-1.053c11.271 9.801 21.17 12.072 35.71 11.056 7.743-.543 13.424 1.489 17.959-4.809-3.356 1.187-7.765.967-11.347 1.218-8.428.589-15.808-2.761-23.694-5.756-5.166-1.966-6.814-6.615-10.292-10.925-1.678-2.054-2.295-3.289-1.844-5.943.625-3.661-.544-9.626-.574-10.047l5.665 8.26c2.571 5.52 5.076 8.7 10.014 11.952 10.1 6.655 17.214 9.692 29.277 8.849 5.425-.381 8.839-3.054 11.75-7.596-10.769-.308-17.377-.216-27.02-4.889-8.656-4.158-14.869-9.758-15.543-19.397l-.302-4.32c-.075-1.055.36-1.666.445-2.73 3.665 3.978 5.019 6.687 8.576 10.623C-44.544-13.983-34.15-6.927-18.032-8.055c5.794-.405 16.49.522 18.798-5.094C2.049-7.679 1.556-5.799 0 0Z" style="fill:none;stroke:#231f20;stroke-width:.99800003;stroke-linecap:round;stroke-linejoin:miter;stroke-miterlimit:3.86400008;stroke-dasharray:none;stroke-opacity:1" transform="matrix(1.65313 0 0 -1.65313 213.685 234.544)"/><path d="M0 0c1.744 1.272 3.691 2.4 3.691 5.224v6.639c-.719 0-1.232.565-1.947.565-2.973 0-3.692-5.082-6.666-5.082-1.843 0-1.927 5.793-2.336 8.192l-3.321 1.523-1.936-4.191c.206-1.835 2.262-3.831 2.673-5.524-.82-.567-1.434-1.697-2.459-1.697-2.255 0-5.343 9.405-7.408 10.65-4.428 2.67-4.439-3.922-5.258-5.335 1.025-1.412 7.436-5.881 8.564-7.009-.717-.284-.818-1.697-1.641-1.697-.716 0-3.382.85-4.101.85-2.356 0-2.457-1.836-2.457-5.086 0-1.976 7.266-3.987 8.293-5.399C-14.784 2.297 0 0 0 0" style="fill:#ed1c24;fill-opacity:1;fill-rule:nonzero;stroke:none" transform="matrix(1.65313 0 0 -1.65313 302.788 191.383)"/><path d="M0 0c1.744 1.272 3.691 2.4 3.691 5.224v6.639c-.719 0-1.232.565-1.947.565-2.973 0-3.692-5.082-6.666-5.082-1.843 0-1.927 5.793-2.336 8.192l-3.321 1.523-1.936-4.191c.206-1.835 2.262-3.831 2.673-5.524-.82-.567-1.434-1.697-2.459-1.697-2.255 0-5.343 9.405-7.408 10.65-4.428 2.67-4.439-3.922-5.258-5.335 1.025-1.412 7.436-5.881 8.564-7.009-.717-.284-.818-1.697-1.641-1.697-.716 0-3.382.85-4.101.85-2.356 0-2.457-1.836-2.457-5.086 0-1.976 7.266-3.987 8.293-5.399C-14.784 2.297 0 0 0 0Z" style="fill:none;stroke:#231f20;stroke-width:.99800003;stroke-linecap:butt;stroke-linejoin:miter;stroke-miterlimit:3.86400008;stroke-dasharray:none;stroke-opacity:1" transform="matrix(1.65313 0 0 -1.65313 302.788 191.383)"/><path d="M0 0c-3.174.778-6.94.499-10.723.499-19.476 0-31.376-9.357-43.405-24.694-3.947-5.029-5.346-8.402-9.421-13.494-.189 1.277-.764 1.974-.764 3.247v5.218c0 11.648 7.002 18.903 17.058 24.629 11.202 6.431 19.157 6.875 32.077 8.149-3.883 5.218-8.211 8.145-14.765 8.145-14.576 0-22.276-7.19-33.859-16.038-5.664-4.328-9.038-6.682-14.512-11.201l-4.328-4.581c0 .509 1.282 12.241 2.291 15.273 2.292 6.875 25.205 20.366 35.387 20.366 4.328 0 13.684-.89 17.82-2.036-5.982 7.192-12.283 5.6-21.639 5.6-17.565 0-29.276-3.564-42.005-16.292v1.273c4.519 15.847 14.384 28.766 30.803 28.766 13.876 0 22.34-.571 35.133-6.109 7.575-3.246 12.473-7.638 15.53-14.257-1.275 10.183-7.829 16.167-15.276 24.439-8.083 8.974-14.701 15.785-26.857 15.785-9.166 0-14.573-.318-23.293-3.307-2.993-1.021-4.457-2.613-7.638-3.057 2.482 6.237 1.909 10.691 6.365 15.53 6.872 7.509 14.635 7.636 24.756 7.636h5.729c14.892 0 21.83-9.864 32.14-20.622 8.825-9.2 14.991-16.093 19.508-25.789 5.186-8.832 12.371-9.736 21.599-9.736 9.809 0 18.77.66 23.39 9.43 4.718 9.055-7.727 30.423 15.848 27.165 5.793-.801 8.959-7.451 8.959-13.299 0-6.319-4.622-9.62-6.13-15.75-2.077-8.303-.095-14.526-2.453-22.638-3.679-12.923-9.433-29.051-38.86-29.051-9.432 0-21.882 7.83-25.276 16.602C1.207-9.012 3.189-4.768.17-.24z" style="fill:#00c0f3;fill-opacity:1;fill-rule:nonzero;stroke:none" transform="matrix(1.65313 0 0 -1.65313 189.39 271.736)"/><path d="M0 0c-3.174.778-6.94.499-10.723.499-19.476 0-31.376-9.357-43.405-24.694-3.947-5.029-5.346-8.402-9.421-13.494-.189 1.277-.764 1.974-.764 3.247v5.218c0 11.648 7.002 18.903 17.058 24.629 11.202 6.431 19.157 6.875 32.077 8.149-3.883 5.218-8.211 8.145-14.765 8.145-14.576 0-22.276-7.19-33.859-16.038-5.664-4.328-9.038-6.682-14.512-11.201l-4.328-4.581c0 .509 1.282 12.241 2.291 15.273 2.292 6.875 25.205 20.366 35.387 20.366 4.328 0 13.684-.89 17.82-2.036-5.982 7.192-12.283 5.6-21.639 5.6-17.565 0-29.276-3.564-42.005-16.292v1.273c4.519 15.847 14.384 28.766 30.803 28.766 13.876 0 22.34-.571 35.133-6.109 7.575-3.246 12.473-7.638 15.53-14.257-1.275 10.183-7.829 16.167-15.276 24.439-8.083 8.974-14.701 15.785-26.857 15.785-9.166 0-14.573-.318-23.293-3.307-2.993-1.021-4.457-2.613-7.638-3.057 2.482 6.237 1.909 10.691 6.365 15.53 6.872 7.509 14.635 7.636 24.756 7.636h5.729c14.892 0 21.83-9.864 32.14-20.622 8.825-9.2 14.991-16.093 19.508-25.789 5.186-8.832 12.371-9.736 21.599-9.736 9.809 0 18.77.66 23.39 9.43 4.718 9.055-7.727 30.423 15.848 27.165 5.793-.801 8.959-7.451 8.959-13.299 0-6.319-4.622-9.62-6.13-15.75-2.077-8.303-.095-14.526-2.453-22.638-3.679-12.923-9.433-29.051-38.86-29.051-9.432 0-21.882 7.83-25.276 16.602C1.207-9.012 3.189-4.768.17-.24z" style="fill:none;stroke:#231f20;stroke-width:.99800003;stroke-linecap:round;stroke-linejoin:miter;stroke-miterlimit:3.86400008;stroke-dasharray:none;stroke-opacity:1" transform="matrix(1.65313 0 0 -1.65313 189.39 271.736)"/><path d="M0 0c-5.368 10.138-11.114 14.517-20.6 20.962-8.217 5.587-14.11 11.062-23.826 8.997-1.452-.31-2.282-.487-3.735-.795-6.603-1.405-11.65-2.565-15.093-8.416-2.236-3.772-1.245-6.6-1.999-11.013 2.015.731 2.75 1.972 4.56 3.051 5.273 3.161 8.757 4.12 14.737 5.39 7.929 1.683 13.19-1.839 19.709-6.572 6.005-4.365 10.595-6.773 13.353-13.825-1.139 5.354-6.716 6.079-12.108 7.147-9.112 1.837-14.713 1.037-23.766-.887-10.71-2.276-15.355-12.073-16.106-23.037l.178-.83C-58.157-9.76-51.013-5.811-39.553-3.375c6.103 1.298 10.042 4.127 14.945.263-2.858.174-6.218-.974-9.041-1.574-6.643-1.411-11.603-5.636-17.033-9.694-3.555-2.668-3.798-6.623-5.531-10.723-.843-1.958-1.045-3.05-.107-5.002 1.293-2.689 1.712-7.56 1.782-7.89l2.546 7.637c.764 4.838 1.995 7.848 5.092 11.455 6.33 7.379 11.152 11.302 20.659 13.322 4.278.91 7.507-.399 10.763-3.265-8.252-2.621-13.381-4.014-19.795-9.763-5.767-5.13-9.326-10.836-7.712-18.431.281-1.331.441-2.077.724-3.406.175-.83.646-1.206.948-2.011 1.951 3.885 2.396 6.28 4.274 10.107 5.72 11.674 12.185 19.427 24.891 22.13 4.567.968 12.626 4.053 15.653.226C3.284-5.481 2.487-4.137 0 0" style="fill:#ace1fa;fill-opacity:1;fill-rule:nonzero;stroke:none" transform="matrix(1.65313 0 0 -1.65313 175.812 229.686)"/><path d="M0 0c-5.368 10.138-11.114 14.517-20.6 20.962-8.217 5.587-14.11 11.062-23.826 8.997-1.452-.31-2.282-.487-3.735-.795-6.603-1.405-11.65-2.565-15.093-8.416-2.236-3.772-1.245-6.6-1.999-11.013 2.015.731 2.75 1.972 4.56 3.051 5.273 3.161 8.757 4.12 14.737 5.39 7.929 1.683 13.19-1.839 19.709-6.572 6.005-4.365 10.595-6.773 13.353-13.825-1.139 5.354-6.716 6.079-12.108 7.147-9.112 1.837-14.713 1.037-23.766-.887-10.71-2.276-15.355-12.073-16.106-23.037l.178-.83C-58.157-9.76-51.013-5.811-39.553-3.375c6.103 1.298 10.042 4.127 14.945.263-2.858.174-6.218-.974-9.041-1.574-6.643-1.411-11.603-5.636-17.033-9.694-3.555-2.668-3.798-6.623-5.531-10.723-.843-1.958-1.045-3.05-.107-5.002 1.293-2.689 1.712-7.56 1.782-7.89l2.546 7.637c.764 4.838 1.995 7.848 5.092 11.455 6.33 7.379 11.152 11.302 20.659 13.322 4.278.91 7.507-.399 10.763-3.265-8.252-2.621-13.381-4.014-19.795-9.763-5.767-5.13-9.326-10.836-7.712-18.431.281-1.331.441-2.077.724-3.406.175-.83.646-1.206.948-2.011 1.951 3.885 2.396 6.28 4.274 10.107 5.72 11.674 12.185 19.427 24.891 22.13 4.567.968 12.626 4.053 15.653.226C3.284-5.481 2.487-4.137 0 0Z" style="fill:none;stroke:#231f20;stroke-width:.99800003;stroke-linecap:round;stroke-linejoin:miter;stroke-miterlimit:3.86400008;stroke-dasharray:none;stroke-opacity:1" transform="matrix(1.65313 0 0 -1.65313 175.812 229.686)"/><path d="M0 0c-.187-2.157.92-4.61 3.587-4.76 2.625-.148 5.033 1.407 5.215 3.527.327 3.766-2.547 5.765-5.429 8.684-.417.427.07 1.319-.61 1.359-1.494.083-.343-1.856-.627-3.052C1.528 3.441.203 2.34 0 0" style="fill:#ed1c24;fill-opacity:1;fill-rule:nonzero;stroke:none" transform="matrix(1.65313 0 0 -1.65313 308.364 231.465)"/><path d="M0 0c-.187-2.157.92-4.61 3.587-4.76 2.625-.148 5.033 1.407 5.215 3.527.327 3.766-2.547 5.765-5.429 8.684-.417.427.07 1.319-.61 1.359-1.494.083-.343-1.856-.627-3.052C1.528 3.441.203 2.34 0 0Z" style="fill:none;stroke:#231f20;stroke-width:.99800003;stroke-linecap:butt;stroke-linejoin:miter;stroke-miterlimit:3.86400008;stroke-dasharray:none;stroke-opacity:1" transform="matrix(1.65313 0 0 -1.65313 308.364 231.465)"/><path d="M0 0c.121-2.71-.592-5.789-2.307-5.978-1.688-.185-3.235 1.765-3.352 4.429-.21 4.731 1.637 7.245 3.49 10.912.267.535-.045 1.656.394 1.703.958.105.218-2.329.403-3.833C-.98 4.324-.133 2.938 0 0" style="fill:#ed1c24;fill-opacity:1;fill-rule:nonzero;stroke:none" transform="matrix(1.65313 0 0 -1.65313 314.52 237.862)"/><path d="M0 0c.121-2.71-.592-5.789-2.307-5.978-1.688-.185-3.235 1.765-3.352 4.429-.21 4.731 1.637 7.245 3.49 10.912.267.535-.045 1.656.394 1.703.958.105.218-2.329.403-3.833C-.98 4.324-.133 2.938 0 0Z" style="fill:none;stroke:#231f20;stroke-width:.99800003;stroke-linecap:butt;stroke-linejoin:miter;stroke-miterlimit:3.86400008;stroke-dasharray:none;stroke-opacity:1" transform="matrix(1.65313 0 0 -1.65313 314.53 236.36)"/><path d="M0 0c1.321-3.502 3.583-22.335 3.336-26.016" style="fill:none;stroke:#231f20;stroke-width:1.49600005;stroke-linecap:round;stroke-linejoin:miter;stroke-miterlimit:3.86400008;stroke-dasharray:none;stroke-opacity:1" transform="matrix(1.65313 0 0 -1.65313 256.045 321.905)"/><path d="M0 0c3.437 1.863 2.57.433 5.732 2.426 3.081 1.943 7.323 4.392 10.786 5.526" style="fill:none;stroke:#231f20;stroke-width:.85600001;stroke-linecap:butt;stroke-linejoin:miter;stroke-miterlimit:3.86400008;stroke-dasharray:none;stroke-opacity:1" transform="matrix(1.65313 0 0 -1.65313 252.299 368.475)"/><path d="M0 0c3.437 1.863 2.57.433 5.732 2.426 3.081 1.943 7.323 4.392 10.786 5.526" style="fill:none;stroke:#231f20;stroke-width:1.49600005;stroke-linecap:round;stroke-linejoin:miter;stroke-miterlimit:3.86400008;stroke-dasharray:none;stroke-opacity:1" transform="matrix(1.65313 0 0 -1.65313 252.299 368.475)"/><path d="M0 0c4.76 1.302 7.393 2.375 12.311 1.748" style="fill:none;stroke:#231f20;stroke-width:.85600001;stroke-linecap:butt;stroke-linejoin:miter;stroke-miterlimit:3.86400008;stroke-dasharray:none;stroke-opacity:1" transform="matrix(1.65313 0 0 -1.65313 261.454 365.698)"/><path d="M0 0c4.76 1.302 7.393 2.375 12.311 1.748" style="fill:none;stroke:#231f20;stroke-width:1.49600005;stroke-linecap:round;stroke-linejoin:miter;stroke-miterlimit:3.86400008;stroke-dasharray:none;stroke-opacity:1" transform="matrix(1.65313 0 0 -1.65313 261.454 365.698)"/><path d="M0 0c3.8-.505 6.306-.546 9.041-3.229" style="fill:none;stroke:#231f20;stroke-width:.85600001;stroke-linecap:butt;stroke-linejoin:miter;stroke-miterlimit:3.86400008;stroke-dasharray:none;stroke-opacity:1" transform="matrix(1.65313 0 0 -1.65313 263.022 365.908)"/><path d="M0 0c3.8-.505 6.306-.546 9.041-3.229" style="fill:none;stroke:#231f20;stroke-width:1.49600005;stroke-linecap:round;stroke-linejoin:miter;stroke-miterlimit:3.86400008;stroke-dasharray:none;stroke-opacity:1" transform="matrix(1.65313 0 0 -1.65313 263.022 365.908)"/><path d="M0 0c0-3.657-1.04-26.912-2.593-30.284" style="fill:none;stroke:#231f20;stroke-width:1.49600005;stroke-linecap:round;stroke-linejoin:miter;stroke-miterlimit:3.86400008;stroke-dasharray:none;stroke-opacity:1" transform="matrix(1.65313 0 0 -1.65313 230.79 316.94)"/><path d="M0 0c3.855.643 2.57-.429 6.211.428 3.544.834 8.352 1.766 11.994 1.713" style="fill:none;stroke:#231f20;stroke-width:.85600001;stroke-linecap:butt;stroke-linejoin:miter;stroke-miterlimit:3.86400008;stroke-dasharray:none;stroke-opacity:1" transform="matrix(1.65313 0 0 -1.65313 216.59 367.357)"/><path d="M0 0c3.855.643 2.57-.429 6.211.428 3.544.834 8.352 1.766 11.994 1.713" style="fill:none;stroke:#231f20;stroke-width:1.49600005;stroke-linecap:round;stroke-linejoin:miter;stroke-miterlimit:3.86400008;stroke-dasharray:none;stroke-opacity:1" transform="matrix(1.65313 0 0 -1.65313 216.59 367.357)"/><path d="M0 0c4.925-.322 7.764-.162 12.21-2.356" style="fill:none;stroke:#231f20;stroke-width:.85600001;stroke-linecap:butt;stroke-linejoin:miter;stroke-miterlimit:3.86400008;stroke-dasharray:none;stroke-opacity:1" transform="matrix(1.65313 0 0 -1.65313 226.152 367.711)"/><path d="M0 0c4.925-.322 7.764-.162 12.21-2.356" style="fill:none;stroke:#231f20;stroke-width:1.49600005;stroke-linecap:round;stroke-linejoin:miter;stroke-miterlimit:3.86400008;stroke-dasharray:none;stroke-opacity:1" transform="matrix(1.65313 0 0 -1.65313 226.152 367.711)"/><path d="M0 0c3.427-1.713 5.784-2.57 7.496-5.998" style="fill:none;stroke:#231f20;stroke-width:.85600001;stroke-linecap:butt;stroke-linejoin:miter;stroke-miterlimit:3.86400008;stroke-dasharray:none;stroke-opacity:1" transform="matrix(1.65313 0 0 -1.65313 227.568 368.417)"/><path d="M0 0c3.427-1.713 5.784-2.57 7.496-5.998" style="fill:none;stroke:#231f20;stroke-width:1.49600005;stroke-linecap:round;stroke-linejoin:miter;stroke-miterlimit:3.86400008;stroke-dasharray:none;stroke-opacity:1" transform="matrix(1.65313 0 0 -1.65313 227.568 368.417)"/><path d="M0 0a3.82 3.82 0 1 0 7.64-.001A3.82 3.82 0 0 0 0 0" style="fill:#fff;fill-opacity:1;fill-rule:nonzero;stroke:none" transform="matrix(1.65313 0 0 -1.65313 286.37 205.083)"/><path d="M0 0a3.82 3.82 0 1 0 7.64-.001A3.82 3.82 0 0 0 0 0Z" style="fill:none;stroke:#231f20;stroke-width:.99800003;stroke-linecap:butt;stroke-linejoin:miter;stroke-miterlimit:3.86400008;stroke-dasharray:none;stroke-opacity:1" transform="matrix(1.65313 0 0 -1.65313 286.37 205.083)"/><path d="M0 0a2.17 2.17 0 1 0 4.34.002A2.17 2.17 0 0 0 0 0" style="fill:#231f20;fill-opacity:1;fill-rule:nonzero;stroke:none" transform="matrix(1.65313 0 0 -1.65313 291.127 203.344)"/><path d="M0 0a2.17 2.17 0 1 0 4.34.002A2.17 2.17 0 0 0 0 0Z" style="fill:none;stroke:#231f20;stroke-width:.377;stroke-linecap:butt;stroke-linejoin:miter;stroke-miterlimit:3.86400008;stroke-dasharray:none;stroke-opacity:1" transform="matrix(1.65313 0 0 -1.65313 291.127 203.344)"/><path d="M0 0c-2.691-3.285-3.022-7.377-6.43-9.534 2.556-2.796 7.1-3.502 9.522-6.444-.403-.047-.629-.195-1.032-.195-5.336 0-12.42 1.619-15.109 6.668 0 0 6.817 4.737 13.049 9.505" style="fill:#ed1c24;fill-opacity:1;fill-rule:nonzero;stroke:none" transform="matrix(1.65313 0 0 -1.65313 327.105 189.267)"/><path d="M0 0c-2.691-3.285-3.022-7.377-6.43-9.534 2.556-2.796 7.1-3.502 9.522-6.444-.403-.047-.629-.195-1.032-.195-5.336 0-12.42 1.619-15.109 6.668 0 0 6.817 4.737 13.049 9.505z" style="fill:none;stroke:#231f20;stroke-width:.99800003;stroke-linecap:butt;stroke-linejoin:miter;stroke-miterlimit:3.86400008;stroke-dasharray:none;stroke-opacity:1" transform="matrix(1.65313 0 0 -1.65313 327.105 189.267)"/><path d="M0 0c-6.677 12.617-13.826 18.063-25.626 26.081-10.222 6.951-17.555 13.761-29.64 11.191l-4.65-.988c-8.212-1.746-14.491-3.188-18.773-10.468-2.781-4.696-1.549-8.213-2.488-13.702 2.506.91 3.42 2.455 5.672 3.796 6.561 3.932 10.894 5.123 18.333 6.703 9.865 2.098 16.412-2.286 24.518-8.174 7.471-5.431 13.183-8.428 16.614-17.2-1.415 6.662-8.355 7.564-15.064 8.891-11.336 2.288-18.304 1.292-29.564-1.101C-73.994 2.196-79.77-9.992-80.705-23.632l.22-1.033c8.135 12.526 17.024 17.44 31.281 20.468 7.591 1.615 12.494 5.135 18.588.331-3.554.217-7.732-1.214-11.244-1.96-8.262-1.758-14.436-7.009-21.188-12.061-4.426-3.317-4.729-8.239-6.884-13.34-1.047-2.436-1.301-3.794-.134-6.22 1.611-3.345 2.129-9.406 2.219-9.817l3.167 9.5c.949 6.019 2.484 9.764 6.333 14.253 7.875 9.176 13.875 14.059 25.703 16.572 5.32 1.134 9.339-.497 13.389-4.062-10.266-3.262-16.645-4.997-24.626-12.146-7.174-6.383-11.605-13.478-9.596-22.932l.902-4.234c.22-1.033.804-1.504 1.179-2.504 2.429 4.836 2.984 7.814 5.318 12.576 7.115 14.522 15.161 24.169 30.965 27.529 5.683 1.206 15.709 5.045 19.474.284C4.086-6.818 3.094-5.142 0 0" style="fill:#00639e;fill-opacity:1;fill-rule:nonzero;stroke:none" transform="matrix(1.65313 0 0 -1.65313 219.375 249.897)"/><path d="M0 0c-6.677 12.617-13.826 18.063-25.626 26.081-10.222 6.951-17.555 13.761-29.64 11.191l-4.65-.988c-8.212-1.746-14.491-3.188-18.773-10.468-2.781-4.696-1.549-8.213-2.488-13.702 2.506.91 3.42 2.455 5.672 3.796 6.561 3.932 10.894 5.123 18.333 6.703 9.865 2.099 16.412-2.286 24.518-8.174 7.471-5.431 13.183-8.428 16.614-17.2-1.415 6.662-8.355 7.564-15.064 8.891-11.336 2.288-18.304 1.292-29.564-1.101C-73.994 2.196-79.77-9.992-80.705-23.632l.22-1.033c8.135 12.526 17.024 17.44 31.281 20.468 7.591 1.615 12.494 5.135 18.588.331-3.554.217-7.732-1.214-11.244-1.96-8.262-1.758-14.436-7.009-21.188-12.061-4.426-3.317-4.729-8.239-6.884-13.34-1.047-2.436-1.301-3.794-.134-6.22 1.611-3.345 2.129-9.406 2.219-9.817l3.167 9.5c.949 6.019 2.484 9.764 6.333 14.253 7.875 9.176 13.875 14.059 25.703 16.573 5.32 1.133 9.339-.498 13.389-4.063-10.266-3.262-16.645-4.997-24.626-12.145-7.174-6.384-11.605-13.479-9.596-22.933l.902-4.234c.22-1.033.804-1.504 1.179-2.504 2.429 4.836 2.984 7.814 5.318 12.576 7.115 14.522 15.161 24.169 30.965 27.529 5.683 1.206 15.709 5.045 19.474.284C4.086-6.818 3.094-5.142 0 0Z" style="fill:none;stroke:#231f20;stroke-width:.99800003;stroke-linecap:round;stroke-linejoin:miter;stroke-miterlimit:3.86400008;stroke-dasharray:none;stroke-opacity:1" transform="matrix(1.65313 0 0 -1.65313 219.375 249.897)"/><path d="m0 0-10.091-.725c2.519-1.699 24.367-4.187 27.518-4.711-4.566-3.794-20.736-2.28-26.244-5.025 2.045-2.354 13.34-2.134 16.962-2.658-2.834-1.569-13.341-3.751-15.703-5.712 3.779-1.831 13.855-.485 18.262-1.009l-9.445-5.791c2.991-1.177 4.88-1.571 8.187-1.571 18.895 0 32.75 14.123 32.75 29.819 0 2.746-.472 6.276-3.779 6.276-5.826 0-7.4-4.709-12.596-6.8C16.688-1.699 10.076-.914 0 0" style="fill:#fcaf16;fill-opacity:1;fill-rule:nonzero;stroke:none" transform="matrix(1.65313 0 0 -1.65313 197.394 264.244)"/><path d="m0 0-10.091-.725c2.519-1.699 24.367-4.187 27.518-4.711-4.566-3.794-20.736-2.28-26.244-5.025 2.045-2.354 13.34-2.134 16.962-2.658-2.834-1.569-13.341-3.751-15.703-5.712 3.779-1.831 13.855-.485 18.262-1.009l-9.445-5.791c2.991-1.177 4.88-1.571 8.187-1.571 18.895 0 32.75 14.123 32.75 29.819 0 2.746-.472 6.276-3.779 6.276-5.826 0-7.4-4.709-12.596-6.8C16.688-1.699 10.076-.914 0 0Z" style="fill:none;stroke:#fcaf16;stroke-width:.99800003;stroke-linecap:butt;stroke-linejoin:miter;stroke-miterlimit:10;stroke-dasharray:none;stroke-opacity:1" transform="matrix(1.65313 0 0 -1.65313 197.394 264.244)"/><path d="m0 0-10.091-.725c2.519-1.699 24.367-4.187 27.518-4.711-4.566-3.794-20.736-2.28-26.244-5.025 2.045-2.354 13.34-2.134 16.962-2.658-2.834-1.569-13.341-3.751-15.703-5.712 3.779-1.831 13.855-.485 18.262-1.009l-9.445-5.791c2.991-1.177 4.88-1.571 8.187-1.571 18.895 0 32.75 14.123 32.75 29.819 0 2.746-.472 6.276-3.779 6.276-5.826 0-7.4-4.709-12.596-6.8C16.688-1.699 10.076-.914 0 0Z" style="fill:none;stroke:#231f20;stroke-width:.99800003;stroke-linecap:butt;stroke-linejoin:miter;stroke-miterlimit:3.86400008;stroke-dasharray:none;stroke-opacity:1" transform="matrix(1.65313 0 0 -1.65313 197.394 264.244)"/><path d="M0 0c-8.261.245-24.651 6.676-27.33 15.475-2.095 6.878-.55 14.765 5.132 15.967 4.981 1.054 10.347-2.195 12.884-6.574.776 4.937 1.762 8.736 6.713 10.283 7.1 1.583 12.523-2.086 13.697-9.463.472-7.558-2.383-10.37-6.537-16.231C2.407 6.41.686 3.665 0 0" style="fill:#ed1c24;fill-opacity:1;fill-rule:nonzero;stroke:none" transform="matrix(1.65313 0 0 -1.65313 347.93 93.854)"/><path d="M0 0c-8.261.245-24.651 6.676-27.33 15.475-2.095 6.878-.55 14.765 5.132 15.967 4.981 1.054 10.347-2.195 12.884-6.574.776 4.937 1.762 8.736 6.713 10.283 7.1 1.583 12.523-2.086 13.697-9.463.472-7.558-2.383-10.37-6.537-16.231C2.407 6.41.686 3.665 0 0Z" style="fill:none;stroke:#faa619;stroke-width:1.99399996;stroke-linecap:butt;stroke-linejoin:miter;stroke-miterlimit:10;stroke-dasharray:none;stroke-opacity:1" transform="matrix(1.65313 0 0 -1.65313 347.93 93.854)"/></svg>