<svg xmlns="http://www.w3.org/2000/svg" xml:space="preserve" width="400" height="400"><defs><clipPath id="a" clipPathUnits="userSpaceOnUse"><path d="M0 0h1133.858v4535.433H0Z"/></clipPath></defs><path d="M415.984 2878.979h241.965v242.866H415.984Z" style="fill:#b2d34a;fill-opacity:1;fill-rule:nonzero;stroke:none;stroke-width:1.00186038" transform="matrix(1.65313 0 0 -1.647 -687.676 5141.672)"/><g clip-path="url(#a)" transform="matrix(1.6769 0 0 -1.67068 -700.284 5209.876)"><path d="M0 0s-65.197-99.836-61.228-108.596H76.535L24.378.273Z" style="fill:#ec008c;fill-opacity:1;fill-rule:nonzero;stroke:none" transform="translate(522.709 2988.566)"/><path d="M0 0s-65.197-99.836-61.228-108.596H76.535L24.378.273Z" style="fill:none;stroke:#231f20;stroke-width:2;stroke-linecap:butt;stroke-linejoin:miter;stroke-miterlimit:4;stroke-dasharray:none;stroke-opacity:1" transform="translate(522.709 2988.566)"/></g><path d="M0 0a7.823 7.823 0 0 0 7.824 7.823c4.32 0 7.827-3.502 7.827-7.823a7.828 7.828 0 0 0-7.827-7.825A7.824 7.824 0 0 0 0 0" style="fill:#fdb912;fill-opacity:1;fill-rule:nonzero;stroke:none" transform="matrix(1.65313 0 0 -1.647 197.502 257.976)"/><path d="M0 0c.447 2.908.893 4.472 1.786 7.155C.222 8.049-.668 9.838-2.68 9.838c-4.912 0-7.817-4.246-8.931-8.944v8.05l-3.573 2.683c-2.012-2.458-2.901-6.261-6.252-6.261-5.138 0-6.253 6.039-8.039 10.733l4.466-.894 1.786-3.578c-6.252 2.236-10.05 4.472-14.291 9.838 1.34-2.458 2.68-4.246 2.68-7.155 0-2.458-1.34-4.025-1.787-6.261m26.796-18.782c-6.252-.669-10.493-3.13-14.291-8.049-.447 1.567-2.68 1.789-2.68 3.577 0 6.261 7.818 6.708 11.612 11.627 2.458 3.356 2.011 8.944 6.252 8.944C-2.68 5.366 0 1.567 5.359-1.789c2.68 4.472 5.359 7.381 5.359 12.522 0 3.577-1.786 7.155-5.359 7.155-4.912 0-7.145-3.578-10.718-7.155l-1.787 7.155c2.458.447 3.573.894 6.031.894 3.573 0 5.581-1.789 9.154-1.789 2.679 0 4.019 2.462 6.252 3.578l2.679 3.577c-4.019-2.905-7.145-6.035-7.145-11.179 0-2.684 0-6.708 2.68-6.708 4.691 0 6.923 2.683 11.611 2.683 2.68 0 2.011 4.472 4.466 5.366v18.782l-.893-3.577c3.572-7.155 8.932-10.286 16.97-11.627v6.26l-.893-4.471M30.368-.895c5.138 2.015 8.039 5.145 10.718 9.839l-3.572-4.472c4.019-3.13 5.584-8.05 10.718-8.05 3.798 0 6.252 3.578 6.252 7.381v9.613l-2.679-7.155a92.373 92.373 0 0 1 2.679 7.155c4.245-1.342 6.699-2.458 10.719-4.472M17.417-1.342l12.058 6.708c5.138 14.089 12.505 21.691 12.505 36.67M12.505-1.342c4.019 6.934 10.05 19.23 11.611 27.279-1.561.447-4.466 0-4.466 1.789 0 1.567 1.786 2.014 1.786 3.577 0 6.261-4.912 11.627-11.164 11.627-4.691 0-5.806-6.035-5.806-10.732 0-1.789 1.34-2.905 1.786-4.472l1.787 3.577c-3.127.448-4.691.895-7.817.895-4.463 0-8.039-1.342-10.047-5.366m-1.786-38.459.893 4.472-4.466-.895-.893-3.577 1.786-3.578 3.573-.894c0 8.497.221 16.324-7.146 20.571-2.454-2.462-3.794-3.803-5.359-7.155L-27.689 0l-1.786-4.472.893 4.472c-1.786.894-3.126 2.683-5.359 2.683-9.379 0-14.513-2.905-23.223-7.155l3.573-3.578 3.573 2.684m84.852 3.577c0 8.271 5.806 12.074 11.612 17.888l4.465-2.683c.894 2.683 1.34 4.25 1.787 7.155 2.011-1.342 2.905-3.578 5.359-3.578 5.584 0 6.699 6.039 8.039 11.627l-.893-3.577c1.339 0 2.007-.895 3.347-.895 3.576 0 4.691 3.8 5.584 7.155M66.989-14.31c7.817-3.352 12.504-6.036 18.757-11.627h4.466c1.113 2.908 1.339 4.919 1.786 8.049-6.252-2.458-9.825-7.155-9.825-13.863 0-13.637 17.64-13.416 31.262-15.652l1.786 3.578v4.472l-4.466 1.789-1.786-3.578 5.359 1.789c-5.359-3.13-11.612-5.366-11.612-11.627 0-4.472 5.806-4.472 10.272-4.472 4.243 0 7.145 1.789 9.378 5.366l-3.572-2.683M73.241-26.832c-.893-3.799-1.786-6.035-1.786-9.838 0-7.155 8.932-8.944 16.077-8.944 2.68 0 4.019 2.462 6.252 3.578-3.572 4.697-8.26 7.155-14.512 7.155h-8.71c-.222-2.683 1.118-4.472 2.679-6.261-3.794-2.01-6.027-4.246-8.038-8.049l8.038-1.789c-4.687-3.578-8.707-5.588-11.611-10.733 4.019-2.01 7.145-2.683 9.825-6.26l1.786 4.472m-.893 42.93h9.825c-.893-2.461-1.786-4.025-1.786-6.708 0-5.592 5.137-9.391 10.718-9.391 6.252 0 4.912 9.166 6.252 15.205l3.573-2.683v-3.578 9.838c3.126-1.12 6.252-2.908 6.252-6.26 0-1.568-2.009-1.342-3.573-1.342-5.135 0-8.265-.226-13.397.447m-8.932-7.155c0-14.31 8.932-25.937 23.223-28.62.223 3.13.893 4.697.893 7.827 0 8.944-7.146 16.321-16.078 16.321-4.687 0-7.145-5.141-7.145-9.838 0-8.271 9.825-8.271 16.971-12.522-6.029 0-11.165-1.563-13.398-7.155l3.572-1.788m-134.87 35.775c-2.233-4.025-5.36-6.035-9.826-7.155.447 3.13.894 5.366 2.233 8.049v-10.732h-6.473c-4.913 0-5.36 5.813-6.478 10.732l3.573 2.683c-.447-7.602-1.565-16.993-9.153-16.993-1.565 0-2.68.226-4.245 0l-2.679 8.05.893 3.577h5.359v-12.521c-2.68-2.011-4.687-2.905-8.039-3.578l2.68 3.578m21.436-24.149c-7.367 1.342-16.077 2.462-16.077 9.839 0 5.813 6.699 6.707 10.718 10.732l4.466-.894-2.679-3.578c-.447 1.564-1.787 2.683-1.787 4.472 0 6.039 6.031 8.944 11.612 10.733l.893-3.578-3.573-.894c3.126 2.236 5.806 3.577 9.825 3.577 2.233 0 1.561-2.014 3.573-2.683-9.379-3.355-19.65-6.26-19.65-16.099 0-11.179 13.844-13.415 25.009-13.415 2.679 0 4.019 2.461 6.252 3.577v4.472c-4.466.669-7.145.447-11.611 0-.447 4.919-.672 7.602 0 12.521l-4.466 2.684c-1.786-3.578-3.794-4.92-7.146-7.155 2.233-2.458 3.798-4.025 6.253-6.261 1.565 4.024 3.572 6.486 7.145 8.944" style="fill:none;stroke:#231f20;stroke-width:1.69500005;stroke-linecap:round;stroke-linejoin:miter;stroke-miterlimit:3.86400008;stroke-dasharray:none;stroke-opacity:1" transform="matrix(1.65313 0 0 -1.647 166.367 115.602)"/><path d="M0 0c-14.484 3.51-36.727-13.204-36.727-28.111 0-21.724 12.55-39.184 34.274-39.184 17.037 0 30.452 20.294 30.452 37.333C27.999-7.391 16.214-3.925 0 0" style="fill:#b95647;fill-opacity:1;fill-rule:nonzero;stroke:none" transform="matrix(1.65313 0 0 -1.647 201.646 111.969)"/><path d="M0 0c-14.573 3.537-36.951-13.302-36.951-28.321 0-21.887 12.626-39.478 34.483-39.478 17.141 0 30.638 20.445 30.638 37.612C28.17-7.447 16.313-3.955 0 0Z" style="fill:none;stroke:#231f20;stroke-width:1.69500005;stroke-linecap:butt;stroke-linejoin:miter;stroke-miterlimit:3.86400008;stroke-dasharray:none;stroke-opacity:1" transform="matrix(1.65313 0 0 -1.647 201.543 110.47)"/><path d="M0 0a7.07 7.07 0 0 0 7.078 7.073A7.078 7.078 0 0 0 14.151 0a7.079 7.079 0 0 0-7.073-7.075A7.07 7.07 0 0 0 0 0" style="fill:#fff;fill-opacity:1;fill-rule:nonzero;stroke:none" transform="matrix(1.65313 0 0 -1.647 158.609 154.196)"/><path d="M0 0a7.38 7.38 0 0 0 7.389 7.384A7.389 7.389 0 0 0 14.773 0a7.39 7.39 0 0 0-7.384-7.386A7.381 7.381 0 0 0 0 0Z" style="fill:none;stroke:#231f20;stroke-width:1;stroke-linecap:round;stroke-linejoin:miter;stroke-miterlimit:3.86400008;stroke-dasharray:none;stroke-opacity:1" transform="matrix(1.65313 0 0 -1.647 158.094 154.196)"/><path d="M0 0c0 3.531 3.081 6.387 6.877 6.387 3.792 0 6.876-2.856 6.876-6.387 0-3.524-3.084-6.387-6.876-6.387C3.081-6.387 0-3.524 0 0" style="fill:#fff;fill-opacity:1;fill-rule:nonzero;stroke:none" transform="matrix(1.65313 0 0 -1.647 199.859 155.495)"/><path d="M0 0c0 3.703 3.22 6.698 7.188 6.698 3.965 0 7.188-2.995 7.188-6.698 0-3.696-3.223-6.698-7.188-6.698C3.22-6.698 0-3.696 0 0Z" style="fill:none;stroke:#231f20;stroke-width:1;stroke-linecap:round;stroke-linejoin:miter;stroke-miterlimit:3.86400008;stroke-dasharray:none;stroke-opacity:1" transform="matrix(1.65313 0 0 -1.647 199.344 155.495)"/><path d="M0 0c5.572-4.841 3.453-9.688 10.62-9.688 5.848 0 9.456 2.551 13.712 6.786" style="fill:none;stroke:#231f20;stroke-width:1.69500005;stroke-linecap:round;stroke-linejoin:miter;stroke-miterlimit:3.86400008;stroke-dasharray:none;stroke-opacity:1" transform="matrix(1.65313 0 0 -1.647 175.772 183.284)"/><path d="M0 0a3.863 3.863 0 0 0 3.855 3.863A3.863 3.863 0 0 0 7.714 0a3.855 3.855 0 0 0-3.859-3.856A3.855 3.855 0 0 0 0 0" style="fill:#231f20;fill-opacity:1;fill-rule:nonzero;stroke:none" transform="matrix(1.65313 0 0 -1.647 169.488 153.182)"/><path d="M0 0a4.112 4.112 0 0 0 4.104 4.113A4.113 4.113 0 0 0 8.213 0a4.104 4.104 0 0 0-4.109-4.105A4.103 4.103 0 0 0 0 0Z" style="fill:none;stroke:#231f20;stroke-width:.463;stroke-linecap:round;stroke-linejoin:miter;stroke-miterlimit:3.86400008;stroke-dasharray:none;stroke-opacity:1" transform="matrix(1.65313 0 0 -1.647 169.076 153.182)"/><path d="M0 0a3.852 3.852 0 0 0 3.854 3.861A3.856 3.856 0 0 0 7.714 0a3.856 3.856 0 0 0-3.86-3.856A3.852 3.852 0 0 0 0 0" style="fill:#231f20;fill-opacity:1;fill-rule:nonzero;stroke:none" transform="matrix(1.65313 0 0 -1.647 210.215 155.733)"/><path d="M0 0a4.1 4.1 0 0 0 4.103 4.111A4.106 4.106 0 0 0 8.213 0a4.106 4.106 0 0 0-4.11-4.105A4.1 4.1 0 0 0 0 0Z" style="fill:none;stroke:#231f20;stroke-width:.463;stroke-linecap:round;stroke-linejoin:miter;stroke-miterlimit:3.86400008;stroke-dasharray:none;stroke-opacity:1" transform="matrix(1.65313 0 0 -1.647 209.803 155.733)"/><path d="M0 0c0 6.93 7.307 9.236 13.851 10.771C16.542 3.849 20.003 0 20.003-7.69c0-5.769-6.152-13.85-10.764-10.769C2.694-14.228 0-8.074 0 0" style="fill:#ec008c;fill-opacity:1;fill-rule:nonzero;stroke:none" transform="matrix(1.65313 0 0 -1.647 250.894 137.693)"/><path d="M0 0c0 7.333 7.89 9.772 14.957 11.396C17.862 4.073 21.599 0 21.599-8.136c0-6.105-6.642-14.655-11.623-11.395C2.909-15.054 0-8.542 0 0Z" style="fill:none;stroke:#231f20;stroke-width:1.48099995;stroke-linecap:butt;stroke-linejoin:miter;stroke-miterlimit:3.86400008;stroke-dasharray:none;stroke-opacity:1" transform="matrix(1.65313 0 0 -1.647 249.574 137.178)"/><path d="M0 0c-5.006 1.924-13.076 12.309-18.462 12.309-5.392 0-9.24-5.386-9.24-10.77 0-12.308 10.778-21.537 23.086-21.537 5.385 0 7.69 6.922 7.69 12.31C3.074-3.848 1.535-3.457 0 0" style="fill:#ec008c;fill-opacity:1;fill-rule:nonzero;stroke:none" transform="matrix(1.65313 0 0 -1.647 138.981 155.427)"/><path d="M0 0c-5.266 2.019-13.754 12.917-19.42 12.917-5.671 0-9.718-5.652-9.718-11.302 0-12.916 11.337-22.601 24.283-22.601 5.663 0 8.088 7.264 8.088 12.918C3.233-4.038 1.615-3.628 0 0z" style="fill:none;stroke:#231f20;stroke-width:1.48099995;stroke-linecap:butt;stroke-linejoin:miter;stroke-miterlimit:3.86400008;stroke-dasharray:none;stroke-opacity:1" transform="matrix(1.65313 0 0 -1.647 140.037 155.114)"/><path d="M0 0c-1.021-.742-1.586-1.365-2.268-2.479l.453-2.974h5.444c.229 1.983.34 2.974.454 4.957L1.815 0 .454-1.983v-5.949h3.515c2.493 0 3.971 1.983 5.104 4.462l.453 1.983C7.823-2.603 6.805-4.09 6.805-6.323c0-2.229 6.351-6.816 6.351-9.045l-.454 7.932 3.175 2.478c-.453 2.355 4.195 1.984 2.269 2.975m14.062-.496h-5.443c-.114-2.107-.342-3.348-.454-5.453 1.361-.496 2.155-.742 3.629-.991l-.907-2.975v-3.966c1.022-.124 1.701-.496 2.722-.496 2.497 0 1.814 3.966 2.722 6.445 1.926-1.487 7.144-2.479 9.526-2.974m-45.818.991c-1.249-4.09-2.153-8.924-6.122-8.924-3.858 0-6.014 1.364-9.301 3.471" style="fill:none;stroke:#231f20;stroke-width:1.69500005;stroke-linecap:round;stroke-linejoin:miter;stroke-miterlimit:3.86400008;stroke-dasharray:none;stroke-opacity:1" transform="matrix(1.65313 0 0 -1.647 162.997 110.018)"/><path d="M0 0a7.823 7.823 0 0 0 7.824 7.823c4.32 0 7.827-3.502 7.827-7.823a7.828 7.828 0 0 0-7.827-7.825A7.824 7.824 0 0 0 0 0" style="fill:#fdb912;fill-opacity:1;fill-rule:nonzero;stroke:none" transform="matrix(1.65313 0 0 -1.647 129.939 313.162)"/><path d="M0 0a7.823 7.823 0 0 0 7.824 7.823c4.32 0 7.827-3.502 7.827-7.823a7.828 7.828 0 0 0-7.827-7.825A7.824 7.824 0 0 0 0 0" style="fill:#fdb912;fill-opacity:1;fill-rule:nonzero;stroke:none" transform="matrix(1.65313 0 0 -1.647 155.811 343.412)"/><path d="M0 0a7.823 7.823 0 0 0 7.824 7.823c4.32 0 7.827-3.502 7.827-7.823a7.828 7.828 0 0 0-7.827-7.825A7.824 7.824 0 0 0 0 0" style="fill:#fdb912;fill-opacity:1;fill-rule:nonzero;stroke:none" transform="matrix(1.65313 0 0 -1.647 233.032 364.23)"/><path d="M0 0a7.823 7.823 0 0 0 7.824 7.823c4.32 0 7.827-3.502 7.827-7.823a7.828 7.828 0 0 0-7.827-7.825A7.824 7.824 0 0 0 0 0" style="fill:#fdb912;fill-opacity:1;fill-rule:nonzero;stroke:none" transform="matrix(1.65313 0 0 -1.647 199.86 301.395)"/><path d="M0 0a7.823 7.823 0 0 0 7.824 7.823c4.32 0 7.827-3.502 7.827-7.823a7.828 7.828 0 0 0-7.827-7.825A7.824 7.824 0 0 0 0 0" style="fill:#fdb912;fill-opacity:1;fill-rule:nonzero;stroke:none" transform="matrix(1.65313 0 0 -1.647 99.579 377.117)"/></svg>