<?xml version="1.0" encoding="UTF-8" standalone="no"?>
<!-- Created with Inkscape (http://www.inkscape.org/) -->

<svg
   width="400"
   height="142"
   viewBox="0 0 105.83333 37.570834"
   version="1.1"
   id="svg5"
   inkscape:export-filename="/home/heinrich/Development/klasse-wir-singen/assets/logo-reimersoftware.png"
   inkscape:export-xdpi="96"
   inkscape:export-ydpi="96"
   inkscape:version="1.1.1 (1:1.1+202109281949+c3084ef5ed)"
   sodipodi:docname="logo-reimersoftware.svg"
   xmlns:inkscape="http://www.inkscape.org/namespaces/inkscape"
   xmlns:sodipodi="http://sodipodi.sourceforge.net/DTD/sodipodi-0.dtd"
   xmlns:xlink="http://www.w3.org/1999/xlink"
   xmlns="http://www.w3.org/2000/svg"
   xmlns:svg="http://www.w3.org/2000/svg"
   xmlns:figma="http://www.figma.com/figma/ns">
  <sodipodi:namedview
     id="namedview7"
     pagecolor="#ffffff"
     bordercolor="#666666"
     borderopacity="1.0"
     inkscape:pageshadow="2"
     inkscape:pageopacity="0.0"
     inkscape:pagecheckerboard="0"
     inkscape:document-units="mm"
     showgrid="false"
     units="px"
     inkscape:zoom="1.2218217"
     inkscape:cx="211.56933"
     inkscape:cy="45.423976"
     inkscape:window-width="1848"
     inkscape:window-height="1016"
     inkscape:window-x="72"
     inkscape:window-y="27"
     inkscape:window-maximized="1"
     inkscape:current-layer="layer1" />
  <defs
     id="defs2">
    <clipPath
       clipPathUnits="userSpaceOnUse"
       id="clipPath854">
      <path
         d="m 106.084,1328.708 c 0,0 -9.706,0 -9.706,-9.706 v 0 -80.478 c 0,-0.076 0.038,-9.705 9.706,-9.705 v 0 h 262.04 c 0,0 9.706,0 9.706,9.705 v 0 80.478 c 0,0 0,9.706 -9.706,9.706 v 0 z"
         id="path852" />
    </clipPath>
    <clipPath
       clipPathUnits="userSpaceOnUse"
       id="clipPath868">
      <path
         d="M 0,0 H 1133.858 V 1814.173 H 0 Z"
         id="path866" />
    </clipPath>
    <clipPath
       clipPathUnits="userSpaceOnUse"
       id="clipPath896">
      <path
         d="M 96.378,980.078 H 377.83 v 99.889 H 96.378 Z"
         id="path894" />
    </clipPath>
    <clipPath
       clipPathUnits="userSpaceOnUse"
       id="clipPath910">
      <path
         d="M 0,0 H 1133.858 V 1814.173 H 0 Z"
         id="path908" />
    </clipPath>
    <path
       id="path0_fill"
       d="M 6 12C 9.31371 12 12 9.31371 12 6C 12 2.68629 9.31371 0 6 0C 2.68629 0 0 2.68629 0 6C 0 9.31371 2.68629 12 6 12Z" />
    <path
       id="path1_fill"
       d="M 24 50L 24 18C 24 13.2261 22.1036 8.64773 18.7279 5.27208C 15.3523 1.89642 10.7739 1.42109e-14 6 7.10543e-15L 0 7.10543e-15L 0 12L 6 12C 7.5913 12 9.11743 12.6321 10.2426 13.7574C 11.3679 14.8826 12 16.4087 12 18L 12 50C 12 58.42 12 79.58 21.75 90C 12 100.42 12 121.58 12 130L 12 162C 12 163.591 11.3679 165.117 10.2426 166.243C 9.11743 167.368 7.5913 168 6 168L 0 168L 0 180L 6 180C 10.7739 180 15.3523 178.104 18.7279 174.728C 22.1036 171.352 24 166.774 24 162L 24 130C 24 107.44 28 96 36 96L 36 84C 28 84 24 72.56 24 50Z" />
    <path
       id="path2_fill"
       d="M 12 50L 12 18C 12 13.2261 13.8964 8.64773 17.2721 5.27208C 20.6477 1.89642 25.2261 2.13163e-14 30 7.10543e-15L 36 7.10543e-15L 36 12L 30 12C 28.4087 12 26.8826 12.6321 25.7574 13.7574C 24.6321 14.8826 24 16.4087 24 18L 24 50C 24 58.42 24 79.58 14.25 90C 24 100.42 24 121.58 24 130L 24 162C 24 163.591 24.6321 165.117 25.7574 166.243C 26.8826 167.368 28.4087 168 30 168L 36 168L 36 180L 30 180C 25.2261 180 20.6477 178.104 17.2721 174.728C 13.8964 171.352 12 166.774 12 162L 12 130C 12 107.44 8 96 0 96L 0 84C 8 84 12 72.56 12 50Z" />
    <path
       id="path3_fill"
       d="M 0.00335138 3.22L 0.00335138 9.22C -0.0129507 9.4602 0.0303965 9.70069 0.129534 9.92008C 0.228671 10.1395 0.380524 10.3309 0.571566 10.4774C 0.762608 10.6239 0.98691 10.7209 1.2245 10.7597C 1.4621 10.7986 1.70561 10.7781 1.93335 10.7L 10.0734 8.52001C 10.6153 8.34965 11.0914 8.01621 11.4369 7.5652C 11.7823 7.1142 11.9801 6.5676 12.0034 6L 12.0034 3.05176e-06L 0.00335138 3.22Z" />
    <path
       id="path4_fill"
       d="M 0.00335138 9.65001L 0.00335138 17.65C -0.0129507 17.8902 0.0303965 18.1307 0.129534 18.3501C 0.228671 18.5695 0.380524 18.7609 0.571566 18.9074C 0.762608 19.0539 0.98691 19.1509 1.2245 19.1897C 1.4621 19.2286 1.70561 19.2081 1.93335 19.13L 34.0734 10.52C 34.6153 10.3496 35.0914 10.0162 35.4369 9.56521C 35.7823 9.11421 35.9801 8.5676 36.0034 8L 36.0034 -3.66211e-06L 0.00335138 9.65001Z" />
    <path
       id="path5_fill"
       d="M 0.00335138 16.04L 0.00335138 26.04C -0.0129507 26.2802 0.0303965 26.5207 0.129534 26.7401C 0.228671 26.9595 0.380524 27.1509 0.571566 27.2974C 0.762608 27.4439 0.98691 27.5409 1.2245 27.5798C 1.4621 27.6186 1.70561 27.598 1.93335 27.52L 58.0734 12.52C 58.6153 12.3496 59.0914 12.0162 59.4369 11.5652C 59.7823 11.1142 59.9801 10.5676 60.0034 10L 60.0034 6.71387e-06L 0.00335138 16.04Z" />
    <path
       id="path6_fill"
       d="M 84 42.0039C 84.0006 35.1149 82.3067 28.3315 79.0675 22.2516C 75.8283 16.1717 71.1433 10.9819 65.4254 7.13955C 59.7075 3.29724 53.1322 0.920423 46.2791 0.218559C 39.4259 -0.483305 32.5054 0.511343 26.1273 3.11484C 19.7492 5.71833 14.1095 9.85073 9.70509 15.1479C 5.30071 20.445 2.26693 26.7441 0.871134 33.4902C -0.524667 40.2363 -0.239632 47.2222 1.70111 53.8321C 3.64186 60.4421 7.17872 66.4732 12 71.3939L 12 87.5239L 24 84.3039L 24 65.9839C 18.9628 62.206 15.242 56.939 13.3646 50.9289C 11.4872 44.9188 11.5484 38.4704 13.5395 32.4971C 15.5306 26.5237 19.3507 21.3282 24.4587 17.6466C 29.5667 13.965 35.7035 11.9839 42 11.9839C 48.2965 11.9839 54.4333 13.965 59.5413 17.6466C 64.6493 21.3282 68.4694 26.5237 70.4605 32.4971C 72.4516 38.4704 72.5128 44.9188 70.6354 50.9289C 68.758 56.939 65.0372 62.206 60 65.9839L 60 74.6139L 72 71.4039C 79.7061 63.5603 84.0166 52.9996 84 42.0039Z" />
  </defs>
  <g
     inkscape:label="Layer 1"
     inkscape:groupmode="layer"
     id="layer1">
    <rect
       style="fill:#212121;stroke-width:0.149083;fill-opacity:1"
       id="rect2292"
       width="105.83334"
       height="37.570835"
       x="1.7763568e-15"
       y="0" />
    <g
       id="Canvas"
       transform="matrix(0.12347222,0,0,0.12347222,-52.899027,-23.195138)"
       figma:type="canvas">
      <mask
         id="mask0_alpha"
         mask-type="alpha">
        <path
           d="M 464,232 H 680 V 448 H 464 Z"
           fill="#ffffff"
           id="path2102" />
      </mask>
      <g
         id="Logo Red Dark Background"
         mask="url(#mask0_alpha)"
         figma:type="frame">
        <g
           id="Dots"
           figma:type="frame">
          <g
             id="Vector"
             figma:type="vector">
            <use
               xlink:href="#path0_fill"
               transform="translate(542,418)"
               fill="#ffffff"
               id="use2105"
               x="0"
               y="0"
               width="100%"
               height="100%" />
          </g>
          <g
             id="g2110"
             figma:type="vector">
            <use
               xlink:href="#path0_fill"
               transform="translate(590,418)"
               fill="#ffffff"
               id="use2108"
               x="0"
               y="0"
               width="100%"
               height="100%" />
          </g>
          <g
             id="g2114"
             figma:type="vector">
            <use
               xlink:href="#path0_fill"
               transform="translate(566,418)"
               fill="#ffffff"
               id="use2112"
               x="0"
               y="0"
               width="100%"
               height="100%" />
          </g>
        </g>
        <g
           id="Braces"
           figma:type="frame">
          <g
             id="g2119"
             figma:type="vector">
            <use
               xlink:href="#path1_fill"
               transform="translate(626,250)"
               fill="#ffffff"
               id="use2117"
               x="0"
               y="0"
               width="100%"
               height="100%" />
          </g>
          <g
             id="g2123"
             figma:type="vector">
            <use
               xlink:href="#path2_fill"
               transform="translate(482,250)"
               fill="#ffffff"
               id="use2121"
               x="0"
               y="0"
               width="100%"
               height="100%" />
          </g>
        </g>
        <g
           id="Bulb"
           figma:type="frame">
          <g
             id="g2128"
             figma:type="vector">
            <use
               xlink:href="#path3_fill"
               transform="translate(565.997,390.3)"
               fill="#9d1a41"
               id="use2126"
               x="0"
               y="0"
               width="100%"
               height="100%" />
          </g>
          <g
             id="g2132"
             figma:type="vector">
            <use
               xlink:href="#path4_fill"
               transform="translate(553.997,373.09)"
               fill="#bc0e46"
               id="use2130"
               x="0"
               y="0"
               width="100%"
               height="100%" />
          </g>
          <g
             id="g2136"
             figma:type="vector">
            <use
               xlink:href="#path5_fill"
               transform="translate(541.997,353.96)"
               fill="#dd1155"
               id="use2134"
               x="0"
               y="0"
               width="100%"
               height="100%" />
          </g>
          <g
             id="g2140"
             figma:type="vector">
            <use
               xlink:href="#path6_fill"
               transform="translate(530,278.476)"
               fill="#dd1155"
               id="use2138"
               x="0"
               y="0"
               width="100%"
               height="100%" />
          </g>
        </g>
      </g>
    </g>
    <text
       xml:space="preserve"
       style="font-style:normal;font-weight:normal;font-size:10.5833px;line-height:0.7;font-family:sans-serif;fill:#000000;fill-opacity:1;stroke:none;stroke-width:0.264583"
       x="34.469917"
       y="17.236736"
       id="text4792"><tspan
         sodipodi:role="line"
         id="tspan4790"
         style="font-style:normal;font-variant:normal;font-weight:bold;font-stretch:normal;font-size:7.05556px;font-family:'Space Mono';-inkscape-font-specification:'Space Mono Bold';fill:#ffffff;fill-opacity:0.9;stroke-width:0.264583"
         x="34.469917"
         y="17.236736">Reimer Software</tspan><tspan
         sodipodi:role="line"
         style="font-style:normal;font-variant:normal;font-weight:normal;font-stretch:normal;font-size:4.48028px;font-family:'Space Mono';-inkscape-font-specification:'Space Mono';fill:#ffffff;fill-opacity:0.9;stroke-width:0.264583"
         x="34.469917"
         y="24.645046"
         id="tspan34160">Open source development.</tspan></text>
  </g>
</svg>
