<?xml version="1.0" encoding="UTF-8" standalone="no"?>
<!-- Created with Inkscape (http://www.inkscape.org/) -->

<svg
   width="100"
   height="100"
   viewBox="0 0 26.458333 26.458333"
   version="1.1"
   id="svg5"
   inkscape:version="1.1.1 (1:1.1+202109281949+c3084ef5ed)"
   sodipodi:docname="smiley-happy.svg"
   inkscape:export-filename="/home/heinrich/Development/klasse-wir-singen/assets/smiley-happy.png"
   inkscape:export-xdpi="96"
   inkscape:export-ydpi="96"
   xmlns:inkscape="http://www.inkscape.org/namespaces/inkscape"
   xmlns:sodipodi="http://sodipodi.sourceforge.net/DTD/sodipodi-0.dtd"
   xmlns="http://www.w3.org/2000/svg"
   xmlns:svg="http://www.w3.org/2000/svg">
  <sodipodi:namedview
     id="namedview7"
     pagecolor="#ffffff"
     bordercolor="#666666"
     borderopacity="1.0"
     inkscape:pageshadow="2"
     inkscape:pageopacity="0.0"
     inkscape:pagecheckerboard="0"
     inkscape:document-units="mm"
     showgrid="false"
     inkscape:zoom="0.75187991"
     inkscape:cx="274.64492"
     inkscape:cy="486.77986"
     inkscape:window-width="1920"
     inkscape:window-height="1043"
     inkscape:window-x="1920"
     inkscape:window-y="0"
     inkscape:window-maximized="1"
     inkscape:current-layer="layer1"
     units="px" />
  <defs
     id="defs2">
    <clipPath
       clipPathUnits="userSpaceOnUse"
       id="clipPath870">
      <path
         d="M 0,0 H 1133.858 V 1814.173 H 0 Z"
         id="path868" />
    </clipPath>
  </defs>
  <g
     inkscape:label="Layer 1"
     inkscape:groupmode="layer"
     id="layer1">
    <g
       id="g25289"
       transform="matrix(0.27293515,0,0,-0.27293233,-74.291392,276.85483)">
      <g
         id="g872"
         transform="translate(320.6643,917.4307)">
        <path
           d="m 0,0 c -26.769,0 -48.47,21.701 -48.47,48.47 0,26.77 21.701,48.471 48.47,48.471 26.769,0 48.47,-21.701 48.47,-48.471 C 48.47,21.701 26.769,0 0,0"
           style="fill:#99d420;fill-opacity:1;fill-rule:nonzero;stroke:none"
           id="path874" />
      </g>
      <g
         id="g876"
         transform="translate(320.5337,926.4922)">
        <path
           d="m 0,0 c -21.65,0 -39.201,17.551 -39.201,39.201 0,21.65 17.551,39.2 39.201,39.2 21.65,0 39.201,-17.55 39.201,-39.2 C 39.201,17.551 21.65,0 0,0 Z"
           style="fill:none;stroke:#231f20;stroke-width:1.949;stroke-linecap:butt;stroke-linejoin:miter;stroke-miterlimit:4;stroke-dasharray:none;stroke-opacity:1"
           id="path878" />
      </g>
      <g
         id="g880"
         transform="translate(339.0929,966.4863)">
        <path
           d="m 0,0 c -5.416,0 -9.807,4.391 -9.807,9.807 0,5.417 4.391,9.808 9.807,9.808 5.417,0 9.807,-4.391 9.807,-9.808 C 9.807,4.391 5.417,0 0,0"
           style="fill:#ffffff;fill-opacity:1;fill-rule:nonzero;stroke:none"
           id="path882" />
      </g>
      <g
         id="g884"
         transform="translate(339.0929,966.4863)">
        <path
           d="m 0,0 c -5.416,0 -9.807,4.391 -9.807,9.807 0,5.417 4.391,9.808 9.807,9.808 5.417,0 9.807,-4.391 9.807,-9.808 C 9.807,4.391 5.417,0 0,0 Z"
           style="fill:none;stroke:#231f20;stroke-width:1.929;stroke-linecap:butt;stroke-linejoin:miter;stroke-miterlimit:4;stroke-dasharray:none;stroke-opacity:1"
           id="path886" />
      </g>
      <g
         id="g888"
         transform="translate(305.0858,964.2188)">
        <path
           d="m 0,0 c -5.416,0 -9.807,4.391 -9.807,9.808 0,5.416 4.391,9.807 9.807,9.807 5.416,0 9.807,-4.391 9.807,-9.807 C 9.807,4.391 5.416,0 0,0"
           style="fill:#ffffff;fill-opacity:1;fill-rule:nonzero;stroke:none"
           id="path890" />
      </g>
      <g
         id="g892"
         transform="translate(305.0858,964.2188)">
        <path
           d="m 0,0 c -5.416,0 -9.807,4.391 -9.807,9.808 0,5.416 4.391,9.807 9.807,9.807 5.416,0 9.807,-4.391 9.807,-9.807 C 9.807,4.391 5.416,0 0,0 Z"
           style="fill:none;stroke:#231f20;stroke-width:1.929;stroke-linecap:butt;stroke-linejoin:miter;stroke-miterlimit:4;stroke-dasharray:none;stroke-opacity:1"
           id="path894" />
      </g>
      <g
         id="g896"
         transform="translate(336.5958,967.4707)">
        <path
           d="m 0,0 c -3.521,0 -6.375,2.854 -6.375,6.375 0,3.521 2.854,6.375 6.375,6.375 3.521,0 6.375,-2.854 6.375,-6.375 C 6.375,2.854 3.521,0 0,0"
           style="fill:#231f20;fill-opacity:1;fill-rule:nonzero;stroke:none"
           id="path898" />
      </g>
      <g
         id="g900"
         transform="translate(302.9626,964.4941)">
        <path
           d="m 0,0 c -3.521,0 -6.375,2.854 -6.375,6.375 0,3.521 2.854,6.375 6.375,6.375 3.521,0 6.375,-2.854 6.375,-6.375 C 6.375,2.854 3.521,0 0,0"
           style="fill:#231f20;fill-opacity:1;fill-rule:nonzero;stroke:none"
           id="path902" />
      </g>
      <g
         id="g904"
         transform="translate(337.6006,953.6763)">
        <path
           d="m 0,0 c -14.915,-10.752 -28.063,-1.895 -31.759,-0.545 0.146,-10.377 19.468,-20.223 29.494,-4.606 C 1.6,-0.636 2.433,1.753 0,0"
           style="fill:#ffffff;fill-opacity:1;fill-rule:nonzero;stroke:none"
           id="path906" />
      </g>
      <g
         id="g908"
         transform="translate(337.6006,953.6763)">
        <path
           d="m 0,0 c -14.915,-10.752 -28.063,-1.895 -31.759,-0.545 0.146,-10.377 19.468,-20.223 29.494,-4.606 C 1.6,-0.636 2.433,1.753 0,0 Z"
           style="fill:none;stroke:#231f20;stroke-width:1.929;stroke-linecap:butt;stroke-linejoin:miter;stroke-miterlimit:4;stroke-dasharray:none;stroke-opacity:1"
           id="path910" />
      </g>
    </g>
  </g>
</svg>
