<?xml version="1.0" encoding="UTF-8" standalone="no"?>
<!-- Created with Inkscape (http://www.inkscape.org/) -->

<svg
   width="100"
   height="100"
   viewBox="0 0 26.458333 26.458333"
   version="1.1"
   id="svg5"
   inkscape:version="1.1.1 (1:1.1+202109281949+c3084ef5ed)"
   sodipodi:docname="smiley-sad.svg"
   inkscape:export-filename="/home/heinrich/Development/klasse-wir-singen/assets/smiley-sad.png"
   inkscape:export-xdpi="96"
   inkscape:export-ydpi="96"
   xmlns:inkscape="http://www.inkscape.org/namespaces/inkscape"
   xmlns:sodipodi="http://sodipodi.sourceforge.net/DTD/sodipodi-0.dtd"
   xmlns="http://www.w3.org/2000/svg"
   xmlns:svg="http://www.w3.org/2000/svg">
  <sodipodi:namedview
     id="namedview7"
     pagecolor="#ffffff"
     bordercolor="#666666"
     borderopacity="1.0"
     inkscape:pageshadow="2"
     inkscape:pageopacity="0.0"
     inkscape:pagecheckerboard="0"
     inkscape:document-units="mm"
     showgrid="false"
     inkscape:zoom="0.75187991"
     inkscape:cx="274.64492"
     inkscape:cy="61.179983"
     inkscape:window-width="1920"
     inkscape:window-height="1043"
     inkscape:window-x="1920"
     inkscape:window-y="0"
     inkscape:window-maximized="1"
     inkscape:current-layer="layer1"
     units="px" />
  <defs
     id="defs2">
    <clipPath
       clipPathUnits="userSpaceOnUse"
       id="clipPath870">
      <path
         d="M 0,0 H 1133.858 V 1814.173 H 0 Z"
         id="path868" />
    </clipPath>
  </defs>
  <g
     inkscape:label="Layer 1"
     inkscape:groupmode="layer"
     id="layer1">
    <g
       id="g866"
       clip-path="url(#clipPath870)"
       transform="matrix(0.27293515,0,0,-0.27293233,-109.63235,278.17563)">
      <g
         id="g912"
         transform="translate(450.1491,922.27)">
        <path
           d="m 0,0 c -26.769,0 -48.47,21.701 -48.47,48.47 0,26.77 21.701,48.471 48.47,48.471 26.769,0 48.47,-21.701 48.47,-48.471 C 48.47,21.701 26.769,0 0,0"
           style="fill:#f1471d;fill-opacity:1;fill-rule:nonzero;stroke:none"
           id="path914" />
      </g>
      <g
         id="g916"
         transform="translate(450.0185,931.3315)">
        <path
           d="m 0,0 c -21.65,0 -39.201,17.551 -39.201,39.201 0,21.65 17.551,39.2 39.201,39.2 21.65,0 39.201,-17.55 39.201,-39.2 C 39.201,17.551 21.65,0 0,0 Z"
           style="fill:none;stroke:#231f20;stroke-width:1.949;stroke-linecap:butt;stroke-linejoin:miter;stroke-miterlimit:4;stroke-dasharray:none;stroke-opacity:1"
           id="path918" />
      </g>
      <g
         id="g920"
         transform="translate(468.5778,971.3257)">
        <path
           d="m 0,0 c -5.416,0 -9.807,4.391 -9.807,9.807 0,5.417 4.391,9.808 9.807,9.808 5.417,0 9.807,-4.391 9.807,-9.808 C 9.807,4.391 5.417,0 0,0"
           style="fill:#ffffff;fill-opacity:1;fill-rule:nonzero;stroke:none"
           id="path922" />
      </g>
      <g
         id="g924"
         transform="translate(468.5778,971.3257)">
        <path
           d="m 0,0 c -5.416,0 -9.807,4.391 -9.807,9.807 0,5.417 4.391,9.808 9.807,9.808 5.417,0 9.807,-4.391 9.807,-9.808 C 9.807,4.391 5.417,0 0,0 Z"
           style="fill:none;stroke:#231f20;stroke-width:1.929;stroke-linecap:butt;stroke-linejoin:miter;stroke-miterlimit:4;stroke-dasharray:none;stroke-opacity:1"
           id="path926" />
      </g>
      <g
         id="g928"
         transform="translate(434.5706,969.0581)">
        <path
           d="m 0,0 c -5.416,0 -9.807,4.391 -9.807,9.808 0,5.416 4.391,9.807 9.807,9.807 5.416,0 9.807,-4.391 9.807,-9.807 C 9.807,4.391 5.416,0 0,0"
           style="fill:#ffffff;fill-opacity:1;fill-rule:nonzero;stroke:none"
           id="path930" />
      </g>
      <g
         id="g932"
         transform="translate(434.5706,969.0581)">
        <path
           d="m 0,0 c -5.416,0 -9.807,4.391 -9.807,9.808 0,5.416 4.391,9.807 9.807,9.807 5.416,0 9.807,-4.391 9.807,-9.807 C 9.807,4.391 5.416,0 0,0 Z"
           style="fill:none;stroke:#231f20;stroke-width:1.929;stroke-linecap:butt;stroke-linejoin:miter;stroke-miterlimit:4;stroke-dasharray:none;stroke-opacity:1"
           id="path934" />
      </g>
      <g
         id="g936"
         transform="translate(465.7061,971.6375)">
        <path
           d="m 0,0 c -3.521,0 -6.375,2.854 -6.375,6.375 0,3.521 2.854,6.375 6.375,6.375 3.521,0 6.375,-2.854 6.375,-6.375 C 6.375,2.854 3.521,0 0,0"
           style="fill:#231f20;fill-opacity:1;fill-rule:nonzero;stroke:none"
           id="path938" />
      </g>
      <g
         id="g940"
         transform="translate(436.2399,969.4053)">
        <path
           d="m 0,0 c -3.521,0 -6.375,2.854 -6.375,6.375 0,3.521 2.854,6.375 6.375,6.375 3.521,0 6.375,-2.854 6.375,-6.375 C 6.375,2.854 3.521,0 0,0"
           style="fill:#231f20;fill-opacity:1;fill-rule:nonzero;stroke:none"
           id="path942" />
      </g>
      <g
         id="g944"
         transform="translate(435.6736,947.822)">
        <path
           d="M 0,0 C 18.794,15.582 28.075,1.413 31.76,0.2 31.694,9.281 12.448,18.064 2.304,4.488 -1.595,0.571 -2.214,-1.835 0,0"
           style="fill:#ffffff;fill-opacity:1;fill-rule:nonzero;stroke:none"
           id="path946" />
      </g>
      <g
         id="g948"
         transform="translate(435.6736,947.822)">
        <path
           d="M 0,0 C 18.794,15.582 28.075,1.413 31.76,0.2 31.694,9.281 12.448,18.064 2.304,4.488 -1.595,0.571 -2.214,-1.835 0,0 Z"
           style="fill:none;stroke:#231f20;stroke-width:1.929;stroke-linecap:butt;stroke-linejoin:miter;stroke-miterlimit:4;stroke-dasharray:none;stroke-opacity:1"
           id="path950" />
      </g>
    </g>
  </g>
</svg>
